<svg width="870" height="568" viewBox="0 0 870 568" fill="none" xmlns="http://www.w3.org/2000/svg">
<rect width="870" height="568" fill="white"/>
<rect x="332" y="215" width="205" height="138" fill="white" stroke="#68C6A4" stroke-width="2"/>
<rect x="399" y="246" width="122" height="11" fill="white" stroke="#0A2535" stroke-width="2"/>
<rect x="398" y="245" width="39" height="13" fill="#0A2535"/>
<rect x="399" y="264" width="122" height="11" fill="white" stroke="#0A2535" stroke-width="2"/>
<rect x="398" y="263" width="39" height="13" fill="#0A2535"/>
<rect x="399" y="282" width="122" height="11" fill="white" stroke="#0A2535" stroke-width="2"/>
<rect x="398" y="281" width="39" height="13" fill="#0A2535"/>
<rect x="399" y="300" width="122" height="11" fill="white" stroke="#0A2535" stroke-width="2"/>
<rect x="398" y="299" width="39" height="13" fill="#0A2535"/>
<rect x="399" y="318" width="122" height="11" fill="white" stroke="#0A2535" stroke-width="2"/>
<rect x="398" y="317" width="39" height="13" fill="#0A2535"/>
<rect x="345" y="245" width="25" height="3" fill="#68C6A4"/>
<rect x="345" y="251" width="25" height="3" fill="#68C6A4"/>
<rect x="345" y="257" width="25" height="3" fill="#68C6A4"/>
<rect x="345" y="263" width="25" height="3" fill="#68C6A4"/>
<rect x="345" y="269" width="25" height="3" fill="#68C6A4"/>
<rect x="345" y="275" width="25" height="3" fill="#68C6A4"/>
<rect x="345" y="281" width="25" height="3" fill="#68C6A4"/>
<rect x="331" y="214" width="207" height="12" fill="#68C6A4"/>
<circle cx="339" cy="220" r="2" fill="white"/>
<circle cx="347" cy="220" r="2" fill="white"/>
<circle cx="355" cy="220" r="2" fill="white"/>
</svg>
