<svg width="870" height="568" viewBox="0 0 870 568" fill="none" xmlns="http://www.w3.org/2000/svg">
<rect width="870" height="568" fill="white"/>
<rect x="332" y="141" width="205" height="286" fill="white" stroke="#68C6A4" stroke-width="2"/>
<rect x="399" y="179" width="122" height="11" fill="white" stroke="#0A2535" stroke-width="2"/>
<rect x="398" y="178" width="39" height="13" fill="#0A2535"/>
<rect x="399" y="216" width="122" height="11" fill="white" stroke="#0A2535" stroke-width="2"/>
<rect x="398" y="215" width="39" height="13" fill="#0A2535"/>
<rect x="399" y="234" width="122" height="11" fill="white" stroke="#0A2535" stroke-width="2"/>
<rect x="398" y="233" width="39" height="13" fill="#0A2535"/>
<rect x="345" y="171" width="25" height="3" fill="#68C6A4"/>
<rect x="345" y="177" width="25" height="3" fill="#68C6A4"/>
<rect x="345" y="183" width="25" height="3" fill="#68C6A4"/>
<rect x="345" y="189" width="25" height="3" fill="#68C6A4"/>
<rect x="345" y="195" width="25" height="3" fill="#68C6A4"/>
<rect x="345" y="201" width="25" height="3" fill="#68C6A4"/>
<rect x="345" y="207" width="25" height="3" fill="#68C6A4"/>
<rect x="331" y="140" width="207" height="12" fill="#68C6A4"/>
<circle cx="339" cy="146" r="2" fill="white"/>
<circle cx="347" cy="146" r="2" fill="white"/>
<circle cx="355" cy="146" r="2" fill="white"/>
<rect x="398" y="167" width="39" height="3" fill="#68C6A4"/>
<rect x="398" y="204" width="39" height="3" fill="#68C6A4"/>
<rect x="399" y="271" width="122" height="11" fill="white" stroke="#0A2535" stroke-width="2"/>
<rect x="398" y="270" width="39" height="13" fill="#0A2535"/>
<rect x="399" y="289" width="122" height="11" fill="white" stroke="#0A2535" stroke-width="2"/>
<rect x="398" y="288" width="39" height="13" fill="#0A2535"/>
<rect x="398" y="259" width="39" height="3" fill="#68C6A4"/>
<rect x="399" y="326" width="122" height="11" fill="white" stroke="#0A2535" stroke-width="2"/>
<rect x="398" y="325" width="39" height="13" fill="#0A2535"/>
<rect x="399" y="344" width="122" height="11" fill="white" stroke="#0A2535" stroke-width="2"/>
<rect x="398" y="343" width="39" height="13" fill="#0A2535"/>
<rect x="398" y="314" width="39" height="3" fill="#68C6A4"/>
<rect x="399" y="381" width="122" height="11" fill="white" stroke="#0A2535" stroke-width="2"/>
<rect x="398" y="380" width="39" height="13" fill="#0A2535"/>
<rect x="399" y="399" width="122" height="11" fill="white" stroke="#0A2535" stroke-width="2"/>
<rect x="398" y="398" width="39" height="13" fill="#0A2535"/>
<rect x="398" y="369" width="39" height="3" fill="#68C6A4"/>
</svg>
