<svg width="870" height="568" viewBox="0 0 870 568" fill="none" xmlns="http://www.w3.org/2000/svg">
<rect width="870" height="568" fill="white"/>
<rect x="332" y="111" width="205" height="138" fill="white" stroke="#68C6A4" stroke-width="2"/>
<rect x="345" y="141" width="25" height="3" fill="#68C6A4"/>
<rect x="345" y="147" width="25" height="3" fill="#68C6A4"/>
<rect x="345" y="153" width="25" height="3" fill="#68C6A4"/>
<rect x="345" y="159" width="25" height="3" fill="#68C6A4"/>
<rect x="345" y="165" width="25" height="3" fill="#68C6A4"/>
<rect x="345" y="171" width="25" height="3" fill="#68C6A4"/>
<rect x="345" y="177" width="25" height="3" fill="#68C6A4"/>
<rect x="94" y="317" width="205" height="139" fill="white" stroke="#68C6A4" stroke-width="2"/>
<rect x="93" y="316" width="207" height="12" fill="#68C6A4"/>
<circle cx="101" cy="322" r="2" fill="white"/>
<circle cx="109" cy="322" r="2" fill="white"/>
<circle cx="117" cy="322" r="2" fill="white"/>
<rect x="136" y="355" width="122" height="11" fill="white" stroke="#0A2535" stroke-width="2"/>
<rect x="135" y="354" width="39" height="13" fill="#0A2535"/>
<rect x="332" y="317" width="205" height="139" fill="white" stroke="#68C6A4" stroke-width="2"/>
<rect x="374" y="355" width="122" height="11" fill="white" stroke="#0A2535" stroke-width="2"/>
<rect x="373" y="354" width="39" height="13" fill="#0A2535"/>
<rect x="374" y="373" width="122" height="11" fill="white" stroke="#0A2535" stroke-width="2"/>
<rect x="373" y="372" width="39" height="13" fill="#0A2535"/>
<rect x="570" y="317" width="205" height="139" fill="white" stroke="#68C6A4" stroke-width="2"/>
<rect x="612" y="355" width="122" height="11" fill="white" stroke="#0A2535" stroke-width="2"/>
<rect x="611" y="354" width="39" height="13" fill="#0A2535"/>
<rect x="612" y="373" width="122" height="11" fill="white" stroke="#0A2535" stroke-width="2"/>
<rect x="611" y="372" width="39" height="13" fill="#0A2535"/>
<rect x="135" y="343" width="39" height="3" fill="#68C6A4"/>
<rect x="135" y="343" width="39" height="3" fill="#68C6A4"/>
<rect x="401" y="190" width="124" height="3" fill="#68C6A4"/>
<rect x="401" y="182" width="124" height="3" fill="#68C6A4"/>
<rect x="373" y="343" width="39" height="3" fill="#68C6A4"/>
<rect x="401" y="174" width="39" height="3" fill="#68C6A4"/>
<rect x="401" y="157" width="124" height="3" fill="#68C6A4"/>
<rect x="401" y="223" width="124" height="3" fill="#68C6A4"/>
<rect x="401" y="215" width="124" height="3" fill="#68C6A4"/>
<rect x="401" y="207" width="39" height="3" fill="#68C6A4"/>
<rect x="401" y="149" width="124" height="3" fill="#68C6A4"/>
<rect x="401" y="141" width="39" height="3" fill="#68C6A4"/>
<rect x="611" y="343" width="39" height="3" fill="#68C6A4"/>
<rect x="374" y="410" width="122" height="11" fill="white" stroke="#0A2535" stroke-width="2"/>
<rect x="373" y="409" width="39" height="13" fill="#0A2535"/>
<rect x="374" y="428" width="122" height="11" fill="white" stroke="#0A2535" stroke-width="2"/>
<rect x="373" y="427" width="39" height="13" fill="#0A2535"/>
<rect x="612" y="410" width="122" height="11" fill="white" stroke="#0A2535" stroke-width="2"/>
<rect x="611" y="409" width="39" height="13" fill="#0A2535"/>
<rect x="612" y="428" width="122" height="11" fill="white" stroke="#0A2535" stroke-width="2"/>
<rect x="611" y="427" width="39" height="13" fill="#0A2535"/>
<rect x="373" y="398" width="39" height="3" fill="#68C6A4"/>
<rect x="611" y="398" width="39" height="3" fill="#68C6A4"/>
<line x1="672.5" y1="316" x2="672.5" y2="283" stroke="#0A2535"/>
<line x1="196" y1="282.5" x2="673" y2="282.5" stroke="#0A2535"/>
<line x1="196.5" y1="316" x2="196.5" y2="283" stroke="#0A2535"/>
<line x1="434.5" y1="316" x2="434.5" y2="250" stroke="#0A2535"/>
<rect x="331" y="110" width="207" height="12" fill="#68C6A4"/>
<circle cx="339" cy="116" r="2" fill="white"/>
<circle cx="347" cy="116" r="2" fill="white"/>
<circle cx="355" cy="116" r="2" fill="white"/>
<rect x="331" y="316" width="207" height="12" fill="#68C6A4"/>
<circle cx="339" cy="322" r="2" fill="white"/>
<circle cx="347" cy="322" r="2" fill="white"/>
<circle cx="355" cy="322" r="2" fill="white"/>
<rect x="569" y="316" width="207" height="12" fill="#68C6A4"/>
<circle cx="577" cy="322" r="2" fill="white"/>
<circle cx="585" cy="322" r="2" fill="white"/>
<circle cx="593" cy="322" r="2" fill="white"/>
</svg>
