<svg width="870" height="568" viewBox="0 0 870 568" fill="none" xmlns="http://www.w3.org/2000/svg">
<rect width="870" height="568" fill="white"/>
<rect x="332" y="112" width="205" height="138" fill="white" stroke="#68C6A4" stroke-width="2"/>
<rect x="345" y="142" width="25" height="3" fill="#68C6A4"/>
<rect x="345" y="148" width="25" height="3" fill="#68C6A4"/>
<rect x="345" y="154" width="25" height="3" fill="#68C6A4"/>
<rect x="345" y="160" width="25" height="3" fill="#68C6A4"/>
<rect x="345" y="166" width="25" height="3" fill="#68C6A4"/>
<rect x="345" y="172" width="25" height="3" fill="#68C6A4"/>
<rect x="345" y="178" width="25" height="3" fill="#68C6A4"/>
<rect x="94" y="318" width="205" height="138" fill="white" stroke="#68C6A4" stroke-width="2"/>
<rect x="93" y="317" width="207" height="12" fill="#68C6A4"/>
<circle cx="101" cy="323" r="2" fill="white"/>
<circle cx="109" cy="323" r="2" fill="white"/>
<circle cx="117" cy="323" r="2" fill="white"/>
<rect x="136" y="361" width="122" height="11" fill="white" stroke="#0A2535" stroke-width="2"/>
<rect x="135" y="360" width="39" height="13" fill="#0A2535"/>
<rect x="332" y="318" width="205" height="138" fill="white" stroke="#68C6A4" stroke-width="2"/>
<rect x="374" y="361" width="122" height="11" fill="white" stroke="#0A2535" stroke-width="2"/>
<rect x="373" y="360" width="39" height="13" fill="#0A2535"/>
<rect x="374" y="379" width="122" height="11" fill="white" stroke="#0A2535" stroke-width="2"/>
<rect x="373" y="378" width="39" height="13" fill="#0A2535"/>
<rect x="570" y="318" width="205" height="138" fill="white" stroke="#68C6A4" stroke-width="2"/>
<rect x="612" y="361" width="122" height="11" fill="white" stroke="#0A2535" stroke-width="2"/>
<rect x="611" y="360" width="39" height="13" fill="#0A2535"/>
<rect x="612" y="379" width="122" height="11" fill="white" stroke="#0A2535" stroke-width="2"/>
<rect x="611" y="378" width="39" height="13" fill="#0A2535"/>
<rect x="135" y="349" width="39" height="3" fill="#68C6A4"/>
<rect x="401" y="191" width="124" height="3" fill="#68C6A4"/>
<rect x="401" y="183" width="124" height="3" fill="#68C6A4"/>
<rect x="373" y="349" width="39" height="3" fill="#68C6A4"/>
<rect x="401" y="175" width="39" height="3" fill="#68C6A4"/>
<rect x="401" y="158" width="124" height="3" fill="#68C6A4"/>
<rect x="401" y="224" width="124" height="3" fill="#68C6A4"/>
<rect x="401" y="216" width="124" height="3" fill="#68C6A4"/>
<rect x="401" y="208" width="39" height="3" fill="#68C6A4"/>
<rect x="401" y="150" width="124" height="3" fill="#68C6A4"/>
<rect x="401" y="142" width="39" height="3" fill="#68C6A4"/>
<rect x="611" y="349" width="39" height="3" fill="#68C6A4"/>
<line x1="672.5" y1="317" x2="672.5" y2="284" stroke="#0A2535"/>
<line x1="196" y1="283.5" x2="673" y2="283.5" stroke="#0A2535"/>
<line x1="196.5" y1="317" x2="196.5" y2="284" stroke="#0A2535"/>
<line x1="430.5" y1="317" x2="430.5" y2="251" stroke="#0A2535"/>
<rect x="331" y="111" width="207" height="12" fill="#68C6A4"/>
<circle cx="339" cy="117" r="2" fill="white"/>
<circle cx="347" cy="117" r="2" fill="white"/>
<circle cx="355" cy="117" r="2" fill="white"/>
<rect x="331" y="317" width="207" height="12" fill="#68C6A4"/>
<circle cx="339" cy="323" r="2" fill="white"/>
<circle cx="347" cy="323" r="2" fill="white"/>
<circle cx="355" cy="323" r="2" fill="white"/>
<rect x="569" y="317" width="207" height="12" fill="#68C6A4"/>
<circle cx="577" cy="323" r="2" fill="white"/>
<circle cx="585" cy="323" r="2" fill="white"/>
<circle cx="593" cy="323" r="2" fill="white"/>
</svg>
