<svg width="270" height="342" viewBox="0 0 270 342" fill="none" xmlns="http://www.w3.org/2000/svg">
<line x1="134.5" y1="110" x2="134.5" y2="44" stroke="#0A2535"/>
<line x1="134.5" y1="219" x2="134.5" y2="153" stroke="#0A2535"/>
<rect x="54" y="1" width="163" height="42" fill="white" stroke="#68C6A4" stroke-width="2"/>
<path d="M78.5859 16.5781H81.9766C83.5495 16.5781 84.6849 16.8073 85.3828 17.2656C86.0859 17.724 86.4375 18.4479 86.4375 19.4375C86.4375 20.1042 86.2656 20.6589 85.9219 21.1016C85.5781 21.5443 85.0833 21.8229 84.4375 21.9375V22.0156C85.2396 22.1667 85.8281 22.4661 86.2031 22.9141C86.5833 23.3568 86.7734 23.9583 86.7734 24.7188C86.7734 25.7448 86.4141 26.5495 85.6953 27.1328C84.9818 27.7109 83.987 28 82.7109 28H78.5859V16.5781ZM80.4531 21.2969H82.25C83.0312 21.2969 83.6016 21.1745 83.9609 20.9297C84.3203 20.6797 84.5 20.2578 84.5 19.6641C84.5 19.1276 84.3047 18.7396 83.9141 18.5C83.5286 18.2604 82.9141 18.1406 82.0703 18.1406H80.4531V21.2969ZM80.4531 22.8125V26.4297H82.4375C83.2188 26.4297 83.8073 26.2812 84.2031 25.9844C84.6042 25.6823 84.8047 25.2083 84.8047 24.5625C84.8047 23.9688 84.6016 23.5286 84.1953 23.2422C83.7891 22.9557 83.1719 22.8125 82.3438 22.8125H80.4531ZM95.0469 28L94.7891 26.8672H94.6953C94.4401 27.2682 94.0755 27.5833 93.6016 27.8125C93.1328 28.0417 92.5964 28.1562 91.9922 28.1562C90.9453 28.1562 90.1641 27.8958 89.6484 27.375C89.1328 26.8542 88.875 26.0651 88.875 25.0078V19.3594H90.7266V24.6875C90.7266 25.349 90.862 25.8464 91.1328 26.1797C91.4036 26.5078 91.8281 26.6719 92.4062 26.6719C93.1771 26.6719 93.7422 26.4427 94.1016 25.9844C94.4661 25.5208 94.6484 24.7474 94.6484 23.6641V19.3594H96.4922V28H95.0469ZM104.914 25.5391C104.914 26.3828 104.607 27.0312 103.992 27.4844C103.378 27.9323 102.497 28.1562 101.352 28.1562C100.201 28.1562 99.276 27.9818 98.5781 27.6328V26.0469C99.5938 26.5156 100.539 26.75 101.414 26.75C102.544 26.75 103.109 26.4089 103.109 25.7266C103.109 25.5078 103.047 25.3255 102.922 25.1797C102.797 25.0339 102.591 24.8828 102.305 24.7266C102.018 24.5703 101.62 24.3932 101.109 24.1953C100.115 23.8099 99.4401 23.4245 99.0859 23.0391C98.737 22.6536 98.5625 22.1536 98.5625 21.5391C98.5625 20.7995 98.8594 20.2266 99.4531 19.8203C100.052 19.4089 100.865 19.2031 101.891 19.2031C102.906 19.2031 103.867 19.4089 104.773 19.8203L104.18 21.2031C103.247 20.8177 102.464 20.625 101.828 20.625C100.859 20.625 100.375 20.901 100.375 21.4531C100.375 21.724 100.5 21.9531 100.75 22.1406C101.005 22.3281 101.557 22.5859 102.406 22.9141C103.12 23.1901 103.638 23.4427 103.961 23.6719C104.284 23.901 104.523 24.1667 104.68 24.4688C104.836 24.7656 104.914 25.1224 104.914 25.5391ZM108.742 28H106.906V19.3594H108.742V28ZM106.797 17.0703C106.797 16.7422 106.885 16.4896 107.062 16.3125C107.245 16.1354 107.503 16.0469 107.836 16.0469C108.159 16.0469 108.409 16.1354 108.586 16.3125C108.768 16.4896 108.859 16.7422 108.859 17.0703C108.859 17.3828 108.768 17.6302 108.586 17.8125C108.409 17.9896 108.159 18.0781 107.836 18.0781C107.503 18.0781 107.245 17.9896 107.062 17.8125C106.885 17.6302 106.797 17.3828 106.797 17.0703ZM118.977 28H117.133V22.6875C117.133 22.0208 116.997 21.5234 116.727 21.1953C116.461 20.8672 116.036 20.7031 115.453 20.7031C114.677 20.7031 114.109 20.9323 113.75 21.3906C113.391 21.849 113.211 22.6172 113.211 23.6953V28H111.375V19.3594H112.812L113.07 20.4922H113.164C113.424 20.0807 113.794 19.763 114.273 19.5391C114.753 19.3151 115.284 19.2031 115.867 19.2031C117.94 19.2031 118.977 20.2578 118.977 22.3672V28ZM125.305 28.1562C123.961 28.1562 122.909 27.7656 122.148 26.9844C121.393 26.1979 121.016 25.1172 121.016 23.7422C121.016 22.3307 121.367 21.2214 122.07 20.4141C122.773 19.6068 123.74 19.2031 124.969 19.2031C126.109 19.2031 127.01 19.5495 127.672 20.2422C128.333 20.9349 128.664 21.888 128.664 23.1016V24.0938H122.906C122.932 24.9323 123.159 25.5781 123.586 26.0312C124.013 26.4792 124.615 26.7031 125.391 26.7031C125.901 26.7031 126.375 26.6562 126.812 26.5625C127.255 26.4635 127.729 26.3021 128.234 26.0781V27.5703C127.786 27.7839 127.333 27.9349 126.875 28.0234C126.417 28.112 125.893 28.1562 125.305 28.1562ZM124.969 20.5938C124.385 20.5938 123.917 20.7786 123.562 21.1484C123.214 21.5182 123.005 22.0573 122.938 22.7656H126.859C126.849 22.0521 126.677 21.513 126.344 21.1484C126.01 20.7786 125.552 20.5938 124.969 20.5938ZM136.555 25.5391C136.555 26.3828 136.247 27.0312 135.633 27.4844C135.018 27.9323 134.138 28.1562 132.992 28.1562C131.841 28.1562 130.917 27.9818 130.219 27.6328V26.0469C131.234 26.5156 132.18 26.75 133.055 26.75C134.185 26.75 134.75 26.4089 134.75 25.7266C134.75 25.5078 134.688 25.3255 134.562 25.1797C134.438 25.0339 134.232 24.8828 133.945 24.7266C133.659 24.5703 133.26 24.3932 132.75 24.1953C131.755 23.8099 131.081 23.4245 130.727 23.0391C130.378 22.6536 130.203 22.1536 130.203 21.5391C130.203 20.7995 130.5 20.2266 131.094 19.8203C131.693 19.4089 132.505 19.2031 133.531 19.2031C134.547 19.2031 135.508 19.4089 136.414 19.8203L135.82 21.2031C134.888 20.8177 134.104 20.625 133.469 20.625C132.5 20.625 132.016 20.901 132.016 21.4531C132.016 21.724 132.141 21.9531 132.391 22.1406C132.646 22.3281 133.198 22.5859 134.047 22.9141C134.76 23.1901 135.279 23.4427 135.602 23.6719C135.924 23.901 136.164 24.1667 136.32 24.4688C136.477 24.7656 136.555 25.1224 136.555 25.5391ZM144.352 25.5391C144.352 26.3828 144.044 27.0312 143.43 27.4844C142.815 27.9323 141.935 28.1562 140.789 28.1562C139.638 28.1562 138.714 27.9818 138.016 27.6328V26.0469C139.031 26.5156 139.977 26.75 140.852 26.75C141.982 26.75 142.547 26.4089 142.547 25.7266C142.547 25.5078 142.484 25.3255 142.359 25.1797C142.234 25.0339 142.029 24.8828 141.742 24.7266C141.456 24.5703 141.057 24.3932 140.547 24.1953C139.552 23.8099 138.878 23.4245 138.523 23.0391C138.174 22.6536 138 22.1536 138 21.5391C138 20.7995 138.297 20.2266 138.891 19.8203C139.49 19.4089 140.302 19.2031 141.328 19.2031C142.344 19.2031 143.305 19.4089 144.211 19.8203L143.617 21.2031C142.685 20.8177 141.901 20.625 141.266 20.625C140.297 20.625 139.812 20.901 139.812 21.4531C139.812 21.724 139.938 21.9531 140.188 22.1406C140.443 22.3281 140.995 22.5859 141.844 22.9141C142.557 23.1901 143.076 23.4427 143.398 23.6719C143.721 23.901 143.961 24.1667 144.117 24.4688C144.273 24.7656 144.352 25.1224 144.352 25.5391ZM157.156 28H150.695V16.5781H157.156V18.1562H152.562V21.2656H156.867V22.8281H152.562V26.4141H157.156V28ZM167.039 28H165.195V22.6875C165.195 22.0208 165.06 21.5234 164.789 21.1953C164.523 20.8672 164.099 20.7031 163.516 20.7031C162.74 20.7031 162.172 20.9323 161.812 21.3906C161.453 21.849 161.273 22.6172 161.273 23.6953V28H159.438V19.3594H160.875L161.133 20.4922H161.227C161.487 20.0807 161.857 19.763 162.336 19.5391C162.815 19.3151 163.346 19.2031 163.93 19.2031C166.003 19.2031 167.039 20.2578 167.039 22.3672V28ZM172.812 26.6719C173.26 26.6719 173.708 26.6016 174.156 26.4609V27.8438C173.953 27.9323 173.69 28.0052 173.367 28.0625C173.049 28.125 172.719 28.1562 172.375 28.1562C170.635 28.1562 169.766 27.2396 169.766 25.4062V20.75H168.586V19.9375L169.852 19.2656L170.477 17.4375H171.609V19.3594H174.07V20.75H171.609V25.375C171.609 25.8177 171.719 26.1458 171.938 26.3594C172.161 26.5677 172.453 26.6719 172.812 26.6719ZM177.727 28H175.891V19.3594H177.727V28ZM175.781 17.0703C175.781 16.7422 175.87 16.4896 176.047 16.3125C176.229 16.1354 176.487 16.0469 176.82 16.0469C177.143 16.0469 177.393 16.1354 177.57 16.3125C177.753 16.4896 177.844 16.7422 177.844 17.0703C177.844 17.3828 177.753 17.6302 177.57 17.8125C177.393 17.9896 177.143 18.0781 176.82 18.0781C176.487 18.0781 176.229 17.9896 176.047 17.8125C175.87 17.6302 175.781 17.3828 175.781 17.0703ZM183.578 26.6719C184.026 26.6719 184.474 26.6016 184.922 26.4609V27.8438C184.719 27.9323 184.456 28.0052 184.133 28.0625C183.815 28.125 183.484 28.1562 183.141 28.1562C181.401 28.1562 180.531 27.2396 180.531 25.4062V20.75H179.352V19.9375L180.617 19.2656L181.242 17.4375H182.375V19.3594H184.836V20.75H182.375V25.375C182.375 25.8177 182.484 26.1458 182.703 26.3594C182.927 26.5677 183.219 26.6719 183.578 26.6719ZM185.344 19.3594H187.344L189.102 24.2578C189.367 24.9557 189.544 25.612 189.633 26.2266H189.695C189.742 25.9401 189.828 25.5938 189.953 25.1875C190.078 24.776 190.74 22.8333 191.938 19.3594H193.922L190.227 29.1484C189.555 30.9453 188.435 31.8438 186.867 31.8438C186.461 31.8438 186.065 31.7995 185.68 31.7109V30.2578C185.956 30.3203 186.271 30.3516 186.625 30.3516C187.51 30.3516 188.133 29.8385 188.492 28.8125L188.812 28L185.344 19.3594Z" fill="#0A2535"/>
<rect x="54" y="111" width="163" height="42" fill="white" stroke="#68C6A4" stroke-width="2"/>
<path d="M93.3594 138H91.3281L89.3906 131.188C89.3073 130.891 89.2031 130.464 89.0781 129.906C88.9531 129.344 88.8776 128.953 88.8516 128.734C88.7995 129.068 88.7135 129.5 88.5938 130.031C88.4792 130.562 88.3828 130.958 88.3047 131.219L86.4141 138H84.3828L82.9062 132.281L81.4062 126.578H83.3125L84.9453 133.234C85.2005 134.302 85.3828 135.245 85.4922 136.062C85.5495 135.62 85.6354 135.125 85.75 134.578C85.8646 134.031 85.9688 133.589 86.0625 133.25L87.9219 126.578H89.7734L91.6797 133.281C91.862 133.901 92.0547 134.828 92.2578 136.062C92.3359 135.318 92.5234 134.37 92.8203 133.219L94.4453 126.578H96.3359L93.3594 138ZM105.43 133.664C105.43 135.076 105.068 136.177 104.344 136.969C103.62 137.76 102.612 138.156 101.32 138.156C100.513 138.156 99.7995 137.974 99.1797 137.609C98.5599 137.245 98.0833 136.721 97.75 136.039C97.4167 135.357 97.25 134.565 97.25 133.664C97.25 132.263 97.6094 131.169 98.3281 130.383C99.0469 129.596 100.06 129.203 101.367 129.203C102.617 129.203 103.607 129.607 104.336 130.414C105.065 131.216 105.43 132.299 105.43 133.664ZM99.1406 133.664C99.1406 135.659 99.8776 136.656 101.352 136.656C102.81 136.656 103.539 135.659 103.539 133.664C103.539 131.69 102.805 130.703 101.336 130.703C100.565 130.703 100.005 130.958 99.6562 131.469C99.3125 131.979 99.1406 132.711 99.1406 133.664ZM111.93 129.203C112.299 129.203 112.604 129.229 112.844 129.281L112.664 130.992C112.404 130.93 112.133 130.898 111.852 130.898C111.117 130.898 110.521 131.138 110.062 131.617C109.609 132.096 109.383 132.719 109.383 133.484V138H107.547V129.359H108.984L109.227 130.883H109.32C109.607 130.367 109.979 129.958 110.438 129.656C110.901 129.354 111.398 129.203 111.93 129.203ZM116.227 133.438L117.266 132.141L119.875 129.359H121.992L118.516 133.07L122.211 138H120.055L117.281 134.211L116.273 135.039V138H114.453V125.844H116.273V131.773L116.18 133.438H116.227ZM135.047 138L133.906 134.828H129.539L128.422 138H126.453L130.727 126.531H132.758L137.031 138H135.047ZM133.414 133.219L132.344 130.109C132.266 129.901 132.156 129.573 132.016 129.125C131.88 128.677 131.786 128.349 131.734 128.141C131.594 128.781 131.388 129.482 131.117 130.242L130.086 133.219H133.414ZM141.258 138.156C140.18 138.156 139.339 137.766 138.734 136.984C138.13 136.203 137.828 135.107 137.828 133.695C137.828 132.279 138.133 131.177 138.742 130.391C139.357 129.599 140.206 129.203 141.289 129.203C142.424 129.203 143.289 129.622 143.883 130.461H143.977C143.888 129.841 143.844 129.352 143.844 128.992V125.844H145.688V138H144.25L143.93 136.867H143.844C143.255 137.727 142.393 138.156 141.258 138.156ZM141.75 136.672C142.505 136.672 143.055 136.461 143.398 136.039C143.742 135.612 143.919 134.922 143.93 133.969V133.711C143.93 132.622 143.753 131.849 143.398 131.391C143.044 130.932 142.49 130.703 141.734 130.703C141.089 130.703 140.591 130.966 140.242 131.492C139.893 132.013 139.719 132.758 139.719 133.727C139.719 134.685 139.888 135.417 140.227 135.922C140.565 136.422 141.073 136.672 141.75 136.672ZM151.227 138.156C150.148 138.156 149.307 137.766 148.703 136.984C148.099 136.203 147.797 135.107 147.797 133.695C147.797 132.279 148.102 131.177 148.711 130.391C149.326 129.599 150.174 129.203 151.258 129.203C152.393 129.203 153.258 129.622 153.852 130.461H153.945C153.857 129.841 153.812 129.352 153.812 128.992V125.844H155.656V138H154.219L153.898 136.867H153.812C153.224 137.727 152.362 138.156 151.227 138.156ZM151.719 136.672C152.474 136.672 153.023 136.461 153.367 136.039C153.711 135.612 153.888 134.922 153.898 133.969V133.711C153.898 132.622 153.721 131.849 153.367 131.391C153.013 130.932 152.458 130.703 151.703 130.703C151.057 130.703 150.56 130.966 150.211 131.492C149.862 132.013 149.688 132.758 149.688 133.727C149.688 134.685 149.857 135.417 150.195 135.922C150.534 136.422 151.042 136.672 151.719 136.672ZM162.664 129.203C163.034 129.203 163.339 129.229 163.578 129.281L163.398 130.992C163.138 130.93 162.867 130.898 162.586 130.898C161.852 130.898 161.255 131.138 160.797 131.617C160.344 132.096 160.117 132.719 160.117 133.484V138H158.281V129.359H159.719L159.961 130.883H160.055C160.341 130.367 160.714 129.958 161.172 129.656C161.635 129.354 162.133 129.203 162.664 129.203ZM168.961 138.156C167.617 138.156 166.565 137.766 165.805 136.984C165.049 136.198 164.672 135.117 164.672 133.742C164.672 132.331 165.023 131.221 165.727 130.414C166.43 129.607 167.396 129.203 168.625 129.203C169.766 129.203 170.667 129.549 171.328 130.242C171.99 130.935 172.32 131.888 172.32 133.102V134.094H166.562C166.589 134.932 166.815 135.578 167.242 136.031C167.669 136.479 168.271 136.703 169.047 136.703C169.557 136.703 170.031 136.656 170.469 136.562C170.911 136.464 171.385 136.302 171.891 136.078V137.57C171.443 137.784 170.99 137.935 170.531 138.023C170.073 138.112 169.549 138.156 168.961 138.156ZM168.625 130.594C168.042 130.594 167.573 130.779 167.219 131.148C166.87 131.518 166.661 132.057 166.594 132.766H170.516C170.505 132.052 170.333 131.513 170 131.148C169.667 130.779 169.208 130.594 168.625 130.594ZM180.211 135.539C180.211 136.383 179.904 137.031 179.289 137.484C178.674 137.932 177.794 138.156 176.648 138.156C175.497 138.156 174.573 137.982 173.875 137.633V136.047C174.891 136.516 175.836 136.75 176.711 136.75C177.841 136.75 178.406 136.409 178.406 135.727C178.406 135.508 178.344 135.326 178.219 135.18C178.094 135.034 177.888 134.883 177.602 134.727C177.315 134.57 176.917 134.393 176.406 134.195C175.411 133.81 174.737 133.424 174.383 133.039C174.034 132.654 173.859 132.154 173.859 131.539C173.859 130.799 174.156 130.227 174.75 129.82C175.349 129.409 176.161 129.203 177.188 129.203C178.203 129.203 179.164 129.409 180.07 129.82L179.477 131.203C178.544 130.818 177.76 130.625 177.125 130.625C176.156 130.625 175.672 130.901 175.672 131.453C175.672 131.724 175.797 131.953 176.047 132.141C176.302 132.328 176.854 132.586 177.703 132.914C178.417 133.19 178.935 133.443 179.258 133.672C179.581 133.901 179.82 134.167 179.977 134.469C180.133 134.766 180.211 135.122 180.211 135.539ZM188.008 135.539C188.008 136.383 187.701 137.031 187.086 137.484C186.471 137.932 185.591 138.156 184.445 138.156C183.294 138.156 182.37 137.982 181.672 137.633V136.047C182.688 136.516 183.633 136.75 184.508 136.75C185.638 136.75 186.203 136.409 186.203 135.727C186.203 135.508 186.141 135.326 186.016 135.18C185.891 135.034 185.685 134.883 185.398 134.727C185.112 134.57 184.714 134.393 184.203 134.195C183.208 133.81 182.534 133.424 182.18 133.039C181.831 132.654 181.656 132.154 181.656 131.539C181.656 130.799 181.953 130.227 182.547 129.82C183.146 129.409 183.958 129.203 184.984 129.203C186 129.203 186.961 129.409 187.867 129.82L187.273 131.203C186.341 130.818 185.557 130.625 184.922 130.625C183.953 130.625 183.469 130.901 183.469 131.453C183.469 131.724 183.594 131.953 183.844 132.141C184.099 132.328 184.651 132.586 185.5 132.914C186.214 133.19 186.732 133.443 187.055 133.672C187.378 133.901 187.617 134.167 187.773 134.469C187.93 134.766 188.008 135.122 188.008 135.539Z" fill="#0A2535"/>
<rect x="1" y="220" width="268" height="121" fill="white" stroke="#68C6A4" stroke-width="2"/>
<path d="M74.7148 251H73.7305L72.002 245.264C71.9199 245.01 71.8281 244.689 71.7266 244.303C71.625 243.916 71.5723 243.684 71.5684 243.605C71.4824 244.121 71.3457 244.686 71.1582 245.299L69.4824 251H68.498L66.2188 242.434H67.2734L68.627 247.725C68.8145 248.467 68.9512 249.139 69.0371 249.74C69.1426 249.025 69.2988 248.326 69.5059 247.643L71.041 242.434H72.0957L73.707 247.689C73.8945 248.295 74.0527 248.979 74.1816 249.74C74.2559 249.186 74.3965 248.51 74.6035 247.713L75.9512 242.434H77.0059L74.7148 251ZM79.1738 251H78.2012V244.578H79.1738V251ZM78.1191 242.838C78.1191 242.615 78.1738 242.453 78.2832 242.352C78.3926 242.246 78.5293 242.193 78.6934 242.193C78.8496 242.193 78.9844 242.246 79.0977 242.352C79.2109 242.457 79.2676 242.619 79.2676 242.838C79.2676 243.057 79.2109 243.221 79.0977 243.33C78.9844 243.436 78.8496 243.488 78.6934 243.488C78.5293 243.488 78.3926 243.436 78.2832 243.33C78.1738 243.221 78.1191 243.057 78.1191 242.838ZM83.3105 250.314C83.4824 250.314 83.6484 250.303 83.8086 250.279C83.9688 250.252 84.0957 250.225 84.1895 250.197V250.941C84.084 250.992 83.9277 251.033 83.7207 251.064C83.5176 251.1 83.334 251.117 83.1699 251.117C81.9277 251.117 81.3066 250.463 81.3066 249.154V245.334H80.3867V244.865L81.3066 244.461L81.7168 243.09H82.2793V244.578H84.1426V245.334H82.2793V249.113C82.2793 249.5 82.3711 249.797 82.5547 250.004C82.7383 250.211 82.9902 250.314 83.3105 250.314ZM89.873 251V246.846C89.873 246.322 89.7539 245.932 89.5156 245.674C89.2773 245.416 88.9043 245.287 88.3965 245.287C87.7207 245.287 87.2266 245.471 86.9141 245.838C86.6055 246.205 86.4512 246.807 86.4512 247.643V251H85.4785V241.883H86.4512V244.643C86.4512 244.975 86.4355 245.25 86.4043 245.469H86.4629C86.6543 245.16 86.9258 244.918 87.2773 244.742C87.6328 244.562 88.0371 244.473 88.4902 244.473C89.2754 244.473 89.8633 244.66 90.2539 245.035C90.6484 245.406 90.8457 245.998 90.8457 246.811V251H89.873ZM97.2441 251V246.846C97.2441 246.322 97.125 245.932 96.8867 245.674C96.6484 245.416 96.2754 245.287 95.7676 245.287C95.0918 245.287 94.5977 245.471 94.2852 245.838C93.9766 246.205 93.8223 246.807 93.8223 247.643V251H92.8496V241.883H93.8223V244.643C93.8223 244.975 93.8066 245.25 93.7754 245.469H93.834C94.0254 245.16 94.2969 244.918 94.6484 244.742C95.0039 244.562 95.4082 244.473 95.8613 244.473C96.6465 244.473 97.2344 244.66 97.625 245.035C98.0195 245.406 98.2168 245.998 98.2168 246.811V251H97.2441ZM105.764 247.783C105.764 248.83 105.5 249.648 104.973 250.238C104.445 250.824 103.717 251.117 102.787 251.117C102.213 251.117 101.703 250.982 101.258 250.713C100.812 250.443 100.469 250.057 100.227 249.553C99.9844 249.049 99.8633 248.459 99.8633 247.783C99.8633 246.736 100.125 245.922 100.648 245.34C101.172 244.754 101.898 244.461 102.828 244.461C103.727 244.461 104.439 244.76 104.967 245.357C105.498 245.955 105.764 246.764 105.764 247.783ZM100.871 247.783C100.871 248.604 101.035 249.229 101.363 249.658C101.691 250.088 102.174 250.303 102.811 250.303C103.447 250.303 103.93 250.09 104.258 249.664C104.59 249.234 104.756 248.607 104.756 247.783C104.756 246.967 104.59 246.348 104.258 245.926C103.93 245.5 103.443 245.287 102.799 245.287C102.162 245.287 101.682 245.496 101.357 245.914C101.033 246.332 100.871 246.955 100.871 247.783ZM108.447 251H107.475V241.883H108.447V251ZM114.881 250.139H114.828C114.379 250.791 113.707 251.117 112.812 251.117C111.973 251.117 111.318 250.83 110.85 250.256C110.385 249.682 110.152 248.865 110.152 247.807C110.152 246.748 110.387 245.926 110.855 245.34C111.324 244.754 111.977 244.461 112.812 244.461C113.684 244.461 114.352 244.777 114.816 245.41H114.893L114.852 244.947L114.828 244.496V241.883H115.801V251H115.01L114.881 250.139ZM112.936 250.303C113.6 250.303 114.08 250.123 114.377 249.764C114.678 249.4 114.828 248.816 114.828 248.012V247.807C114.828 246.896 114.676 246.248 114.371 245.861C114.07 245.471 113.588 245.275 112.924 245.275C112.354 245.275 111.916 245.498 111.611 245.943C111.311 246.385 111.16 247.01 111.16 247.818C111.16 248.639 111.311 249.258 111.611 249.676C111.912 250.094 112.354 250.303 112.936 250.303ZM118.842 251H117.869V244.578H118.842V251ZM117.787 242.838C117.787 242.615 117.842 242.453 117.951 242.352C118.061 242.246 118.197 242.193 118.361 242.193C118.518 242.193 118.652 242.246 118.766 242.352C118.879 242.457 118.936 242.619 118.936 242.838C118.936 243.057 118.879 243.221 118.766 243.33C118.652 243.436 118.518 243.488 118.361 243.488C118.197 243.488 118.061 243.436 117.951 243.33C117.842 243.221 117.787 243.057 117.787 242.838ZM125.299 251V246.846C125.299 246.322 125.18 245.932 124.941 245.674C124.703 245.416 124.33 245.287 123.822 245.287C123.15 245.287 122.658 245.469 122.346 245.832C122.033 246.195 121.877 246.795 121.877 247.631V251H120.904V244.578H121.695L121.854 245.457H121.9C122.1 245.141 122.379 244.896 122.738 244.725C123.098 244.549 123.498 244.461 123.939 244.461C124.713 244.461 125.295 244.648 125.686 245.023C126.076 245.395 126.271 245.99 126.271 246.811V251H125.299ZM133.531 244.578V245.193L132.342 245.334C132.451 245.471 132.549 245.65 132.635 245.873C132.721 246.092 132.764 246.34 132.764 246.617C132.764 247.246 132.549 247.748 132.119 248.123C131.689 248.498 131.1 248.686 130.35 248.686C130.158 248.686 129.979 248.67 129.811 248.639C129.396 248.857 129.189 249.133 129.189 249.465C129.189 249.641 129.262 249.771 129.406 249.857C129.551 249.939 129.799 249.98 130.15 249.98H131.287C131.982 249.98 132.516 250.127 132.887 250.42C133.262 250.713 133.449 251.139 133.449 251.697C133.449 252.408 133.164 252.949 132.594 253.32C132.023 253.695 131.191 253.883 130.098 253.883C129.258 253.883 128.609 253.727 128.152 253.414C127.699 253.102 127.473 252.66 127.473 252.09C127.473 251.699 127.598 251.361 127.848 251.076C128.098 250.791 128.449 250.598 128.902 250.496C128.738 250.422 128.6 250.307 128.486 250.15C128.377 249.994 128.322 249.812 128.322 249.605C128.322 249.371 128.385 249.166 128.51 248.99C128.635 248.814 128.832 248.645 129.102 248.48C128.77 248.344 128.498 248.111 128.287 247.783C128.08 247.455 127.977 247.08 127.977 246.658C127.977 245.955 128.188 245.414 128.609 245.035C129.031 244.652 129.629 244.461 130.402 244.461C130.738 244.461 131.041 244.5 131.311 244.578H133.531ZM128.41 252.078C128.41 252.426 128.557 252.689 128.85 252.869C129.143 253.049 129.562 253.139 130.109 253.139C130.926 253.139 131.529 253.016 131.92 252.77C132.314 252.527 132.512 252.197 132.512 251.779C132.512 251.432 132.404 251.189 132.189 251.053C131.975 250.92 131.57 250.854 130.977 250.854H129.811C129.369 250.854 129.025 250.959 128.779 251.17C128.533 251.381 128.41 251.684 128.41 252.078ZM128.938 246.635C128.938 247.084 129.064 247.424 129.318 247.654C129.572 247.885 129.926 248 130.379 248C131.328 248 131.803 247.539 131.803 246.617C131.803 245.652 131.322 245.17 130.361 245.17C129.904 245.17 129.553 245.293 129.307 245.539C129.061 245.785 128.938 246.15 128.938 246.635ZM140.75 251H139.754V243.318H137.041V242.434H143.463V243.318H140.75V251ZM148.561 251L148.367 250.086H148.32C148 250.488 147.68 250.762 147.359 250.906C147.043 251.047 146.646 251.117 146.17 251.117C145.533 251.117 145.033 250.953 144.67 250.625C144.311 250.297 144.131 249.83 144.131 249.225C144.131 247.928 145.168 247.248 147.242 247.186L148.332 247.15V246.752C148.332 246.248 148.223 245.877 148.004 245.639C147.789 245.396 147.443 245.275 146.967 245.275C146.432 245.275 145.826 245.439 145.15 245.768L144.852 245.023C145.168 244.852 145.514 244.717 145.889 244.619C146.268 244.521 146.646 244.473 147.025 244.473C147.791 244.473 148.357 244.643 148.725 244.982C149.096 245.322 149.281 245.867 149.281 246.617V251H148.561ZM146.363 250.314C146.969 250.314 147.443 250.148 147.787 249.816C148.135 249.484 148.309 249.02 148.309 248.422V247.842L147.336 247.883C146.562 247.91 146.004 248.031 145.66 248.246C145.32 248.457 145.15 248.787 145.15 249.236C145.15 249.588 145.256 249.855 145.467 250.039C145.682 250.223 145.98 250.314 146.363 250.314ZM152.838 247.713L150.605 244.578H151.713L153.406 247.039L155.094 244.578H156.189L153.957 247.713L156.307 251H155.205L153.406 248.398L151.59 251H150.488L152.838 247.713ZM166.232 251L165.166 248.275H161.732L160.678 251H159.67L163.057 242.398H163.895L167.264 251H166.232ZM164.855 247.379L163.859 244.725C163.73 244.389 163.598 243.977 163.461 243.488C163.375 243.863 163.252 244.275 163.092 244.725L162.084 247.379H164.855ZM170.861 251.117C169.932 251.117 169.211 250.832 168.699 250.262C168.191 249.688 167.938 248.877 167.938 247.83C167.938 246.756 168.195 245.926 168.711 245.34C169.23 244.754 169.969 244.461 170.926 244.461C171.234 244.461 171.543 244.494 171.852 244.561C172.16 244.627 172.402 244.705 172.578 244.795L172.279 245.621C172.064 245.535 171.83 245.465 171.576 245.41C171.322 245.352 171.098 245.322 170.902 245.322C169.598 245.322 168.945 246.154 168.945 247.818C168.945 248.607 169.104 249.213 169.42 249.635C169.74 250.057 170.213 250.268 170.838 250.268C171.373 250.268 171.922 250.152 172.484 249.922V250.783C172.055 251.006 171.514 251.117 170.861 251.117ZM176.58 251.117C175.65 251.117 174.93 250.832 174.418 250.262C173.91 249.688 173.656 248.877 173.656 247.83C173.656 246.756 173.914 245.926 174.43 245.34C174.949 244.754 175.688 244.461 176.645 244.461C176.953 244.461 177.262 244.494 177.57 244.561C177.879 244.627 178.121 244.705 178.297 244.795L177.998 245.621C177.783 245.535 177.549 245.465 177.295 245.41C177.041 245.352 176.816 245.322 176.621 245.322C175.316 245.322 174.664 246.154 174.664 247.818C174.664 248.607 174.822 249.213 175.139 249.635C175.459 250.057 175.932 250.268 176.557 250.268C177.092 250.268 177.641 250.152 178.203 249.922V250.783C177.773 251.006 177.232 251.117 176.58 251.117ZM185.275 247.783C185.275 248.83 185.012 249.648 184.484 250.238C183.957 250.824 183.229 251.117 182.299 251.117C181.725 251.117 181.215 250.982 180.77 250.713C180.324 250.443 179.98 250.057 179.738 249.553C179.496 249.049 179.375 248.459 179.375 247.783C179.375 246.736 179.637 245.922 180.16 245.34C180.684 244.754 181.41 244.461 182.34 244.461C183.238 244.461 183.951 244.76 184.479 245.357C185.01 245.955 185.275 246.764 185.275 247.783ZM180.383 247.783C180.383 248.604 180.547 249.229 180.875 249.658C181.203 250.088 181.686 250.303 182.322 250.303C182.959 250.303 183.441 250.09 183.77 249.664C184.102 249.234 184.268 248.607 184.268 247.783C184.268 246.967 184.102 246.348 183.77 245.926C183.441 245.5 182.955 245.287 182.311 245.287C181.674 245.287 181.193 245.496 180.869 245.914C180.545 246.332 180.383 246.955 180.383 247.783ZM187.9 244.578V248.744C187.9 249.268 188.02 249.658 188.258 249.916C188.496 250.174 188.869 250.303 189.377 250.303C190.049 250.303 190.539 250.119 190.848 249.752C191.16 249.385 191.316 248.785 191.316 247.953V244.578H192.289V251H191.486L191.346 250.139H191.293C191.094 250.455 190.816 250.697 190.461 250.865C190.109 251.033 189.707 251.117 189.254 251.117C188.473 251.117 187.887 250.932 187.496 250.561C187.109 250.189 186.916 249.596 186.916 248.779V244.578H187.9ZM198.752 251V246.846C198.752 246.322 198.633 245.932 198.395 245.674C198.156 245.416 197.783 245.287 197.275 245.287C196.604 245.287 196.111 245.469 195.799 245.832C195.486 246.195 195.33 246.795 195.33 247.631V251H194.357V244.578H195.148L195.307 245.457H195.354C195.553 245.141 195.832 244.896 196.191 244.725C196.551 244.549 196.951 244.461 197.393 244.461C198.166 244.461 198.748 244.648 199.139 245.023C199.529 245.395 199.725 245.99 199.725 246.811V251H198.752ZM203.803 250.314C203.975 250.314 204.141 250.303 204.301 250.279C204.461 250.252 204.588 250.225 204.682 250.197V250.941C204.576 250.992 204.42 251.033 204.213 251.064C204.01 251.1 203.826 251.117 203.662 251.117C202.42 251.117 201.799 250.463 201.799 249.154V245.334H200.879V244.865L201.799 244.461L202.209 243.09H202.771V244.578H204.635V245.334H202.771V249.113C202.771 249.5 202.863 249.797 203.047 250.004C203.23 250.211 203.482 250.314 203.803 250.314Z" fill="#0A2535"/>
<path d="M92.2695 273H91.2734V264.434H96.0488V265.318H92.2695V268.453H95.8203V269.338H92.2695V273ZM98.2988 273H97.3262V266.578H98.2988V273ZM97.2441 264.838C97.2441 264.615 97.2988 264.453 97.4082 264.352C97.5176 264.246 97.6543 264.193 97.8184 264.193C97.9746 264.193 98.1094 264.246 98.2227 264.352C98.3359 264.457 98.3926 264.619 98.3926 264.838C98.3926 265.057 98.3359 265.221 98.2227 265.33C98.1094 265.436 97.9746 265.488 97.8184 265.488C97.6543 265.488 97.5176 265.436 97.4082 265.33C97.2988 265.221 97.2441 265.057 97.2441 264.838ZM101.334 273H100.361V263.883H101.334V273ZM104.369 273H103.396V266.578H104.369V273ZM103.314 264.838C103.314 264.615 103.369 264.453 103.479 264.352C103.588 264.246 103.725 264.193 103.889 264.193C104.045 264.193 104.18 264.246 104.293 264.352C104.406 264.457 104.463 264.619 104.463 264.838C104.463 265.057 104.406 265.221 104.293 265.33C104.18 265.436 104.045 265.488 103.889 265.488C103.725 265.488 103.588 265.436 103.479 265.33C103.369 265.221 103.314 265.057 103.314 264.838ZM110.826 273V268.846C110.826 268.322 110.707 267.932 110.469 267.674C110.23 267.416 109.857 267.287 109.35 267.287C108.678 267.287 108.186 267.469 107.873 267.832C107.561 268.195 107.404 268.795 107.404 269.631V273H106.432V266.578H107.223L107.381 267.457H107.428C107.627 267.141 107.906 266.896 108.266 266.725C108.625 266.549 109.025 266.461 109.467 266.461C110.24 266.461 110.822 266.648 111.213 267.023C111.604 267.395 111.799 267.99 111.799 268.811V273H110.826ZM119.059 266.578V267.193L117.869 267.334C117.979 267.471 118.076 267.65 118.162 267.873C118.248 268.092 118.291 268.34 118.291 268.617C118.291 269.246 118.076 269.748 117.646 270.123C117.217 270.498 116.627 270.686 115.877 270.686C115.686 270.686 115.506 270.67 115.338 270.639C114.924 270.857 114.717 271.133 114.717 271.465C114.717 271.641 114.789 271.771 114.934 271.857C115.078 271.939 115.326 271.98 115.678 271.98H116.814C117.51 271.98 118.043 272.127 118.414 272.42C118.789 272.713 118.977 273.139 118.977 273.697C118.977 274.408 118.691 274.949 118.121 275.32C117.551 275.695 116.719 275.883 115.625 275.883C114.785 275.883 114.137 275.727 113.68 275.414C113.227 275.102 113 274.66 113 274.09C113 273.699 113.125 273.361 113.375 273.076C113.625 272.791 113.977 272.598 114.43 272.496C114.266 272.422 114.127 272.307 114.014 272.15C113.904 271.994 113.85 271.812 113.85 271.605C113.85 271.371 113.912 271.166 114.037 270.99C114.162 270.814 114.359 270.645 114.629 270.48C114.297 270.344 114.025 270.111 113.814 269.783C113.607 269.455 113.504 269.08 113.504 268.658C113.504 267.955 113.715 267.414 114.137 267.035C114.559 266.652 115.156 266.461 115.93 266.461C116.266 266.461 116.568 266.5 116.838 266.578H119.059ZM113.938 274.078C113.938 274.426 114.084 274.689 114.377 274.869C114.67 275.049 115.09 275.139 115.637 275.139C116.453 275.139 117.057 275.016 117.447 274.77C117.842 274.527 118.039 274.197 118.039 273.779C118.039 273.432 117.932 273.189 117.717 273.053C117.502 272.92 117.098 272.854 116.504 272.854H115.338C114.896 272.854 114.553 272.959 114.307 273.17C114.061 273.381 113.938 273.684 113.938 274.078ZM114.465 268.635C114.465 269.084 114.592 269.424 114.846 269.654C115.1 269.885 115.453 270 115.906 270C116.855 270 117.33 269.539 117.33 268.617C117.33 267.652 116.85 267.17 115.889 267.17C115.432 267.17 115.08 267.293 114.834 267.539C114.588 267.785 114.465 268.15 114.465 268.635ZM124.637 273H123.641V264.434H128.416V265.318H124.637V268.453H128.188V269.338H124.637V273ZM132.623 266.461C132.908 266.461 133.164 266.484 133.391 266.531L133.256 267.434C132.99 267.375 132.756 267.346 132.553 267.346C132.033 267.346 131.588 267.557 131.217 267.979C130.85 268.4 130.666 268.926 130.666 269.555V273H129.693V266.578H130.496L130.607 267.768H130.654C130.893 267.35 131.18 267.027 131.516 266.801C131.852 266.574 132.221 266.461 132.623 266.461ZM137.305 273.117C136.355 273.117 135.605 272.828 135.055 272.25C134.508 271.672 134.234 270.869 134.234 269.842C134.234 268.807 134.488 267.984 134.996 267.375C135.508 266.766 136.193 266.461 137.053 266.461C137.857 266.461 138.494 266.727 138.963 267.258C139.432 267.785 139.666 268.482 139.666 269.35V269.965H135.242C135.262 270.719 135.451 271.291 135.811 271.682C136.174 272.072 136.684 272.268 137.34 272.268C138.031 272.268 138.715 272.123 139.391 271.834V272.701C139.047 272.85 138.721 272.955 138.412 273.018C138.107 273.084 137.738 273.117 137.305 273.117ZM137.041 267.275C136.525 267.275 136.113 267.443 135.805 267.779C135.5 268.115 135.32 268.58 135.266 269.174H138.623C138.623 268.561 138.486 268.092 138.213 267.768C137.939 267.439 137.549 267.275 137.041 267.275ZM143.756 272.303C144.404 272.303 144.877 272.129 145.174 271.781C145.471 271.434 145.629 270.848 145.648 270.023V269.807C145.648 268.908 145.496 268.262 145.191 267.867C144.887 267.473 144.404 267.275 143.744 267.275C143.174 267.275 142.736 267.498 142.432 267.943C142.131 268.385 141.98 269.01 141.98 269.818C141.98 270.627 142.129 271.244 142.426 271.67C142.727 272.092 143.17 272.303 143.756 272.303ZM143.609 273.117C142.781 273.117 142.135 272.826 141.67 272.244C141.205 271.662 140.973 270.85 140.973 269.807C140.973 268.756 141.207 267.936 141.676 267.346C142.145 266.756 142.797 266.461 143.633 266.461C144.512 266.461 145.188 266.793 145.66 267.457H145.713L145.854 266.578H146.621V275.883H145.648V273.135C145.648 272.744 145.67 272.412 145.713 272.139H145.637C145.188 272.791 144.512 273.117 143.609 273.117ZM149.604 266.578V270.744C149.604 271.268 149.723 271.658 149.961 271.916C150.199 272.174 150.572 272.303 151.08 272.303C151.752 272.303 152.242 272.119 152.551 271.752C152.863 271.385 153.02 270.785 153.02 269.953V266.578H153.992V273H153.189L153.049 272.139H152.996C152.797 272.455 152.52 272.697 152.164 272.865C151.812 273.033 151.41 273.117 150.957 273.117C150.176 273.117 149.59 272.932 149.199 272.561C148.812 272.189 148.619 271.596 148.619 270.779V266.578H149.604ZM158.773 273.117C157.824 273.117 157.074 272.828 156.523 272.25C155.977 271.672 155.703 270.869 155.703 269.842C155.703 268.807 155.957 267.984 156.465 267.375C156.977 266.766 157.662 266.461 158.521 266.461C159.326 266.461 159.963 266.727 160.432 267.258C160.9 267.785 161.135 268.482 161.135 269.35V269.965H156.711C156.73 270.719 156.92 271.291 157.279 271.682C157.643 272.072 158.152 272.268 158.809 272.268C159.5 272.268 160.184 272.123 160.859 271.834V272.701C160.516 272.85 160.189 272.955 159.881 273.018C159.576 273.084 159.207 273.117 158.773 273.117ZM158.51 267.275C157.994 267.275 157.582 267.443 157.273 267.779C156.969 268.115 156.789 268.58 156.734 269.174H160.092C160.092 268.561 159.955 268.092 159.682 267.768C159.408 267.439 159.018 267.275 158.51 267.275ZM167.193 273V268.846C167.193 268.322 167.074 267.932 166.836 267.674C166.598 267.416 166.225 267.287 165.717 267.287C165.045 267.287 164.553 267.469 164.24 267.832C163.928 268.195 163.771 268.795 163.771 269.631V273H162.799V266.578H163.59L163.748 267.457H163.795C163.994 267.141 164.273 266.896 164.633 266.725C164.992 266.549 165.393 266.461 165.834 266.461C166.607 266.461 167.189 266.648 167.58 267.023C167.971 267.395 168.166 267.99 168.166 268.811V273H167.193ZM172.736 273.117C171.807 273.117 171.086 272.832 170.574 272.262C170.066 271.688 169.812 270.877 169.812 269.83C169.812 268.756 170.07 267.926 170.586 267.34C171.105 266.754 171.844 266.461 172.801 266.461C173.109 266.461 173.418 266.494 173.727 266.561C174.035 266.627 174.277 266.705 174.453 266.795L174.154 267.621C173.939 267.535 173.705 267.465 173.451 267.41C173.197 267.352 172.973 267.322 172.777 267.322C171.473 267.322 170.82 268.154 170.82 269.818C170.82 270.607 170.979 271.213 171.295 271.635C171.615 272.057 172.088 272.268 172.713 272.268C173.248 272.268 173.797 272.152 174.359 271.922V272.783C173.93 273.006 173.389 273.117 172.736 273.117ZM174.869 266.578H175.912L177.318 270.24C177.627 271.076 177.818 271.68 177.893 272.051H177.939C177.99 271.852 178.096 271.512 178.256 271.031C178.42 270.547 178.951 269.062 179.85 266.578H180.893L178.133 273.891C177.859 274.613 177.539 275.125 177.172 275.426C176.809 275.73 176.361 275.883 175.83 275.883C175.533 275.883 175.24 275.85 174.951 275.783V275.004C175.166 275.051 175.406 275.074 175.672 275.074C176.34 275.074 176.816 274.699 177.102 273.949L177.459 273.035L174.869 266.578Z" fill="#0A2535"/>
<path d="M32.8906 286.434V291.977C32.8906 292.953 32.5957 293.721 32.0059 294.279C31.416 294.838 30.6055 295.117 29.5742 295.117C28.543 295.117 27.7441 294.836 27.1777 294.273C26.6152 293.711 26.334 292.938 26.334 291.953V286.434H27.3301V292.023C27.3301 292.738 27.5254 293.287 27.916 293.67C28.3066 294.053 28.8809 294.244 29.6387 294.244C30.3613 294.244 30.918 294.053 31.3086 293.67C31.6992 293.283 31.8945 292.73 31.8945 292.012V286.434H32.8906ZM39.4121 295V290.846C39.4121 290.322 39.293 289.932 39.0547 289.674C38.8164 289.416 38.4434 289.287 37.9355 289.287C37.2637 289.287 36.7715 289.469 36.459 289.832C36.1465 290.195 35.9902 290.795 35.9902 291.631V295H35.0176V288.578H35.8086L35.9668 289.457H36.0137C36.2129 289.141 36.4922 288.896 36.8516 288.725C37.2109 288.549 37.6113 288.461 38.0527 288.461C38.8262 288.461 39.4082 288.648 39.7988 289.023C40.1895 289.395 40.3848 289.99 40.3848 290.811V295H39.4121ZM45.1016 295.117C44.1523 295.117 43.4023 294.828 42.8516 294.25C42.3047 293.672 42.0312 292.869 42.0312 291.842C42.0312 290.807 42.2852 289.984 42.793 289.375C43.3047 288.766 43.9902 288.461 44.8496 288.461C45.6543 288.461 46.291 288.727 46.7598 289.258C47.2285 289.785 47.4629 290.482 47.4629 291.35V291.965H43.0391C43.0586 292.719 43.248 293.291 43.6074 293.682C43.9707 294.072 44.4805 294.268 45.1367 294.268C45.8281 294.268 46.5117 294.123 47.1875 293.834V294.701C46.8438 294.85 46.5176 294.955 46.209 295.018C45.9043 295.084 45.5352 295.117 45.1016 295.117ZM44.8379 289.275C44.3223 289.275 43.9102 289.443 43.6016 289.779C43.2969 290.115 43.1172 290.58 43.0625 291.174H46.4199C46.4199 290.561 46.2832 290.092 46.0098 289.768C45.7363 289.439 45.3457 289.275 44.8379 289.275ZM57.3125 295V290.822C57.3125 290.311 57.2031 289.928 56.9844 289.674C56.7656 289.416 56.4258 289.287 55.9648 289.287C55.3594 289.287 54.9121 289.461 54.623 289.809C54.334 290.156 54.1895 290.691 54.1895 291.414V295H53.2168V290.822C53.2168 290.311 53.1074 289.928 52.8887 289.674C52.6699 289.416 52.3281 289.287 51.8633 289.287C51.2539 289.287 50.8066 289.471 50.5215 289.838C50.2402 290.201 50.0996 290.799 50.0996 291.631V295H49.127V288.578H49.918L50.0762 289.457H50.123C50.3066 289.145 50.5645 288.9 50.8965 288.725C51.2324 288.549 51.6074 288.461 52.0215 288.461C53.0254 288.461 53.6816 288.824 53.9902 289.551H54.0371C54.2285 289.215 54.5059 288.949 54.8691 288.754C55.2324 288.559 55.6465 288.461 56.1113 288.461C56.8379 288.461 57.3809 288.648 57.7402 289.023C58.1035 289.395 58.2852 289.99 58.2852 290.811V295H57.3125ZM63.2832 295.117C62.8652 295.117 62.4824 295.041 62.1348 294.889C61.791 294.732 61.502 294.494 61.2676 294.174H61.1973C61.2441 294.549 61.2676 294.904 61.2676 295.24V297.883H60.2949V288.578H61.0859L61.2207 289.457H61.2676C61.5176 289.105 61.8086 288.852 62.1406 288.695C62.4727 288.539 62.8535 288.461 63.2832 288.461C64.1348 288.461 64.791 288.752 65.252 289.334C65.7168 289.916 65.9492 290.732 65.9492 291.783C65.9492 292.838 65.7129 293.658 65.2402 294.244C64.7715 294.826 64.1191 295.117 63.2832 295.117ZM63.1426 289.287C62.4863 289.287 62.0117 289.469 61.7188 289.832C61.4258 290.195 61.2754 290.773 61.2676 291.566V291.783C61.2676 292.686 61.418 293.332 61.7188 293.723C62.0195 294.109 62.502 294.303 63.166 294.303C63.7207 294.303 64.1543 294.078 64.4668 293.629C64.7832 293.18 64.9414 292.561 64.9414 291.771C64.9414 290.971 64.7832 290.357 64.4668 289.932C64.1543 289.502 63.7129 289.287 63.1426 289.287ZM68.627 295H67.6543V285.883H68.627V295ZM76.2324 291.783C76.2324 292.83 75.9688 293.648 75.4414 294.238C74.9141 294.824 74.1855 295.117 73.2559 295.117C72.6816 295.117 72.1719 294.982 71.7266 294.713C71.2812 294.443 70.9375 294.057 70.6953 293.553C70.4531 293.049 70.332 292.459 70.332 291.783C70.332 290.736 70.5938 289.922 71.1172 289.34C71.6406 288.754 72.3672 288.461 73.2969 288.461C74.1953 288.461 74.9082 288.76 75.4355 289.357C75.9668 289.955 76.2324 290.764 76.2324 291.783ZM71.3398 291.783C71.3398 292.604 71.5039 293.229 71.832 293.658C72.1602 294.088 72.6426 294.303 73.2793 294.303C73.916 294.303 74.3984 294.09 74.7266 293.664C75.0586 293.234 75.2246 292.607 75.2246 291.783C75.2246 290.967 75.0586 290.348 74.7266 289.926C74.3984 289.5 73.9121 289.287 73.2676 289.287C72.6309 289.287 72.1504 289.496 71.8262 289.914C71.502 290.332 71.3398 290.955 71.3398 291.783ZM76.9238 288.578H77.9668L79.373 292.24C79.6816 293.076 79.873 293.68 79.9473 294.051H79.9941C80.0449 293.852 80.1504 293.512 80.3105 293.031C80.4746 292.547 81.0059 291.062 81.9043 288.578H82.9473L80.1875 295.891C79.9141 296.613 79.5938 297.125 79.2266 297.426C78.8633 297.73 78.416 297.883 77.8848 297.883C77.5879 297.883 77.2949 297.85 77.0059 297.783V297.004C77.2207 297.051 77.4609 297.074 77.7266 297.074C78.3945 297.074 78.8711 296.699 79.1562 295.949L79.5137 295.035L76.9238 288.578ZM92.1758 295V290.822C92.1758 290.311 92.0664 289.928 91.8477 289.674C91.6289 289.416 91.2891 289.287 90.8281 289.287C90.2227 289.287 89.7754 289.461 89.4863 289.809C89.1973 290.156 89.0527 290.691 89.0527 291.414V295H88.0801V290.822C88.0801 290.311 87.9707 289.928 87.752 289.674C87.5332 289.416 87.1914 289.287 86.7266 289.287C86.1172 289.287 85.6699 289.471 85.3848 289.838C85.1035 290.201 84.9629 290.799 84.9629 291.631V295H83.9902V288.578H84.7812L84.9395 289.457H84.9863C85.1699 289.145 85.4277 288.9 85.7598 288.725C86.0957 288.549 86.4707 288.461 86.8848 288.461C87.8887 288.461 88.5449 288.824 88.8535 289.551H88.9004C89.0918 289.215 89.3691 288.949 89.7324 288.754C90.0957 288.559 90.5098 288.461 90.9746 288.461C91.7012 288.461 92.2441 288.648 92.6035 289.023C92.9668 289.395 93.1484 289.99 93.1484 290.811V295H92.1758ZM97.8711 295.117C96.9219 295.117 96.1719 294.828 95.6211 294.25C95.0742 293.672 94.8008 292.869 94.8008 291.842C94.8008 290.807 95.0547 289.984 95.5625 289.375C96.0742 288.766 96.7598 288.461 97.6191 288.461C98.4238 288.461 99.0605 288.727 99.5293 289.258C99.998 289.785 100.232 290.482 100.232 291.35V291.965H95.8086C95.8281 292.719 96.0176 293.291 96.377 293.682C96.7402 294.072 97.25 294.268 97.9062 294.268C98.5977 294.268 99.2812 294.123 99.957 293.834V294.701C99.6133 294.85 99.2871 294.955 98.9785 295.018C98.6738 295.084 98.3047 295.117 97.8711 295.117ZM97.6074 289.275C97.0918 289.275 96.6797 289.443 96.3711 289.779C96.0664 290.115 95.8867 290.58 95.832 291.174H99.1895C99.1895 290.561 99.0527 290.092 98.7793 289.768C98.5059 289.439 98.1152 289.275 97.6074 289.275ZM106.291 295V290.846C106.291 290.322 106.172 289.932 105.934 289.674C105.695 289.416 105.322 289.287 104.814 289.287C104.143 289.287 103.65 289.469 103.338 289.832C103.025 290.195 102.869 290.795 102.869 291.631V295H101.896V288.578H102.688L102.846 289.457H102.893C103.092 289.141 103.371 288.896 103.73 288.725C104.09 288.549 104.49 288.461 104.932 288.461C105.705 288.461 106.287 288.648 106.678 289.023C107.068 289.395 107.264 289.99 107.264 290.811V295H106.291ZM111.342 294.314C111.514 294.314 111.68 294.303 111.84 294.279C112 294.252 112.127 294.225 112.221 294.197V294.941C112.115 294.992 111.959 295.033 111.752 295.064C111.549 295.1 111.365 295.117 111.201 295.117C109.959 295.117 109.338 294.463 109.338 293.154V289.334H108.418V288.865L109.338 288.461L109.748 287.09H110.311V288.578H112.174V289.334H110.311V293.113C110.311 293.5 110.402 293.797 110.586 294.004C110.77 294.211 111.021 294.314 111.342 294.314ZM120.441 287.201C119.5 287.201 118.756 287.516 118.209 288.145C117.666 288.77 117.395 289.627 117.395 290.717C117.395 291.838 117.656 292.705 118.18 293.318C118.707 293.928 119.457 294.232 120.43 294.232C121.027 294.232 121.709 294.125 122.475 293.91V294.783C121.881 295.006 121.148 295.117 120.277 295.117C119.016 295.117 118.041 294.734 117.354 293.969C116.67 293.203 116.328 292.115 116.328 290.705C116.328 289.822 116.492 289.049 116.82 288.385C117.152 287.721 117.629 287.209 118.25 286.85C118.875 286.49 119.609 286.311 120.453 286.311C121.352 286.311 122.137 286.475 122.809 286.803L122.387 287.658C121.738 287.354 121.09 287.201 120.441 287.201ZM129.74 291.783C129.74 292.83 129.477 293.648 128.949 294.238C128.422 294.824 127.693 295.117 126.764 295.117C126.189 295.117 125.68 294.982 125.234 294.713C124.789 294.443 124.445 294.057 124.203 293.553C123.961 293.049 123.84 292.459 123.84 291.783C123.84 290.736 124.102 289.922 124.625 289.34C125.148 288.754 125.875 288.461 126.805 288.461C127.703 288.461 128.416 288.76 128.943 289.357C129.475 289.955 129.74 290.764 129.74 291.783ZM124.848 291.783C124.848 292.604 125.012 293.229 125.34 293.658C125.668 294.088 126.15 294.303 126.787 294.303C127.424 294.303 127.906 294.09 128.234 293.664C128.566 293.234 128.732 292.607 128.732 291.783C128.732 290.967 128.566 290.348 128.234 289.926C127.906 289.5 127.42 289.287 126.775 289.287C126.139 289.287 125.658 289.496 125.334 289.914C125.01 290.332 124.848 290.955 124.848 291.783ZM139.637 295V290.822C139.637 290.311 139.527 289.928 139.309 289.674C139.09 289.416 138.75 289.287 138.289 289.287C137.684 289.287 137.236 289.461 136.947 289.809C136.658 290.156 136.514 290.691 136.514 291.414V295H135.541V290.822C135.541 290.311 135.432 289.928 135.213 289.674C134.994 289.416 134.652 289.287 134.188 289.287C133.578 289.287 133.131 289.471 132.846 289.838C132.564 290.201 132.424 290.799 132.424 291.631V295H131.451V288.578H132.242L132.4 289.457H132.447C132.631 289.145 132.889 288.9 133.221 288.725C133.557 288.549 133.932 288.461 134.346 288.461C135.35 288.461 136.006 288.824 136.314 289.551H136.361C136.553 289.215 136.83 288.949 137.193 288.754C137.557 288.559 137.971 288.461 138.436 288.461C139.162 288.461 139.705 288.648 140.064 289.023C140.428 289.395 140.609 289.99 140.609 290.811V295H139.637ZM145.607 295.117C145.189 295.117 144.807 295.041 144.459 294.889C144.115 294.732 143.826 294.494 143.592 294.174H143.521C143.568 294.549 143.592 294.904 143.592 295.24V297.883H142.619V288.578H143.41L143.545 289.457H143.592C143.842 289.105 144.133 288.852 144.465 288.695C144.797 288.539 145.178 288.461 145.607 288.461C146.459 288.461 147.115 288.752 147.576 289.334C148.041 289.916 148.273 290.732 148.273 291.783C148.273 292.838 148.037 293.658 147.564 294.244C147.096 294.826 146.443 295.117 145.607 295.117ZM145.467 289.287C144.811 289.287 144.336 289.469 144.043 289.832C143.75 290.195 143.6 290.773 143.592 291.566V291.783C143.592 292.686 143.742 293.332 144.043 293.723C144.344 294.109 144.826 294.303 145.49 294.303C146.045 294.303 146.479 294.078 146.791 293.629C147.107 293.18 147.266 292.561 147.266 291.771C147.266 290.971 147.107 290.357 146.791 289.932C146.479 289.502 146.037 289.287 145.467 289.287ZM152.691 295.117C151.742 295.117 150.992 294.828 150.441 294.25C149.895 293.672 149.621 292.869 149.621 291.842C149.621 290.807 149.875 289.984 150.383 289.375C150.895 288.766 151.58 288.461 152.439 288.461C153.244 288.461 153.881 288.727 154.35 289.258C154.818 289.785 155.053 290.482 155.053 291.35V291.965H150.629C150.648 292.719 150.838 293.291 151.197 293.682C151.561 294.072 152.07 294.268 152.727 294.268C153.418 294.268 154.102 294.123 154.777 293.834V294.701C154.434 294.85 154.107 294.955 153.799 295.018C153.494 295.084 153.125 295.117 152.691 295.117ZM152.428 289.275C151.912 289.275 151.5 289.443 151.191 289.779C150.887 290.115 150.707 290.58 150.652 291.174H154.01C154.01 290.561 153.873 290.092 153.6 289.768C153.326 289.439 152.936 289.275 152.428 289.275ZM161.111 295V290.846C161.111 290.322 160.992 289.932 160.754 289.674C160.516 289.416 160.143 289.287 159.635 289.287C158.963 289.287 158.471 289.469 158.158 289.832C157.846 290.195 157.689 290.795 157.689 291.631V295H156.717V288.578H157.508L157.666 289.457H157.713C157.912 289.141 158.191 288.896 158.551 288.725C158.91 288.549 159.311 288.461 159.752 288.461C160.525 288.461 161.107 288.648 161.498 289.023C161.889 289.395 162.084 289.99 162.084 290.811V295H161.111ZM168.23 293.248C168.23 293.846 168.008 294.307 167.562 294.631C167.117 294.955 166.492 295.117 165.688 295.117C164.836 295.117 164.172 294.982 163.695 294.713V293.811C164.004 293.967 164.334 294.09 164.686 294.18C165.041 294.27 165.383 294.314 165.711 294.314C166.219 294.314 166.609 294.234 166.883 294.074C167.156 293.91 167.293 293.662 167.293 293.33C167.293 293.08 167.184 292.867 166.965 292.691C166.75 292.512 166.328 292.301 165.699 292.059C165.102 291.836 164.676 291.643 164.422 291.479C164.172 291.311 163.984 291.121 163.859 290.91C163.738 290.699 163.678 290.447 163.678 290.154C163.678 289.631 163.891 289.219 164.316 288.918C164.742 288.613 165.326 288.461 166.068 288.461C166.76 288.461 167.436 288.602 168.096 288.883L167.75 289.674C167.105 289.408 166.521 289.275 165.998 289.275C165.537 289.275 165.189 289.348 164.955 289.492C164.721 289.637 164.604 289.836 164.604 290.09C164.604 290.262 164.646 290.408 164.732 290.529C164.822 290.65 164.965 290.766 165.16 290.875C165.355 290.984 165.73 291.143 166.285 291.35C167.047 291.627 167.561 291.906 167.826 292.188C168.096 292.469 168.23 292.822 168.23 293.248ZM173.768 295L173.574 294.086H173.527C173.207 294.488 172.887 294.762 172.566 294.906C172.25 295.047 171.854 295.117 171.377 295.117C170.74 295.117 170.24 294.953 169.877 294.625C169.518 294.297 169.338 293.83 169.338 293.225C169.338 291.928 170.375 291.248 172.449 291.186L173.539 291.15V290.752C173.539 290.248 173.43 289.877 173.211 289.639C172.996 289.396 172.65 289.275 172.174 289.275C171.639 289.275 171.033 289.439 170.357 289.768L170.059 289.023C170.375 288.852 170.721 288.717 171.096 288.619C171.475 288.521 171.854 288.473 172.232 288.473C172.998 288.473 173.564 288.643 173.932 288.982C174.303 289.322 174.488 289.867 174.488 290.617V295H173.768ZM171.57 294.314C172.176 294.314 172.65 294.148 172.994 293.816C173.342 293.484 173.516 293.02 173.516 292.422V291.842L172.543 291.883C171.77 291.91 171.211 292.031 170.867 292.246C170.527 292.457 170.357 292.787 170.357 293.236C170.357 293.588 170.463 293.855 170.674 294.039C170.889 294.223 171.188 294.314 171.57 294.314ZM178.572 294.314C178.744 294.314 178.91 294.303 179.07 294.279C179.23 294.252 179.357 294.225 179.451 294.197V294.941C179.346 294.992 179.189 295.033 178.982 295.064C178.779 295.1 178.596 295.117 178.432 295.117C177.189 295.117 176.568 294.463 176.568 293.154V289.334H175.648V288.865L176.568 288.461L176.979 287.09H177.541V288.578H179.404V289.334H177.541V293.113C177.541 293.5 177.633 293.797 177.816 294.004C178 294.211 178.252 294.314 178.572 294.314ZM181.713 295H180.74V288.578H181.713V295ZM180.658 286.838C180.658 286.615 180.713 286.453 180.822 286.352C180.932 286.246 181.068 286.193 181.232 286.193C181.389 286.193 181.523 286.246 181.637 286.352C181.75 286.457 181.807 286.619 181.807 286.838C181.807 287.057 181.75 287.221 181.637 287.33C181.523 287.436 181.389 287.488 181.232 287.488C181.068 287.488 180.932 287.436 180.822 287.33C180.713 287.221 180.658 287.057 180.658 286.838ZM189.318 291.783C189.318 292.83 189.055 293.648 188.527 294.238C188 294.824 187.271 295.117 186.342 295.117C185.768 295.117 185.258 294.982 184.812 294.713C184.367 294.443 184.023 294.057 183.781 293.553C183.539 293.049 183.418 292.459 183.418 291.783C183.418 290.736 183.68 289.922 184.203 289.34C184.727 288.754 185.453 288.461 186.383 288.461C187.281 288.461 187.994 288.76 188.521 289.357C189.053 289.955 189.318 290.764 189.318 291.783ZM184.426 291.783C184.426 292.604 184.59 293.229 184.918 293.658C185.246 294.088 185.729 294.303 186.365 294.303C187.002 294.303 187.484 294.09 187.812 293.664C188.145 293.234 188.311 292.607 188.311 291.783C188.311 290.967 188.145 290.348 187.812 289.926C187.484 289.5 186.998 289.287 186.354 289.287C185.717 289.287 185.236 289.496 184.912 289.914C184.588 290.332 184.426 290.955 184.426 291.783ZM195.424 295V290.846C195.424 290.322 195.305 289.932 195.066 289.674C194.828 289.416 194.455 289.287 193.947 289.287C193.275 289.287 192.783 289.469 192.471 289.832C192.158 290.195 192.002 290.795 192.002 291.631V295H191.029V288.578H191.82L191.979 289.457H192.025C192.225 289.141 192.504 288.896 192.863 288.725C193.223 288.549 193.623 288.461 194.064 288.461C194.838 288.461 195.42 288.648 195.811 289.023C196.201 289.395 196.396 289.99 196.396 290.811V295H195.424ZM207.049 295L205.982 292.275H202.549L201.494 295H200.486L203.873 286.398H204.711L208.08 295H207.049ZM205.672 291.379L204.676 288.725C204.547 288.389 204.414 287.977 204.277 287.488C204.191 287.863 204.068 288.275 203.908 288.725L202.9 291.379H205.672ZM211.678 295.117C210.748 295.117 210.027 294.832 209.516 294.262C209.008 293.688 208.754 292.877 208.754 291.83C208.754 290.756 209.012 289.926 209.527 289.34C210.047 288.754 210.785 288.461 211.742 288.461C212.051 288.461 212.359 288.494 212.668 288.561C212.977 288.627 213.219 288.705 213.395 288.795L213.096 289.621C212.881 289.535 212.646 289.465 212.393 289.41C212.139 289.352 211.914 289.322 211.719 289.322C210.414 289.322 209.762 290.154 209.762 291.818C209.762 292.607 209.92 293.213 210.236 293.635C210.557 294.057 211.029 294.268 211.654 294.268C212.189 294.268 212.738 294.152 213.301 293.922V294.783C212.871 295.006 212.33 295.117 211.678 295.117ZM217.396 295.117C216.467 295.117 215.746 294.832 215.234 294.262C214.727 293.688 214.473 292.877 214.473 291.83C214.473 290.756 214.73 289.926 215.246 289.34C215.766 288.754 216.504 288.461 217.461 288.461C217.77 288.461 218.078 288.494 218.387 288.561C218.695 288.627 218.938 288.705 219.113 288.795L218.814 289.621C218.6 289.535 218.365 289.465 218.111 289.41C217.857 289.352 217.633 289.322 217.438 289.322C216.133 289.322 215.48 290.154 215.48 291.818C215.48 292.607 215.639 293.213 215.955 293.635C216.275 294.057 216.748 294.268 217.373 294.268C217.908 294.268 218.457 294.152 219.02 293.922V294.783C218.59 295.006 218.049 295.117 217.396 295.117ZM226.092 291.783C226.092 292.83 225.828 293.648 225.301 294.238C224.773 294.824 224.045 295.117 223.115 295.117C222.541 295.117 222.031 294.982 221.586 294.713C221.141 294.443 220.797 294.057 220.555 293.553C220.312 293.049 220.191 292.459 220.191 291.783C220.191 290.736 220.453 289.922 220.977 289.34C221.5 288.754 222.227 288.461 223.156 288.461C224.055 288.461 224.768 288.76 225.295 289.357C225.826 289.955 226.092 290.764 226.092 291.783ZM221.199 291.783C221.199 292.604 221.363 293.229 221.691 293.658C222.02 294.088 222.502 294.303 223.139 294.303C223.775 294.303 224.258 294.09 224.586 293.664C224.918 293.234 225.084 292.607 225.084 291.783C225.084 290.967 224.918 290.348 224.586 289.926C224.258 289.5 223.771 289.287 223.127 289.287C222.49 289.287 222.01 289.496 221.686 289.914C221.361 290.332 221.199 290.955 221.199 291.783ZM228.717 288.578V292.744C228.717 293.268 228.836 293.658 229.074 293.916C229.312 294.174 229.686 294.303 230.193 294.303C230.865 294.303 231.355 294.119 231.664 293.752C231.977 293.385 232.133 292.785 232.133 291.953V288.578H233.105V295H232.303L232.162 294.139H232.109C231.91 294.455 231.633 294.697 231.277 294.865C230.926 295.033 230.523 295.117 230.07 295.117C229.289 295.117 228.703 294.932 228.312 294.561C227.926 294.189 227.732 293.596 227.732 292.779V288.578H228.717ZM239.568 295V290.846C239.568 290.322 239.449 289.932 239.211 289.674C238.973 289.416 238.6 289.287 238.092 289.287C237.42 289.287 236.928 289.469 236.615 289.832C236.303 290.195 236.146 290.795 236.146 291.631V295H235.174V288.578H235.965L236.123 289.457H236.17C236.369 289.141 236.648 288.896 237.008 288.725C237.367 288.549 237.768 288.461 238.209 288.461C238.982 288.461 239.564 288.648 239.955 289.023C240.346 289.395 240.541 289.99 240.541 290.811V295H239.568ZM244.619 294.314C244.791 294.314 244.957 294.303 245.117 294.279C245.277 294.252 245.404 294.225 245.498 294.197V294.941C245.393 294.992 245.236 295.033 245.029 295.064C244.826 295.1 244.643 295.117 244.479 295.117C243.236 295.117 242.615 294.463 242.615 293.154V289.334H241.695V288.865L242.615 288.461L243.025 287.09H243.588V288.578H245.451V289.334H243.588V293.113C243.588 293.5 243.68 293.797 243.863 294.004C244.047 294.211 244.299 294.314 244.619 294.314Z" fill="#0A2535"/>
<path d="M74.2285 317H73.2324V309.318H70.5195V308.434H76.9414V309.318H74.2285V317ZM83.6328 313.783C83.6328 314.83 83.3691 315.648 82.8418 316.238C82.3145 316.824 81.5859 317.117 80.6562 317.117C80.082 317.117 79.5723 316.982 79.127 316.713C78.6816 316.443 78.3379 316.057 78.0957 315.553C77.8535 315.049 77.7324 314.459 77.7324 313.783C77.7324 312.736 77.9941 311.922 78.5176 311.34C79.041 310.754 79.7676 310.461 80.6973 310.461C81.5957 310.461 82.3086 310.76 82.8359 311.357C83.3672 311.955 83.6328 312.764 83.6328 313.783ZM78.7402 313.783C78.7402 314.604 78.9043 315.229 79.2324 315.658C79.5605 316.088 80.043 316.303 80.6797 316.303C81.3164 316.303 81.7988 316.09 82.127 315.664C82.459 315.234 82.625 314.607 82.625 313.783C82.625 312.967 82.459 312.348 82.127 311.926C81.7988 311.5 81.3125 311.287 80.668 311.287C80.0312 311.287 79.5508 311.496 79.2266 311.914C78.9023 312.332 78.7402 312.955 78.7402 313.783ZM87.418 316.314C87.5898 316.314 87.7559 316.303 87.916 316.279C88.0762 316.252 88.2031 316.225 88.2969 316.197V316.941C88.1914 316.992 88.0352 317.033 87.8281 317.064C87.625 317.1 87.4414 317.117 87.2773 317.117C86.0352 317.117 85.4141 316.463 85.4141 315.154V311.334H84.4941V310.865L85.4141 310.461L85.8242 309.09H86.3867V310.578H88.25V311.334H86.3867V315.113C86.3867 315.5 86.4785 315.797 86.6621 316.004C86.8457 316.211 87.0977 316.314 87.418 316.314ZM93.5352 317L93.3418 316.086H93.2949C92.9746 316.488 92.6543 316.762 92.334 316.906C92.0176 317.047 91.6211 317.117 91.1445 317.117C90.5078 317.117 90.0078 316.953 89.6445 316.625C89.2852 316.297 89.1055 315.83 89.1055 315.225C89.1055 313.928 90.1426 313.248 92.2168 313.186L93.3066 313.15V312.752C93.3066 312.248 93.1973 311.877 92.9785 311.639C92.7637 311.396 92.418 311.275 91.9414 311.275C91.4062 311.275 90.8008 311.439 90.125 311.768L89.8262 311.023C90.1426 310.852 90.4883 310.717 90.8633 310.619C91.2422 310.521 91.6211 310.473 92 310.473C92.7656 310.473 93.332 310.643 93.6992 310.982C94.0703 311.322 94.2559 311.867 94.2559 312.617V317H93.5352ZM91.3379 316.314C91.9434 316.314 92.418 316.148 92.7617 315.816C93.1094 315.484 93.2832 315.02 93.2832 314.422V313.842L92.3105 313.883C91.5371 313.91 90.9785 314.031 90.6348 314.246C90.2949 314.457 90.125 314.787 90.125 315.236C90.125 315.588 90.2305 315.855 90.4414 316.039C90.6562 316.223 90.9551 316.314 91.3379 316.314ZM97.2383 317H96.2656V307.883H97.2383V317ZM106.232 309.201C105.291 309.201 104.547 309.516 104 310.145C103.457 310.77 103.186 311.627 103.186 312.717C103.186 313.838 103.447 314.705 103.971 315.318C104.498 315.928 105.248 316.232 106.221 316.232C106.818 316.232 107.5 316.125 108.266 315.91V316.783C107.672 317.006 106.939 317.117 106.068 317.117C104.807 317.117 103.832 316.734 103.145 315.969C102.461 315.203 102.119 314.115 102.119 312.705C102.119 311.822 102.283 311.049 102.611 310.385C102.943 309.721 103.42 309.209 104.041 308.85C104.666 308.49 105.4 308.311 106.244 308.311C107.143 308.311 107.928 308.475 108.6 308.803L108.178 309.658C107.529 309.354 106.881 309.201 106.232 309.201ZM115.531 313.783C115.531 314.83 115.268 315.648 114.74 316.238C114.213 316.824 113.484 317.117 112.555 317.117C111.98 317.117 111.471 316.982 111.025 316.713C110.58 316.443 110.236 316.057 109.994 315.553C109.752 315.049 109.631 314.459 109.631 313.783C109.631 312.736 109.893 311.922 110.416 311.34C110.939 310.754 111.666 310.461 112.596 310.461C113.494 310.461 114.207 310.76 114.734 311.357C115.266 311.955 115.531 312.764 115.531 313.783ZM110.639 313.783C110.639 314.604 110.803 315.229 111.131 315.658C111.459 316.088 111.941 316.303 112.578 316.303C113.215 316.303 113.697 316.09 114.025 315.664C114.357 315.234 114.523 314.607 114.523 313.783C114.523 312.967 114.357 312.348 114.025 311.926C113.697 311.5 113.211 311.287 112.566 311.287C111.93 311.287 111.449 311.496 111.125 311.914C110.801 312.332 110.639 312.955 110.639 313.783ZM121.637 317V312.846C121.637 312.322 121.518 311.932 121.279 311.674C121.041 311.416 120.668 311.287 120.16 311.287C119.488 311.287 118.996 311.469 118.684 311.832C118.371 312.195 118.215 312.795 118.215 313.631V317H117.242V310.578H118.033L118.191 311.457H118.238C118.438 311.141 118.717 310.896 119.076 310.725C119.436 310.549 119.836 310.461 120.277 310.461C121.051 310.461 121.633 310.648 122.023 311.023C122.414 311.395 122.609 311.99 122.609 312.811V317H121.637ZM126.688 316.314C126.859 316.314 127.025 316.303 127.186 316.279C127.346 316.252 127.473 316.225 127.566 316.197V316.941C127.461 316.992 127.305 317.033 127.098 317.064C126.895 317.1 126.711 317.117 126.547 317.117C125.305 317.117 124.684 316.463 124.684 315.154V311.334H123.764V310.865L124.684 310.461L125.094 309.09H125.656V310.578H127.52V311.334H125.656V315.113C125.656 315.5 125.748 315.797 125.932 316.004C126.115 316.211 126.367 316.314 126.688 316.314ZM131.785 310.461C132.07 310.461 132.326 310.484 132.553 310.531L132.418 311.434C132.152 311.375 131.918 311.346 131.715 311.346C131.195 311.346 130.75 311.557 130.379 311.979C130.012 312.4 129.828 312.926 129.828 313.555V317H128.855V310.578H129.658L129.77 311.768H129.816C130.055 311.35 130.342 311.027 130.678 310.801C131.014 310.574 131.383 310.461 131.785 310.461ZM134.727 317H133.754V310.578H134.727V317ZM133.672 308.838C133.672 308.615 133.727 308.453 133.836 308.352C133.945 308.246 134.082 308.193 134.246 308.193C134.402 308.193 134.537 308.246 134.65 308.352C134.764 308.457 134.82 308.619 134.82 308.838C134.82 309.057 134.764 309.221 134.65 309.33C134.537 309.436 134.402 309.488 134.246 309.488C134.082 309.488 133.945 309.436 133.836 309.33C133.727 309.221 133.672 309.057 133.672 308.838ZM139.777 310.473C140.621 310.473 141.275 310.762 141.74 311.34C142.209 311.914 142.443 312.729 142.443 313.783C142.443 314.838 142.207 315.658 141.734 316.244C141.266 316.826 140.613 317.117 139.777 317.117C139.359 317.117 138.977 317.041 138.629 316.889C138.285 316.732 137.996 316.494 137.762 316.174H137.691L137.486 317H136.789V307.883H137.762V310.098C137.762 310.594 137.746 311.039 137.715 311.434H137.762C138.215 310.793 138.887 310.473 139.777 310.473ZM139.637 311.287C138.973 311.287 138.494 311.479 138.201 311.861C137.908 312.24 137.762 312.881 137.762 313.783C137.762 314.686 137.912 315.332 138.213 315.723C138.514 316.109 138.996 316.303 139.66 316.303C140.258 316.303 140.703 316.086 140.996 315.652C141.289 315.215 141.436 314.588 141.436 313.771C141.436 312.936 141.289 312.312 140.996 311.902C140.703 311.492 140.25 311.287 139.637 311.287ZM145.062 310.578V314.744C145.062 315.268 145.182 315.658 145.42 315.916C145.658 316.174 146.031 316.303 146.539 316.303C147.211 316.303 147.701 316.119 148.01 315.752C148.322 315.385 148.479 314.785 148.479 313.953V310.578H149.451V317H148.648L148.508 316.139H148.455C148.256 316.455 147.979 316.697 147.623 316.865C147.271 317.033 146.869 317.117 146.416 317.117C145.635 317.117 145.049 316.932 144.658 316.561C144.271 316.189 144.078 315.596 144.078 314.779V310.578H145.062ZM153.594 316.314C153.766 316.314 153.932 316.303 154.092 316.279C154.252 316.252 154.379 316.225 154.473 316.197V316.941C154.367 316.992 154.211 317.033 154.004 317.064C153.801 317.1 153.617 317.117 153.453 317.117C152.211 317.117 151.59 316.463 151.59 315.154V311.334H150.67V310.865L151.59 310.461L152 309.09H152.562V310.578H154.426V311.334H152.562V315.113C152.562 315.5 152.654 315.797 152.838 316.004C153.021 316.211 153.273 316.314 153.594 316.314ZM156.734 317H155.762V310.578H156.734V317ZM155.68 308.838C155.68 308.615 155.734 308.453 155.844 308.352C155.953 308.246 156.09 308.193 156.254 308.193C156.41 308.193 156.545 308.246 156.658 308.352C156.771 308.457 156.828 308.619 156.828 308.838C156.828 309.057 156.771 309.221 156.658 309.33C156.545 309.436 156.41 309.488 156.254 309.488C156.09 309.488 155.953 309.436 155.844 309.33C155.734 309.221 155.68 309.057 155.68 308.838ZM164.34 313.783C164.34 314.83 164.076 315.648 163.549 316.238C163.021 316.824 162.293 317.117 161.363 317.117C160.789 317.117 160.279 316.982 159.834 316.713C159.389 316.443 159.045 316.057 158.803 315.553C158.561 315.049 158.439 314.459 158.439 313.783C158.439 312.736 158.701 311.922 159.225 311.34C159.748 310.754 160.475 310.461 161.404 310.461C162.303 310.461 163.016 310.76 163.543 311.357C164.074 311.955 164.34 312.764 164.34 313.783ZM159.447 313.783C159.447 314.604 159.611 315.229 159.939 315.658C160.268 316.088 160.75 316.303 161.387 316.303C162.023 316.303 162.506 316.09 162.834 315.664C163.166 315.234 163.332 314.607 163.332 313.783C163.332 312.967 163.166 312.348 162.834 311.926C162.506 311.5 162.02 311.287 161.375 311.287C160.738 311.287 160.258 311.496 159.934 311.914C159.609 312.332 159.447 312.955 159.447 313.783ZM170.445 317V312.846C170.445 312.322 170.326 311.932 170.088 311.674C169.85 311.416 169.477 311.287 168.969 311.287C168.297 311.287 167.805 311.469 167.492 311.832C167.18 312.195 167.023 312.795 167.023 313.631V317H166.051V310.578H166.842L167 311.457H167.047C167.246 311.141 167.525 310.896 167.885 310.725C168.244 310.549 168.645 310.461 169.086 310.461C169.859 310.461 170.441 310.648 170.832 311.023C171.223 311.395 171.418 311.99 171.418 312.811V317H170.445ZM177.682 313.438V317H176.686V308.434H179.035C180.086 308.434 180.861 308.635 181.361 309.037C181.865 309.439 182.117 310.045 182.117 310.854C182.117 311.986 181.543 312.752 180.395 313.15L182.721 317H181.543L179.469 313.438H177.682ZM177.682 312.582H179.047C179.75 312.582 180.266 312.443 180.594 312.166C180.922 311.885 181.086 311.465 181.086 310.906C181.086 310.34 180.918 309.932 180.582 309.682C180.25 309.432 179.715 309.307 178.977 309.307H177.682V312.582ZM187.906 317L187.713 316.086H187.666C187.346 316.488 187.025 316.762 186.705 316.906C186.389 317.047 185.992 317.117 185.516 317.117C184.879 317.117 184.379 316.953 184.016 316.625C183.656 316.297 183.477 315.83 183.477 315.225C183.477 313.928 184.514 313.248 186.588 313.186L187.678 313.15V312.752C187.678 312.248 187.568 311.877 187.35 311.639C187.135 311.396 186.789 311.275 186.312 311.275C185.777 311.275 185.172 311.439 184.496 311.768L184.197 311.023C184.514 310.852 184.859 310.717 185.234 310.619C185.613 310.521 185.992 310.473 186.371 310.473C187.137 310.473 187.703 310.643 188.07 310.982C188.441 311.322 188.627 311.867 188.627 312.617V317H187.906ZM185.709 316.314C186.314 316.314 186.789 316.148 187.133 315.816C187.48 315.484 187.654 315.02 187.654 314.422V313.842L186.682 313.883C185.908 313.91 185.35 314.031 185.006 314.246C184.666 314.457 184.496 314.787 184.496 315.236C184.496 315.588 184.602 315.855 184.812 316.039C185.027 316.223 185.326 316.314 185.709 316.314ZM192.711 316.314C192.883 316.314 193.049 316.303 193.209 316.279C193.369 316.252 193.496 316.225 193.59 316.197V316.941C193.484 316.992 193.328 317.033 193.121 317.064C192.918 317.1 192.734 317.117 192.57 317.117C191.328 317.117 190.707 316.463 190.707 315.154V311.334H189.787V310.865L190.707 310.461L191.117 309.09H191.68V310.578H193.543V311.334H191.68V315.113C191.68 315.5 191.771 315.797 191.955 316.004C192.139 316.211 192.391 316.314 192.711 316.314ZM197.592 317.117C196.643 317.117 195.893 316.828 195.342 316.25C194.795 315.672 194.521 314.869 194.521 313.842C194.521 312.807 194.775 311.984 195.283 311.375C195.795 310.766 196.48 310.461 197.34 310.461C198.145 310.461 198.781 310.727 199.25 311.258C199.719 311.785 199.953 312.482 199.953 313.35V313.965H195.529C195.549 314.719 195.738 315.291 196.098 315.682C196.461 316.072 196.971 316.268 197.627 316.268C198.318 316.268 199.002 316.123 199.678 315.834V316.701C199.334 316.85 199.008 316.955 198.699 317.018C198.395 317.084 198.025 317.117 197.592 317.117ZM197.328 311.275C196.812 311.275 196.4 311.443 196.092 311.779C195.787 312.115 195.607 312.58 195.553 313.174H198.91C198.91 312.561 198.773 312.092 198.5 311.768C198.227 311.439 197.836 311.275 197.328 311.275Z" fill="#0A2535"/>
</svg>
