<?xml version="1.0" encoding="utf-8"?>
<!-- Generator: Adobe Illustrator 23.0.6, SVG Export Plug-In . SVG Version: 6.00 Build 0)  -->
<svg version="1.1" id="Layer_1" xmlns="http://www.w3.org/2000/svg" xmlns:xlink="http://www.w3.org/1999/xlink" x="0px" y="0px"
	 viewBox="0 0 924 574.6" style="enable-background:new 0 0 924 574.6;" xml:space="preserve">
<style type="text/css">
	.st0{display:none;}
	.st1{fill:#0A2535;}
</style>
<g class="st0">
</g>
<path class="st1" d="M462.5,352.1c-35.7,0-64.8-29.1-64.8-64.8s29.1-64.8,64.8-64.8s64.8,29.1,64.8,64.8S498.2,352.1,462.5,352.1z
	 M462.5,237.6c-27.4,0-49.7,22.3-49.7,49.7s22.3,49.7,49.7,49.7s49.7-22.3,49.7-49.7S489.9,237.6,462.5,237.6z"/>
<path class="st1" d="M886.3,574.6h-45.2c-4.2,0-7.5-3.3-7.5-7.5c0-4.2,3.3-7.5,7.5-7.5h45.2c12.5,0,22.6-10.1,22.6-22.6v-43
	c0-4.2,3.3-7.5,7.5-7.5c4.2,0,7.5,3.3,7.5,7.5v43C924,557.7,907.1,574.6,886.3,574.6z"/>
<path class="st1" d="M916.5,88.2c-4.2,0-7.5-3.3-7.5-7.5v-43c0-12.5-10.1-22.6-22.6-22.6h-45.2c-4.2,0-7.5-3.3-7.5-7.5
	s3.3-7.5,7.5-7.5h45.2C907.1,0,924,16.9,924,37.7v43C924,84.9,920.7,88.2,916.5,88.2z"/>
<path class="st1" d="M7.5,88.2c-4.2,0-7.5-3.3-7.5-7.5v-43C0,16.9,16.9,0,37.7,0h43.7c4.2,0,7.5,3.3,7.5,7.5s-3.3,7.5-7.5,7.5H37.7
	c-12.5,0-22.6,10.1-22.6,22.6v43C15.1,84.9,11.8,88.2,7.5,88.2z"/>
<path class="st1" d="M81.4,574.6H37.7C16.9,574.6,0,557.7,0,536.9v-43c0-4.2,3.3-7.5,7.5-7.5s7.5,3.3,7.5,7.5v43
	c0,12.5,10.1,22.6,22.6,22.6h43.7c4.2,0,7.5,3.3,7.5,7.5C88.9,571.3,85.6,574.6,81.4,574.6z"/>
</svg>
