<?xml version="1.0" encoding="utf-8"?>
<!-- Generator: Adobe Illustrator 23.0.6, SVG Export Plug-In . SVG Version: 6.00 Build 0)  -->
<svg version="1.1" id="Layer_1" xmlns="http://www.w3.org/2000/svg" xmlns:xlink="http://www.w3.org/1999/xlink" x="0px" y="0px"
	 viewBox="0 0 600 416" style="enable-background:new 0 0 600 416;" xml:space="preserve">
<style type="text/css">
	.st0{display:none;}
	.st1{fill:#0A2535;}
</style>
<g class="st0">
	
		<image style="display:inline;overflow:visible;enable-background:new    ;" width="1242" height="2208" xlink:href="../../../../Downloads/IMG-9556.PNG"  transform="matrix(0.7717 0 0 0.7717 -193 -691)">
	</image>
</g>
<g>
	<path class="st1" d="M300.5,251c-23.7,0-43-19.3-43-43s19.3-43,43-43s43,19.3,43,43S324.2,251,300.5,251z M300.5,175
		c-18.2,0-33,14.8-33,33s14.8,33,33,33s33-14.8,33-33S318.7,175,300.5,175z"/>
	<path class="st1" d="M573,414.5h-30c-2.8,0-5-2.2-5-5s2.2-5,5-5h30c8.3,0,15-6.7,15-15V361c0-2.8,2.2-5,5-5s5,2.2,5,5v28.5
		C598,403.3,586.8,414.5,573,414.5z"/>
	<path class="st1" d="M593,60c-2.8,0-5-2.2-5-5V26.5c0-8.3-6.7-15-15-15h-30c-2.8,0-5-2.2-5-5s2.2-5,5-5h30c13.8,0,25,11.2,25,25V55
		C598,57.8,595.8,60,593,60z"/>
	<path class="st1" d="M8,60c-2.8,0-5-2.2-5-5V26.5c0-13.8,11.2-25,25-25h29c2.8,0,5,2.2,5,5s-2.2,5-5,5H28c-8.3,0-15,6.7-15,15V55
		C13,57.8,10.8,60,8,60z"/>
	<path class="st1" d="M57,414.5H28c-13.8,0-25-11.2-25-25V361c0-2.8,2.2-5,5-5s5,2.2,5,5v28.5c0,8.3,6.7,15,15,15h29
		c2.8,0,5,2.2,5,5S59.8,414.5,57,414.5z"/>
</g>
</svg>
