<?xml version="1.0" encoding="utf-8"?>
<!-- Generator: Adobe Illustrator 23.0.6, SVG Export Plug-In . SVG Version: 6.00 Build 0)  -->
<svg version="1.1" id="Layer_1" xmlns="http://www.w3.org/2000/svg" xmlns:xlink="http://www.w3.org/1999/xlink" x="0px" y="0px"
	 viewBox="0 0 924 574.6" style="enable-background:new 0 0 924 574.6;" xml:space="preserve">
<style type="text/css">
	.st0{fill:#0A2535;}
</style>
<path class="st0" d="M881.4,575.2h-47.1v-14h47.1c16,0,29-13,29-29v-45.7h14v45.7C924.4,555.9,905.1,575.2,881.4,575.2z"/>
<path class="st0" d="M924.4,88.2h-14V42.4c0-16-13-29-29-29h-47v-14h47c23.7,0,43,19.3,43,43V88.2z"/>
<path class="st0" d="M14.6,88.2h-14V42.4c0-23.7,19.3-43,43-43h45.8v14H43.6c-16,0-29,13-29,29V88.2z"/>
<path class="st0" d="M89.4,575.2H43.6c-23.7,0-43-19.3-43-43v-45.7h14v45.7c0,16,13,29,29,29h45.8V575.2z"/>
<path class="st0" d="M462,351.5c-35.4,0-64.2-28.8-64.2-64.2S426.6,223,462,223s64.2,28.8,64.2,64.2S497.4,351.5,462,351.5z
	 M462,237c-27.7,0-50.2,22.5-50.2,50.2s22.5,50.2,50.2,50.2s50.2-22.5,50.2-50.2S489.7,237,462,237z"/>
</svg>
