<?xml version="1.0" encoding="utf-8"?>
<!-- Generator: Adobe Illustrator 23.0.6, SVG Export Plug-In . SVG Version: 6.00 Build 0)  -->
<svg version="1.1" id="Layer_1" xmlns="http://www.w3.org/2000/svg" xmlns:xlink="http://www.w3.org/1999/xlink" x="0px" y="0px"
	 viewBox="0 0 924 575" style="enable-background:new 0 0 924 575;" xml:space="preserve">
<style type="text/css">
	.st0{fill:#80D1B6;}
	.st1{fill:#D9D8D2;}
	.st2{fill:#FDFEFE;}
	.st3{fill:#DAD9D4;}
	.st4{fill:#204052;}
	.st5{fill:#244355;}
	.st6{fill:#6BC8AD;}
	.st7{fill:#F4FAF8;}
	.st8{fill:#FEFEFE;}
	.st9{fill:#E78662;}
	.st10{fill:#113347;}
	.st11{fill:#2B495A;}
	.st12{fill:#324E60;}
	.st13{fill:#F1B881;}
	.st14{fill:#ECA863;stroke:#ECA863;stroke-miterlimit:10;}
	.st15{fill:#ECA863;}
	.st16{fill:#193748;}
	.st17{fill:#343E40;}
	.st18{fill:#142B37;}
	.st19{fill:#132A37;}
	.st20{fill:#DA7753;stroke:#D97652;stroke-miterlimit:10;}
	.st21{fill:#D97652;stroke:#D97652;stroke-miterlimit:10;}
</style>
<path class="st0" d="M35.1,133.9c-0.5-1.5-1.5-3.1-1.6-4.6c-0.3-8.5-0.4-17-0.5-25.4c-0.1-9.8-0.3-19.6-0.1-29.4
	c0.2-7.6,0.5-15.3,1.5-22.8c0.4-3,2.4-6.5,4.7-8.4c9-7.6,18.6-13.8,31.2-14.1c10.1-0.2,20.2-1.9,30.3-2.4c7.8-0.3,15.6,0.5,23.3,0.5
	c14.1-0.1,28.3-0.4,42.4-0.6c17.9-0.2,35.9-0.6,53.8-0.4c22.1,0.3,44.2,1.2,66.4,1.7c12.3,0.3,24.6,0.5,36.9,0.2
	c12.3-0.2,24.6-1.4,36.9-1.5c14.3-0.1,28.6,0.7,42.9,0.9c29.1,0.4,58.3,0.5,87.4,1c16.1,0.3,32.2,1.3,48.4,1.5
	c13.5,0.2,27-0.6,40.5-0.5c20.7,0.1,41.3,0.4,62,0.7c15.5,0.2,30.9,0.7,46.4,0.8c11.6,0.1,23.3,0,34.9-0.5
	c17.9-0.8,35.8-2.8,53.8-3.2c25-0.5,49.9,0,74.9,0.3c6.8,0.1,13.7,0.1,19.9,3.8c6.8,4.1,11.3,9.3,14.1,17.2
	c3.4,9.8,3.5,19.5,3.5,29.5c0,11.7,0.6,23.3,0.6,35c0,6.8-0.7,13.6-1.1,20.4c-1.5,0.6-3,1.1-4.5,1.7c-2.3-0.2-4.7-0.5-7-0.4
	c-22.6,0.7-45.3,1.5-67.9,2.1c-10.5,0.3-21,0.4-31.5,0.5c-16.3,0.1-32.6,0-48.9,0.1c-12.3,0.1-24.6,0.6-37,0.4
	c-23.3-0.3-46.6-1.1-69.9-1.2c-17-0.1-33.9,0.9-50.9,0.8c-16.6-0.1-33.3-1-49.9-1.3c-5.3-0.1-10.6,0.8-15.9,0.8
	c-28.5,0-56.9-0.1-85.4-0.3c-18.3-0.1-36.6-0.7-54.9-0.8c-7.5-0.1-15,0.7-22.4,0.5c-13-0.4-25.9-1.7-38.9-2.1
	c-9.3-0.3-18.6,0.4-27.9,0.4c-14.8-0.1-29.6-0.8-44.4-0.8c-14,0-27.9,0.8-41.9,0.8c-13.3,0.1-26.6-0.3-39.8-0.4
	c-13-0.2-25.9-0.4-38.9-0.5c-17.4-0.1-34.8-0.2-52.2,0c-5.7,0.1-11.4,1-17.1,1.5C39.1,134.8,37.1,134.3,35.1,133.9z M883,130
	c0-15.2-0.1-29.6,0-43.9c0-3.1,0.7-6.2,0.8-9.4c0.1-6,1.3-12.4-0.4-17.9c-2.3-7.3-6.8-14-10.9-20.6c-1.2-2-4.1-3.7-6.5-4.1
	c-4.5-0.9-9.2-1-13.8-1.2c-14.1-0.4-28.2-0.9-42.4-1c-12.1,0-24.2,0.5-36.4,1c-5.1,0.2-10.2,1.1-15.3,1.7
	c-7.7,0.8-15.5,2.1-23.2,2.1c-17.3,0.1-34.6-0.5-51.9-0.9c-17.9-0.3-35.8-0.8-53.7-1c-44.3-0.4-88.6-0.6-132.9-1.1
	c-20.1-0.2-40.2-0.6-60.4-1c-21.1-0.3-42.2-0.8-63.4-0.9c-10-0.1-19.9,0.7-29.9,0.9c-3.6,0.1-7.2-0.7-10.8-0.5
	c-5.4,0.3-10.8,1.5-16.3,1.5c-14.3-0.1-28.6-0.6-42.9-0.9c-0.5,0-1,0-1.5,0c-13.9-0.6-27.8-1.4-41.7-1.9c-3.8-0.1-7.6,0.8-11.4,0.8
	c-2.4,0-4.9-0.9-7.4-0.9c-7.5,0.2-15.1,0.7-22.6,0.9c-17,0.4-33.9,0.8-50.9,1c-9.1,0.1-18.1,0-27.2,0c-6.2,0-12.5-0.1-18.7,0
	c-6.6,0.2-13.3,0.4-19.9,1.1c-4.7,0.5-9.5,1.4-14,2.9c-3.5,1.2-6.5,3.9-10,5.4c-7.7,3.3-10.1,9.5-10,17.2C38,73,37.9,86.3,38,99.6
	c0,5.1,0.7,10.2,0.7,15.4c0,3.5-0.8,6.9-0.7,10.4c0.1,4.2,1.5,4.8,5.8,4.3c6.4-0.8,12.8-1.3,19.3-1.6c2.9-0.1,5.9,1,8.9,0.8
	c11.9-0.8,23.7-2.5,35.6-0.9c3.1,0.4,6.2,1,9.4,1c35.8,0.1,71.7,0.1,107.5,0c3.3,0,6.6-0.9,9.9-0.9c7.5,0.1,15.1,0.8,22.6,0.9
	c9.7,0.2,19.5-0.2,29.2,0.1c15.6,0.5,31.1,1.5,46.7,1.8c8.4,0.2,16.9-0.7,25.4-0.8c5.1,0,10.2,0.8,15.4,0.9
	c13.2,0.1,26.5-0.1,39.7,0.1c19.2,0.2,38.4,0.8,57.6,0.9c13.9,0,27.7-0.9,41.6-0.9c15,0,29.9,0.9,44.9,0.9c19.1,0,38.2-0.7,57.4-0.9
	c8-0.1,15.9,0.7,23.9,0.9c6.2,0.2,12.5-0.1,18.7,0.1c12.5,0.3,24.9,0.8,37.4,0.9c7.8,0,15.6-0.7,23.4-0.9c14.8-0.4,29.6-0.8,44.4-1
	c2.9,0,5.9,0.9,8.9,0.9c16.3-0.2,32.6-0.6,48.9-0.9c18.8-0.4,37.6-0.7,56.4-1C878.4,130,880.4,130,883,130z"/>
<path class="st1" d="M35.1,133.9c2,0.4,4,0.9,6,1.3c0.3,12.3,0.6,24.6,0.9,36.9c0.4,17,0.7,33.9,1,50.9c0,2.5-0.7,4.9-0.6,7.4
	c0.4,9.9,1.6,19.9,1.5,29.8c-0.2,15.9-1.6,31.8-1.7,47.8c-0.1,11.9,1.4,23.8,1.8,35.8c0.5,16.6,0.8,33.3,0.9,49.9
	c0.1,7-0.8,13.9-0.8,20.9c0,8,0.9,15.9,0.8,23.9c-0.3,23.4,1.2,46.7,3.9,70c1,8.3,4.2,13.8,11.8,17c1.7,0.7,3.5,1.5,4.8,2.7
	c5.9,5.8,13.7,7.7,21.2,8.8c11.4,1.7,23,2.9,34.5,3c30.6,0.3,61.2,0.3,91.8-1.6c22.4-1.4,44.9-0.9,67.4-1.2
	c16.2-0.2,32.3-0.1,48.5-0.1c1.5,0,3,0,4.5,0.1c15.2,1,30.4,2.7,45.6,2.8c30.6,0.2,61.2-0.6,91.9-0.8c35.3-0.1,70.5,0.4,105.8,1.6
	c37.6,1.2,75.3,0.3,113,0.4c23.4,0,46.8-0.2,70.2-2.8c14.6-1.6,29.5-1.8,44.2-2.2c18.3-0.5,36.6-0.8,54.9-0.9c5.4,0,10.2-2,14.4-4.9
	c3.7-2.5,7.7-5.3,7.9-10.7c0.2-4.6,0.9-9.3,1-13.9c0.4-39.5,0.8-78.9,1-118.4c0-7.5-0.9-14.9-0.8-22.4c0.2-27.3,0.7-54.6,0.9-81.9
	c0.4-49.3,0.6-98.6,1-147.9c1.5-0.6,3-1.1,4.5-1.7c0.2,2.1,0.5,4.3,0.5,6.4c0,32.3,0,64.7,0.1,97c0,8,1.3,16,0.8,23.9
	c-2.1,31.4-1.9,62.8-1.7,94.3c0,11.3,0.9,22.6,0.8,33.9c-0.2,40-0.6,79.9-1,119.9c0,4.3-0.4,8.7-1.4,12.8
	c-2.7,11.8-12.2,19-24.3,20.2c-13.7,1.3-27.6,0.8-41.3,1.2c-18.1,0.6-36.2,1.2-54.2,2c-10.8,0.5-21.5,1.8-32.2,1.9
	c-53.9,0.5-107.9,0.8-161.8,1c-10.5,0-20.9-0.7-31.4-0.9c-13.6-0.4-27.3-0.9-40.9-0.9c-44.5,0.2-88.9,0.8-133.4,0.7
	c-12.4,0-24.7-1.9-37.1-2.6c-5.8-0.3-11.6,0.3-17.4,0.5c-1.7,0.1-3.3,0.2-5,0.2c-25.7,0-51.3-0.2-77,0.1
	c-23.6,0.3-47.2,1.4-70.8,1.9c-12.5,0.3-25,0.7-37.5-0.2c-16.8-1.2-33.9-0.6-49.8-7.6c-0.5-0.2-1.1-0.1-1.4-0.4
	c-8.8-6.3-19.1-10.9-25.5-20.2c-1.7-2.4-2.7-5.7-3-8.6c-1-11-1.8-22-2.3-33c-0.5-10.6-0.7-21.2-1.1-31.9c-0.3-7.8-1-15.6-0.9-23.4
	c0.2-24.5,1.2-48.9,0.7-73.4c-0.3-14.6-2.2-29.1-1.8-43.8c0.5-15.8,1-31.6,0.9-47.4c0-18.6-0.4-37.3-1-55.9
	c-0.6-15.7-2.1-31.4-2.7-47.1C33.9,147.5,34.8,140.7,35.1,133.9z"/>
<path class="st2" d="M883.9,135.2c-0.3,49.3-0.6,98.6-1,147.9c-0.2,27.3-0.7,54.6-0.9,81.9c0,7.5,0.9,14.9,0.8,22.4
	c-0.2,39.5-0.6,78.9-1,118.4c0,4.6-0.8,9.2-1,13.9c-0.2,5.4-4.2,8.2-7.9,10.7c-4.3,2.8-9,4.8-14.4,4.9c-18.3,0.2-36.6,0.4-54.9,0.9
	c-14.8,0.4-29.6,0.6-44.2,2.2c-23.4,2.6-46.7,2.8-70.2,2.8c-37.7,0-75.4,0.9-113-0.4c-35.3-1.2-70.5-1.7-105.8-1.6
	c-30.6,0.1-61.2,1-91.9,0.8c-15.2-0.1-30.4-1.8-45.6-2.8c-1.5-0.1-3-0.1-4.5-0.1c-16.2,0-32.3-0.1-48.5,0.1
	c-22.5,0.2-45-0.2-67.4,1.2c-30.6,1.9-61.2,1.9-91.8,1.6c-11.5-0.1-23.1-1.3-34.5-3c-7.6-1.1-15.3-3.1-21.2-8.8
	c-1.3-1.2-3.1-2-4.8-2.7c-7.6-3.2-10.8-8.7-11.8-17c-2.7-23.3-4.2-46.6-3.9-70c0.1-8-0.8-15.9-0.8-23.9c0-7,0.9-13.9,0.8-20.9
	c-0.1-16.6-0.4-33.3-0.9-49.9c-0.4-11.9-1.8-23.8-1.8-35.8c0.1-15.9,1.5-31.8,1.7-47.8c0.1-9.9-1.1-19.8-1.5-29.8
	c-0.1-2.4,0.7-4.9,0.6-7.4c-0.3-17-0.6-33.9-1-50.9c-0.3-12.3-0.6-24.6-0.9-36.9c5.7-0.5,11.4-1.5,17.1-1.5
	c17.4-0.2,34.8-0.1,52.2,0c13,0.1,25.9,0.3,38.9,0.5c13.3,0.2,26.6,0.5,39.8,0.4c14-0.1,27.9-0.8,41.9-0.8c14.8,0,29.6,0.7,44.4,0.8
	c9.3,0.1,18.6-0.6,27.9-0.4c13,0.4,25.9,1.6,38.9,2.1c7.5,0.3,15-0.5,22.4-0.5c18.3,0.2,36.6,0.7,54.9,0.8
	c28.5,0.2,56.9,0.3,85.4,0.3c5.3,0,10.6-0.9,15.9-0.8c16.6,0.3,33.3,1.3,49.9,1.3c17,0.1,33.9-0.9,50.9-0.8
	c23.3,0.1,46.6,1,69.9,1.2c12.3,0.1,24.6-0.4,37-0.4c16.3-0.1,32.6,0,48.9-0.1c10.5-0.1,21-0.2,31.5-0.5c22.6-0.6,45.3-1.4,67.9-2.1
	C879.3,134.7,881.6,135,883.9,135.2z M103.5,169c-0.5,1.9-1.3,3.6-1.4,5.4c-0.5,9-1,17.9-1.1,26.9c-0.4,39-0.6,77.9-1,116.9
	c-0.3,34.3-0.7,68.6-1,102.9c-0.1,16.8-0.2,33.7,0.1,50.5c0.1,4.4,0.9,8.9,2,13.2c1.8,6.8,3.4,7.8,10.5,8.3c0.8,0.1,1.7,0.1,2.5,0
	c8.3-0.6,16.5-1.8,24.8-1.8c8.6,0,17.2,1.5,25.7,1.7c25.4,0.5,50.8-0.6,76.1-2.7c16.5-1.4,33.2-1.1,49.9-1.1c15,0,29.9,0.7,44.9,0.8
	c15.7,0.2,31.3,0.1,47,0c1.6,0,3.6-0.1,4.8-1c1.5-1.1,3.4-2.9,3.6-4.6c0.7-6.6,1.1-13.2,1.1-19.9c-0.2-22.3-0.9-44.6-0.8-66.9
	c0.1-59,0.6-117.9,0.8-176.9c0.1-12.7,0.2-25.3,0-38c-0.2-11.5-2.7-12.3-13.1-13.4c-14.5-1.5-29.2-1.1-43.9-1.2
	c-9.1-0.1-18.3,0.8-27.4,0.8c-10.5,0-20.9-0.7-31.4-0.9c-17.8-0.4-35.6-0.8-53.4-0.9c-10,0-19.9,0.5-29.9,0.9
	c-9.8,0.3-19.6,0.9-29.4,1C143.6,169.1,123.7,169,103.5,169z M467.8,446.5c0.3,0.4,0.5,0.8,0.8,1.2c12.9,0.4,25.8,0.9,38.7,1.1
	c4.6,0.1,9.2-0.6,13.9-0.8c9.6-0.4,19.2-0.9,28.9-0.9c6.8,0,13.6,0.9,20.4,0.8c8.8,0,17.6-0.8,26.4-0.8c7.6,0,15.2,0.7,22.9,0.9
	c8.3,0.2,16.7-0.2,25,0.2c12.1,0.7,24.1,2.2,36.1,2.7c8.1,0.3,16.2-0.6,24.4-0.8c16.8-0.4,33.6-0.7,50.3-1c5.5-0.1,11,0.3,16.5-0.1
	c5.4-0.4,10.8-1.4,16.2-2.2c0.6-0.1,1.1-1,2.7-2.5c-2.8-0.6-4.5-1.2-6.3-1.2c-7,0.2-13.9,0.8-20.9,1c-18.8,0.4-37.6,0.7-56.3,1
	c-0.8,0-1.7,0.1-2.5,0.2c-11.3,0.2-22.6,0.9-33.9,0.5c-10.4-0.3-20.7-2.3-31.1-2.5c-19.8-0.4-39.6-0.2-59.5-0.1
	c-6,0-11.9,0.8-17.9,0.8c-7.6,0-15.2-0.8-22.9-0.8c-7.8,0-15.6,0.7-23.4,0.9c-6.8,0.1-13.7-0.1-20.5-0.1c-8.4,0-16.8,0.1-25.2,0.3
	C469.7,444.2,468.8,445.7,467.8,446.5z M468.3,466.8c-0.1,0.7-0.2,1.5-0.3,2.2c2,0.7,3.9,1.9,5.9,1.9c14.3-0.1,28.6-0.5,42.8-0.9
	c10.6-0.3,21.2-0.9,31.9-1c16.2-0.2,32.5,0,48.7,0c28.6,0,57.3,0,85.9,0c1.8,0,3.7,0,5.5,0.1c11.9,0.9,23.6,3.4,35.6,2.9
	c10.1-0.4,20.3-0.1,30.5-0.1c1.2,0,2.5,0.3,3.5-0.1c1.4-0.6,2.5-1.7,3.7-2.6c-1.3-0.8-2.5-1.8-3.9-2.2c-1-0.4-2.3-0.1-3.5-0.1
	c-14.2,0-28.3,0-42.5,0c-1.7,0-3.3,0-5-0.2c-10-0.9-20.1-2.1-30.1-2.7c-5.4-0.3-10.9,0.7-16.4,0.8c-5.3,0-10.6-0.8-15.9-0.8
	c-10.1,0.1-20.2,0.8-30.4,0.8c-21.6,0.1-43.1-0.1-64.7,0.1c-16.6,0.1-33.2,0.7-49.8,1c-8.8,0.1-17.7,0-26.5,0.1
	C471.7,466.1,470,466.6,468.3,466.8z M719.1,277.9c-1.7-4.4-4.5-3.9-7.2-3.9c-27.6,0-55.3,0-82.9,0c-1.5,0-3,0-4.5,0.1
	c-12.5,1-25.1,2.1-37.6,2.8c-6.7,0.4-13.5,0.1-20.2,0.1c-10.8,0-21.6,0-32.5,0c-1.6,0-3.2,0-4.9,0c-0.3,3.9,1.8,4,4.1,4
	c16.4,0.3,32.9,0.7,49.3,0.9c5.2,0.1,10.4,0.3,15.5-0.3c15.1-1.7,30.1-3.5,45.4-2.9c18.6,0.8,37.3,0.2,55.9,0.2
	c5.1,0,10.2,0,15.3-0.1C716.1,278.8,717.5,278.3,719.1,277.9z M686.8,298.4c-0.2-4.1-3.1-3.5-5.4-3.4c-22.2,0.6-44.5,1.5-66.7,1.9
	c-15.1,0.3-30.3-0.2-45.5,0.1c-12.4,0.3-24.8,1.3-37.2,2c-1.8,0.1-4.2,0.3-3.8,3.9c1.7,0,3.3,0,4.9,0c10.1,0,20.1-0.9,30.2-1.7
	c12.7-1,25.5,0.7,38.3,0.5c10.1-0.1,20.1-1.4,30.2-1.8c17.3-0.6,34.6-0.7,51.8-1.1C684.8,299,685.7,298.7,686.8,298.4z M525.2,398.7
	c1.5,1.5,2.2,2.9,3.2,3.2c2,0.7,4.2,1.1,6.3,1.1c8.8-0.2,17.6-0.8,26.3-0.9c25.6-0.4,51.2-0.7,76.8-1.1c1.7,0,3.4,0.2,5,0
	c1.1-0.2,2.1-0.9,3.1-1.4c0-0.6,0-1.1,0-1.7c-2.4-0.6-4.8-1.7-7.1-1.7c-13.1,0.1-26.2,0.6-39.3,0.8c-23.4,0.4-46.8,0.7-70.3,1.1
	C528.3,398,527.4,398.3,525.2,398.7z M647.2,372.1c-0.2-0.5-0.4-1.1-0.7-1.6c-5.7-0.5-11.5-1.1-17.2-1.4c-4.1-0.2-8.2-0.4-12.2-0.1
	c-8.2,0.5-16.4,1.9-24.7,2.1c-19.6,0.3-39.3,0.1-58.9,0.2c-3.3,0-6.8-0.1-10.1,3.5c3.5,0.5,6.2,1.3,8.9,1.3
	c14.1,0.1,28.1,0.1,42.2,0c5.3,0,10.6-0.5,15.9-0.9c6.9-0.5,13.8-1.4,20.7-1.8c6.1-0.3,12.1-0.3,18.2-0.2c4.6,0.1,9.2,0.8,13.8,0.9
	C644.5,373.9,645.9,372.7,647.2,372.1z M523.8,349.5c1.1,4,3.6,4.5,6.3,4.4c4.1-0.2,8.2-0.9,12.4-0.9c33.8-0.4,67.5-0.7,101.3-1
	c1.3,0,2.6-0.4,3.9-0.6c0-0.5,0-1,0.1-1.5c-1.3-0.3-2.6-1-3.9-1c-7.6-0.1-15.2,0-22.7,0c-12.7,0-25.5,0.2-38.2,0
	c-14-0.2-27.9-0.8-41.8-0.9C535.5,348.1,529.9,349,523.8,349.5z M484.5,202.8c-2.2,0.2-4.3,0.3-6.4,0.6c-6.1,0.9-7.1,2-7.1,8
	c0,4.7,0.4,9.3,0.5,14c0,1.1,0.2,2.9-0.4,3.3c-1.6,1.1-3.5,2.2-1.8,4.2c1,1.2,3.1,1.9,4.8,2.1c8.5,1.1,15.9-1.6,21.6-7.9
	c2.1-2.3,4-5.6,4.4-8.6C501.5,209.5,494.6,202.9,484.5,202.8z M543.1,223.3c4.4-4.1,8-7.3,11.4-10.6c2.4-2.3,2.8-5.3,1.6-8.3
	c-1.2-3.1-3.9-4.2-6.9-3.7c-4.5,0.8-9.1,1.7-13.4,3.1c-2.8,0.9-4.1,3.4-3.7,6.4c0.9,8,1.9,16.1,3,24.1c0.1,1,1.3,1.9,1.9,2.9
	c0.7-1.1,1.9-2.1,2-3.3c0.2-1.9-0.2-3.8-0.3-6.1c7.6,0.1,15,3.7,21.9,0.1c0-0.7,0.1-1.4,0.1-2.1C555,225,549.4,224.2,543.1,223.3z
	 M700.2,210.3c0.4-0.1,0.9-0.3,1.3-0.4c1.3,1.1,2.8,2.1,4,3.3c3.5,3.5,6.9,7.3,10.5,10.6c1.4,1.3,3.6,1.8,5.5,2.7
	c0.8-1.8,2-3.6,2.5-5.5c0.6-2.4,0.5-5,0.8-7.4c0.7-5.8,1.5-11.5,2.1-17.3c0.1-0.9-0.7-2-1.1-3c-1,0.6-2.4,1-2.9,1.9
	c-0.7,1.2-0.9,2.8-1.1,4.3c-0.9,6.5-1.7,13-2.7,20.3c-1.6-1.4-2.9-2.3-3.8-3.4c-5.4-6.7-14.4-9.7-18.2-18.2
	c-0.4,10.3-0.5,20.3-0.4,30.4c0,1.1,1,2.1,1.6,3.1c0.6-0.1,1.2-0.3,1.8-0.4C700.2,224.4,700.2,217.3,700.2,210.3z M583.1,223.5
	c1.5,3.4,3,7.1,4.8,10.6c0.4,0.8,2.1,1.1,3.2,1.6c0.1-1.2,0.7-2.5,0.3-3.5c-2.7-7.1-5.6-14.2-8.4-21.3c-0.9-2.2-1.9-4.4-2.9-6.5
	c-0.5-1.1-1-2.2-1.5-3.2c-1,0.7-2.3,1.3-2.8,2.3c-2.3,4.2-4.6,8.5-6.6,12.8c-2.3,4.8-4.5,9.6-6.4,14.5c-0.5,1.3,0.3,3.2,0.6,4.8
	c1.3-1,2.9-1.8,3.7-3.1c1.5-2.6,2.4-5.4,3.6-8C574.8,224.1,578.7,223.8,583.1,223.5z M681.4,197c-0.6-0.2-1.1-0.4-1.7-0.6
	c-1.2,1.8-2.7,3.5-3.5,5.5c-3.4,8.4-6.6,16.8-9.7,25.3c-0.4,1.1,0.5,2.8,0.8,4.2c1.2-1,3.1-1.7,3.3-2.9c1-5.4,4.3-7.7,9.5-8
	c1.4-0.1,2.9-0.7,4.6-1.1c0.9,2.5,1.8,5,2.7,7.5c0.6,1.6,0.7,4.2,3.3,3.2c0.7-0.3,1.2-2.9,0.8-4.2c-1.7-6.5-4-12.9-7.9-18.5
	C681.6,204.2,679.2,201.3,681.4,197z M639.1,224c4.3-0.9,8.5-1.8,13-2.7c0.2,2.3,0.5,4.3,0.6,6.2c0.2,1.8,0,4.2,2.6,3.7
	c0.8-0.2,1.8-2.6,1.8-3.9c-0.2-8.1-0.6-16.3-1.1-24.4c-0.1-1.1-1-2.2-1.5-3.4c-0.5,0.1-1.1,0.2-1.6,0.2c-0.3,2.7-0.6,5.4-0.7,8.1
	c-0.1,2.8,0,5.6,0,8.9c-4.6,1.2-8.8,2.2-13.2,3.3c-2.1-5.9,0.8-12.1-3-17.1c-2.3,8.4-2.4,16.9-0.6,25.3c0.1,0.4,1.6,0.6,2.7,0.9
	C638.4,227.4,638.7,226,639.1,224z M504.4,222.1c-0.2,6.8,2.1,10.3,7.1,11.6c7,1.8,12.7-2,14.8-9c2-6.8-2.8-11.5-4.2-17.3
	c-0.1-0.6-1.3-1.2-2-1.3c-3.7-0.7-7.3-0.9-10.1,2.5C506.6,212.7,504.2,217.1,504.4,222.1z M625.4,205.4c1.7-2.6,0.3-3.8-2.2-4.4
	c-7.7-1.8-11.8,0.1-15.6,7.2c-2.7,4.9-3,10.2-1.9,15.5c1.3,6.3,5.9,9.5,12.9,9.4c6.5-0.1,10-2.9,11.3-9.2c-2.2,1.2-4.2,2.6-6.5,3.7
	c-4.7,2.2-10.4,0.9-12.2-3.1c-2.6-5.7-1.5-11.3,2-16.4c3-4.4,7.1-3,11.2-2.2C624.6,205.7,625,205.5,625.4,205.4z M493,299.2
	c0,0,0-0.1,0-0.1c-0.2,0-0.3,0-0.5,0c-7.5,0.3-15,0.5-22.5,1c-1.3,0.1-2.5,1.6-3.7,2.4c1.3,0.8,2.5,1.7,3.8,2.4
	c0.4,0.2,1,0.1,1.5,0.1c12.5-0.3,25-0.6,37.4-1.1c1.3-0.1,2.5-1.6,3.7-2.4c-1.2-0.8-2.5-2.1-3.7-2.2
	C503.7,299.1,498.3,299.2,493,299.2z M501.4,396.3c0,0.4,0,0.8,0,1.1c-8.1,0-16.3-0.1-24.4,0.1c-1.6,0-3.4,0.5-4.8,1.3
	c-0.9,0.5-1.3,2-2,3c1,0.6,2.1,1.6,3.1,1.6c11.8-0.4,23.6-1,35.4-1.5c0.8,0,1.8,0.2,2.5-0.2c1-0.6,1.9-1.5,2.8-2.3
	c-0.9-0.8-1.6-2.2-2.6-2.4C508.1,396.5,504.7,396.5,501.4,396.3z M513.4,373.4c0-0.9,0.1-1.8,0.1-2.6c-2.8-0.5-5.6-1.5-8.3-1.4
	c-10.8,0.5-21.6,1.2-32.3,2.1c-1.7,0.1-3.3,1.4-4.9,2.2c0.1,0.5,0.1,1,0.2,1.5c2,0.5,4,1.6,5.9,1.5
	C487.2,375.7,500.3,374.5,513.4,373.4z M490.3,276c0-0.2-0.1-0.4-0.1-0.5c-8.2,1.1-16.4,2.2-24.6,3.5c-0.9,0.1-1.6,1.4-2.4,2.1
	c0.7,0.8,1.4,2,2.2,2.2c1.9,0.3,4,0.2,5.9,0.1c9.4-0.7,18.8-1.6,28.2-2.3c2.1-0.2,4.3,0.3,6.4,0c1.1-0.1,2-1.3,3-2
	c-1.1-0.7-2.2-2-3.3-2.1C500.6,276.6,495.5,276.4,490.3,276z M503.3,352.7c0.1,0.5,0.2,1,0.3,1.5c2.1-0.7,4.4-1.2,6.4-2.2
	c0.6-0.3,0.9-1.7,0.9-2.5c0-0.5-1.2-1.3-1.8-1.2c-8.4,0.2-16.8,0.3-25.2,0.7c-3.5,0.1-6.9,0.6-10.4,1c-2.2,0.3-6-1-5.8,2.6
	c0.1,3.5,3.9,2.5,6.1,2.3C483.6,354.4,493.4,353.5,503.3,352.7z M710.7,365.3c0-0.1,0-0.2,0-0.3c-5.9,0.3-11.9,0.6-17.8,1
	c-2,0.1-4.6,0-4.4,2.8c0.2,2.8,2.9,2.1,4.8,2.1c3.5,0,7-0.2,10.4-0.2c6.6-0.1,13.2-0.1,19.9-0.3c1.2,0,2.3-1.3,3.5-2
	c-1-0.9-1.8-2.2-2.9-2.8c-0.9-0.5-2.3-0.3-3.4-0.3C717.3,365.3,714,365.3,710.7,365.3z M775.1,347.2c-0.1-0.7-0.2-1.4-0.4-2.1
	c-4.4,0-8.7,0.1-13.1,0c-6-0.2-11.9-0.8-17.8-0.8c-1.2,0-2.5,1.5-3.7,2.3c1.2,0.8,2.4,2.3,3.7,2.4c8.9,0.2,17.8,0.2,26.7,0
	C772,348.9,773.6,347.8,775.1,347.2z M724.7,347c-0.1-0.8-0.1-1.6-0.2-2.3c-2-0.1-4.1-0.3-6.1-0.3c-4.5,0.1-8.9,0.3-13.4,0.4
	c-4.1,0.1-8.3,0-12.4,0.3c-1.1,0.1-2.1,1.2-3.1,1.8c1,0.8,2,1.8,3.1,2.5c0.5,0.3,1.3,0.2,2,0.2c6.1-0.2,12.3-0.3,18.4-0.8
	C717,348.5,720.8,347.6,724.7,347z M774.8,367.9c-5.1-1.7-34.8-1.3-38.6,0.9c2.1,0.9,3.6,2,5.1,2c10,0.2,20,0.1,30,0.1
	C773.4,371,774.9,370.3,774.8,367.9z"/>
<path class="st0" d="M883,130c-2.6,0-4.6,0-6.5,0c-18.8,0.3-37.6,0.7-56.4,1c-16.3,0.3-32.6,0.7-48.9,0.9c-2.9,0-5.9-0.9-8.9-0.9
	c-14.8,0.2-29.6,0.6-44.4,1c-7.8,0.2-15.6,0.9-23.4,0.9c-12.5-0.1-24.9-0.7-37.4-0.9c-6.2-0.1-12.5,0.1-18.7-0.1
	c-8-0.2-15.9-0.9-23.9-0.9c-19.1,0.1-38.2,0.8-57.4,0.9c-15,0-29.9-0.8-44.9-0.9c-13.9,0-27.7,0.9-41.6,0.9
	c-19.2,0-38.4-0.7-57.6-0.9c-13.2-0.2-26.5,0.1-39.7-0.1c-5.1-0.1-10.2-0.9-15.4-0.9c-8.5,0.1-16.9,1-25.4,0.8
	c-15.6-0.3-31.1-1.4-46.7-1.8c-9.7-0.3-19.5,0.1-29.2-0.1c-7.5-0.1-15.1-0.8-22.6-0.9c-3.3-0.1-6.6,0.9-9.9,0.9
	c-35.8,0.1-71.7,0.1-107.5,0c-3.1,0-6.2-0.6-9.4-1c-11.9-1.6-23.7,0.1-35.6,0.9c-2.9,0.2-5.9-0.9-8.9-0.8
	c-6.4,0.3-12.9,0.8-19.3,1.6c-4.3,0.5-5.7-0.1-5.8-4.3c0-3.5,0.7-6.9,0.7-10.4c-0.1-5.1-0.7-10.2-0.7-15.4c-0.1-13.3,0-26.7-0.1-40
	c0-7.7,2.4-13.9,10-17.2c3.5-1.5,6.5-4.2,10-5.4c4.5-1.5,9.3-2.4,14-2.9c6.6-0.7,13.2-0.9,19.9-1.1c6.2-0.2,12.5,0,18.7,0
	c9.1,0,18.1,0.1,27.2,0c17-0.3,33.9-0.6,50.9-1c7.5-0.2,15.1-0.7,22.6-0.9c2.4-0.1,4.9,0.9,7.4,0.9c3.8-0.1,7.6-1,11.4-0.8
	c13.9,0.5,27.8,1.2,41.7,1.9c0.5,0,1,0,1.5,0c14.3,0.3,28.6,0.9,42.9,0.9c5.4,0,10.8-1.2,16.3-1.5c3.6-0.2,7.2,0.6,10.8,0.5
	c10-0.2,19.9-0.9,29.9-0.9c21.1,0.1,42.2,0.6,63.4,0.9c20.1,0.3,40.2,0.8,60.4,1c44.3,0.4,88.6,0.6,132.9,1.1
	c17.9,0.2,35.8,0.6,53.7,1c17.3,0.3,34.6,0.9,51.9,0.9c7.7,0,15.5-1.3,23.2-2.1c5.1-0.5,10.2-1.5,15.3-1.7c12.1-0.5,24.2-1,36.4-1
	c14.1,0,28.2,0.5,42.4,1c4.6,0.1,9.3,0.3,13.8,1.2c2.4,0.5,5.2,2.1,6.5,4.1c4.1,6.6,8.5,13.3,10.9,20.6c1.7,5.4,0.5,11.9,0.4,17.9
	c-0.1,3.1-0.8,6.2-0.8,9.4C882.9,100.4,883,114.8,883,130z M121.6,87.1c-1.5-3.4-2.6-7.4-6.7-5.5c-2.5,1.2-4.1,4.3-6.6,7.2
	c-1.4-4.1-2.6-7.7-3.8-11.3c-0.5,0.2-1,0.3-1.5,0.5c0.6,3.9,0.8,7.9,1.9,11.6c0.4,1.5,2.5,3.3,4.1,3.6c1.3,0.2,3.1-1.4,4.3-2.5
	c1-0.9,1.5-2.4,2.4-3.7c4.7,8,6.8,8,12.2,0.2c1-1.4,2.2-2.7,3.6-4.4c3.8,3,7,5.6,10.4,8.1c2.8,2,5.7,1.5,8.3-0.4
	c1.7-1.3,3.1-3.1,4.8-4.3c2.1-1.4,4.4-2.5,6.9-3.8c1.1,2.7,1.8,4.5,2.7,6.3c2.7,5.7,7.9,6.8,12.5,2.5c2.4-2.3,4.5-4.9,6.8-7.3
	c1.2-1.2,2.7-2.2,4.6-3.7c3.6,9.2,9.6,9.2,17.4,6.8c4.7-1.4,10.1-0.6,15.2-0.4c4.1,0.1,8.3,1,12.4,1c9.6,0,19.2-0.4,28.8-0.4
	c9.9,0.1,19.9,0.5,29.8,0.9c8.3,0.3,16.6,1,24.9,0.7c5.5-0.2,11-1.6,16.9-2.6c-2.7-4.3-6.1-3.3-9.1-3.1c-4.8,0.3-9.6,1.1-14.4,1.1
	c-5.5,0-10.9-0.6-16.4-0.9c-9.6-0.4-19.2-0.8-28.9-1.1c-9-0.3-17.9-0.4-26.9-0.5c-5.5-0.1-10.9,0.1-16.3-0.5
	c-6.9-0.8-13.6-0.9-20.2,1.3c-3.5,1.2-5.9,0.8-7.8-2.8c-2.9-5.3-6.8-5.7-11.4-1.6c-2.3,2.1-4.4,4.5-6.6,6.8
	c-4.6,4.9-5.6,4.7-7.9-1.4c-2-5.3-4-6.7-9.4-5c-2.7,0.8-5.2,2.8-7.6,4.4c-1.8,1.3-3.4,2.9-4.3,3.7c-3.4-1.9-6-3.4-8.6-4.9
	c-0.8-0.5-1.5-1.3-2.2-2c-3.2-3.1-5.4-3.3-8.5-0.1C125.4,81.7,123.7,84.2,121.6,87.1z M815.9,85.5c0.1,0,0.3,0,0.4,0
	c0,3.2,0,6.3,0,9.5c0,1,0.2,2,0.3,3c0.5,5.7,2.8,7.3,8.2,5.3c1.7-0.6,3.5-1.4,4.7-2.7c3.9-4.1,7.9-8.1,11.1-12.7
	c4.3-6.1,1.5-14.7-5.6-16.5c-5-1.3-10.5-1-15.7-0.9c-2.3,0-3.7,1.9-3.6,4.5C816,78.5,815.9,82,815.9,85.5z M437,86.9
	c-1.9-4.3-4.8-4.9-8.1-4.5c-1.5,0.2-2.9,0.8-4.4,0.9c-12.1,0.4-24.3,0.8-36.4,0.9c-3.8,0-7.9-2-11.2-1c-5,1.5-9.7,0.4-14.5,0.4
	c-2.2,0-4.6,0.1-6,3.2C383.3,90,409.9,89.4,437,86.9z M802.9,72.7c-3.6,0.3-3.7,2.6-3.6,4.8c0.2,7.4,0.5,14.9,0.8,22.3
	c0.1,1.9,0.4,4.2,2.8,3.6c1.2-0.3,2.7-2.6,2.7-4c-0.3-7.7-0.9-15.5-1.6-23.2C803.8,74.9,803.2,73.8,802.9,72.7z"/>
<path class="st1" d="M467.8,446.5c1-0.8,1.9-2.3,2.9-2.3c8.4-0.3,16.8-0.3,25.2-0.3c6.8,0,13.7,0.2,20.5,0.1
	c7.8-0.2,15.6-0.9,23.4-0.9c7.6,0,15.2,0.8,22.9,0.8c6,0,11.9-0.8,17.9-0.8c19.8-0.1,39.6-0.3,59.5,0.1c10.4,0.2,20.7,2.2,31.1,2.5
	c11.3,0.4,22.6-0.3,33.9-0.5c0.8,0,1.7-0.1,2.5-0.2c18.8-0.3,37.6-0.6,56.3-1c7-0.2,13.9-0.8,20.9-1c1.7-0.1,3.5,0.6,6.3,1.2
	c-1.6,1.5-2.1,2.4-2.7,2.5c-5.4,0.8-10.8,1.8-16.2,2.2c-5.5,0.4-11,0-16.5,0.1c-16.8,0.3-33.6,0.6-50.3,1
	c-8.1,0.2-16.3,1.2-24.4,0.8c-12.1-0.5-24.1-2-36.1-2.7c-8.3-0.5-16.7-0.1-25-0.2c-7.6-0.2-15.2-0.9-22.9-0.9
	c-8.8,0-17.6,0.8-26.4,0.8c-6.8,0-13.6-0.9-20.4-0.8c-9.6,0-19.2,0.5-28.9,0.9c-4.6,0.2-9.3,0.9-13.9,0.8
	c-12.9-0.2-25.8-0.7-38.7-1.1C468.3,447.3,468.1,446.9,467.8,446.5z"/>
<path class="st1" d="M468.3,466.8c1.7-0.3,3.4-0.7,5.1-0.7c8.8-0.1,17.7,0,26.5-0.1c16.6-0.3,33.2-0.8,49.8-1
	c21.6-0.2,43.1,0.1,64.7-0.1c10.1-0.1,20.2-0.7,30.4-0.8c5.3,0,10.6,0.8,15.9,0.8c5.5,0,10.9-1.1,16.4-0.8
	c10.1,0.6,20.1,1.8,30.1,2.7c1.7,0.2,3.3,0.2,5,0.2c14.2,0,28.3,0,42.5,0c1.2,0,2.4-0.3,3.5,0.1c1.4,0.5,2.6,1.5,3.9,2.2
	c-1.2,0.9-2.3,2-3.7,2.6c-1,0.4-2.3,0.1-3.5,0.1c-10.2,0-20.3-0.3-30.5,0.1c-12,0.5-23.7-2-35.6-2.9c-1.8-0.1-3.7-0.1-5.5-0.1
	c-28.6,0-57.3,0-85.9,0c-16.2,0-32.5-0.1-48.7,0c-10.6,0.1-21.2,0.7-31.9,1c-14.3,0.4-28.6,0.7-42.8,0.9c-1.9,0-3.9-1.2-5.9-1.9
	C468.1,468.3,468.2,467.6,468.3,466.8z"/>
<path class="st3" d="M719.1,277.9c-1.6,0.4-3,0.9-4.3,1c-5.1,0.1-10.2,0.1-15.3,0.1c-18.7,0-37.3,0.6-55.9-0.2
	c-15.3-0.6-30.3,1.1-45.4,2.9c-5.1,0.6-10.3,0.4-15.5,0.3c-16.4-0.3-32.9-0.6-49.3-0.9c-2.3,0-4.4-0.1-4.1-4c1.7,0,3.3,0,4.9,0
	c10.8,0,21.6,0,32.5,0c6.7,0,13.5,0.3,20.2-0.1c12.5-0.7,25.1-1.9,37.6-2.8c1.5-0.1,3-0.1,4.5-0.1c27.6,0,55.3,0,82.9,0
	C714.6,274,717.4,273.5,719.1,277.9z"/>
<path class="st1" d="M686.8,298.4c-1.1,0.2-2,0.5-3,0.6c-17.3,0.4-34.6,0.5-51.8,1.1c-10.1,0.3-20.2,1.7-30.2,1.8
	c-12.8,0.1-25.6-1.5-38.3-0.5c-10.1,0.8-20.1,1.7-30.2,1.7c-1.6,0-3.2,0-4.9,0c-0.4-3.7,1.9-3.8,3.8-3.9c12.4-0.8,24.8-1.8,37.2-2
	c15.1-0.3,30.3,0.2,45.5-0.1c22.2-0.4,44.5-1.3,66.7-1.9C683.8,295,686.7,294.3,686.8,298.4z"/>
<path class="st3" d="M525.2,398.7c2.1-0.4,3-0.6,4-0.6c23.4-0.4,46.8-0.7,70.3-1.1c13.1-0.2,26.2-0.7,39.3-0.8
	c2.4,0,4.8,1.1,7.1,1.7c0,0.6,0,1.1,0,1.7c-1,0.5-2.1,1.3-3.1,1.4c-1.6,0.2-3.3,0-5,0c-25.6,0.3-51.2,0.6-76.8,1.1
	c-8.8,0.1-17.6,0.7-26.3,0.9c-2.1,0-4.3-0.4-6.3-1.1C527.4,401.5,526.7,400.2,525.2,398.7z"/>
<path class="st3" d="M647.2,372.1c-1.4,0.6-2.7,1.8-4.1,1.8c-4.6-0.1-9.2-0.8-13.8-0.9c-6.1-0.1-12.2-0.1-18.2,0.2
	c-6.9,0.4-13.8,1.3-20.7,1.8c-5.3,0.4-10.6,0.9-15.9,0.9c-14.1,0.1-28.1,0.1-42.2,0c-2.7,0-5.4-0.8-8.9-1.3
	c3.3-3.6,6.8-3.5,10.1-3.5c19.6-0.1,39.3,0.2,58.9-0.2c8.2-0.1,16.4-1.5,24.7-2.1c4.1-0.3,8.2-0.1,12.2,0.1
	c5.7,0.3,11.5,0.9,17.2,1.4C646.8,371,647,371.5,647.2,372.1z"/>
<path class="st3" d="M523.8,349.5c6.1-0.5,11.6-1.4,17.2-1.4c13.9,0.1,27.9,0.7,41.8,0.9c12.7,0.2,25.5,0,38.2,0
	c7.6,0,15.2-0.1,22.7,0c1.3,0,2.6,0.6,3.9,1c0,0.5,0,1-0.1,1.5c-1.3,0.2-2.6,0.5-3.9,0.6c-33.8,0.3-67.5,0.6-101.3,1
	c-4.1,0-8.2,0.7-12.4,0.9C527.5,354,524.9,353.5,523.8,349.5z"/>
<path class="st4" d="M484.5,202.8c10.1,0.1,17,6.7,15.6,15.7c-0.5,3.1-2.3,6.3-4.4,8.6c-5.7,6.3-13.1,8.9-21.6,7.9
	c-1.7-0.2-3.8-0.9-4.8-2.1c-1.6-2,0.2-3,1.8-4.2c0.6-0.4,0.4-2.1,0.4-3.3c-0.1-4.7-0.5-9.3-0.5-14c0-6.1,1-7.1,7.1-8
	C480.2,203.1,482.4,203,484.5,202.8z M474.9,208.9c0.5,7.4,0.9,14.1,1.3,20.8c6.5,0.7,11.3-2,15.7-5.9c2.9-2.6,4.5-5.8,3.1-9.8
	c-1.1-3.3-5.4-6-9.5-5.9C482.2,208.3,479,208.6,474.9,208.9z"/>
<path class="st4" d="M543.1,223.3c6.3,0.9,11.9,1.7,17.5,2.4c0,0.7-0.1,1.4-0.1,2.1c-6.9,3.6-14.3,0-21.9-0.1
	c0.2,2.2,0.6,4.2,0.3,6.1c-0.2,1.2-1.3,2.2-2,3.3c-0.7-1-1.8-1.9-1.9-2.9c-1.1-8-2.1-16.1-3-24.1c-0.3-3,1-5.5,3.7-6.4
	c4.4-1.4,8.9-2.3,13.4-3.1c3-0.5,5.7,0.6,6.9,3.7c1.2,3,0.8,6-1.6,8.3C551,216.1,547.4,219.3,543.1,223.3z M536.5,206.7
	c0.3,5,0.5,8.9,0.7,13.4c6.2-2.2,10.6-6.1,14.4-10.7c2-2.5,0.6-5.1-2.8-4.8C544.8,204.8,540.8,205.9,536.5,206.7z"/>
<path class="st4" d="M700.2,210.3c0,7.1,0,14.1,0,21.2c-0.6,0.1-1.2,0.3-1.8,0.4c-0.6-1-1.6-2.1-1.6-3.1
	c-0.1-10.1-0.1-20.2,0.4-30.4c3.8,8.5,12.8,11.5,18.2,18.2c0.9,1.1,2.1,1.9,3.8,3.4c0.9-7.3,1.8-13.8,2.7-20.3
	c0.2-1.5,0.4-3.1,1.1-4.3c0.5-0.9,1.9-1.3,2.9-1.9c0.4,1,1.2,2,1.1,3c-0.6,5.8-1.4,11.5-2.1,17.3c-0.3,2.5-0.2,5-0.8,7.4
	c-0.4,1.9-1.6,3.7-2.5,5.5c-1.9-0.9-4-1.4-5.5-2.7c-3.7-3.4-7-7.1-10.5-10.6c-1.2-1.2-2.7-2.2-4-3.3
	C701.1,210,700.7,210.1,700.2,210.3z M701,209.4c-0.1-0.1-0.2-0.3-0.3-0.4c-0.1,0.1-0.2,0.2-0.4,0.3c0.2,0.1,0.3,0.3,0.5,0.4
	C700.8,209.7,700.9,209.6,701,209.4z"/>
<path class="st4" d="M583.1,223.5c-4.4,0.3-8.3,0.6-12.6,0.9c-1.1,2.6-2.1,5.4-3.6,8c-0.8,1.3-2.4,2.1-3.7,3.1
	c-0.2-1.6-1.1-3.5-0.6-4.8c1.9-4.9,4.1-9.7,6.4-14.5c2.1-4.3,4.3-8.6,6.6-12.8c0.5-1,1.9-1.5,2.8-2.3c0.5,1.1,1,2.1,1.5,3.2
	c1,2.2,2,4.3,2.9,6.5c2.9,7.1,5.7,14.2,8.4,21.3c0.4,1-0.2,2.3-0.3,3.5c-1.1-0.5-2.7-0.7-3.2-1.6
	C586.1,230.5,584.6,226.8,583.1,223.5z M578.7,211c-0.4-0.1-0.7-0.1-1.1-0.2c-1.5,2.9-3.1,5.8-4.9,9.2c3.5,0,6.2,0,9.3,0
	C580.9,216.7,579.8,213.8,578.7,211z"/>
<path class="st4" d="M681.4,197c-2.2,4.3,0.2,7.2,2.4,10.3c3.9,5.6,6.1,12,7.9,18.5c0.3,1.3-0.1,3.9-0.8,4.2c-2.6,1-2.7-1.6-3.3-3.2
	c-0.9-2.5-1.8-4.9-2.7-7.5c-1.8,0.4-3.2,1-4.6,1.1c-5.2,0.3-8.5,2.6-9.5,8c-0.2,1.1-2.2,1.9-3.3,2.9c-0.3-1.4-1.2-3-0.8-4.2
	c3.1-8.5,6.3-16.9,9.7-25.3c0.8-2,2.3-3.7,3.5-5.5C680.3,196.7,680.8,196.9,681.4,197z M674.5,217.3c3.5-0.9,6.1-1.6,9.1-2.4
	c-1.8-3.3-3.2-6-5.1-9.4C677.1,209.8,675.9,213.1,674.5,217.3z"/>
<path class="st5" d="M639.1,224c-0.4,2-0.7,3.4-1.1,5.3c-1.1-0.4-2.6-0.5-2.7-0.9c-1.9-8.4-1.7-16.9,0.6-25.3c3.8,5,0.9,11.2,3,17.1
	c4.3-1.1,8.6-2.2,13.2-3.3c0-3.2-0.1-6.1,0-8.9c0.1-2.7,0.5-5.4,0.7-8.1c0.5-0.1,1.1-0.2,1.6-0.2c0.5,1.1,1.4,2.2,1.5,3.4
	c0.5,8.1,0.9,16.3,1.1,24.4c0,1.3-0.9,3.7-1.8,3.9c-2.7,0.5-2.5-1.9-2.6-3.7c-0.2-2-0.4-3.9-0.6-6.2
	C647.6,222.2,643.4,223.1,639.1,224z"/>
<path class="st4" d="M504.4,222.1c-0.2-5,2.2-9.4,5.6-13.5c2.8-3.3,6.4-3.2,10.1-2.5c0.7,0.1,1.9,0.7,2,1.3
	c1.3,5.7,6.2,10.5,4.2,17.3c-2.1,6.9-7.8,10.8-14.8,9C506.5,232.4,504.2,228.9,504.4,222.1z M513.5,211.2c-3.1,2.9-5,7.5-4.6,13.2
	c0.3,3,1.8,4.4,4.7,4.8c3.1,0.4,5.6-0.5,7.1-3.4c1.6-3.3,2.4-6.8-0.3-9.7C518.6,214.2,516.1,213,513.5,211.2z"/>
<path class="st5" d="M625.4,205.4c-0.5,0.1-0.8,0.3-1.1,0.3c-4-0.8-8.1-2.2-11.2,2.2c-3.5,5.1-4.6,10.7-2,16.4
	c1.8,4,7.5,5.3,12.2,3.1c2.2-1,4.3-2.4,6.5-3.7c-1.3,6.3-4.7,9.1-11.3,9.2c-6.9,0.1-11.5-3-12.9-9.4c-1.1-5.3-0.8-10.6,1.9-15.5
	c3.8-7,7.9-9,15.6-7.2C625.8,201.6,627.2,202.8,625.4,205.4z"/>
<path class="st6" d="M493,299.2c5.3,0,10.7-0.1,16,0.1c1.3,0.1,2.5,1.4,3.7,2.2c-1.2,0.8-2.4,2.4-3.7,2.4c-12.5,0.5-25,0.7-37.4,1.1
	c-0.5,0-1.1,0.1-1.5-0.1c-1.3-0.7-2.5-1.6-3.8-2.4c1.2-0.8,2.4-2.3,3.7-2.4c7.5-0.5,15-0.7,22.5-1c0.2,0,0.3,0,0.5,0
	C493,299.1,493,299.2,493,299.2z"/>
<path class="st6" d="M501.4,396.3c3.3,0.2,6.7,0.2,9.9,0.7c1,0.1,1.7,1.5,2.6,2.4c-0.9,0.8-1.7,1.7-2.8,2.3
	c-0.7,0.4-1.6,0.1-2.5,0.2c-11.8,0.5-23.6,1.1-35.4,1.5c-1,0-2.1-1-3.1-1.6c0.6-1,1.1-2.5,2-3c1.4-0.8,3.2-1.2,4.8-1.3
	c8.1-0.1,16.3-0.1,24.4-0.1C501.4,397,501.4,396.7,501.4,396.3z"/>
<path class="st6" d="M513.4,373.4c-13.1,1.1-26.2,2.3-39.3,3.2c-1.9,0.1-4-1-5.9-1.5c-0.1-0.5-0.1-1-0.2-1.5c1.6-0.7,3.2-2,4.9-2.2
	c10.8-0.9,21.5-1.6,32.3-2.1c2.8-0.1,5.6,0.9,8.3,1.4C513.5,371.6,513.5,372.5,513.4,373.4z"/>
<path class="st6" d="M490.3,276c5.1,0.3,10.3,0.5,15.4,1c1.2,0.1,2.2,1.4,3.3,2.1c-1,0.7-1.9,1.8-3,2c-2.1,0.3-4.3-0.2-6.4,0
	c-9.4,0.7-18.8,1.5-28.2,2.3c-2,0.2-4,0.2-5.9-0.1c-0.9-0.1-1.5-1.4-2.2-2.2c0.8-0.7,1.5-2,2.4-2.1c8.2-1.3,16.4-2.4,24.6-3.5
	C490.2,275.7,490.3,275.9,490.3,276z"/>
<path class="st6" d="M503.3,352.7c-9.9,0.8-19.7,1.6-29.6,2.3c-2.2,0.1-6,1.1-6.1-2.3c-0.2-3.7,3.6-2.4,5.8-2.6
	c3.5-0.4,6.9-0.9,10.4-1c8.4-0.3,16.8-0.5,25.2-0.7c0.6,0,1.8,0.8,1.8,1.2c0.1,0.8-0.3,2.3-0.9,2.5c-2,0.9-4.2,1.5-6.4,2.2
	C503.5,353.7,503.4,353.2,503.3,352.7z"/>
<path class="st6" d="M710.7,365.3c3.3,0,6.6,0,10,0c1.2,0,2.5-0.2,3.4,0.3c1.1,0.6,2,1.8,2.9,2.8c-1.2,0.7-2.3,1.9-3.5,2
	c-6.6,0.3-13.2,0.2-19.9,0.3c-3.5,0-7,0.2-10.4,0.2c-1.9,0-4.6,0.7-4.8-2.1c-0.2-2.8,2.4-2.7,4.4-2.8c5.9-0.3,11.9-0.6,17.8-1
	C710.7,365.1,710.7,365.2,710.7,365.3z"/>
<path class="st3" d="M775.1,347.2c-1.5,0.6-3.1,1.7-4.6,1.7c-8.9,0.2-17.8,0.2-26.7,0c-1.2,0-2.5-1.5-3.7-2.4
	c1.2-0.8,2.5-2.4,3.7-2.3c5.9,0.1,11.9,0.6,17.8,0.8c4.4,0.2,8.7,0,13.1,0C774.9,345.7,775,346.4,775.1,347.2z"/>
<path class="st6" d="M724.7,347c-3.9,0.6-7.8,1.5-11.7,1.8c-6.1,0.5-12.2,0.6-18.4,0.8c-0.7,0-1.5,0.1-2-0.2
	c-1.1-0.7-2.1-1.6-3.1-2.5c1-0.6,2.1-1.7,3.1-1.8c4.1-0.3,8.2-0.2,12.4-0.3c4.5-0.1,8.9-0.4,13.4-0.4c2,0,4.1,0.2,6.1,0.3
	C724.6,345.4,724.7,346.2,724.7,347z"/>
<path class="st1" d="M774.8,367.9c0.1,2.4-1.4,3-3.5,3c-10,0-20,0.1-30-0.1c-1.5,0-3-1.2-5.1-2C740.1,366.6,769.8,366.3,774.8,367.9
	z"/>
<path class="st7" d="M121.6,87.1c2.2-2.8,3.8-5.4,5.9-7.5c3.1-3.2,5.3-3,8.5,0.1c0.7,0.7,1.4,1.5,2.2,2c2.6,1.5,5.2,3,8.6,4.9
	c0.9-0.8,2.5-2.5,4.3-3.7c2.4-1.7,4.9-3.6,7.6-4.4c5.4-1.6,7.5-0.3,9.4,5c2.3,6.1,3.2,6.3,7.9,1.4c2.2-2.3,4.2-4.7,6.6-6.8
	c4.6-4.1,8.5-3.6,11.4,1.6c2,3.6,4.3,4,7.8,2.8c6.6-2.3,13.3-2.1,20.2-1.3c5.4,0.6,10.9,0.4,16.3,0.5c9,0.2,17.9,0.3,26.9,0.5
	c9.6,0.3,19.3,0.7,28.9,1.1c5.5,0.2,10.9,0.9,16.4,0.9c4.8,0,9.6-0.8,14.4-1.1c3-0.2,6.4-1.2,9.1,3.1c-5.9,0.9-11.4,2.4-16.9,2.6
	c-8.3,0.2-16.6-0.5-24.9-0.7c-9.9-0.3-19.9-0.8-29.8-0.9c-9.6-0.1-19.2,0.4-28.8,0.4c-4.1,0-8.3-0.9-12.4-1
	c-5.1-0.1-10.5-1-15.2,0.4c-7.8,2.3-13.8,2.4-17.4-6.8c-1.9,1.5-3.4,2.5-4.6,3.7c-2.3,2.4-4.4,5-6.8,7.3c-4.6,4.3-9.8,3.2-12.5-2.5
	c-0.8-1.8-1.5-3.6-2.7-6.3c-2.5,1.4-4.8,2.4-6.9,3.8c-1.8,1.2-3.1,3-4.8,4.3c-2.6,1.9-5.6,2.4-8.3,0.4c-3.4-2.4-6.6-5.1-10.4-8.1
	c-1.4,1.7-2.6,3-3.6,4.4c-5.4,7.8-7.5,7.8-12.2-0.2c-0.8,1.4-1.4,2.8-2.4,3.7c-1.3,1.1-3.1,2.8-4.3,2.5c-1.6-0.3-3.7-2.1-4.1-3.6
	c-1.1-3.7-1.3-7.7-1.9-11.6c0.5-0.2,1-0.3,1.5-0.5c1.2,3.6,2.4,7.2,3.8,11.3c2.6-2.9,4.1-6,6.6-7.2C119,79.7,120.1,83.7,121.6,87.1z
	"/>
<path class="st7" d="M815.9,85.5c0-3.5,0.1-7,0-10.5c-0.1-2.6,1.2-4.5,3.6-4.5c5.3-0.1,10.7-0.4,15.7,0.9c7.1,1.8,9.9,10.4,5.6,16.5
	c-3.2,4.6-7.2,8.6-11.1,12.7c-1.2,1.3-3,2.1-4.7,2.7c-5.5,2-7.8,0.4-8.2-5.3c-0.1-1-0.3-2-0.3-3c0-3.2,0-6.3,0-9.5
	C816.2,85.5,816.1,85.5,815.9,85.5z M820.2,75.1c0,4.4-0.2,8,0,11.6c0.2,3.7,0.9,7.4,1.5,12.3c2.6-1.5,4.7-2.3,6.3-3.7
	c2.9-2.7,5.5-5.8,7.9-8.9c3.9-4.9,1.8-10.5-4.5-11.2C827.9,74.8,824.2,75.1,820.2,75.1z"/>
<path class="st7" d="M437,86.9c-27.1,2.5-53.7,3-80.7,0c1.3-3.1,3.8-3.2,6-3.2c4.8,0,9.5,1,14.5-0.4c3.4-1,7.5,1,11.2,1
	c12.1-0.1,24.3-0.5,36.4-0.9c1.5,0,2.9-0.7,4.4-0.9C432.2,82,435,82.7,437,86.9z"/>
<path class="st7" d="M802.9,72.7c0.4,1.1,1,2.3,1.1,3.4c0.6,7.7,1.3,15.4,1.6,23.2c0,1.4-1.5,3.7-2.7,4c-2.4,0.6-2.8-1.7-2.8-3.6
	c-0.3-7.4-0.6-14.9-0.8-22.3C799.2,75.2,799.3,73,802.9,72.7z"/>
<path class="st8" d="M386,483c-13.6,0.4-26.2,1-38.8,1c-23.1-0.1-46.2-0.7-69.4-0.8c-12.5,0-24.9,0.3-37.4,1
	c-11.4,0.6-22.8,1.9-34.1,2.8c-1.3,0.1-2.7,0.1-4,0.1c-17.7-0.5-35.5,0.4-53.3-1.6c-11.8-1.3-24.1,1-36.2,1.6
	c-5.5,0.2-5.8-0.1-7-5.5c-0.5-2.4-1-4.9-1-7.3c0-39.7-0.1-79.3,0.1-119c0.1-13.8,0.6-27.6,0.9-41.4c0.3-13.8,0.9-27.6,0.9-41.4
	c0-17.8-0.7-35.6-0.8-53.4c0-12.6,0.5-25.3,0.9-37.9c0.1-1.9,0.7-3.8,1.3-6.5c5.3,0.4,10.4,0.8,15.5,1c6.8,0.2,13.7,0.3,20.5,0.2
	c9.3-0.2,18.6-0.6,27.9-1c16.4-0.6,32.8-1.6,49.3-1.8c13.9-0.2,27.9,0.7,41.9,0.8c21.9,0.2,43.8-0.1,65.7,0.1
	c17.5,0.1,34.9,0.7,52.4,0.9c3.5,0,4.7,1.3,4.7,4.7c-0.1,17.2,0,34.3-0.1,51.5c-0.2,21.5-0.8,42.9-0.8,64.4
	c0,20.8,0.7,41.6,0.8,62.4c0,9.6-0.8,19.3-0.8,28.9c0.2,30.1,0.6,60.2,0.9,90.4C386,478.8,386,480.6,386,483z"/>
<path class="st7" d="M474.9,208.9c4.1-0.3,7.4-0.7,10.7-0.8c4.1-0.1,8.3,2.5,9.5,5.9c1.4,4-0.2,7.2-3.1,9.8
	c-4.3,3.9-9.2,6.5-15.7,5.9C475.8,223,475.4,216.4,474.9,208.9z"/>
<path class="st7" d="M536.5,206.7c4.2-0.8,8.3-1.9,12.3-2.1c3.4-0.2,4.9,2.4,2.8,4.8c-3.8,4.6-8.2,8.5-14.4,10.7
	C537,215.6,536.8,211.7,536.5,206.7z"/>
<path class="st2" d="M701,209.4c-0.1,0.1-0.1,0.2-0.2,0.3c-0.2-0.1-0.3-0.3-0.5-0.4c0.1-0.1,0.2-0.2,0.4-0.3
	C700.8,209.2,700.9,209.3,701,209.4z"/>
<path class="st3" d="M578.7,211c1.1,2.9,2.1,5.8,3.3,9c-3.1,0-5.8,0-9.3,0c1.8-3.4,3.3-6.3,4.9-9.2C578,210.8,578.4,210.9,578.7,211
	z"/>
<path class="st3" d="M674.5,217.3c1.4-4.2,2.6-7.6,4-11.7c1.8,3.4,3.3,6.1,5.1,9.4C680.6,215.7,678,216.4,674.5,217.3z"/>
<path class="st7" d="M513.5,211.2c2.6,1.8,5.1,3,6.8,4.9c2.7,2.9,1.9,6.5,0.3,9.7c-1.4,2.9-3.9,3.8-7.1,3.4
	c-2.9-0.4-4.4-1.8-4.7-4.8C508.5,218.7,510.5,214,513.5,211.2z"/>
<path class="st6" d="M820.2,75.1c4,0,7.7-0.4,11.2,0.1c6.3,0.8,8.4,6.3,4.5,11.2c-2.5,3.1-5.1,6.1-7.9,8.9c-1.5,1.5-3.7,2.2-6.3,3.7
	c-0.6-4.9-1.2-8.6-1.5-12.3C820,83.1,820.2,79.5,820.2,75.1z"/>
<path class="st9" d="M141,488c1.4-12.6,3.3-39.6,7.9-51.7c3.3-8.7,8.6-15.5,17-19.6c9.8-4.7,19.7-9.2,29.2-14.3
	c11.3-6.1,20.2-14.3,21.5-28.3c0.1-1.4,1.7-2.7,2.6-4l0.1,0.1c2.8,0.4,5.7,1.1,8.5,1.2c7.2,0.2,14.4,0.3,21.5,0
	c6.4-0.3,12.4-2.1,17.6-6.1c1.9,0.6,3.7,1.2,5.6,1.8c0.7,11.6,6.5,20.2,16.9,25c12.8,5.9,25.9,11.4,39,16.5
	c13,5.1,21.4,14.1,25.6,27.3c4.1,13.1,8,35.4,9,49.2L141,488z"/>
<path class="st10" d="M272.5,367c-1.9-0.6-3.7-1.2-5.6-1.8c-0.2-1-0.4-2.1-0.6-3.1c-0.3-5.4-0.6-10.8-0.8-16.3l0,0
	c0.5-0.4,0.9-0.7,1.4-1.1c5.4-3.4,11.1-6.4,16-10.4c9.7-7.9,15.6-18.4,16.2-30.9c0.5-10.4-0.4-20.9-1.2-31.3
	c-0.6-7.6-2.8-14.9-6.2-22.1c-2.4,2.1-4.6,3.8-6.5,5.6c-7,6.6-14.9,11.8-24,14.8c-6.2,2.1-12.5,4.1-18.7,6c-2.2,0.7-4,1.2-5.4,3.6
	c-2.3,3.9-13.6,7-16.8,4.5c-2.6-2-5-1.9-7.6-1.7c-5.5,0.3-11.1,1-17.3,1.5c0,3.3,0,6.4,0,9.5c-1.8-1.1-2.5-2.4-3.3-3.6
	c-1.5-2.3-3.6-3.6-6.4-2.8c-3,0.8-4.4,3-4.1,6.1c0.4,3.6,0.5,7.3,1.2,10.9c1.4,6.6,3.9,12.7,11.3,14.8c8.6,2.4,14.4,8.1,18.3,15.8
	c1.9,3.7,3.2,7.8,4.4,11.8c2.3,7.6,3,15.4,2.6,23.2l-0.1-0.1c-11.8-1.9-23.7-3.5-35.4-5.8c-9.1-1.7-17.9-4.5-25.6-10
	c-5.1-3.6-10.4-7.1-15.1-11.3c-5.4-4.9-10.3-10.4-15.5-15.8c1-1.9,1.9-3.6,2.8-5.2c3.7-0.6,3.5-4.3,5.2-6.5c0.8-0.8,1.6-1.6,2.4-2.4
	c3.9-1.7-0.2-4,0.4-6c0.8-1.1,1.5-2.2,2.3-3.4c2.4-0.1,5.4,0.8,4.7-3.4l0,0c0.4-0.7,0.8-1.5,1.2-2.2c0.2-0.2,0.4-0.5,0.6-0.7
	c-0.2,0.2-0.5,0.4-0.7,0.6c-0.4,0-0.7,0.1-1.1,0.1l-0.3-0.3c3.2-5.9,6.8-11.6,9.5-17.7c3.2-7.4,5.4-15.2,8.4-22.6
	c4.2-10.5,7.4-21.7,14.8-30.6c11-13.2,25.5-21,42.3-24.5c10.3-2.1,20.6-2.9,31-2.2c7.7,0.5,14.7,3.9,21.3,7.6c2.2,1.2,4.1,2.8,6.3,4
	c10.5,6.3,18.9,14.5,25.1,25.1c10.9,18.7,18.2,39,24.8,59.5c-2.6,3.6,0.4,6.6,1.3,9.7c0.2,0.6,2.3,0.7,3.5,1c0.7,1.3,1.4,2.6,2.1,4
	c-0.6,1.3-2,2.9-1.6,3.8c2.2,4.8,4.8,9.4,7.2,14.1c6.7,10.1,6.7,10.1-3.6,16.4c-6.2,3.8-12.5,7.5-19,10.8
	c-8.7,4.5-18.5,5.7-27.9,8.1C284.7,365.9,278.5,366.2,272.5,367z M141.2,305.9c0.4,0.3,0.9,0.7,1.3,0.9c0,0,0.3-0.3,0.3-0.4
	c-0.2-0.4-0.5-0.8-0.8-1.2C141.8,305.4,141.6,305.6,141.2,305.9z"/>
<path class="st11" d="M341.1,329c-2.5-4.7-5.1-9.3-7.2-14.1c-0.4-0.8,1-2.5,1.6-3.8c5.2,7.8,10.4,15.6,16.1,24.1
	c-3.6,0-4-2.8-5.5-4.2C344.6,329.7,343.8,326.9,341.1,329z"/>
<path class="st12" d="M138.3,307.2c-0.6,2,3.5,4.3-0.4,6c-2.7-1.1-2.7,0.5-2.4,2.4c-1.7,2.2-1.5,5.9-5.2,6.5c-1.8-0.3-3.6-0.7-5.3-1
	C129.4,316.5,133.9,311.8,138.3,307.2z"/>
<path class="st11" d="M333.3,307.2c-1.2-0.3-3.3-0.4-3.5-1c-0.9-3.1-3.9-6.1-1.3-9.7C330.1,300,331.7,303.6,333.3,307.2z"/>
<path class="st12" d="M145.4,300.4c0.6,4.2-2.4,3.4-4.7,3.4c1.2-1.6,2.3-3.2,3.5-4.8C144.5,299.5,144.9,299.9,145.4,300.4z"/>
<path class="st10" d="M145.4,300.4c-0.4-0.5-0.8-0.9-1.2-1.4c0.3-0.4,0.6-0.9,0.9-1.3l0.3,0.3C145.4,298.8,145.4,299.6,145.4,300.4
	L145.4,300.4z"/>
<path class="st13" d="M219.3,370.1c0.4-7.9-0.3-15.7-2.6-23.2c-1.2-4-2.5-8.1-4.4-11.8c-3.9-7.7-9.7-13.4-18.3-15.8
	c-7.4-2.1-9.9-8.1-11.3-14.8c-0.7-3.6-0.9-7.3-1.2-10.9c-0.3-3.1,1-5.3,4.1-6.1c2.8-0.8,4.9,0.5,6.4,2.8c0.8,1.2,1.5,2.5,3.3,3.6
	c0-3.1,0-6.2,0-9.5c6.2-0.6,11.8-1.2,17.3-1.5c2.6-0.2,5-0.3,7.6,1.7c3.3,2.5,14.5-0.6,16.8-4.5c1.4-2.4,3.2-2.9,5.4-3.6
	c6.3-1.9,12.5-4,18.7-6c9.2-3.1,17-8.2,24-14.8c2-1.9,4.1-3.5,6.5-5.6c3.4,7.2,5.6,14.6,6.2,22.1c0.8,10.4,1.7,20.9,1.2,31.3
	c-0.5,12.5-6.5,23-16.2,30.9c-4.9,4-10.7,7-16,10.4c-0.5,0.4-0.9,0.7-1.4,1.1l0,0c-9.5,0.6-18.9,1.3-29.4,2c2.2,1.4,3.7,2.6,5.3,3.4
	c5.1,2.6,10.3,5.3,15.5,7.7c3,1.4,6.3,2.1,9.4,3.2c0.2,1,0.4,2.1,0.6,3.1c-5.2,4-11.2,5.9-17.6,6.1c-7.2,0.3-14.3,0.2-21.5,0
	C225,371.3,222.1,370.6,219.3,370.1z M273.5,306.2c-7,6.5-15.1,5.6-22.7,7.4C261.9,319.2,269.6,317.5,273.5,306.2z M294.2,273.3
	c-4.6-4.5-8.8-6.2-14-5.6c-4,0.4-4.3,0.8-3.6,5.6C282.1,273.3,287.5,273.3,294.2,273.3z M233.4,321.1c4.5,7.1,10.9,10,14.9,7.8
	C243.8,326.5,239.2,324.1,233.4,321.1z M287.8,293.2c-1.8-1.9-0.9-3.1-2.1-4.5c-0.9,1-2.4,1.9-2.7,3c-0.6,2,1.8,5.4,3.4,5
	C287.5,296.4,286.1,294.9,287.8,293.2z M233.8,295.6c-2.9,3.5-2.9,3.5-1.1,8.8c1.3-0.8,3-1.3,3.3-2.2
	C236.7,299.9,237.1,297.2,233.8,295.6z"/>
<path class="st14" d="M266.3,362.1c-3.1-1-6.4-1.8-9.4-3.2c-5.3-2.4-10.4-5-15.5-7.7c-1.6-0.8-3.1-2-5.3-3.4
	c10.5-0.7,19.9-1.3,29.4-2C265.8,351.2,266,356.7,266.3,362.1z"/>
<path class="st12" d="M141.2,305.9c0.4-0.3,0.6-0.5,0.8-0.6c0.3,0.4,0.5,0.8,0.8,1.2c0,0.1-0.3,0.4-0.3,0.4
	C142.1,306.5,141.7,306.2,141.2,305.9z"/>
<path class="st8" d="M135.5,315.6c-0.4-1.9-0.4-3.5,2.4-2.4C137.1,314,136.3,314.8,135.5,315.6z"/>
<path class="st12" d="M145.4,300.3c0-0.8,0-1.5,0-2.3c0.4,0,0.7,0,1.1-0.1l0.1,0.1C146.2,298.8,145.8,299.6,145.4,300.3z"/>
<path class="st15" d="M265.4,345.9c0.5-0.4,0.9-0.7,1.4-1.1C266.4,345.1,265.9,345.5,265.4,345.9z"/>
<path class="st12" d="M146.5,298c0.2-0.2,0.5-0.4,0.7-0.6c-0.2,0.2-0.4,0.5-0.6,0.7C146.6,298.1,146.5,298,146.5,298z"/>
<path class="st14" d="M273.5,306.2c-3.9,11.3-11.7,13-22.7,7.4C258.4,311.8,266.5,312.8,273.5,306.2z"/>
<path class="st16" d="M294.2,273.3c-6.6,0-12.1,0-17.5,0c-0.8-4.8-0.5-5.2,3.6-5.6C285.4,267.1,289.6,268.8,294.2,273.3z"/>
<path class="st17" d="M233.4,321.1c5.7,3,10.4,5.5,14.9,7.8C244.3,331.1,237.9,328.2,233.4,321.1z"/>
<path class="st18" d="M288,292.8c-1.7,1.6-0.5,3.7-1.7,4c-1.6,0.4-4-2.9-3.4-5c0.3-1.2,1.8-2,2.7-3
	C286.9,290.1,286.3,290.8,288,292.8z"/>
<path class="st19" d="M233.8,295.6c3.3,1.7,2.9,4.3,2.2,6.6c-0.3,0.9-2.1,1.4-3.3,2.2C230.9,299.1,230.9,299.1,233.8,295.6z"/>
<ellipse transform="matrix(0.9935 -0.114 0.114 0.9935 -32.6755 28.5676)" class="st19" cx="233.4" cy="300" rx="2.9" ry="4.6"/>
<ellipse transform="matrix(0.9935 -0.114 0.114 0.9935 -31.4412 34.4875)" class="st19" cx="285.8" cy="292.2" rx="2.9" ry="4.6"/>
<path class="st20" d="M335.5,486.5c-2.3,0-1.5,0.1-3.8,0.1c-0.4-10.6-0.7,6.8-1.2-3.8c-0.2-4.7-0.9-9.4-1.5-14.4
	c5.1,0.1,4.8,3.1,5,5.7c0.4,5.6,0.6,7.1,1.2,12.7"/>
<path class="st21" d="M173.6,487.6c-1.9,0-1.8,0.1-3.7,0.1c0.7-14.9-0.6-1.9,0.1-17.1c4.3,0.7,3.7,3.3,3.7,5.5
	C173.7,489.3,173.6,474.4,173.6,487.6z"/>
<path class="st1" d="M103.5,169c20.3,0,40.2,0.1,60.1,0c9.8-0.1,19.6-0.6,29.4-1c10-0.3,19.9-0.9,29.9-0.9
	c17.8,0.1,35.6,0.5,53.4,0.9c10.5,0.2,20.9,0.9,31.4,0.9c9.1,0,18.3-0.8,27.4-0.8c14.6,0.1,29.3-0.2,43.9,1.2
	c10.4,1.1,12.9,1.9,13.1,13.4c0.3,12.7,0.1,25.3,0,38c-0.3,59-0.7,117.9-0.8,176.9c0,22.3,0.6,44.6,0.8,66.9
	c0,6.6-0.4,13.3-1.1,19.9c-0.2,1.7-2,3.5-3.6,4.6c-1.2,0.9-3.2,1-4.8,1c-15.7,0.1-31.3,0.2-47,0c-15-0.1-29.9-0.8-44.9-0.8
	c-16.6,0-33.3-0.3-49.9,1.1c-25.4,2.1-50.7,3.2-76.1,2.7c-8.6-0.2-17.2-1.7-25.7-1.7c-8.2,0-16.5,1.1-24.8,1.8c-0.8,0.1-1.7,0-2.5,0
	c-7.1-0.5-8.6-1.5-10.5-8.3c-1.1-4.3-2-8.8-2-13.2c-0.2-16.8-0.2-33.7-0.1-50.5c0.3-34.3,0.7-68.6,1-102.9c0.3-39,0.6-77.9,1-116.9
	c0.1-9,0.6-17.9,1.1-26.9C102.2,172.6,102.9,170.9,103.5,169z M386,483c0-2.3,0-4.1,0-5.9c-0.3-30.1-0.7-60.2-0.9-90.4
	c-0.1-9.6,0.8-19.3,0.8-28.9c-0.1-20.8-0.8-41.6-0.8-62.4c0-21.5,0.6-42.9,0.8-64.4c0.1-17.2,0-34.3,0.1-51.5c0-3.4-1.2-4.7-4.7-4.7
	c-17.5-0.2-34.9-0.8-52.4-0.9c-21.9-0.2-43.8,0.1-65.7-0.1c-14-0.1-27.9-1-41.9-0.8c-16.4,0.2-32.8,1.2-49.3,1.8
	c-9.3,0.4-18.6,0.8-27.9,1c-6.8,0.1-13.7,0-20.5-0.2c-5.1-0.2-10.2-0.6-15.5-1c-0.5,2.7-1.2,4.6-1.3,6.5c-0.4,12.6-1,25.3-0.9,37.9
	c0,17.8,0.7,35.6,0.8,53.4c0,13.8-0.6,27.6-0.9,41.4c-0.3,13.8-0.9,27.6-0.9,41.4c-0.1,39.7-0.1,79.3-0.1,119c0,2.5,0.4,4.9,1,7.3
	c1.2,5.4,1.5,5.7,7,5.5c12.1-0.5,24.3-2.9,36.2-1.6c17.8,2,35.5,1.1,53.3,1.6c1.3,0,2.7,0,4-0.1c11.4-1,22.7-2.2,34.1-2.8
	c12.4-0.7,24.9-1,37.4-1c23.1,0.1,46.2,0.7,69.4,0.8C359.9,484,372.5,483.3,386,483z"/>
</svg>
