<?xml version="1.0" encoding="utf-8"?>
<!-- Generator: Adobe Illustrator 23.0.6, SVG Export Plug-In . SVG Version: 6.00 Build 0)  -->
<svg version="1.1" xmlns="http://www.w3.org/2000/svg" xmlns:xlink="http://www.w3.org/1999/xlink" x="0px" y="0px"
	 viewBox="0 0 600 416" style="enable-background:new 0 0 600 416;" xml:space="preserve">
<style type="text/css">
	.st0{fill:#FFFFFF;}
	.st1{fill:#8ADDC1;}
	.st2{fill:#63C5A8;}
	.st3{clip-path:url(#SVGID_2_);fill:#E78662;}
	.st4{clip-path:url(#SVGID_2_);fill:#113347;}
	.st5{clip-path:url(#SVGID_2_);fill:#2B495A;}
	.st6{clip-path:url(#SVGID_2_);fill:#324E60;}
	.st7{clip-path:url(#SVGID_2_);fill:#F1B881;}
	.st8{clip-path:url(#SVGID_2_);fill:#DA7753;stroke:#D97652;stroke-miterlimit:10;}
	.st9{clip-path:url(#SVGID_2_);fill:#D97652;stroke:#D97652;stroke-miterlimit:10;}
	.st10{clip-path:url(#SVGID_2_);fill:#ECA863;stroke:#ECA863;stroke-miterlimit:10;}
	.st11{clip-path:url(#SVGID_2_);fill:#FEFEFE;}
	.st12{clip-path:url(#SVGID_2_);fill:#ECA863;}
	.st13{clip-path:url(#SVGID_2_);fill:#193748;}
	.st14{clip-path:url(#SVGID_2_);fill:#343E40;}
	.st15{clip-path:url(#SVGID_2_);fill:#142B37;}
	.st16{clip-path:url(#SVGID_2_);fill:#132A37;}
	.st17{display:none;}
</style>
<g id="Layer_3">
	<path class="st0" d="M535,374H66c-14.9,0-27-12.1-27-27V69c0-14.9,12.1-27,27-27h469c14.9,0,27,12.1,27,27v278
		C562,361.9,549.9,374,535,374z"/>
	<path class="st1" d="M562,114H39V69c0-14.9,12.1-27,27-27h469c14.9,0,27,12.1,27,27V114z"/>
	<rect x="76" y="73" class="st0" width="146" height="14"/>
	<rect x="249" y="73" class="st0" width="73" height="14"/>
	<rect x="484" y="73" class="st0" width="41" height="14"/>
	<rect x="322" y="150.3" class="st1" width="146" height="14"/>
	<rect x="268" y="150.3" class="st2" width="32" height="14"/>
	<rect x="322" y="185.3" class="st1" width="111" height="14"/>
	<rect x="268" y="185.3" class="st2" width="32" height="14"/>
	<rect x="322" y="220.3" class="st1" width="146" height="14"/>
	<rect x="268" y="220.3" class="st2" width="32" height="14"/>
	<rect x="268" y="280.3" class="st2" width="32" height="14"/>
	<rect x="322" y="315.3" class="st1" width="44" height="14"/>
	<rect x="268" y="315.3" class="st2" width="32" height="14"/>
	<rect x="322" y="280.3" class="st1" width="44" height="14"/>
	<rect x="408" y="280.3" class="st2" width="32" height="14"/>
	<rect x="462" y="315.3" class="st1" width="44" height="14"/>
	<rect x="408" y="315.3" class="st2" width="32" height="14"/>
	<rect x="462" y="280.3" class="st1" width="44" height="14"/>
	<g>
		<defs>
			<rect id="SVGID_1_" x="78.5" y="134.5" width="150.6" height="194.5"/>
		</defs>
		<clipPath id="SVGID_2_">
			<use xlink:href="#SVGID_1_"  style="overflow:visible;"/>
		</clipPath>
		<path class="st3" d="M171,249.6c0.4,7,3.9,12.1,10.1,15c7.7,3.5,15.5,6.8,23.3,9.9c7.8,3,12.8,8.4,15.3,16.3
			c2.5,7.8,4.3,15.8,4.9,24c0.4,4.8,1.4,9.6,2.1,14.4c0.9,5.9,1.9,11.8,2.6,17.8c0.9,7.8,1.4,15.6,2.2,23.4c0.2,2.2,0.7,4.3,0.7,6.5
			c0.2,9.3-1.2,18.4-3.9,27.3c-0.2,0.7-0.3,1.4-0.4,2c-3.5,0.7-6.9,1.5-10.4,2.2c0-14.2,0-28.5-0.1-42.7c-0.1-8.3-0.4-16.6-0.6-24.9
			c0-2.1-0.9-2.9-2.9-2.9c-2.8,0-5.5,0-8.3-0.1c-0.2-1.5-0.3-3-0.5-4.4c-0.5-3.3-1.2-6.5-1.5-9.8c-0.4-3.3-0.5-6.7-0.7-10
			c-0.1-1.5,0.1-3.3-3-3.4c0.3,3,0.7,5.8,0.9,8.6c0.3,6.3,0.5,12.7,0.7,19c-9.4,0-18.8,0-28.2,0.1c-20.1,0.2-40.3,0.3-60.4,0.5
			c0-7.9,0-15.8,0-23.6c0-1.3,0.4-2.9-2.2-3.3c-0.4,9.1-0.8,18-1.2,27c-0.8,0.1-1.6,0.1-2.4,0.3c-4.6,1.1-4.7,1.1-4.6,5.8
			c0.2,9,0.5,18,0.6,27c0.1,12.5,0,25,0,37.6c-1.2-0.2-2.4-0.4-3.7-0.5c-2.2-3.5-4.6-7-6.5-10.7c-1.3-2.5-2.7-5.3-2.9-8.1
			c-0.6-8-0.9-16-0.8-23.9c0.1-8.1,0.8-16.2,1.4-24.2c0.6-9.5,1.1-18.9,2.1-28.4c0.8-7.5,1.4-15.2,4.1-22.4
			c1.9-5.2,5.1-9.3,10.2-11.7c5.8-2.8,11.8-5.5,17.5-8.6c6.7-3.7,12.1-8.6,12.8-16.9c0.1-0.8,1-1.6,1.6-2.4l0.1,0.1
			c1.7,0.3,3.4,0.7,5.1,0.7c4.3,0.1,8.6,0.2,12.9,0c3.8-0.2,7.4-1.3,10.5-3.7C168.7,248.9,169.8,249.3,171,249.6z"/>
		<path class="st4" d="M171,249.6c-1.1-0.4-2.2-0.7-3.3-1.1c-0.1-0.6-0.2-1.2-0.4-1.9c-0.2-3.2-0.3-6.5-0.5-9.7l0,0
			c0.3-0.2,0.6-0.4,0.9-0.7c3.2-2.1,6.7-3.8,9.6-6.2c5.8-4.7,9.3-11,9.7-18.5c0.3-6.2-0.2-12.5-0.7-18.7c-0.4-4.5-1.7-8.9-3.7-13.2
			c-1.5,1.3-2.7,2.3-3.9,3.4c-4.2,4-8.9,7-14.4,8.9c-3.7,1.2-7.5,2.5-11.2,3.6c-1.3,0.4-2.4,0.7-3.2,2.1c-1.4,2.3-8.1,4.2-10.1,2.7
			c-1.5-1.2-3-1.1-4.5-1c-3.3,0.2-6.6,0.6-10.4,0.9c0,2,0,3.8,0,5.7c-1.1-0.7-1.5-1.4-2-2.1c-0.9-1.4-2.1-2.2-3.8-1.7
			c-1.8,0.5-2.6,1.8-2.4,3.7c0.2,2.2,0.3,4.4,0.7,6.5c0.8,4,2.3,7.6,6.7,8.8c5.1,1.5,8.6,4.9,10.9,9.5c1.1,2.2,1.9,4.7,2.6,7.1
			c1.4,4.5,1.8,9.2,1.6,13.9l-0.1-0.1c-7.1-1.1-14.2-2.1-21.2-3.5c-5.4-1-10.7-2.7-15.3-6c-3.1-2.2-6.2-4.2-9-6.7
			c-3.2-2.9-6.1-6.2-9.3-9.5c0.6-1.1,1.1-2.1,1.7-3.1c2.2-0.4,2.1-2.6,3.1-3.9c0.5-0.5,0.9-1,1.4-1.4c2.3-1-0.1-2.4,0.2-3.6
			c0.5-0.7,0.9-1.3,1.4-2c1.4,0,3.2,0.5,2.8-2.1l0,0c0.2-0.4,0.5-0.9,0.7-1.3c0.1-0.1,0.2-0.3,0.3-0.4c-0.1,0.1-0.3,0.2-0.4,0.3
			c-0.2,0-0.4,0-0.7,0l-0.2-0.2c1.9-3.5,4.1-6.9,5.7-10.6c1.9-4.4,3.2-9.1,5-13.5c2.5-6.3,4.4-13,8.8-18.3
			c6.6-7.9,15.2-12.5,25.3-14.6c6.1-1.3,12.3-1.8,18.6-1.3c4.6,0.3,8.8,2.3,12.8,4.6c1.3,0.7,2.5,1.7,3.7,2.4
			c6.3,3.7,11.3,8.7,15,15c6.5,11.2,10.9,23.3,14.8,35.6c-1.5,2.2,0.2,3.9,0.8,5.8c0.1,0.4,1.4,0.4,2.1,0.6c0.4,0.8,0.8,1.6,1.2,2.4
			c-0.3,0.8-1.2,1.7-1,2.3c1.3,2.9,2.9,5.6,4.3,8.4c4,6,4,6.1-2.1,9.8c-3.7,2.3-7.5,4.5-11.4,6.5c-5.2,2.7-11.1,3.4-16.7,4.9
			C178.3,248.9,174.6,249.1,171,249.6z M92.4,213.1c0.3,0.2,0.5,0.4,0.8,0.6c0,0,0.2-0.2,0.2-0.2c-0.1-0.3-0.3-0.5-0.5-0.7
			C92.8,212.8,92.6,212.9,92.4,213.1z"/>
		<path class="st5" d="M212,226.9c-1.5-2.8-3-5.6-4.3-8.4c-0.2-0.5,0.6-1.5,1-2.3c3.1,4.7,6.2,9.3,9.6,14.4c-2.2,0-2.4-1.7-3.3-2.5
			C214.1,227.3,213.6,225.7,212,226.9z"/>
		<path class="st6" d="M90.7,213.8c-0.4,1.2,2.1,2.5-0.2,3.6c-1.6-0.7-1.6,0.3-1.4,1.4c-1,1.3-0.9,3.5-3.1,3.9
			c-1.1-0.2-2.1-0.4-3.2-0.6C85.4,219.4,88,216.6,90.7,213.8z"/>
		<path class="st5" d="M207.4,213.8c-0.7-0.2-2-0.2-2.1-0.6c-0.5-1.9-2.3-3.6-0.8-5.8C205.5,209.6,206.4,211.7,207.4,213.8z"/>
		<path class="st6" d="M94.9,209.8c0.4,2.5-1.4,2-2.8,2.1c0.7-1,1.4-1.9,2.1-2.9C94.4,209.2,94.7,209.5,94.9,209.8z"/>
		<path class="st4" d="M94.9,209.8c-0.3-0.3-0.5-0.5-0.7-0.8c0.2-0.3,0.4-0.5,0.6-0.8l0.2,0.2C94.9,208.8,94.9,209.3,94.9,209.8
			L94.9,209.8z"/>
		<path class="st7" d="M139.1,251.5c0.2-4.7-0.2-9.4-1.6-13.9c-0.7-2.4-1.5-4.8-2.6-7.1c-2.3-4.6-5.8-8-10.9-9.5
			c-4.4-1.3-5.9-4.9-6.7-8.8c-0.4-2.1-0.5-4.3-0.7-6.5c-0.2-1.9,0.6-3.1,2.4-3.7c1.7-0.5,2.9,0.3,3.8,1.7c0.5,0.7,0.9,1.5,2,2.1
			c0-1.9,0-3.7,0-5.7c3.7-0.3,7-0.7,10.4-0.9c1.6-0.1,3-0.2,4.5,1c2,1.5,8.7-0.4,10.1-2.7c0.8-1.4,1.9-1.7,3.2-2.1
			c3.8-1.2,7.5-2.4,11.2-3.6c5.5-1.8,10.2-4.9,14.4-8.9c1.2-1.1,2.4-2.1,3.9-3.4c2,4.3,3.3,8.7,3.7,13.2c0.5,6.2,1,12.5,0.7,18.7
			c-0.3,7.5-3.9,13.8-9.7,18.5c-2.9,2.4-6.4,4.2-9.6,6.2c-0.3,0.2-0.6,0.4-0.9,0.7l0,0c-5.7,0.4-11.3,0.8-17.6,1.2
			c1.3,0.9,2.2,1.6,3.2,2.1c3.1,1.6,6.1,3.2,9.3,4.6c1.8,0.8,3.8,1.3,5.6,1.9c0.1,0.6,0.2,1.2,0.4,1.9c-3.1,2.4-6.7,3.5-10.5,3.7
			c-4.3,0.2-8.6,0.1-12.9,0C142.5,252.2,140.8,251.8,139.1,251.5z M171.6,213.3c-4.2,3.9-9,3.3-13.6,4.4
			C164.6,221,169.2,220,171.6,213.3z M183.9,193.6c-2.8-2.7-5.3-3.7-8.4-3.4c-2.4,0.3-2.6,0.5-2.1,3.4
			C176.7,193.6,180,193.6,183.9,193.6z M147.6,222.1c2.7,4.3,6.5,6,8.9,4.7C153.8,225.4,151,223.9,147.6,222.1z M180.1,205.5
			c-1.1-1.2-0.5-1.9-1.3-2.7c-0.6,0.6-1.4,1.1-1.6,1.8c-0.4,1.2,1.1,3.2,2,3C180,207.4,179.1,206.5,180.1,205.5z M147.8,206.9
			c-1.7,2.1-1.7,2.1-0.6,5.3c0.8-0.5,1.8-0.8,2-1.3C149.6,209.5,149.8,207.9,147.8,206.9z"/>
		<path class="st8" d="M205.8,337.9c-1.4,0-2.8,0-4.1,0c-0.2-6.3-0.4-12.7-0.7-19c-0.1-2.8-0.6-5.6-0.9-8.6c3,0,2.9,1.9,3,3.4
			c0.3,3.3,0.4,6.7,0.7,10c0.4,3.3,1,6.6,1.5,9.8C205.5,334.9,205.6,336.4,205.8,337.9z"/>
		<path class="st9" d="M113,338.5c-1.1,0-2.3,0.1-3.4,0.1c0.4-8.9,0.8-17.9,1.2-27c2.6,0.4,2.2,2,2.2,3.3
			C113,322.8,113,330.7,113,338.5z"/>
		<path class="st10" d="M167.3,246.7c-1.9-0.6-3.8-1.1-5.6-1.9c-3.1-1.4-6.2-3-9.3-4.6c-1-0.5-1.9-1.2-3.2-2.1
			c6.3-0.4,11.9-0.8,17.6-1.2C166.9,240.2,167.1,243.4,167.3,246.7z"/>
		<path class="st6" d="M92.4,213.1c0.2-0.2,0.4-0.3,0.5-0.4c0.2,0.2,0.3,0.5,0.5,0.7c0,0-0.2,0.2-0.2,0.2
			C92.9,213.5,92.7,213.3,92.4,213.1z"/>
		<path class="st11" d="M89,218.9c-0.2-1.2-0.2-2.1,1.4-1.4C90,217.9,89.5,218.4,89,218.9z"/>
		<path class="st6" d="M94.9,209.7c0-0.5,0-0.9,0-1.4c0.2,0,0.4,0,0.7,0l0.1,0.1C95.4,208.8,95.2,209.3,94.9,209.7z"/>
		<path class="st12" d="M166.7,237c0.3-0.2,0.6-0.4,0.9-0.7C167.3,236.5,167,236.8,166.7,237z"/>
		<path class="st6" d="M95.6,208.3c0.1-0.1,0.3-0.2,0.4-0.3C95.9,208.1,95.8,208.3,95.6,208.3C95.7,208.4,95.6,208.3,95.6,208.3z"/>
		<path class="st10" d="M171.6,213.3c-2.3,6.7-7,7.8-13.6,4.4C162.6,216.6,167.4,217.2,171.6,213.3z"/>
		<path class="st13" d="M183.9,193.6c-4,0-7.2,0-10.5,0c-0.5-2.9-0.3-3.1,2.1-3.4C178.7,189.9,181.2,190.9,183.9,193.6z"/>
		<path class="st14" d="M147.6,222.1c3.4,1.8,6.2,3.3,8.9,4.7C154.1,228.2,150.3,226.4,147.6,222.1z"/>
		<path class="st15" d="M180.3,205.2c-1,1-0.3,2.2-1,2.4c-1,0.3-2.4-1.8-2-3c0.2-0.7,1.1-1.2,1.6-1.8
			C179.6,203.6,179.2,204.1,180.3,205.2z"/>
		<path class="st16" d="M147.8,206.9c2,1,1.8,2.6,1.3,3.9c-0.2,0.6-1.2,0.9-2,1.3C146.1,209,146.1,209,147.8,206.9z"/>
		<ellipse transform="matrix(0.9935 -0.114 0.114 0.9935 -22.9236 18.193)" class="st16" cx="147.6" cy="209.5" rx="1.7" ry="2.8"/>
		
			<ellipse transform="matrix(0.9935 -0.114 0.114 0.9935 -22.1852 21.7348)" class="st16" cx="178.9" cy="204.8" rx="1.7" ry="2.8"/>
	</g>
</g>
<g id="Layer_4" class="st17">
</g>
</svg>
