<svg xmlns="http://www.w3.org/2000/svg" viewBox="0 0 928.01 302.32"><defs><style>.a{fill:#e78562;}.b{fill:#63c5a9;}.c{fill:#123345;}.d{fill:#5ab996;}.e{fill:#f1b980;}.f{fill:#f2ba83;}.g{fill:#153547;}.h{fill:#efb77f;}.i{fill:#da7854;}.j{fill:#d8d7d2;}.k{fill:#edaa67;}.l{fill:#516975;}.m{fill:#edece9;}</style></defs><title>profile_2</title><path class="a" d="M221.25,261.87c3.38-.53,6.74-1.35,10.14-1.55,9.1-.54,18.21-.68,27.31-1.22,15.19-.9,30.38-1.88,45.54-3.12,2.66-.22,5.2-1.93,7.79-2.95,5-.88,6.74-5.11,8.63-8.79,8.14-15.84,16-31.82,23.93-47.79a74.09,74.09,0,0,0,2.77-7.38l1.45-2.38-.86-.33-.6,2.7c-.92.83-2.14,1.49-2.71,2.51-6.29,11.42-12.25,23-18.8,34.31-4.54,7.81-9.33,15.58-16.6,21.35-4.68-10.74-9.72-21.34-13.95-32.26-5.39-13.88-10-28.05-15.21-42-1.23-3.32-.71-5.38,2.42-6.84l4.85-.1q5.31,12.12,10.6,24.24l.92-.35.59-2.14c2.68.84,5.24,2.21,7.88,2.38,12.51.82,24.45-2.33,35.93-6.75a121.58,121.58,0,0,0,40.42-25.13c7.15,12.1,18.25,19.88,30.55,25.35,12,5.35,24.1,11,37.43,12.95,21.27,3.15,42.38,7.42,64.08,6.82,10.61-.3,21.23.51,31.85.67,8.11.12,8.11,0,8.9,8.18.22,13.39.65,26.78.59,40.17-.06,15.28-.54,30.55-.92,45.83a28.58,28.58,0,0,1-1,4.84q-19.94-.51-39.86-1l-42.85-1c-.34,0-.67,0-1,0q-20.47-2-40.95-3.95c-11-1.05-22.06-1.92-33.07-3.09-6.3-.67-12.5-2-17.57-6.18-8.5-7.05-13.54-13.91-8.24-26.38,7.72-18.17,15.26-36.41,22.78-54.67,2-4.78,3.55-9.73,5.31-14.6l-.71-.22q-22.85,51-45.67,101.91c-4.53,4.24-10,4.83-16,5.24-32.65,2.24-65.33,2-98,2H224.73c-.55-3.82-1-6.9-1.43-10q-1-12.53-2-25Z" transform="translate(-4.54 -5.98)"/><path class="b" d="M555.21,303.08a28.58,28.58,0,0,0,1-4.84c.38-15.28.86-30.55.92-45.83.06-13.39-.37-26.78-.59-40.17q33.16,3.36,66.32,6.72c18,1.78,36,3.4,54,5.23,13.85,1.4,27.68,3.12,41.55,4.46,5.11.49,10.3.39,15.45.39,3.22,0,5-1.18,3.93-5-3.05-11-5.68-22.17-8.82-33.17-4.19-14.66-8.66-29.25-13.09-43.85-3.52-11.58-7.07-23.16-10.78-34.68-1-3.16-.29-4.94,2.65-6.4,6.38-3.14,12.64-6.52,19-9.81l28.71-8.09c2.06.27,4,0,4.91,3,6.4,21.07,13.06,42.05,19.6,63.07.93,3,1.66,6,2.48,9.07.44,3.1.53,6.3,1.36,9.29q8.2,29.63,16.7,59.16c3.21,11.12,6.48,22.26,6.86,33.88s-4.1,21.61-12.57,29.73a24.76,24.76,0,0,0-2.3,2.95c-7.27,1.27-14.51,3.32-21.83,3.67-23.58,1.1-47.19,1.61-70.79,2.29-19.78.57-39.56,1.24-59.35,1.48-8.43.1-16.87-1.05-25.31-1.18-10.93-.16-21.86.11-32.79.22-9,.08-18,.2-26.94.31Z" transform="translate(-4.54 -5.98)"/><path class="c" d="M383.69,158.27a121.58,121.58,0,0,1-40.42,25.13c-11.48,4.42-23.42,7.57-35.93,6.75-2.64-.17-5.2-1.54-7.88-2.38l-.59,2.14-.92.35q-5.29-12.12-10.6-24.24c-.33-1.45-.57-2.93-1-4.35-5.08-16.78-1.21-27.95,13.08-37.65,4.43-3,6.74-8.1,5.54-12.88-.32-1.31-1.31-3.09-2.35-3.39s-2.46,1.1-3.57,1.94a8.78,8.78,0,0,0-1.41,2c-1.59,2.25-2,6.72-6.05,5-3.77-1.6-1-4.91-.56-7.48.65-4,1.52-7.9-2.57-10.84-8.59-6.18-17.18-12.39-23.64-21.11-1.38,3.11-2.62,1.87-3.34.07-1.52-3.8-3.15-7.34-7.63-8.5-.4-.1-.49-1.38-.82-2.39l4.14-1-7.42-12.53c-.49-1.39-1-2.78-1.42-4,15-4.48,29.79-9.27,44.77-13.24,13.12-3.48,26-1.61,38.44,3.78,17.85,7.73,32.48,20,46.8,32.72,4.55,4,8.74,8.48,13.1,12.74.73,1.59,1.05,3.64,2.26,4.68,4.62,4,9.43,7.79,14.36,11.4s5.8,4.57,3.09,10.24c-4.28,9-9,17.69-13.83,26.39-3.09,5.63-6.57,11-9.88,16.54Z" transform="translate(-4.54 -5.98)"/><path class="d" d="M792.38,298.17a24.76,24.76,0,0,1,2.3-2.95c8.47-8.12,12.94-18.05,12.57-29.73s-3.65-22.76-6.86-33.88q-8.5-29.54-16.7-59.16c-.83-3-.92-6.19-1.36-9.29,2.65-6.73,5.34-13.45,7.93-20.21,5.14-13.45,10.23-26.92,15.68-41.29l9.36,1.88L842,116.26c3.68,2.25,7.37,4.48,11,6.75,3,1.88,3.49,4.77,2.55,7.81-8.65,27.71-17.23,55.44-26.15,83.06-5.15,16-11,31.69-16.31,47.58-2.47,7.37-4.16,15-6.94,22.25C803.66,290.24,800.2,296.43,792.38,298.17Z" transform="translate(-4.54 -5.98)"/><path class="e" d="M249.75,52.93l7.42,12.53-4.14,1c.33,1,.42,2.29.82,2.39,4.48,1.16,6.11,4.7,7.63,8.5.72,1.8,2,3,3.34-.07,6.46,8.72,15.05,14.93,23.64,21.11,4.09,2.94,3.22,6.85,2.57,10.84-.42,2.57-3.21,5.88.56,7.48,4.07,1.73,4.46-2.74,6.05-5a8.78,8.78,0,0,1,1.41-2c1.11-.84,2.63-2.2,3.57-1.94s2,2.08,2.35,3.39c1.2,4.78-1.11,9.86-5.54,12.88-14.29,9.7-18.16,20.87-13.08,37.65.43,1.42.67,2.9,1,4.35l-4.85.1c-1.38-5.26-2.52-10.61-4.23-15.77-1.26-3.8-4.19-5.76-8.48-5.48-4.92.31-9.93,1-14.76.37-11.77-1.49-19.45-9.15-26.16-18.75,5.34-5.41,13.19-8.17,17.27-16.46-3.87,0-6.63.14-9.38,0a86.43,86.43,0,0,1-11.82-1.24c-1.32-.26-3.4-2.41-3.24-3.38.94-5.63-2.69-9.33-5-13.59-.8-1.46-1.8-2.82-2.45-4.33-1.92-4.44-1.15-6.83,3.4-8.54,7.69-2.89,13.64-7.67,18.83-14.06C240.16,60.3,245.26,56.87,249.75,52.93ZM249,80l-1.45-.07c-.64,1.07-1.71,2.1-1.8,3.22a12.38,12.38,0,0,0,.92,4.57c.08.27,1.59.48,1.7.29.77-1.32,1.74-2.73,1.88-4.18C250.38,82.56,249.46,81.24,249,80Z" transform="translate(-4.54 -5.98)"/><path class="f" d="M221.31,266.1q1,12.51,2,25l-34-.08c-8.83-.62-17.66-1.39-26.5-1.8-3.05-.15-6.8-1.46-8.62,2.72l-11.74,6.24L137.24,302a69,69,0,0,1-7.1,5.16c-1.44.81-3.39.71-6.11,1.19.72-2.34,1.17-3.8,1.61-5.26l2.83-3.93,11.23-11.82c-.62,0-1.36-.22-1.87,0-6.11,2.92-12.34,5.66-18.23,9-4.3,2.42-5.4,2.33-6.22-2.22l3-4,2.44-1.81-1.32-6.68c1.92-.86,3.75-2,5.75-2.51,13-3.06,26-6.38,39.14-8.78a323.22,323.22,0,0,1,33.41-4.14C204.28,265.55,212.81,266.09,221.31,266.1Z" transform="translate(-4.54 -5.98)"/><path class="e" d="M842,116.26,815.3,103.54q9-20.94,18.08-41.87c1.11-2.58,2.26-5.15,3.39-7.72,4.61-2.07,8.85-4.2,14.51-3.5,10.43,1.3,20,4.82,29.37,9.06a183.51,183.51,0,0,1,17.58,9.33c1.45.85,2.09,3.07,3.1,4.66-1.76.6-3.66,2-5.26,1.66-7.14-1.31-14.19-3.07-21.26-4.71-3.22-.75-6.38-1.73-9.62-2.34-2.68-.51-4.56.54-4.74,3.58-4.39,9.67-9,19.27-13.12,29C845.19,105.75,843.75,111.07,842,116.26Z" transform="translate(-4.54 -5.98)"/><path class="g" d="M717.52,56.15c-1.09-1-2.13-2.07-3.27-3-7.66-6.5-5.47-13.89-1.08-19.41a47.62,47.62,0,0,1,16.72-13.16C743.26,14,757.05,8.72,771.77,6.72c8.18-1.1,16.6-.71,24.89-.48a7.82,7.82,0,0,1,7.57,5.61c1.06,3.67-.44,6.51-3.18,9.31C790.27,32.17,776.5,38,762.79,44c-4.1,1.79-8.39,3.18-12.35,5.22-2,1.06-3.54,3.15-5.28,4.78-2.43-4.3-2.23-5.31,1.66-7.46,1.45-.81,3-1.43,4.48-2.18,8-4.07,16-8.1,23.86-12.3,1.44-.77,2.45-2.31,3.65-3.5l-.48-1.19c-2.9,0-5.91-.52-8.67.1-9.7,2.16-19.7,3.76-28.86,7.39C730.73,38.87,718.86,42.09,717.52,56.15Z" transform="translate(-4.54 -5.98)"/><path class="g" d="M860.45,71.69c.18-3,2.06-4.09,4.74-3.58,3.24.61,6.4,1.59,9.62,2.34,7.07,1.64,14.12,3.4,21.26,4.71,1.6.3,3.5-1.06,5.26-1.66-1-1.59-1.65-3.81-3.1-4.66a183.51,183.51,0,0,0-17.58-9.33c-9.38-4.24-18.94-7.76-29.37-9.06-5.66-.7-9.9,1.43-14.51,3.5-4.83-10.63,1.71-17,12.42-18a68,68,0,0,1,26.08,3c16.29,4.85,32.12,10.75,46,20.89a64.11,64.11,0,0,1,8.41,7.74,9.38,9.38,0,0,1,2.07,10.6c-1.64,3.82-5.25,4.84-9.1,4.9a133,133,0,0,1-41.09-6.26C874.63,74.71,867.49,73.38,860.45,71.69Z" transform="translate(-4.54 -5.98)"/><path class="h" d="M717.52,56.15c1.34-14.06,13.21-17.28,23.28-21.28,9.16-3.63,19.16-5.23,28.86-7.39,2.76-.62,5.77-.1,8.67-.1l.48,1.19c-1.2,1.19-2.21,2.73-3.65,3.5-7.89,4.2-15.89,8.23-23.86,12.3-1.48.75-3,1.37-4.48,2.18-3.89,2.15-4.09,3.16-1.66,7.46q5.08,17,10.18,34.05l-28.71,8.09c-2.24-9.46-4.52-18.92-6.71-28.39C719,63.91,718.31,60,717.52,56.15Z" transform="translate(-4.54 -5.98)"/><path class="i" d="M555.21,303.08l.16,1.88c-2.61.18-5.22.54-7.83.52-28.62-.14-57.25.12-85.86-.67-21.92-.6-43.85-2-65.68-4.07-14.3-1.35-28.42-4.53-42.62-6.89q22.83-51,45.67-101.91l.71.22c-1.76,4.87-3.34,9.82-5.31,14.6-7.52,18.26-15.06,36.5-22.78,54.67-5.3,12.47-.26,19.33,8.24,26.38,5.07,4.2,11.27,5.51,17.57,6.18,11,1.17,22,2,33.07,3.09Q451,299,471.5,301c.33,0,.66,0,1,0l42.85,1Q535.29,302.55,555.21,303.08Z" transform="translate(-4.54 -5.98)"/><path class="j" d="M116.41,290.12l-3,4c-1.55-.33-3.12-1-4.67-.94-6.95.19-13.9.88-20.85.84-9.79-.05-19.57-.82-29.35-.78-3.87,0-5.77-1.39-6.95-4.78-3.36-9.72-7.05-19.33-10.22-29.1-6.81-21-13.42-42-20-63-3.37-10.73-6.52-21.54-9.88-32.28a44.05,44.05,0,0,0-2.75-5.77l-1.06.42c0,2.26-.49,4.65.08,6.75C15,192.27,22,219.15,29.89,245.8c4.54,15.38,10.32,30.4,15.74,45.5,3.1,8.62,3.58,8.84,13,8.74,23.27-.26,46.54-.62,69.82-.93L125.64,303c-6,.32-11.91.89-17.87.89-6.46,0-12.92-.72-19.38-.77-4.12,0-8.26.9-12.38.84q-12.93-.17-25.86-1.05a5.84,5.84,0,0,1-4.07-2.9c-2.85-6-5.85-11.95-7.81-18.24-8.86-28.49-17.46-57.08-26-85.67C9.56,187.1,7,178,5,168.79c-.81-3.73-.31-7.92.4-11.75.65-3.5,2.75-3.84,5.21-1.2a14,14,0,0,1,2.86,4.61c2.16,5.92,4.23,11.87,6.09,17.88,6.33,20.43,12.35,40.95,18.89,61.3,5.39,16.74,11.36,33.29,17.26,50.49Z" transform="translate(-4.54 -5.98)"/><path class="k" d="M221.31,266.1c-8.5,0-17-.55-25.48.1a323.22,323.22,0,0,0-33.41,4.14c-13.14,2.4-26.12,5.72-39.14,8.78-2,.47-3.83,1.65-5.75,2.51l-3-.92c.67-1.2,1.07-2.77,2.08-3.54,7-5.34,15.25-7.56,23.86-9.16,26.74-4.94,53.77-5.39,80.8-6.14Z" transform="translate(-4.54 -5.98)"/><path class="j" d="M137.24,302l5.21-3.74a9.54,9.54,0,0,0,2.73.81c9.76-.28,19.53-.52,29.28-1.06,4.06-.23,8.08-1.16,12.13-1.77l0-1.4c-3.36-.57-6.7-1.42-10.08-1.67-7.42-.54-14.86-.79-22.29-1.15,1.82-4.18,5.57-2.87,8.62-2.72,8.84.41,17.67,1.18,26.5,1.8,1,1.56,3.1,3.54,2.71,4.58-.6,1.61-2.74,3.13-4.54,3.69a36.44,36.44,0,0,1-9.66,1.66C164.29,301.43,150.76,301.65,137.24,302Z" transform="translate(-4.54 -5.98)"/><path class="i" d="M347.36,189.07a74.09,74.09,0,0,1-2.77,7.38c-7.9,16-15.79,32-23.93,47.79-1.89,3.68-3.68,7.91-8.63,8.79l-2.79-5.8c7.27-5.77,12.06-13.54,16.6-21.35,6.55-11.28,12.51-22.89,18.8-34.31.57-1,1.79-1.68,2.71-2.51Z" transform="translate(-4.54 -5.98)"/><path class="l" d="M387.44,154.19c3.31-5.5,6.79-10.91,9.88-16.54,4.78-8.7,9.55-17.43,13.83-26.39,2.71-5.67,2-6.54-3.09-10.24s-9.74-7.41-14.36-11.4c-1.21-1-1.53-3.09-2.26-4.68l8.21,5.42,15.75,10.3c-3.4,20.13-15.59,36.15-26.8,52.66A4.46,4.46,0,0,1,387.44,154.19Z" transform="translate(-4.54 -5.98)"/><path class="i" d="M347.35,189.06l.6-2.7.86.33-1.45,2.38Z" transform="translate(-4.54 -5.98)"/><path class="c" d="M249,80c.45,1.28,1.37,2.6,1.25,3.83-.14,1.45-1.11,2.86-1.88,4.18-.11.19-1.62,0-1.7-.29a12.38,12.38,0,0,1-.92-4.57c.09-1.12,1.16-2.15,1.8-3.22Z" transform="translate(-4.54 -5.98)"/><path class="m" d="M128.47,299.11c-23.28.31-46.55.67-69.82.93-9.44.1-9.92-.12-13-8.74-5.42-15.1-11.2-30.12-15.74-45.5C22,219.15,15,192.27,7.7,165.44c-.57-2.1-.08-4.49-.08-6.75l1.06-.42A44.05,44.05,0,0,1,11.43,164c3.36,10.74,6.51,21.55,9.88,32.28,6.61,21,13.22,42,20,63,3.17,9.77,6.86,19.38,10.22,29.1,1.18,3.39,3.08,4.8,6.95,4.78,9.78,0,19.56.73,29.35.78,7,0,13.9-.65,20.85-.84,1.55-.05,3.12.61,4.67.94.82,4.55,1.92,4.64,6.22,2.22,5.89-3.32,12.12-6.06,18.23-9,.51-.25,1.25,0,1.87,0Z" transform="translate(-4.54 -5.98)"/><path class="m" d="M154.19,292c7.43.36,14.87.61,22.29,1.15,3.38.25,6.72,1.1,10.08,1.67l0,1.4c-4.05.61-8.07,1.54-12.13,1.77-9.75.54-19.52.78-29.28,1.06a9.54,9.54,0,0,1-2.73-.81Z" transform="translate(-4.54 -5.98)"/></svg>