<svg width="870" height="568" viewBox="0 0 870 568" fill="none" xmlns="http://www.w3.org/2000/svg">
<rect width="870" height="568" fill="white"/>
<line x1="415" y1="283.5" x2="455" y2="283.5" stroke="#0A2535"/>
<rect x="209" y="215" width="205" height="138" fill="white" stroke="#68C6A4" stroke-width="2"/>
<rect x="208" y="214" width="207" height="12" fill="#68C6A4"/>
<circle cx="216" cy="220" r="2" fill="white"/>
<circle cx="224" cy="220" r="2" fill="white"/>
<circle cx="232" cy="220" r="2" fill="white"/>
<rect x="383" y="237" width="14" height="3" fill="#68C6A4"/>
<rect x="366" y="237" width="14" height="3" fill="#68C6A4"/>
<rect x="349" y="237" width="14" height="3" fill="#68C6A4"/>
<rect x="332" y="237" width="14" height="3" fill="#68C6A4"/>
<rect x="226" y="237" width="14" height="3" fill="#68C6A4"/>
<rect x="236" y="260" width="67" height="11" fill="white" stroke="#68C6A4" stroke-width="2"/>
<rect x="312" y="260" width="76" height="37" fill="#68C6A4" stroke="#68C6A4" stroke-width="2"/>
<rect x="236" y="312" width="32" height="15" fill="#68C6A4" stroke="#68C6A4" stroke-width="2"/>
<rect x="235" y="276" width="69" height="3" fill="#68C6A4"/>
<rect x="235" y="282" width="69" height="3" fill="#68C6A4"/>
<rect x="235" y="332" width="34" height="3" fill="#68C6A4"/>
<rect x="275" y="332" width="34" height="3" fill="#68C6A4"/>
<rect x="315" y="332" width="34" height="3" fill="#68C6A4"/>
<rect x="355" y="332" width="34" height="3" fill="#68C6A4"/>
<rect x="276" y="312" width="32" height="15" fill="#68C6A4" stroke="#68C6A4" stroke-width="2"/>
<rect x="316" y="312" width="32" height="15" fill="#68C6A4" stroke="#68C6A4" stroke-width="2"/>
<rect x="356" y="312" width="32" height="15" fill="#68C6A4" stroke="#68C6A4" stroke-width="2"/>
<rect x="456" y="215" width="205" height="138" fill="white" stroke="#68C6A4" stroke-width="2"/>
<rect x="455" y="214" width="207" height="12" fill="#68C6A4"/>
<circle cx="463" cy="220" r="2" fill="white"/>
<circle cx="471" cy="220" r="2" fill="white"/>
<circle cx="479" cy="220" r="2" fill="white"/>
<rect x="630" y="237" width="14" height="3" fill="#68C6A4"/>
<rect x="613" y="237" width="14" height="3" fill="#68C6A4"/>
<rect x="596" y="237" width="14" height="3" fill="#68C6A4"/>
<rect x="579" y="237" width="14" height="3" fill="#68C6A4"/>
<rect x="473" y="237" width="14" height="3" fill="#68C6A4"/>
<rect x="483" y="260" width="67" height="11" fill="white" stroke="#68C6A4" stroke-width="2"/>
<rect x="559" y="260" width="76" height="37" fill="#68C6A4" stroke="#68C6A4" stroke-width="2"/>
<rect x="483" y="312" width="32" height="15" fill="#68C6A4" stroke="#68C6A4" stroke-width="2"/>
<rect x="482" y="276" width="69" height="3" fill="#68C6A4"/>
<rect x="482" y="282" width="69" height="3" fill="#68C6A4"/>
<rect x="482" y="332" width="34" height="3" fill="#68C6A4"/>
<rect x="522" y="332" width="34" height="3" fill="#68C6A4"/>
<rect x="562" y="332" width="34" height="3" fill="#68C6A4"/>
<rect x="602" y="332" width="34" height="3" fill="#68C6A4"/>
<rect x="523" y="312" width="32" height="15" fill="#68C6A4" stroke="#68C6A4" stroke-width="2"/>
<rect x="563" y="312" width="32" height="15" fill="#68C6A4" stroke="#68C6A4" stroke-width="2"/>
<rect x="603" y="312" width="32" height="15" fill="#68C6A4" stroke="#68C6A4" stroke-width="2"/>
<rect x="455" y="214" width="207" height="140" fill="#0A2535" fill-opacity="0.44"/>
<rect x="496" y="240" width="126" height="91" fill="white" stroke="#68C6A4" stroke-width="2"/>
<rect x="510" y="263" width="97" height="11" fill="white" stroke="#0A2535" stroke-width="2"/>
<rect x="510" y="280" width="97" height="11" fill="white" stroke="#0A2535" stroke-width="2"/>
<rect x="510" y="297" width="97" height="20" fill="white" stroke="#0A2535" stroke-width="2"/>
<rect x="509" y="253" width="38" height="3" fill="#68C6A4"/>
<rect x="235" y="289" width="37" height="9" fill="#0A2535"/>
</svg>
