<svg width="870" height="568" viewBox="0 0 870 568" fill="none" xmlns="http://www.w3.org/2000/svg">
<rect width="870" height="568" fill="white"/>
<rect x="456" y="320" width="205" height="138" fill="white" stroke="#68C6A4" stroke-width="2"/>
<rect x="455" y="319" width="207" height="12" fill="#68C6A4"/>
<circle cx="463" cy="325" r="2" fill="white"/>
<circle cx="471" cy="325" r="2" fill="white"/>
<circle cx="479" cy="325" r="2" fill="white"/>
<rect x="583" y="343" width="52" height="16" fill="white" stroke="#0A2535" stroke-width="2"/>
<rect x="525" y="343" width="52" height="16" fill="white" stroke="#0A2535" stroke-width="2"/>
<rect x="583" y="364" width="52" height="16" fill="white" stroke="#0A2535" stroke-width="2"/>
<rect x="525" y="364" width="52" height="16" fill="white" stroke="#0A2535" stroke-width="2"/>
<rect x="583" y="385" width="52" height="16" fill="white" stroke="#0A2535" stroke-width="2"/>
<rect x="525" y="385" width="52" height="16" fill="white" stroke="#0A2535" stroke-width="2"/>
<rect x="482" y="342" width="32" height="3" fill="#68C6A4"/>
<rect x="482" y="363" width="32" height="3" fill="#68C6A4"/>
<rect x="482" y="384" width="32" height="3" fill="#68C6A4"/>
<rect x="583" y="406" width="52" height="16" fill="white" stroke="#0A2535" stroke-width="2"/>
<rect x="525" y="406" width="52" height="16" fill="white" stroke="#0A2535" stroke-width="2"/>
<rect x="583" y="427" width="52" height="16" fill="white" stroke="#0A2535" stroke-width="2"/>
<rect x="525" y="427" width="52" height="16" fill="white" stroke="#0A2535" stroke-width="2"/>
<rect x="482" y="405" width="32" height="3" fill="#68C6A4"/>
<rect x="482" y="426" width="32" height="3" fill="#68C6A4"/>
<rect x="209" y="57" width="205" height="453" fill="white" stroke="#68C6A4" stroke-width="2"/>
<rect x="208" y="56" width="207" height="12" fill="#68C6A4"/>
<circle cx="216" cy="62" r="2" fill="white"/>
<circle cx="224" cy="62" r="2" fill="white"/>
<circle cx="232" cy="62" r="2" fill="white"/>
<rect x="456" y="160" width="205" height="138" fill="white" stroke="#68C6A4" stroke-width="2"/>
<rect x="455" y="159" width="207" height="12" fill="#68C6A4"/>
<circle cx="463" cy="165" r="2" fill="white"/>
<circle cx="471" cy="165" r="2" fill="white"/>
<circle cx="479" cy="165" r="2" fill="white"/>
<rect x="455" y="319" width="207" height="140" fill="#0A2535" fill-opacity="0.44"/>
<rect x="496" y="346" width="126" height="91" fill="white" stroke="#68C6A4" stroke-width="2"/>
<line x1="415" y1="232.5" x2="455" y2="232.5" stroke="#0A2535"/>
<line x1="415" y1="388.5" x2="455" y2="388.5" stroke="#0A2535"/>
<rect x="383" y="79" width="14" height="3" fill="#68C6A4"/>
<rect x="366" y="79" width="14" height="3" fill="#68C6A4"/>
<rect x="349" y="79" width="14" height="3" fill="#68C6A4"/>
<rect x="332" y="79" width="14" height="3" fill="#68C6A4"/>
<rect x="226" y="79" width="14" height="3" fill="#68C6A4"/>
<rect x="236" y="102" width="67" height="11" fill="white" stroke="#68C6A4" stroke-width="2"/>
<rect x="312" y="102" width="76" height="37" fill="#68C6A4" stroke="#68C6A4" stroke-width="2"/>
<rect x="479" y="188" width="52" height="45" fill="#0A2535" stroke="#0A2535" stroke-width="2"/>
<rect x="336" y="278" width="52" height="16" fill="white" stroke="#0A2535" stroke-width="2"/>
<rect x="278" y="278" width="52" height="16" fill="white" stroke="#0A2535" stroke-width="2"/>
<rect x="336" y="299" width="52" height="16" fill="white" stroke="#0A2535" stroke-width="2"/>
<rect x="278" y="299" width="52" height="16" fill="white" stroke="#0A2535" stroke-width="2"/>
<rect x="336" y="320" width="52" height="16" fill="white" stroke="#0A2535" stroke-width="2"/>
<rect x="278" y="320" width="52" height="16" fill="white" stroke="#0A2535" stroke-width="2"/>
<rect x="236" y="160" width="44" height="10" fill="white" stroke="#68C6A4" stroke-width="2"/>
<rect x="236" y="175" width="44" height="10" fill="white" stroke="#68C6A4" stroke-width="2"/>
<rect x="236" y="190" width="44" height="10" fill="white" stroke="#68C6A4" stroke-width="2"/>
<rect x="236" y="461" width="32" height="15" fill="#68C6A4" stroke="#68C6A4" stroke-width="2"/>
<rect x="235" y="118" width="69" height="3" fill="#68C6A4"/>
<rect x="235" y="124" width="69" height="3" fill="#68C6A4"/>
<rect x="295" y="159" width="94" height="3" fill="#68C6A4"/>
<rect x="295" y="165" width="94" height="3" fill="#68C6A4"/>
<rect x="295" y="171" width="94" height="3" fill="#68C6A4"/>
<rect x="546" y="196" width="94" height="3" fill="#68C6A4"/>
<rect x="546" y="187" width="47" height="3" fill="#68C6A4"/>
<rect x="546" y="202" width="94" height="3" fill="#68C6A4"/>
<rect x="546" y="208" width="94" height="3" fill="#68C6A4"/>
<rect x="546" y="214" width="94" height="3" fill="#68C6A4"/>
<rect x="546" y="231" width="13" height="3" fill="#68C6A4"/>
<rect x="563" y="231" width="13" height="3" fill="#68C6A4"/>
<rect x="580" y="231" width="13" height="3" fill="#68C6A4"/>
<rect x="295" y="181" width="94" height="3" fill="#68C6A4"/>
<rect x="295" y="187" width="94" height="3" fill="#68C6A4"/>
<rect x="295" y="193" width="94" height="3" fill="#68C6A4"/>
<rect x="235" y="277" width="32" height="3" fill="#68C6A4"/>
<rect x="235" y="298" width="32" height="3" fill="#68C6A4"/>
<rect x="235" y="319" width="32" height="3" fill="#68C6A4"/>
<rect x="336" y="341" width="52" height="16" fill="white" stroke="#0A2535" stroke-width="2"/>
<rect x="278" y="341" width="52" height="16" fill="white" stroke="#0A2535" stroke-width="2"/>
<rect x="336" y="362" width="52" height="16" fill="white" stroke="#0A2535" stroke-width="2"/>
<rect x="278" y="362" width="52" height="16" fill="white" stroke="#0A2535" stroke-width="2"/>
<rect x="336" y="383" width="52" height="16" fill="white" stroke="#0A2535" stroke-width="2"/>
<rect x="278" y="383" width="52" height="16" fill="white" stroke="#0A2535" stroke-width="2"/>
<rect x="235" y="340" width="32" height="3" fill="#68C6A4"/>
<rect x="235" y="361" width="32" height="3" fill="#68C6A4"/>
<rect x="235" y="481" width="34" height="3" fill="#68C6A4"/>
<rect x="275" y="481" width="34" height="3" fill="#68C6A4"/>
<rect x="315" y="481" width="34" height="3" fill="#68C6A4"/>
<rect x="355" y="481" width="34" height="3" fill="#68C6A4"/>
<rect x="235" y="382" width="32" height="3" fill="#68C6A4"/>
<rect x="336" y="404" width="52" height="16" fill="white" stroke="#0A2535" stroke-width="2"/>
<rect x="278" y="404" width="52" height="16" fill="white" stroke="#0A2535" stroke-width="2"/>
<rect x="336" y="425" width="52" height="16" fill="white" stroke="#0A2535" stroke-width="2"/>
<rect x="278" y="425" width="52" height="16" fill="white" stroke="#0A2535" stroke-width="2"/>
<rect x="235" y="403" width="32" height="3" fill="#68C6A4"/>
<rect x="235" y="424" width="32" height="3" fill="#68C6A4"/>
<rect x="276" y="461" width="32" height="15" fill="#68C6A4" stroke="#68C6A4" stroke-width="2"/>
<rect x="316" y="461" width="32" height="15" fill="#68C6A4" stroke="#68C6A4" stroke-width="2"/>
<rect x="356" y="461" width="32" height="15" fill="#68C6A4" stroke="#68C6A4" stroke-width="2"/>
<circle cx="285" cy="226" r="7" fill="#0A2535" stroke="#0A2535" stroke-width="2"/>
<circle cx="309" cy="226" r="7" fill="#0A2535" stroke="#0A2535" stroke-width="2"/>
<circle cx="333" cy="226" r="7" fill="#0A2535" stroke="#0A2535" stroke-width="2"/>
<circle cx="357" cy="226" r="7" fill="#0A2535" stroke="#0A2535" stroke-width="2"/>
<circle cx="381" cy="226" r="7" fill="#0A2535" stroke="#0A2535" stroke-width="2"/>
<circle cx="285" cy="248" r="7" fill="#0A2535" stroke="#0A2535" stroke-width="2"/>
<circle cx="309" cy="248" r="7" fill="#0A2535" stroke="#0A2535" stroke-width="2"/>
<circle cx="333" cy="248" r="7" fill="#0A2535" stroke="#0A2535" stroke-width="2"/>
<circle cx="357" cy="248" r="7" fill="#0A2535" stroke="#0A2535" stroke-width="2"/>
<circle cx="381" cy="248" r="7" fill="#0A2535" stroke="#0A2535" stroke-width="2"/>
<circle cx="514.5" cy="420.5" r="4.5" fill="#0A2535" stroke="#0A2535" stroke-width="2"/>
<rect x="510" y="372" width="97" height="11" fill="white" stroke="#68C6A4" stroke-width="2"/>
<rect x="509" y="388" width="99" height="3" fill="#68C6A4"/>
<rect x="509" y="359" width="21" height="3" fill="#68C6A4"/>
<rect x="509" y="394" width="99" height="3" fill="#68C6A4"/>
<rect x="509" y="400" width="99" height="3" fill="#68C6A4"/>
<rect x="524" y="419" width="17" height="3" fill="#68C6A4"/>
<rect x="235" y="131" width="37" height="9" fill="#0A2535"/>
</svg>
