<svg width="870" height="568" viewBox="0 0 870 568" fill="none" xmlns="http://www.w3.org/2000/svg">
<rect width="870" height="568" fill="white"/>
<line x1="434.5" y1="185" x2="434.5" y2="151" stroke="#0A2535"/>
<rect x="353" y="63" width="163" height="87" fill="white" stroke="#68C6A4" stroke-width="2"/>
<path d="M426.555 90H424.68V84.8516H419.414V90H417.547V78.5781H419.414V83.25H424.68V78.5781H426.555V90ZM433.141 90.1562C431.797 90.1562 430.745 89.7656 429.984 88.9844C429.229 88.1979 428.852 87.1172 428.852 85.7422C428.852 84.3307 429.203 83.2214 429.906 82.4141C430.609 81.6068 431.576 81.2031 432.805 81.2031C433.945 81.2031 434.846 81.5495 435.508 82.2422C436.169 82.9349 436.5 83.888 436.5 85.1016V86.0938H430.742C430.768 86.9323 430.995 87.5781 431.422 88.0312C431.849 88.4792 432.451 88.7031 433.227 88.7031C433.737 88.7031 434.211 88.6562 434.648 88.5625C435.091 88.4635 435.565 88.3021 436.07 88.0781V89.5703C435.622 89.7839 435.169 89.9349 434.711 90.0234C434.253 90.112 433.729 90.1562 433.141 90.1562ZM432.805 82.5938C432.221 82.5938 431.753 82.7786 431.398 83.1484C431.049 83.5182 430.841 84.0573 430.773 84.7656H434.695C434.685 84.0521 434.513 83.513 434.18 83.1484C433.846 82.7786 433.388 82.5938 432.805 82.5938ZM442.969 81.2031C443.339 81.2031 443.643 81.2292 443.883 81.2812L443.703 82.9922C443.443 82.9297 443.172 82.8984 442.891 82.8984C442.156 82.8984 441.56 83.138 441.102 83.6172C440.648 84.0964 440.422 84.7188 440.422 85.4844V90H438.586V81.3594H440.023L440.266 82.8828H440.359C440.646 82.3672 441.018 81.9583 441.477 81.6562C441.94 81.3542 442.438 81.2031 442.969 81.2031ZM453.156 85.6641C453.156 87.0755 452.794 88.1771 452.07 88.9688C451.346 89.7604 450.339 90.1562 449.047 90.1562C448.24 90.1562 447.526 89.974 446.906 89.6094C446.286 89.2448 445.81 88.7214 445.477 88.0391C445.143 87.3568 444.977 86.5651 444.977 85.6641C444.977 84.263 445.336 83.1693 446.055 82.3828C446.773 81.5964 447.786 81.2031 449.094 81.2031C450.344 81.2031 451.333 81.6068 452.062 82.4141C452.792 83.2161 453.156 84.2995 453.156 85.6641ZM446.867 85.6641C446.867 87.6589 447.604 88.6562 449.078 88.6562C450.536 88.6562 451.266 87.6589 451.266 85.6641C451.266 83.6901 450.531 82.7031 449.062 82.7031C448.292 82.7031 447.732 82.9583 447.383 83.4688C447.039 83.9792 446.867 84.7109 446.867 85.6641Z" fill="#0A2535"/>
<rect x="353" y="462" width="163" height="42" fill="white" stroke="#68C6A4" stroke-width="2"/>
<path d="M398.859 482.891H400.156C401.026 482.891 401.656 482.729 402.047 482.406C402.438 482.083 402.633 481.604 402.633 480.969C402.633 480.323 402.422 479.859 402 479.578C401.578 479.297 400.943 479.156 400.094 479.156H398.859V482.891ZM398.859 484.438V489H396.992V477.578H400.219C401.693 477.578 402.784 477.854 403.492 478.406C404.201 478.958 404.555 479.792 404.555 480.906C404.555 482.328 403.815 483.341 402.336 483.945L405.562 489H403.438L400.703 484.438H398.859ZM410.805 489.156C409.461 489.156 408.409 488.766 407.648 487.984C406.893 487.198 406.516 486.117 406.516 484.742C406.516 483.331 406.867 482.221 407.57 481.414C408.273 480.607 409.24 480.203 410.469 480.203C411.609 480.203 412.51 480.549 413.172 481.242C413.833 481.935 414.164 482.888 414.164 484.102V485.094H408.406C408.432 485.932 408.659 486.578 409.086 487.031C409.513 487.479 410.115 487.703 410.891 487.703C411.401 487.703 411.875 487.656 412.312 487.562C412.755 487.464 413.229 487.302 413.734 487.078V488.57C413.286 488.784 412.833 488.935 412.375 489.023C411.917 489.112 411.393 489.156 410.805 489.156ZM410.469 481.594C409.885 481.594 409.417 481.779 409.062 482.148C408.714 482.518 408.505 483.057 408.438 483.766H412.359C412.349 483.052 412.177 482.513 411.844 482.148C411.51 481.779 411.052 481.594 410.469 481.594ZM422.055 486.539C422.055 487.383 421.747 488.031 421.133 488.484C420.518 488.932 419.638 489.156 418.492 489.156C417.341 489.156 416.417 488.982 415.719 488.633V487.047C416.734 487.516 417.68 487.75 418.555 487.75C419.685 487.75 420.25 487.409 420.25 486.727C420.25 486.508 420.188 486.326 420.062 486.18C419.938 486.034 419.732 485.883 419.445 485.727C419.159 485.57 418.76 485.393 418.25 485.195C417.255 484.81 416.581 484.424 416.227 484.039C415.878 483.654 415.703 483.154 415.703 482.539C415.703 481.799 416 481.227 416.594 480.82C417.193 480.409 418.005 480.203 419.031 480.203C420.047 480.203 421.008 480.409 421.914 480.82L421.32 482.203C420.388 481.818 419.604 481.625 418.969 481.625C418 481.625 417.516 481.901 417.516 482.453C417.516 482.724 417.641 482.953 417.891 483.141C418.146 483.328 418.698 483.586 419.547 483.914C420.26 484.19 420.779 484.443 421.102 484.672C421.424 484.901 421.664 485.167 421.82 485.469C421.977 485.766 422.055 486.122 422.055 486.539ZM431.711 484.664C431.711 486.076 431.349 487.177 430.625 487.969C429.901 488.76 428.893 489.156 427.602 489.156C426.794 489.156 426.081 488.974 425.461 488.609C424.841 488.245 424.365 487.721 424.031 487.039C423.698 486.357 423.531 485.565 423.531 484.664C423.531 483.263 423.891 482.169 424.609 481.383C425.328 480.596 426.341 480.203 427.648 480.203C428.898 480.203 429.888 480.607 430.617 481.414C431.346 482.216 431.711 483.299 431.711 484.664ZM425.422 484.664C425.422 486.659 426.159 487.656 427.633 487.656C429.091 487.656 429.82 486.659 429.82 484.664C429.82 482.69 429.086 481.703 427.617 481.703C426.846 481.703 426.286 481.958 425.938 482.469C425.594 482.979 425.422 483.711 425.422 484.664ZM439.922 489L439.664 487.867H439.57C439.315 488.268 438.951 488.583 438.477 488.812C438.008 489.042 437.471 489.156 436.867 489.156C435.82 489.156 435.039 488.896 434.523 488.375C434.008 487.854 433.75 487.065 433.75 486.008V480.359H435.602V485.688C435.602 486.349 435.737 486.846 436.008 487.18C436.279 487.508 436.703 487.672 437.281 487.672C438.052 487.672 438.617 487.443 438.977 486.984C439.341 486.521 439.523 485.747 439.523 484.664V480.359H441.367V489H439.922ZM448.367 480.203C448.737 480.203 449.042 480.229 449.281 480.281L449.102 481.992C448.841 481.93 448.57 481.898 448.289 481.898C447.555 481.898 446.958 482.138 446.5 482.617C446.047 483.096 445.82 483.719 445.82 484.484V489H443.984V480.359H445.422L445.664 481.883H445.758C446.044 481.367 446.417 480.958 446.875 480.656C447.339 480.354 447.836 480.203 448.367 480.203ZM454.375 489.156C453.068 489.156 452.073 488.776 451.391 488.016C450.714 487.25 450.375 486.154 450.375 484.727C450.375 483.273 450.729 482.156 451.438 481.375C452.151 480.594 453.18 480.203 454.523 480.203C455.435 480.203 456.255 480.372 456.984 480.711L456.43 482.188C455.654 481.885 455.013 481.734 454.508 481.734C453.013 481.734 452.266 482.727 452.266 484.711C452.266 485.68 452.451 486.409 452.82 486.898C453.195 487.383 453.742 487.625 454.461 487.625C455.279 487.625 456.052 487.422 456.781 487.016V488.617C456.453 488.81 456.102 488.948 455.727 489.031C455.357 489.115 454.906 489.156 454.375 489.156ZM462.586 489.156C461.242 489.156 460.19 488.766 459.43 487.984C458.674 487.198 458.297 486.117 458.297 484.742C458.297 483.331 458.648 482.221 459.352 481.414C460.055 480.607 461.021 480.203 462.25 480.203C463.391 480.203 464.292 480.549 464.953 481.242C465.615 481.935 465.945 482.888 465.945 484.102V485.094H460.188C460.214 485.932 460.44 486.578 460.867 487.031C461.294 487.479 461.896 487.703 462.672 487.703C463.182 487.703 463.656 487.656 464.094 487.562C464.536 487.464 465.01 487.302 465.516 487.078V488.57C465.068 488.784 464.615 488.935 464.156 489.023C463.698 489.112 463.174 489.156 462.586 489.156ZM462.25 481.594C461.667 481.594 461.198 481.779 460.844 482.148C460.495 482.518 460.286 483.057 460.219 483.766H464.141C464.13 483.052 463.958 482.513 463.625 482.148C463.292 481.779 462.833 481.594 462.25 481.594ZM473.836 486.539C473.836 487.383 473.529 488.031 472.914 488.484C472.299 488.932 471.419 489.156 470.273 489.156C469.122 489.156 468.198 488.982 467.5 488.633V487.047C468.516 487.516 469.461 487.75 470.336 487.75C471.466 487.75 472.031 487.409 472.031 486.727C472.031 486.508 471.969 486.326 471.844 486.18C471.719 486.034 471.513 485.883 471.227 485.727C470.94 485.57 470.542 485.393 470.031 485.195C469.036 484.81 468.362 484.424 468.008 484.039C467.659 483.654 467.484 483.154 467.484 482.539C467.484 481.799 467.781 481.227 468.375 480.82C468.974 480.409 469.786 480.203 470.812 480.203C471.828 480.203 472.789 480.409 473.695 480.82L473.102 482.203C472.169 481.818 471.385 481.625 470.75 481.625C469.781 481.625 469.297 481.901 469.297 482.453C469.297 482.724 469.422 482.953 469.672 483.141C469.927 483.328 470.479 483.586 471.328 483.914C472.042 484.19 472.56 484.443 472.883 484.672C473.206 484.901 473.445 485.167 473.602 485.469C473.758 485.766 473.836 486.122 473.836 486.539Z" fill="#0A2535"/>
<line x1="434.5" y1="262" x2="434.5" y2="228" stroke="#0A2535"/>
<rect x="353" y="186" width="163" height="42" fill="white" stroke="#68C6A4" stroke-width="2"/>
<path d="M386.82 213V201.578H388.688V213H386.82ZM399.117 213H397.273V207.688C397.273 207.021 397.138 206.523 396.867 206.195C396.602 205.867 396.177 205.703 395.594 205.703C394.818 205.703 394.25 205.932 393.891 206.391C393.531 206.849 393.352 207.617 393.352 208.695V213H391.516V204.359H392.953L393.211 205.492H393.305C393.565 205.081 393.935 204.763 394.414 204.539C394.893 204.315 395.424 204.203 396.008 204.203C398.081 204.203 399.117 205.258 399.117 207.367V213ZM404.891 211.672C405.339 211.672 405.786 211.602 406.234 211.461V212.844C406.031 212.932 405.768 213.005 405.445 213.062C405.128 213.125 404.797 213.156 404.453 213.156C402.714 213.156 401.844 212.24 401.844 210.406V205.75H400.664V204.938L401.93 204.266L402.555 202.438H403.688V204.359H406.148V205.75H403.688V210.375C403.688 210.818 403.797 211.146 404.016 211.359C404.24 211.568 404.531 211.672 404.891 211.672ZM412.352 204.203C412.721 204.203 413.026 204.229 413.266 204.281L413.086 205.992C412.826 205.93 412.555 205.898 412.273 205.898C411.539 205.898 410.943 206.138 410.484 206.617C410.031 207.096 409.805 207.719 409.805 208.484V213H407.969V204.359H409.406L409.648 205.883H409.742C410.029 205.367 410.401 204.958 410.859 204.656C411.323 204.354 411.82 204.203 412.352 204.203ZM422.539 208.664C422.539 210.076 422.177 211.177 421.453 211.969C420.729 212.76 419.721 213.156 418.43 213.156C417.622 213.156 416.909 212.974 416.289 212.609C415.669 212.245 415.193 211.721 414.859 211.039C414.526 210.357 414.359 209.565 414.359 208.664C414.359 207.263 414.719 206.169 415.438 205.383C416.156 204.596 417.169 204.203 418.477 204.203C419.727 204.203 420.716 204.607 421.445 205.414C422.174 206.216 422.539 207.299 422.539 208.664ZM416.25 208.664C416.25 210.659 416.987 211.656 418.461 211.656C419.919 211.656 420.648 210.659 420.648 208.664C420.648 206.69 419.914 205.703 418.445 205.703C417.674 205.703 417.115 205.958 416.766 206.469C416.422 206.979 416.25 207.711 416.25 208.664ZM433.609 201.578L429.359 213H427.625L431.883 201.578H433.609ZM446.5 213L445.359 209.828H440.992L439.875 213H437.906L442.18 201.531H444.211L448.484 213H446.5ZM444.867 208.219L443.797 205.109C443.719 204.901 443.609 204.573 443.469 204.125C443.333 203.677 443.24 203.349 443.188 203.141C443.047 203.781 442.841 204.482 442.57 205.242L441.539 208.219H444.867ZM454.211 204.203C455.289 204.203 456.128 204.594 456.727 205.375C457.331 206.156 457.633 207.253 457.633 208.664C457.633 210.081 457.328 211.185 456.719 211.977C456.109 212.763 455.263 213.156 454.18 213.156C453.086 213.156 452.237 212.763 451.633 211.977H451.508L451.172 213H449.797V200.844H451.633V203.734C451.633 203.948 451.622 204.266 451.602 204.688C451.581 205.109 451.565 205.378 451.555 205.492H451.633C452.216 204.633 453.076 204.203 454.211 204.203ZM453.734 205.703C452.995 205.703 452.461 205.922 452.133 206.359C451.81 206.792 451.643 207.518 451.633 208.539V208.664C451.633 209.716 451.799 210.479 452.133 210.953C452.466 211.422 453.01 211.656 453.766 211.656C454.417 211.656 454.909 211.398 455.242 210.883C455.581 210.367 455.75 209.622 455.75 208.648C455.75 206.685 455.078 205.703 453.734 205.703ZM467.43 208.664C467.43 210.076 467.068 211.177 466.344 211.969C465.62 212.76 464.612 213.156 463.32 213.156C462.513 213.156 461.799 212.974 461.18 212.609C460.56 212.245 460.083 211.721 459.75 211.039C459.417 210.357 459.25 209.565 459.25 208.664C459.25 207.263 459.609 206.169 460.328 205.383C461.047 204.596 462.06 204.203 463.367 204.203C464.617 204.203 465.607 204.607 466.336 205.414C467.065 206.216 467.43 207.299 467.43 208.664ZM461.141 208.664C461.141 210.659 461.878 211.656 463.352 211.656C464.81 211.656 465.539 210.659 465.539 208.664C465.539 206.69 464.805 205.703 463.336 205.703C462.565 205.703 462.005 205.958 461.656 206.469C461.312 206.979 461.141 207.711 461.141 208.664ZM475.641 213L475.383 211.867H475.289C475.034 212.268 474.669 212.583 474.195 212.812C473.727 213.042 473.19 213.156 472.586 213.156C471.539 213.156 470.758 212.896 470.242 212.375C469.727 211.854 469.469 211.065 469.469 210.008V204.359H471.32V209.688C471.32 210.349 471.456 210.846 471.727 211.18C471.997 211.508 472.422 211.672 473 211.672C473.771 211.672 474.336 211.443 474.695 210.984C475.06 210.521 475.242 209.747 475.242 208.664V204.359H477.086V213H475.641ZM482.922 211.672C483.37 211.672 483.818 211.602 484.266 211.461V212.844C484.062 212.932 483.799 213.005 483.477 213.062C483.159 213.125 482.828 213.156 482.484 213.156C480.745 213.156 479.875 212.24 479.875 210.406V205.75H478.695V204.938L479.961 204.266L480.586 202.438H481.719V204.359H484.18V205.75H481.719V210.375C481.719 210.818 481.828 211.146 482.047 211.359C482.271 211.568 482.562 211.672 482.922 211.672Z" fill="#0A2535"/>
<line x1="434.5" y1="339" x2="434.5" y2="305" stroke="#0A2535"/>
<rect x="353" y="263" width="163" height="42" fill="white" stroke="#68C6A4" stroke-width="2"/>
<path d="M408.422 286.898C408.422 287.914 408.055 288.711 407.32 289.289C406.586 289.867 405.573 290.156 404.281 290.156C402.99 290.156 401.932 289.956 401.109 289.555V287.789C401.63 288.034 402.182 288.227 402.766 288.367C403.354 288.508 403.901 288.578 404.406 288.578C405.146 288.578 405.69 288.438 406.039 288.156C406.393 287.875 406.57 287.497 406.57 287.023C406.57 286.596 406.409 286.234 406.086 285.938C405.763 285.641 405.096 285.289 404.086 284.883C403.044 284.461 402.31 283.979 401.883 283.438C401.456 282.896 401.242 282.245 401.242 281.484C401.242 280.531 401.581 279.781 402.258 279.234C402.935 278.688 403.844 278.414 404.984 278.414C406.078 278.414 407.167 278.654 408.25 279.133L407.656 280.656C406.641 280.229 405.734 280.016 404.938 280.016C404.333 280.016 403.875 280.148 403.562 280.414C403.25 280.674 403.094 281.021 403.094 281.453C403.094 281.75 403.156 282.005 403.281 282.219C403.406 282.427 403.612 282.625 403.898 282.812C404.185 283 404.701 283.247 405.445 283.555C406.284 283.904 406.898 284.229 407.289 284.531C407.68 284.833 407.966 285.174 408.148 285.555C408.331 285.935 408.422 286.383 408.422 286.898ZM414.82 290.156C413.727 290.156 412.878 289.763 412.273 288.977H412.164C412.237 289.706 412.273 290.148 412.273 290.305V293.844H410.438V281.359H411.922C411.964 281.521 412.049 281.906 412.18 282.516H412.273C412.846 281.641 413.706 281.203 414.852 281.203C415.93 281.203 416.768 281.594 417.367 282.375C417.971 283.156 418.273 284.253 418.273 285.664C418.273 287.076 417.966 288.177 417.352 288.969C416.742 289.76 415.898 290.156 414.82 290.156ZM414.375 282.703C413.646 282.703 413.112 282.917 412.773 283.344C412.44 283.771 412.273 284.453 412.273 285.391V285.664C412.273 286.716 412.44 287.479 412.773 287.953C413.107 288.422 413.651 288.656 414.406 288.656C415.042 288.656 415.531 288.396 415.875 287.875C416.219 287.354 416.391 286.612 416.391 285.648C416.391 284.68 416.219 283.948 415.875 283.453C415.536 282.953 415.036 282.703 414.375 282.703ZM424.18 290.156C422.836 290.156 421.784 289.766 421.023 288.984C420.268 288.198 419.891 287.117 419.891 285.742C419.891 284.331 420.242 283.221 420.945 282.414C421.648 281.607 422.615 281.203 423.844 281.203C424.984 281.203 425.885 281.549 426.547 282.242C427.208 282.935 427.539 283.888 427.539 285.102V286.094H421.781C421.807 286.932 422.034 287.578 422.461 288.031C422.888 288.479 423.49 288.703 424.266 288.703C424.776 288.703 425.25 288.656 425.688 288.562C426.13 288.464 426.604 288.302 427.109 288.078V289.57C426.661 289.784 426.208 289.935 425.75 290.023C425.292 290.112 424.768 290.156 424.18 290.156ZM423.844 282.594C423.26 282.594 422.792 282.779 422.438 283.148C422.089 283.518 421.88 284.057 421.812 284.766H425.734C425.724 284.052 425.552 283.513 425.219 283.148C424.885 282.779 424.427 282.594 423.844 282.594ZM435.031 290L434.664 288.797H434.602C434.185 289.323 433.766 289.682 433.344 289.875C432.922 290.062 432.38 290.156 431.719 290.156C430.87 290.156 430.206 289.927 429.727 289.469C429.253 289.01 429.016 288.362 429.016 287.523C429.016 286.633 429.346 285.961 430.008 285.508C430.669 285.055 431.677 284.807 433.031 284.766L434.523 284.719V284.258C434.523 283.706 434.393 283.294 434.133 283.023C433.878 282.747 433.479 282.609 432.938 282.609C432.495 282.609 432.07 282.674 431.664 282.805C431.258 282.935 430.867 283.089 430.492 283.266L429.898 281.953C430.367 281.708 430.88 281.523 431.438 281.398C431.995 281.268 432.521 281.203 433.016 281.203C434.115 281.203 434.943 281.443 435.5 281.922C436.062 282.401 436.344 283.154 436.344 284.18V290H435.031ZM432.297 288.75C432.964 288.75 433.497 288.565 433.898 288.195C434.305 287.82 434.508 287.297 434.508 286.625V285.875L433.398 285.922C432.534 285.953 431.904 286.099 431.508 286.359C431.117 286.615 430.922 287.008 430.922 287.539C430.922 287.924 431.036 288.224 431.266 288.438C431.495 288.646 431.839 288.75 432.297 288.75ZM440.68 285.438L441.719 284.141L444.328 281.359H446.445L442.969 285.07L446.664 290H444.508L441.734 286.211L440.727 287.039V290H438.906V277.844H440.727V283.773L440.633 285.438H440.68ZM451.836 290.156C450.492 290.156 449.44 289.766 448.68 288.984C447.924 288.198 447.547 287.117 447.547 285.742C447.547 284.331 447.898 283.221 448.602 282.414C449.305 281.607 450.271 281.203 451.5 281.203C452.641 281.203 453.542 281.549 454.203 282.242C454.865 282.935 455.195 283.888 455.195 285.102V286.094H449.438C449.464 286.932 449.69 287.578 450.117 288.031C450.544 288.479 451.146 288.703 451.922 288.703C452.432 288.703 452.906 288.656 453.344 288.562C453.786 288.464 454.26 288.302 454.766 288.078V289.57C454.318 289.784 453.865 289.935 453.406 290.023C452.948 290.112 452.424 290.156 451.836 290.156ZM451.5 282.594C450.917 282.594 450.448 282.779 450.094 283.148C449.745 283.518 449.536 284.057 449.469 284.766H453.391C453.38 284.052 453.208 283.513 452.875 283.148C452.542 282.779 452.083 282.594 451.5 282.594ZM461.664 281.203C462.034 281.203 462.339 281.229 462.578 281.281L462.398 282.992C462.138 282.93 461.867 282.898 461.586 282.898C460.852 282.898 460.255 283.138 459.797 283.617C459.344 284.096 459.117 284.719 459.117 285.484V290H457.281V281.359H458.719L458.961 282.883H459.055C459.341 282.367 459.714 281.958 460.172 281.656C460.635 281.354 461.133 281.203 461.664 281.203ZM469.992 287.539C469.992 288.383 469.685 289.031 469.07 289.484C468.456 289.932 467.576 290.156 466.43 290.156C465.279 290.156 464.354 289.982 463.656 289.633V288.047C464.672 288.516 465.617 288.75 466.492 288.75C467.622 288.75 468.188 288.409 468.188 287.727C468.188 287.508 468.125 287.326 468 287.18C467.875 287.034 467.669 286.883 467.383 286.727C467.096 286.57 466.698 286.393 466.188 286.195C465.193 285.81 464.518 285.424 464.164 285.039C463.815 284.654 463.641 284.154 463.641 283.539C463.641 282.799 463.938 282.227 464.531 281.82C465.13 281.409 465.943 281.203 466.969 281.203C467.984 281.203 468.945 281.409 469.852 281.82L469.258 283.203C468.326 282.818 467.542 282.625 466.906 282.625C465.938 282.625 465.453 282.901 465.453 283.453C465.453 283.724 465.578 283.953 465.828 284.141C466.083 284.328 466.635 284.586 467.484 284.914C468.198 285.19 468.716 285.443 469.039 285.672C469.362 285.901 469.602 286.167 469.758 286.469C469.914 286.766 469.992 287.122 469.992 287.539Z" fill="#0A2535"/>
<line x1="434.5" y1="461" x2="434.5" y2="427" stroke="#0A2535"/>
<rect x="353" y="339" width="163" height="87" fill="white" stroke="#68C6A4" stroke-width="2"/>
<path d="M407.641 364.898C407.641 365.914 407.273 366.711 406.539 367.289C405.805 367.867 404.792 368.156 403.5 368.156C402.208 368.156 401.151 367.956 400.328 367.555V365.789C400.849 366.034 401.401 366.227 401.984 366.367C402.573 366.508 403.12 366.578 403.625 366.578C404.365 366.578 404.909 366.438 405.258 366.156C405.612 365.875 405.789 365.497 405.789 365.023C405.789 364.596 405.628 364.234 405.305 363.938C404.982 363.641 404.315 363.289 403.305 362.883C402.263 362.461 401.529 361.979 401.102 361.438C400.674 360.896 400.461 360.245 400.461 359.484C400.461 358.531 400.799 357.781 401.477 357.234C402.154 356.688 403.062 356.414 404.203 356.414C405.297 356.414 406.385 356.654 407.469 357.133L406.875 358.656C405.859 358.229 404.953 358.016 404.156 358.016C403.552 358.016 403.094 358.148 402.781 358.414C402.469 358.674 402.312 359.021 402.312 359.453C402.312 359.75 402.375 360.005 402.5 360.219C402.625 360.427 402.831 360.625 403.117 360.812C403.404 361 403.919 361.247 404.664 361.555C405.503 361.904 406.117 362.229 406.508 362.531C406.898 362.833 407.185 363.174 407.367 363.555C407.549 363.935 407.641 364.383 407.641 364.898ZM413.141 368.156C411.833 368.156 410.839 367.776 410.156 367.016C409.479 366.25 409.141 365.154 409.141 363.727C409.141 362.273 409.495 361.156 410.203 360.375C410.917 359.594 411.945 359.203 413.289 359.203C414.201 359.203 415.021 359.372 415.75 359.711L415.195 361.188C414.419 360.885 413.779 360.734 413.273 360.734C411.779 360.734 411.031 361.727 411.031 363.711C411.031 364.68 411.216 365.409 411.586 365.898C411.961 366.383 412.508 366.625 413.227 366.625C414.044 366.625 414.818 366.422 415.547 366.016V367.617C415.219 367.81 414.867 367.948 414.492 368.031C414.122 368.115 413.672 368.156 413.141 368.156ZM425.18 368H423.336V362.688C423.336 362.021 423.201 361.523 422.93 361.195C422.664 360.867 422.24 360.703 421.656 360.703C420.885 360.703 420.318 360.935 419.953 361.398C419.594 361.857 419.414 362.628 419.414 363.711V368H417.578V355.844H419.414V358.93C419.414 359.424 419.383 359.953 419.32 360.516H419.438C419.688 360.099 420.034 359.776 420.477 359.547C420.924 359.318 421.445 359.203 422.039 359.203C424.133 359.203 425.18 360.258 425.18 362.367V368ZM431.508 368.156C430.164 368.156 429.112 367.766 428.352 366.984C427.596 366.198 427.219 365.117 427.219 363.742C427.219 362.331 427.57 361.221 428.273 360.414C428.977 359.607 429.943 359.203 431.172 359.203C432.312 359.203 433.214 359.549 433.875 360.242C434.536 360.935 434.867 361.888 434.867 363.102V364.094H429.109C429.135 364.932 429.362 365.578 429.789 366.031C430.216 366.479 430.818 366.703 431.594 366.703C432.104 366.703 432.578 366.656 433.016 366.562C433.458 366.464 433.932 366.302 434.438 366.078V367.57C433.99 367.784 433.536 367.935 433.078 368.023C432.62 368.112 432.096 368.156 431.508 368.156ZM431.172 360.594C430.589 360.594 430.12 360.779 429.766 361.148C429.417 361.518 429.208 362.057 429.141 362.766H433.062C433.052 362.052 432.88 361.513 432.547 361.148C432.214 360.779 431.755 360.594 431.172 360.594ZM439.867 368.156C438.789 368.156 437.948 367.766 437.344 366.984C436.74 366.203 436.438 365.107 436.438 363.695C436.438 362.279 436.742 361.177 437.352 360.391C437.966 359.599 438.815 359.203 439.898 359.203C441.034 359.203 441.898 359.622 442.492 360.461H442.586C442.497 359.841 442.453 359.352 442.453 358.992V355.844H444.297V368H442.859L442.539 366.867H442.453C441.865 367.727 441.003 368.156 439.867 368.156ZM440.359 366.672C441.115 366.672 441.664 366.461 442.008 366.039C442.352 365.612 442.529 364.922 442.539 363.969V363.711C442.539 362.622 442.362 361.849 442.008 361.391C441.654 360.932 441.099 360.703 440.344 360.703C439.698 360.703 439.201 360.966 438.852 361.492C438.503 362.013 438.328 362.758 438.328 363.727C438.328 364.685 438.497 365.417 438.836 365.922C439.174 366.422 439.682 366.672 440.359 366.672ZM453.016 368L452.758 366.867H452.664C452.409 367.268 452.044 367.583 451.57 367.812C451.102 368.042 450.565 368.156 449.961 368.156C448.914 368.156 448.133 367.896 447.617 367.375C447.102 366.854 446.844 366.065 446.844 365.008V359.359H448.695V364.688C448.695 365.349 448.831 365.846 449.102 366.18C449.372 366.508 449.797 366.672 450.375 366.672C451.146 366.672 451.711 366.443 452.07 365.984C452.435 365.521 452.617 364.747 452.617 363.664V359.359H454.461V368H453.016ZM458.914 368H457.078V355.844H458.914V368ZM465.32 368.156C463.977 368.156 462.924 367.766 462.164 366.984C461.409 366.198 461.031 365.117 461.031 363.742C461.031 362.331 461.383 361.221 462.086 360.414C462.789 359.607 463.755 359.203 464.984 359.203C466.125 359.203 467.026 359.549 467.688 360.242C468.349 360.935 468.68 361.888 468.68 363.102V364.094H462.922C462.948 364.932 463.174 365.578 463.602 366.031C464.029 366.479 464.63 366.703 465.406 366.703C465.917 366.703 466.391 366.656 466.828 366.562C467.271 366.464 467.745 366.302 468.25 366.078V367.57C467.802 367.784 467.349 367.935 466.891 368.023C466.432 368.112 465.909 368.156 465.32 368.156ZM464.984 360.594C464.401 360.594 463.932 360.779 463.578 361.148C463.229 361.518 463.021 362.057 462.953 362.766H466.875C466.865 362.052 466.693 361.513 466.359 361.148C466.026 360.779 465.568 360.594 464.984 360.594Z" fill="#0A2535"/>
<path d="M426.783 385.635C426.783 387.049 426.398 388.131 425.629 388.881C424.863 389.627 423.76 390 422.318 390H419.945V381.434H422.57C423.902 381.434 424.938 381.803 425.676 382.541C426.414 383.279 426.783 384.311 426.783 385.635ZM425.729 385.67C425.729 384.553 425.447 383.711 424.885 383.145C424.326 382.578 423.494 382.295 422.389 382.295H420.941V389.139H422.154C423.342 389.139 424.234 388.848 424.832 388.266C425.43 387.68 425.729 386.814 425.729 385.67ZM432.502 390L432.309 389.086H432.262C431.941 389.488 431.621 389.762 431.301 389.906C430.984 390.047 430.588 390.117 430.111 390.117C429.475 390.117 428.975 389.953 428.611 389.625C428.252 389.297 428.072 388.83 428.072 388.225C428.072 386.928 429.109 386.248 431.184 386.186L432.273 386.15V385.752C432.273 385.248 432.164 384.877 431.945 384.639C431.73 384.396 431.385 384.275 430.908 384.275C430.373 384.275 429.768 384.439 429.092 384.768L428.793 384.023C429.109 383.852 429.455 383.717 429.83 383.619C430.209 383.521 430.588 383.473 430.967 383.473C431.732 383.473 432.299 383.643 432.666 383.982C433.037 384.322 433.223 384.867 433.223 385.617V390H432.502ZM430.305 389.314C430.91 389.314 431.385 389.148 431.729 388.816C432.076 388.484 432.25 388.02 432.25 387.422V386.842L431.277 386.883C430.504 386.91 429.945 387.031 429.602 387.246C429.262 387.457 429.092 387.787 429.092 388.236C429.092 388.588 429.197 388.855 429.408 389.039C429.623 389.223 429.922 389.314 430.305 389.314ZM434.213 383.578H435.256L436.662 387.24C436.971 388.076 437.162 388.68 437.236 389.051H437.283C437.334 388.852 437.439 388.512 437.6 388.031C437.764 387.547 438.295 386.062 439.193 383.578H440.236L437.477 390.891C437.203 391.613 436.883 392.125 436.516 392.426C436.152 392.73 435.705 392.883 435.174 392.883C434.877 392.883 434.584 392.85 434.295 392.783V392.004C434.51 392.051 434.75 392.074 435.016 392.074C435.684 392.074 436.16 391.699 436.445 390.949L436.803 390.035L434.213 383.578ZM447.555 390H446.605V383.895C446.605 383.387 446.621 382.906 446.652 382.453C446.57 382.535 446.479 382.621 446.377 382.711C446.275 382.801 445.811 383.182 444.982 383.854L444.467 383.186L446.734 381.434H447.555V390Z" fill="#0A2535"/>
<path d="M426.783 407.635C426.783 409.049 426.398 410.131 425.629 410.881C424.863 411.627 423.76 412 422.318 412H419.945V403.434H422.57C423.902 403.434 424.938 403.803 425.676 404.541C426.414 405.279 426.783 406.311 426.783 407.635ZM425.729 407.67C425.729 406.553 425.447 405.711 424.885 405.145C424.326 404.578 423.494 404.295 422.389 404.295H420.941V411.139H422.154C423.342 411.139 424.234 410.848 424.832 410.266C425.43 409.68 425.729 408.814 425.729 407.67ZM432.502 412L432.309 411.086H432.262C431.941 411.488 431.621 411.762 431.301 411.906C430.984 412.047 430.588 412.117 430.111 412.117C429.475 412.117 428.975 411.953 428.611 411.625C428.252 411.297 428.072 410.83 428.072 410.225C428.072 408.928 429.109 408.248 431.184 408.186L432.273 408.15V407.752C432.273 407.248 432.164 406.877 431.945 406.639C431.73 406.396 431.385 406.275 430.908 406.275C430.373 406.275 429.768 406.439 429.092 406.768L428.793 406.023C429.109 405.852 429.455 405.717 429.83 405.619C430.209 405.521 430.588 405.473 430.967 405.473C431.732 405.473 432.299 405.643 432.666 405.982C433.037 406.322 433.223 406.867 433.223 407.617V412H432.502ZM430.305 411.314C430.91 411.314 431.385 411.148 431.729 410.816C432.076 410.484 432.25 410.02 432.25 409.422V408.842L431.277 408.883C430.504 408.91 429.945 409.031 429.602 409.246C429.262 409.457 429.092 409.787 429.092 410.236C429.092 410.588 429.197 410.855 429.408 411.039C429.623 411.223 429.922 411.314 430.305 411.314ZM434.213 405.578H435.256L436.662 409.24C436.971 410.076 437.162 410.68 437.236 411.051H437.283C437.334 410.852 437.439 410.512 437.6 410.031C437.764 409.547 438.295 408.062 439.193 405.578H440.236L437.477 412.891C437.203 413.613 436.883 414.125 436.516 414.426C436.152 414.73 435.705 414.883 435.174 414.883C434.877 414.883 434.584 414.85 434.295 414.783V414.004C434.51 414.051 434.75 414.074 435.016 414.074C435.684 414.074 436.16 413.699 436.445 412.949L436.803 412.035L434.213 405.578ZM449.582 412H443.951V411.162L446.207 408.895C446.895 408.199 447.348 407.703 447.566 407.406C447.785 407.109 447.949 406.82 448.059 406.539C448.168 406.258 448.223 405.955 448.223 405.631C448.223 405.174 448.084 404.812 447.807 404.547C447.529 404.277 447.145 404.143 446.652 404.143C446.297 404.143 445.959 404.201 445.639 404.318C445.322 404.436 444.969 404.648 444.578 404.957L444.062 404.295C444.852 403.639 445.711 403.311 446.641 403.311C447.445 403.311 448.076 403.518 448.533 403.932C448.99 404.342 449.219 404.895 449.219 405.59C449.219 406.133 449.066 406.67 448.762 407.201C448.457 407.732 447.887 408.404 447.051 409.217L445.176 411.051V411.098H449.582V412Z" fill="#0A2535"/>
<path d="M400.422 103.434H401.494L398.406 112H397.422L394.352 103.434H395.406L397.375 108.977C397.602 109.613 397.781 110.232 397.914 110.834C398.055 110.201 398.238 109.57 398.465 108.941L400.422 103.434ZM403.504 112H402.531V105.578H403.504V112ZM402.449 103.838C402.449 103.615 402.504 103.453 402.613 103.352C402.723 103.246 402.859 103.193 403.023 103.193C403.18 103.193 403.314 103.246 403.428 103.352C403.541 103.457 403.598 103.619 403.598 103.838C403.598 104.057 403.541 104.221 403.428 104.33C403.314 104.436 403.18 104.488 403.023 104.488C402.859 104.488 402.723 104.436 402.613 104.33C402.504 104.221 402.449 104.057 402.449 103.838ZM408.279 112.117C407.33 112.117 406.58 111.828 406.029 111.25C405.482 110.672 405.209 109.869 405.209 108.842C405.209 107.807 405.463 106.984 405.971 106.375C406.482 105.766 407.168 105.461 408.027 105.461C408.832 105.461 409.469 105.727 409.938 106.258C410.406 106.785 410.641 107.482 410.641 108.35V108.965H406.217C406.236 109.719 406.426 110.291 406.785 110.682C407.148 111.072 407.658 111.268 408.314 111.268C409.006 111.268 409.689 111.123 410.365 110.834V111.701C410.021 111.85 409.695 111.955 409.387 112.018C409.082 112.084 408.713 112.117 408.279 112.117ZM408.016 106.275C407.5 106.275 407.088 106.443 406.779 106.779C406.475 107.115 406.295 107.58 406.24 108.174H409.598C409.598 107.561 409.461 107.092 409.188 106.768C408.914 106.439 408.523 106.275 408.016 106.275ZM417.549 112L416.371 108.232C416.297 108.002 416.158 107.479 415.955 106.662H415.908C415.752 107.346 415.615 107.873 415.498 108.244L414.285 112H413.16L411.408 105.578H412.428C412.842 107.191 413.156 108.42 413.371 109.264C413.59 110.107 413.715 110.676 413.746 110.969H413.793C413.836 110.746 413.904 110.459 413.998 110.107C414.096 109.752 414.18 109.471 414.25 109.264L415.428 105.578H416.482L417.631 109.264C417.85 109.936 417.998 110.5 418.076 110.957H418.123C418.139 110.816 418.18 110.6 418.246 110.307C418.316 110.014 418.725 108.438 419.471 105.578H420.479L418.703 112H417.549ZM429.742 109.721C429.742 110.475 429.469 111.062 428.922 111.484C428.375 111.906 427.633 112.117 426.695 112.117C425.68 112.117 424.898 111.986 424.352 111.725V110.764C424.703 110.912 425.086 111.029 425.5 111.115C425.914 111.201 426.324 111.244 426.73 111.244C427.395 111.244 427.895 111.119 428.23 110.869C428.566 110.615 428.734 110.264 428.734 109.814C428.734 109.518 428.674 109.275 428.553 109.088C428.436 108.896 428.236 108.721 427.955 108.561C427.678 108.4 427.254 108.219 426.684 108.016C425.887 107.73 425.316 107.393 424.973 107.002C424.633 106.611 424.463 106.102 424.463 105.473C424.463 104.812 424.711 104.287 425.207 103.896C425.703 103.506 426.359 103.311 427.176 103.311C428.027 103.311 428.811 103.467 429.525 103.779L429.215 104.646C428.508 104.35 427.82 104.201 427.152 104.201C426.625 104.201 426.213 104.314 425.916 104.541C425.619 104.768 425.471 105.082 425.471 105.484C425.471 105.781 425.525 106.025 425.635 106.217C425.744 106.404 425.928 106.578 426.186 106.738C426.447 106.895 426.846 107.068 427.381 107.26C428.279 107.58 428.896 107.924 429.232 108.291C429.572 108.658 429.742 109.135 429.742 109.721ZM433.914 112.117C432.984 112.117 432.264 111.832 431.752 111.262C431.244 110.688 430.99 109.877 430.99 108.83C430.99 107.756 431.248 106.926 431.764 106.34C432.283 105.754 433.021 105.461 433.979 105.461C434.287 105.461 434.596 105.494 434.904 105.561C435.213 105.627 435.455 105.705 435.631 105.795L435.332 106.621C435.117 106.535 434.883 106.465 434.629 106.41C434.375 106.352 434.15 106.322 433.955 106.322C432.65 106.322 431.998 107.154 431.998 108.818C431.998 109.607 432.156 110.213 432.473 110.635C432.793 111.057 433.266 111.268 433.891 111.268C434.426 111.268 434.975 111.152 435.537 110.922V111.783C435.107 112.006 434.566 112.117 433.914 112.117ZM441.461 112V107.846C441.461 107.322 441.342 106.932 441.104 106.674C440.865 106.416 440.492 106.287 439.984 106.287C439.309 106.287 438.814 106.471 438.502 106.838C438.193 107.205 438.039 107.807 438.039 108.643V112H437.066V102.883H438.039V105.643C438.039 105.975 438.023 106.25 437.992 106.469H438.051C438.242 106.16 438.514 105.918 438.865 105.742C439.221 105.562 439.625 105.473 440.078 105.473C440.863 105.473 441.451 105.66 441.842 106.035C442.236 106.406 442.434 106.998 442.434 107.811V112H441.461ZM447.15 112.117C446.201 112.117 445.451 111.828 444.9 111.25C444.354 110.672 444.08 109.869 444.08 108.842C444.08 107.807 444.334 106.984 444.842 106.375C445.354 105.766 446.039 105.461 446.898 105.461C447.703 105.461 448.34 105.727 448.809 106.258C449.277 106.785 449.512 107.482 449.512 108.35V108.965H445.088C445.107 109.719 445.297 110.291 445.656 110.682C446.02 111.072 446.529 111.268 447.186 111.268C447.877 111.268 448.561 111.123 449.236 110.834V111.701C448.893 111.85 448.566 111.955 448.258 112.018C447.953 112.084 447.584 112.117 447.15 112.117ZM446.887 106.275C446.371 106.275 445.959 106.443 445.65 106.779C445.346 107.115 445.166 107.58 445.111 108.174H448.469C448.469 107.561 448.332 107.092 448.059 106.768C447.785 106.439 447.395 106.275 446.887 106.275ZM455.547 111.139H455.494C455.045 111.791 454.373 112.117 453.479 112.117C452.639 112.117 451.984 111.83 451.516 111.256C451.051 110.682 450.818 109.865 450.818 108.807C450.818 107.748 451.053 106.926 451.521 106.34C451.99 105.754 452.643 105.461 453.479 105.461C454.35 105.461 455.018 105.777 455.482 106.41H455.559L455.518 105.947L455.494 105.496V102.883H456.467V112H455.676L455.547 111.139ZM453.602 111.303C454.266 111.303 454.746 111.123 455.043 110.764C455.344 110.4 455.494 109.816 455.494 109.012V108.807C455.494 107.896 455.342 107.248 455.037 106.861C454.736 106.471 454.254 106.275 453.59 106.275C453.02 106.275 452.582 106.498 452.277 106.943C451.977 107.385 451.826 108.01 451.826 108.818C451.826 109.639 451.977 110.258 452.277 110.676C452.578 111.094 453.02 111.303 453.602 111.303ZM459.449 105.578V109.744C459.449 110.268 459.568 110.658 459.807 110.916C460.045 111.174 460.418 111.303 460.926 111.303C461.598 111.303 462.088 111.119 462.396 110.752C462.709 110.385 462.865 109.785 462.865 108.953V105.578H463.838V112H463.035L462.895 111.139H462.842C462.643 111.455 462.365 111.697 462.01 111.865C461.658 112.033 461.256 112.117 460.803 112.117C460.021 112.117 459.436 111.932 459.045 111.561C458.658 111.189 458.465 110.596 458.465 109.779V105.578H459.449ZM466.879 112H465.906V102.883H466.879V112ZM471.654 112.117C470.705 112.117 469.955 111.828 469.404 111.25C468.857 110.672 468.584 109.869 468.584 108.842C468.584 107.807 468.838 106.984 469.346 106.375C469.857 105.766 470.543 105.461 471.402 105.461C472.207 105.461 472.844 105.727 473.312 106.258C473.781 106.785 474.016 107.482 474.016 108.35V108.965H469.592C469.611 109.719 469.801 110.291 470.16 110.682C470.523 111.072 471.033 111.268 471.689 111.268C472.381 111.268 473.064 111.123 473.74 110.834V111.701C473.396 111.85 473.07 111.955 472.762 112.018C472.457 112.084 472.088 112.117 471.654 112.117ZM471.391 106.275C470.875 106.275 470.463 106.443 470.154 106.779C469.85 107.115 469.67 107.58 469.615 108.174H472.973C472.973 107.561 472.836 107.092 472.562 106.768C472.289 106.439 471.898 106.275 471.391 106.275Z" fill="#0A2535"/>
<path d="M406.908 131.721C406.908 132.475 406.635 133.062 406.088 133.484C405.541 133.906 404.799 134.117 403.861 134.117C402.846 134.117 402.064 133.986 401.518 133.725V132.764C401.869 132.912 402.252 133.029 402.666 133.115C403.08 133.201 403.49 133.244 403.896 133.244C404.561 133.244 405.061 133.119 405.396 132.869C405.732 132.615 405.9 132.264 405.9 131.814C405.9 131.518 405.84 131.275 405.719 131.088C405.602 130.896 405.402 130.721 405.121 130.561C404.844 130.4 404.42 130.219 403.85 130.016C403.053 129.73 402.482 129.393 402.139 129.002C401.799 128.611 401.629 128.102 401.629 127.473C401.629 126.812 401.877 126.287 402.373 125.896C402.869 125.506 403.525 125.311 404.342 125.311C405.193 125.311 405.977 125.467 406.691 125.779L406.381 126.646C405.674 126.35 404.986 126.201 404.318 126.201C403.791 126.201 403.379 126.314 403.082 126.541C402.785 126.768 402.637 127.082 402.637 127.484C402.637 127.781 402.691 128.025 402.801 128.217C402.91 128.404 403.094 128.578 403.352 128.738C403.613 128.895 404.012 129.068 404.547 129.26C405.445 129.58 406.062 129.924 406.398 130.291C406.738 130.658 406.908 131.135 406.908 131.721ZM409.428 127.578V131.744C409.428 132.268 409.547 132.658 409.785 132.916C410.023 133.174 410.396 133.303 410.904 133.303C411.576 133.303 412.066 133.119 412.375 132.752C412.688 132.385 412.844 131.785 412.844 130.953V127.578H413.816V134H413.014L412.873 133.139H412.82C412.621 133.455 412.344 133.697 411.988 133.865C411.637 134.033 411.234 134.117 410.781 134.117C410 134.117 409.414 133.932 409.023 133.561C408.637 133.189 408.443 132.596 408.443 131.779V127.578H409.428ZM421.141 127.578V128.193L419.951 128.334C420.061 128.471 420.158 128.65 420.244 128.873C420.33 129.092 420.373 129.34 420.373 129.617C420.373 130.246 420.158 130.748 419.729 131.123C419.299 131.498 418.709 131.686 417.959 131.686C417.768 131.686 417.588 131.67 417.42 131.639C417.006 131.857 416.799 132.133 416.799 132.465C416.799 132.641 416.871 132.771 417.016 132.857C417.16 132.939 417.408 132.98 417.76 132.98H418.896C419.592 132.98 420.125 133.127 420.496 133.42C420.871 133.713 421.059 134.139 421.059 134.697C421.059 135.408 420.773 135.949 420.203 136.32C419.633 136.695 418.801 136.883 417.707 136.883C416.867 136.883 416.219 136.727 415.762 136.414C415.309 136.102 415.082 135.66 415.082 135.09C415.082 134.699 415.207 134.361 415.457 134.076C415.707 133.791 416.059 133.598 416.512 133.496C416.348 133.422 416.209 133.307 416.096 133.15C415.986 132.994 415.932 132.812 415.932 132.605C415.932 132.371 415.994 132.166 416.119 131.99C416.244 131.814 416.441 131.645 416.711 131.48C416.379 131.344 416.107 131.111 415.896 130.783C415.689 130.455 415.586 130.08 415.586 129.658C415.586 128.955 415.797 128.414 416.219 128.035C416.641 127.652 417.238 127.461 418.012 127.461C418.348 127.461 418.65 127.5 418.92 127.578H421.141ZM416.02 135.078C416.02 135.426 416.166 135.689 416.459 135.869C416.752 136.049 417.172 136.139 417.719 136.139C418.535 136.139 419.139 136.016 419.529 135.77C419.924 135.527 420.121 135.197 420.121 134.779C420.121 134.432 420.014 134.189 419.799 134.053C419.584 133.92 419.18 133.854 418.586 133.854H417.42C416.979 133.854 416.635 133.959 416.389 134.17C416.143 134.381 416.02 134.684 416.02 135.078ZM416.547 129.635C416.547 130.084 416.674 130.424 416.928 130.654C417.182 130.885 417.535 131 417.988 131C418.938 131 419.412 130.539 419.412 129.617C419.412 128.652 418.932 128.17 417.971 128.17C417.514 128.17 417.162 128.293 416.916 128.539C416.67 128.785 416.547 129.15 416.547 129.635ZM427.715 127.578V128.193L426.525 128.334C426.635 128.471 426.732 128.65 426.818 128.873C426.904 129.092 426.947 129.34 426.947 129.617C426.947 130.246 426.732 130.748 426.303 131.123C425.873 131.498 425.283 131.686 424.533 131.686C424.342 131.686 424.162 131.67 423.994 131.639C423.58 131.857 423.373 132.133 423.373 132.465C423.373 132.641 423.445 132.771 423.59 132.857C423.734 132.939 423.982 132.98 424.334 132.98H425.471C426.166 132.98 426.699 133.127 427.07 133.42C427.445 133.713 427.633 134.139 427.633 134.697C427.633 135.408 427.348 135.949 426.777 136.32C426.207 136.695 425.375 136.883 424.281 136.883C423.441 136.883 422.793 136.727 422.336 136.414C421.883 136.102 421.656 135.66 421.656 135.09C421.656 134.699 421.781 134.361 422.031 134.076C422.281 133.791 422.633 133.598 423.086 133.496C422.922 133.422 422.783 133.307 422.67 133.15C422.561 132.994 422.506 132.812 422.506 132.605C422.506 132.371 422.568 132.166 422.693 131.99C422.818 131.814 423.016 131.645 423.285 131.48C422.953 131.344 422.682 131.111 422.471 130.783C422.264 130.455 422.16 130.08 422.16 129.658C422.16 128.955 422.371 128.414 422.793 128.035C423.215 127.652 423.812 127.461 424.586 127.461C424.922 127.461 425.225 127.5 425.494 127.578H427.715ZM422.594 135.078C422.594 135.426 422.74 135.689 423.033 135.869C423.326 136.049 423.746 136.139 424.293 136.139C425.109 136.139 425.713 136.016 426.104 135.77C426.498 135.527 426.695 135.197 426.695 134.779C426.695 134.432 426.588 134.189 426.373 134.053C426.158 133.92 425.754 133.854 425.16 133.854H423.994C423.553 133.854 423.209 133.959 422.963 134.17C422.717 134.381 422.594 134.684 422.594 135.078ZM423.121 129.635C423.121 130.084 423.248 130.424 423.502 130.654C423.756 130.885 424.109 131 424.562 131C425.512 131 425.986 130.539 425.986 129.617C425.986 128.652 425.506 128.17 424.545 128.17C424.088 128.17 423.736 128.293 423.49 128.539C423.244 128.785 423.121 129.15 423.121 129.635ZM431.746 134.117C430.797 134.117 430.047 133.828 429.496 133.25C428.949 132.672 428.676 131.869 428.676 130.842C428.676 129.807 428.93 128.984 429.438 128.375C429.949 127.766 430.635 127.461 431.494 127.461C432.299 127.461 432.936 127.727 433.404 128.258C433.873 128.785 434.107 129.482 434.107 130.35V130.965H429.684C429.703 131.719 429.893 132.291 430.252 132.682C430.615 133.072 431.125 133.268 431.781 133.268C432.473 133.268 433.156 133.123 433.832 132.834V133.701C433.488 133.85 433.162 133.955 432.854 134.018C432.549 134.084 432.18 134.117 431.746 134.117ZM431.482 128.275C430.967 128.275 430.555 128.443 430.246 128.779C429.941 129.115 429.762 129.58 429.707 130.174H433.064C433.064 129.561 432.928 129.092 432.654 128.768C432.381 128.439 431.99 128.275 431.482 128.275ZM439.914 132.248C439.914 132.846 439.691 133.307 439.246 133.631C438.801 133.955 438.176 134.117 437.371 134.117C436.52 134.117 435.855 133.982 435.379 133.713V132.811C435.688 132.967 436.018 133.09 436.369 133.18C436.725 133.27 437.066 133.314 437.395 133.314C437.902 133.314 438.293 133.234 438.566 133.074C438.84 132.91 438.977 132.662 438.977 132.33C438.977 132.08 438.867 131.867 438.648 131.691C438.434 131.512 438.012 131.301 437.383 131.059C436.785 130.836 436.359 130.643 436.105 130.479C435.855 130.311 435.668 130.121 435.543 129.91C435.422 129.699 435.361 129.447 435.361 129.154C435.361 128.631 435.574 128.219 436 127.918C436.426 127.613 437.01 127.461 437.752 127.461C438.443 127.461 439.119 127.602 439.779 127.883L439.434 128.674C438.789 128.408 438.205 128.275 437.682 128.275C437.221 128.275 436.873 128.348 436.639 128.492C436.404 128.637 436.287 128.836 436.287 129.09C436.287 129.262 436.33 129.408 436.416 129.529C436.506 129.65 436.648 129.766 436.844 129.875C437.039 129.984 437.414 130.143 437.969 130.35C438.73 130.627 439.244 130.906 439.51 131.188C439.779 131.469 439.914 131.822 439.914 132.248ZM443.576 133.314C443.748 133.314 443.914 133.303 444.074 133.279C444.234 133.252 444.361 133.225 444.455 133.197V133.941C444.35 133.992 444.193 134.033 443.986 134.064C443.783 134.1 443.6 134.117 443.436 134.117C442.193 134.117 441.572 133.463 441.572 132.154V128.334H440.652V127.865L441.572 127.461L441.982 126.09H442.545V127.578H444.408V128.334H442.545V132.113C442.545 132.5 442.637 132.797 442.82 133.004C443.004 133.211 443.256 133.314 443.576 133.314ZM446.717 134H445.744V127.578H446.717V134ZM445.662 125.838C445.662 125.615 445.717 125.453 445.826 125.352C445.936 125.246 446.072 125.193 446.236 125.193C446.393 125.193 446.527 125.246 446.641 125.352C446.754 125.457 446.811 125.619 446.811 125.838C446.811 126.057 446.754 126.221 446.641 126.33C446.527 126.436 446.393 126.488 446.236 126.488C446.072 126.488 445.936 126.436 445.826 126.33C445.717 126.221 445.662 126.057 445.662 125.838ZM454.322 130.783C454.322 131.83 454.059 132.648 453.531 133.238C453.004 133.824 452.275 134.117 451.346 134.117C450.771 134.117 450.262 133.982 449.816 133.713C449.371 133.443 449.027 133.057 448.785 132.553C448.543 132.049 448.422 131.459 448.422 130.783C448.422 129.736 448.684 128.922 449.207 128.34C449.73 127.754 450.457 127.461 451.387 127.461C452.285 127.461 452.998 127.76 453.525 128.357C454.057 128.955 454.322 129.764 454.322 130.783ZM449.43 130.783C449.43 131.604 449.594 132.229 449.922 132.658C450.25 133.088 450.732 133.303 451.369 133.303C452.006 133.303 452.488 133.09 452.816 132.664C453.148 132.234 453.314 131.607 453.314 130.783C453.314 129.967 453.148 129.348 452.816 128.926C452.488 128.5 452.002 128.287 451.357 128.287C450.721 128.287 450.24 128.496 449.916 128.914C449.592 129.332 449.43 129.955 449.43 130.783ZM460.428 134V129.846C460.428 129.322 460.309 128.932 460.07 128.674C459.832 128.416 459.459 128.287 458.951 128.287C458.279 128.287 457.787 128.469 457.475 128.832C457.162 129.195 457.006 129.795 457.006 130.631V134H456.033V127.578H456.824L456.982 128.457H457.029C457.229 128.141 457.508 127.896 457.867 127.725C458.227 127.549 458.627 127.461 459.068 127.461C459.842 127.461 460.424 127.648 460.814 128.023C461.205 128.395 461.4 128.99 461.4 129.811V134H460.428ZM467.547 132.248C467.547 132.846 467.324 133.307 466.879 133.631C466.434 133.955 465.809 134.117 465.004 134.117C464.152 134.117 463.488 133.982 463.012 133.713V132.811C463.32 132.967 463.65 133.09 464.002 133.18C464.357 133.27 464.699 133.314 465.027 133.314C465.535 133.314 465.926 133.234 466.199 133.074C466.473 132.91 466.609 132.662 466.609 132.33C466.609 132.08 466.5 131.867 466.281 131.691C466.066 131.512 465.645 131.301 465.016 131.059C464.418 130.836 463.992 130.643 463.738 130.479C463.488 130.311 463.301 130.121 463.176 129.91C463.055 129.699 462.994 129.447 462.994 129.154C462.994 128.631 463.207 128.219 463.633 127.918C464.059 127.613 464.643 127.461 465.385 127.461C466.076 127.461 466.752 127.602 467.412 127.883L467.066 128.674C466.422 128.408 465.838 128.275 465.314 128.275C464.854 128.275 464.506 128.348 464.271 128.492C464.037 128.637 463.92 128.836 463.92 129.09C463.92 129.262 463.963 129.408 464.049 129.529C464.139 129.65 464.281 129.766 464.477 129.875C464.672 129.984 465.047 130.143 465.602 130.35C466.363 130.627 466.877 130.906 467.143 131.188C467.412 131.469 467.547 131.822 467.547 132.248Z" fill="#0A2535"/>
</svg>
