<svg width="870" height="568" viewBox="0 0 870 568" fill="none" xmlns="http://www.w3.org/2000/svg">
<rect width="870" height="568" fill="white"/>
<line x1="434.5" y1="285" x2="434.5" y2="251" stroke="#0A2535"/>
<rect x="353" y="163" width="163" height="87" fill="white" stroke="#68C6A4" stroke-width="2"/>
<path d="M426.555 190H424.68V184.852H419.414V190H417.547V178.578H419.414V183.25H424.68V178.578H426.555V190ZM433.141 190.156C431.797 190.156 430.745 189.766 429.984 188.984C429.229 188.198 428.852 187.117 428.852 185.742C428.852 184.331 429.203 183.221 429.906 182.414C430.609 181.607 431.576 181.203 432.805 181.203C433.945 181.203 434.846 181.549 435.508 182.242C436.169 182.935 436.5 183.888 436.5 185.102V186.094H430.742C430.768 186.932 430.995 187.578 431.422 188.031C431.849 188.479 432.451 188.703 433.227 188.703C433.737 188.703 434.211 188.656 434.648 188.562C435.091 188.464 435.565 188.302 436.07 188.078V189.57C435.622 189.784 435.169 189.935 434.711 190.023C434.253 190.112 433.729 190.156 433.141 190.156ZM432.805 182.594C432.221 182.594 431.753 182.779 431.398 183.148C431.049 183.518 430.841 184.057 430.773 184.766H434.695C434.685 184.052 434.513 183.513 434.18 183.148C433.846 182.779 433.388 182.594 432.805 182.594ZM442.969 181.203C443.339 181.203 443.643 181.229 443.883 181.281L443.703 182.992C443.443 182.93 443.172 182.898 442.891 182.898C442.156 182.898 441.56 183.138 441.102 183.617C440.648 184.096 440.422 184.719 440.422 185.484V190H438.586V181.359H440.023L440.266 182.883H440.359C440.646 182.367 441.018 181.958 441.477 181.656C441.94 181.354 442.438 181.203 442.969 181.203ZM453.156 185.664C453.156 187.076 452.794 188.177 452.07 188.969C451.346 189.76 450.339 190.156 449.047 190.156C448.24 190.156 447.526 189.974 446.906 189.609C446.286 189.245 445.81 188.721 445.477 188.039C445.143 187.357 444.977 186.565 444.977 185.664C444.977 184.263 445.336 183.169 446.055 182.383C446.773 181.596 447.786 181.203 449.094 181.203C450.344 181.203 451.333 181.607 452.062 182.414C452.792 183.216 453.156 184.299 453.156 185.664ZM446.867 185.664C446.867 187.659 447.604 188.656 449.078 188.656C450.536 188.656 451.266 187.659 451.266 185.664C451.266 183.69 450.531 182.703 449.062 182.703C448.292 182.703 447.732 182.958 447.383 183.469C447.039 183.979 446.867 184.711 446.867 185.664Z" fill="#0A2535"/>
<rect x="353" y="363" width="163" height="42" fill="white" stroke="#68C6A4" stroke-width="2"/>
<path d="M398.859 383.891H400.156C401.026 383.891 401.656 383.729 402.047 383.406C402.438 383.083 402.633 382.604 402.633 381.969C402.633 381.323 402.422 380.859 402 380.578C401.578 380.297 400.943 380.156 400.094 380.156H398.859V383.891ZM398.859 385.438V390H396.992V378.578H400.219C401.693 378.578 402.784 378.854 403.492 379.406C404.201 379.958 404.555 380.792 404.555 381.906C404.555 383.328 403.815 384.341 402.336 384.945L405.562 390H403.438L400.703 385.438H398.859ZM410.805 390.156C409.461 390.156 408.409 389.766 407.648 388.984C406.893 388.198 406.516 387.117 406.516 385.742C406.516 384.331 406.867 383.221 407.57 382.414C408.273 381.607 409.24 381.203 410.469 381.203C411.609 381.203 412.51 381.549 413.172 382.242C413.833 382.935 414.164 383.888 414.164 385.102V386.094H408.406C408.432 386.932 408.659 387.578 409.086 388.031C409.513 388.479 410.115 388.703 410.891 388.703C411.401 388.703 411.875 388.656 412.312 388.562C412.755 388.464 413.229 388.302 413.734 388.078V389.57C413.286 389.784 412.833 389.935 412.375 390.023C411.917 390.112 411.393 390.156 410.805 390.156ZM410.469 382.594C409.885 382.594 409.417 382.779 409.062 383.148C408.714 383.518 408.505 384.057 408.438 384.766H412.359C412.349 384.052 412.177 383.513 411.844 383.148C411.51 382.779 411.052 382.594 410.469 382.594ZM422.055 387.539C422.055 388.383 421.747 389.031 421.133 389.484C420.518 389.932 419.638 390.156 418.492 390.156C417.341 390.156 416.417 389.982 415.719 389.633V388.047C416.734 388.516 417.68 388.75 418.555 388.75C419.685 388.75 420.25 388.409 420.25 387.727C420.25 387.508 420.188 387.326 420.062 387.18C419.938 387.034 419.732 386.883 419.445 386.727C419.159 386.57 418.76 386.393 418.25 386.195C417.255 385.81 416.581 385.424 416.227 385.039C415.878 384.654 415.703 384.154 415.703 383.539C415.703 382.799 416 382.227 416.594 381.82C417.193 381.409 418.005 381.203 419.031 381.203C420.047 381.203 421.008 381.409 421.914 381.82L421.32 383.203C420.388 382.818 419.604 382.625 418.969 382.625C418 382.625 417.516 382.901 417.516 383.453C417.516 383.724 417.641 383.953 417.891 384.141C418.146 384.328 418.698 384.586 419.547 384.914C420.26 385.19 420.779 385.443 421.102 385.672C421.424 385.901 421.664 386.167 421.82 386.469C421.977 386.766 422.055 387.122 422.055 387.539ZM431.711 385.664C431.711 387.076 431.349 388.177 430.625 388.969C429.901 389.76 428.893 390.156 427.602 390.156C426.794 390.156 426.081 389.974 425.461 389.609C424.841 389.245 424.365 388.721 424.031 388.039C423.698 387.357 423.531 386.565 423.531 385.664C423.531 384.263 423.891 383.169 424.609 382.383C425.328 381.596 426.341 381.203 427.648 381.203C428.898 381.203 429.888 381.607 430.617 382.414C431.346 383.216 431.711 384.299 431.711 385.664ZM425.422 385.664C425.422 387.659 426.159 388.656 427.633 388.656C429.091 388.656 429.82 387.659 429.82 385.664C429.82 383.69 429.086 382.703 427.617 382.703C426.846 382.703 426.286 382.958 425.938 383.469C425.594 383.979 425.422 384.711 425.422 385.664ZM439.922 390L439.664 388.867H439.57C439.315 389.268 438.951 389.583 438.477 389.812C438.008 390.042 437.471 390.156 436.867 390.156C435.82 390.156 435.039 389.896 434.523 389.375C434.008 388.854 433.75 388.065 433.75 387.008V381.359H435.602V386.688C435.602 387.349 435.737 387.846 436.008 388.18C436.279 388.508 436.703 388.672 437.281 388.672C438.052 388.672 438.617 388.443 438.977 387.984C439.341 387.521 439.523 386.747 439.523 385.664V381.359H441.367V390H439.922ZM448.367 381.203C448.737 381.203 449.042 381.229 449.281 381.281L449.102 382.992C448.841 382.93 448.57 382.898 448.289 382.898C447.555 382.898 446.958 383.138 446.5 383.617C446.047 384.096 445.82 384.719 445.82 385.484V390H443.984V381.359H445.422L445.664 382.883H445.758C446.044 382.367 446.417 381.958 446.875 381.656C447.339 381.354 447.836 381.203 448.367 381.203ZM454.375 390.156C453.068 390.156 452.073 389.776 451.391 389.016C450.714 388.25 450.375 387.154 450.375 385.727C450.375 384.273 450.729 383.156 451.438 382.375C452.151 381.594 453.18 381.203 454.523 381.203C455.435 381.203 456.255 381.372 456.984 381.711L456.43 383.188C455.654 382.885 455.013 382.734 454.508 382.734C453.013 382.734 452.266 383.727 452.266 385.711C452.266 386.68 452.451 387.409 452.82 387.898C453.195 388.383 453.742 388.625 454.461 388.625C455.279 388.625 456.052 388.422 456.781 388.016V389.617C456.453 389.81 456.102 389.948 455.727 390.031C455.357 390.115 454.906 390.156 454.375 390.156ZM462.586 390.156C461.242 390.156 460.19 389.766 459.43 388.984C458.674 388.198 458.297 387.117 458.297 385.742C458.297 384.331 458.648 383.221 459.352 382.414C460.055 381.607 461.021 381.203 462.25 381.203C463.391 381.203 464.292 381.549 464.953 382.242C465.615 382.935 465.945 383.888 465.945 385.102V386.094H460.188C460.214 386.932 460.44 387.578 460.867 388.031C461.294 388.479 461.896 388.703 462.672 388.703C463.182 388.703 463.656 388.656 464.094 388.562C464.536 388.464 465.01 388.302 465.516 388.078V389.57C465.068 389.784 464.615 389.935 464.156 390.023C463.698 390.112 463.174 390.156 462.586 390.156ZM462.25 382.594C461.667 382.594 461.198 382.779 460.844 383.148C460.495 383.518 460.286 384.057 460.219 384.766H464.141C464.13 384.052 463.958 383.513 463.625 383.148C463.292 382.779 462.833 382.594 462.25 382.594ZM473.836 387.539C473.836 388.383 473.529 389.031 472.914 389.484C472.299 389.932 471.419 390.156 470.273 390.156C469.122 390.156 468.198 389.982 467.5 389.633V388.047C468.516 388.516 469.461 388.75 470.336 388.75C471.466 388.75 472.031 388.409 472.031 387.727C472.031 387.508 471.969 387.326 471.844 387.18C471.719 387.034 471.513 386.883 471.227 386.727C470.94 386.57 470.542 386.393 470.031 386.195C469.036 385.81 468.362 385.424 468.008 385.039C467.659 384.654 467.484 384.154 467.484 383.539C467.484 382.799 467.781 382.227 468.375 381.82C468.974 381.409 469.786 381.203 470.812 381.203C471.828 381.203 472.789 381.409 473.695 381.82L473.102 383.203C472.169 382.818 471.385 382.625 470.75 382.625C469.781 382.625 469.297 382.901 469.297 383.453C469.297 383.724 469.422 383.953 469.672 384.141C469.927 384.328 470.479 384.586 471.328 384.914C472.042 385.19 472.56 385.443 472.883 385.672C473.206 385.901 473.445 386.167 473.602 386.469C473.758 386.766 473.836 387.122 473.836 387.539Z" fill="#0A2535"/>
<line x1="434.5" y1="362" x2="434.5" y2="328" stroke="#0A2535"/>
<rect x="353" y="286" width="163" height="42" fill="white" stroke="#68C6A4" stroke-width="2"/>
<path d="M386.82 313V301.578H388.688V313H386.82ZM399.117 313H397.273V307.688C397.273 307.021 397.138 306.523 396.867 306.195C396.602 305.867 396.177 305.703 395.594 305.703C394.818 305.703 394.25 305.932 393.891 306.391C393.531 306.849 393.352 307.617 393.352 308.695V313H391.516V304.359H392.953L393.211 305.492H393.305C393.565 305.081 393.935 304.763 394.414 304.539C394.893 304.315 395.424 304.203 396.008 304.203C398.081 304.203 399.117 305.258 399.117 307.367V313ZM404.891 311.672C405.339 311.672 405.786 311.602 406.234 311.461V312.844C406.031 312.932 405.768 313.005 405.445 313.062C405.128 313.125 404.797 313.156 404.453 313.156C402.714 313.156 401.844 312.24 401.844 310.406V305.75H400.664V304.938L401.93 304.266L402.555 302.438H403.688V304.359H406.148V305.75H403.688V310.375C403.688 310.818 403.797 311.146 404.016 311.359C404.24 311.568 404.531 311.672 404.891 311.672ZM412.352 304.203C412.721 304.203 413.026 304.229 413.266 304.281L413.086 305.992C412.826 305.93 412.555 305.898 412.273 305.898C411.539 305.898 410.943 306.138 410.484 306.617C410.031 307.096 409.805 307.719 409.805 308.484V313H407.969V304.359H409.406L409.648 305.883H409.742C410.029 305.367 410.401 304.958 410.859 304.656C411.323 304.354 411.82 304.203 412.352 304.203ZM422.539 308.664C422.539 310.076 422.177 311.177 421.453 311.969C420.729 312.76 419.721 313.156 418.43 313.156C417.622 313.156 416.909 312.974 416.289 312.609C415.669 312.245 415.193 311.721 414.859 311.039C414.526 310.357 414.359 309.565 414.359 308.664C414.359 307.263 414.719 306.169 415.438 305.383C416.156 304.596 417.169 304.203 418.477 304.203C419.727 304.203 420.716 304.607 421.445 305.414C422.174 306.216 422.539 307.299 422.539 308.664ZM416.25 308.664C416.25 310.659 416.987 311.656 418.461 311.656C419.919 311.656 420.648 310.659 420.648 308.664C420.648 306.69 419.914 305.703 418.445 305.703C417.674 305.703 417.115 305.958 416.766 306.469C416.422 306.979 416.25 307.711 416.25 308.664ZM433.609 301.578L429.359 313H427.625L431.883 301.578H433.609ZM446.5 313L445.359 309.828H440.992L439.875 313H437.906L442.18 301.531H444.211L448.484 313H446.5ZM444.867 308.219L443.797 305.109C443.719 304.901 443.609 304.573 443.469 304.125C443.333 303.677 443.24 303.349 443.188 303.141C443.047 303.781 442.841 304.482 442.57 305.242L441.539 308.219H444.867ZM454.211 304.203C455.289 304.203 456.128 304.594 456.727 305.375C457.331 306.156 457.633 307.253 457.633 308.664C457.633 310.081 457.328 311.185 456.719 311.977C456.109 312.763 455.263 313.156 454.18 313.156C453.086 313.156 452.237 312.763 451.633 311.977H451.508L451.172 313H449.797V300.844H451.633V303.734C451.633 303.948 451.622 304.266 451.602 304.688C451.581 305.109 451.565 305.378 451.555 305.492H451.633C452.216 304.633 453.076 304.203 454.211 304.203ZM453.734 305.703C452.995 305.703 452.461 305.922 452.133 306.359C451.81 306.792 451.643 307.518 451.633 308.539V308.664C451.633 309.716 451.799 310.479 452.133 310.953C452.466 311.422 453.01 311.656 453.766 311.656C454.417 311.656 454.909 311.398 455.242 310.883C455.581 310.367 455.75 309.622 455.75 308.648C455.75 306.685 455.078 305.703 453.734 305.703ZM467.43 308.664C467.43 310.076 467.068 311.177 466.344 311.969C465.62 312.76 464.612 313.156 463.32 313.156C462.513 313.156 461.799 312.974 461.18 312.609C460.56 312.245 460.083 311.721 459.75 311.039C459.417 310.357 459.25 309.565 459.25 308.664C459.25 307.263 459.609 306.169 460.328 305.383C461.047 304.596 462.06 304.203 463.367 304.203C464.617 304.203 465.607 304.607 466.336 305.414C467.065 306.216 467.43 307.299 467.43 308.664ZM461.141 308.664C461.141 310.659 461.878 311.656 463.352 311.656C464.81 311.656 465.539 310.659 465.539 308.664C465.539 306.69 464.805 305.703 463.336 305.703C462.565 305.703 462.005 305.958 461.656 306.469C461.312 306.979 461.141 307.711 461.141 308.664ZM475.641 313L475.383 311.867H475.289C475.034 312.268 474.669 312.583 474.195 312.812C473.727 313.042 473.19 313.156 472.586 313.156C471.539 313.156 470.758 312.896 470.242 312.375C469.727 311.854 469.469 311.065 469.469 310.008V304.359H471.32V309.688C471.32 310.349 471.456 310.846 471.727 311.18C471.997 311.508 472.422 311.672 473 311.672C473.771 311.672 474.336 311.443 474.695 310.984C475.06 310.521 475.242 309.747 475.242 308.664V304.359H477.086V313H475.641ZM482.922 311.672C483.37 311.672 483.818 311.602 484.266 311.461V312.844C484.062 312.932 483.799 313.005 483.477 313.062C483.159 313.125 482.828 313.156 482.484 313.156C480.745 313.156 479.875 312.24 479.875 310.406V305.75H478.695V304.938L479.961 304.266L480.586 302.438H481.719V304.359H484.18V305.75H481.719V310.375C481.719 310.818 481.828 311.146 482.047 311.359C482.271 311.568 482.562 311.672 482.922 311.672Z" fill="#0A2535"/>
<path d="M392.441 204.201C391.5 204.201 390.756 204.516 390.209 205.145C389.666 205.77 389.395 206.627 389.395 207.717C389.395 208.838 389.656 209.705 390.18 210.318C390.707 210.928 391.457 211.232 392.43 211.232C393.027 211.232 393.709 211.125 394.475 210.91V211.783C393.881 212.006 393.148 212.117 392.277 212.117C391.016 212.117 390.041 211.734 389.354 210.969C388.67 210.203 388.328 209.115 388.328 207.705C388.328 206.822 388.492 206.049 388.82 205.385C389.152 204.721 389.629 204.209 390.25 203.85C390.875 203.49 391.609 203.311 392.453 203.311C393.352 203.311 394.137 203.475 394.809 203.803L394.387 204.658C393.738 204.354 393.09 204.201 392.441 204.201ZM400.146 212L399.953 211.086H399.906C399.586 211.488 399.266 211.762 398.945 211.906C398.629 212.047 398.232 212.117 397.756 212.117C397.119 212.117 396.619 211.953 396.256 211.625C395.896 211.297 395.717 210.83 395.717 210.225C395.717 208.928 396.754 208.248 398.828 208.186L399.918 208.15V207.752C399.918 207.248 399.809 206.877 399.59 206.639C399.375 206.396 399.029 206.275 398.553 206.275C398.018 206.275 397.412 206.439 396.736 206.768L396.438 206.023C396.754 205.852 397.1 205.717 397.475 205.619C397.854 205.521 398.232 205.473 398.611 205.473C399.377 205.473 399.943 205.643 400.311 205.982C400.682 206.322 400.867 206.867 400.867 207.617V212H400.146ZM397.949 211.314C398.555 211.314 399.029 211.148 399.373 210.816C399.721 210.484 399.895 210.02 399.895 209.422V208.842L398.922 208.883C398.148 208.91 397.59 209.031 397.246 209.246C396.906 209.457 396.736 209.787 396.736 210.236C396.736 210.588 396.842 210.855 397.053 211.039C397.268 211.223 397.566 211.314 397.949 211.314ZM403.85 212H402.877V202.883H403.85V212ZM406.885 212H405.912V202.883H406.885V212ZM414.959 206.334H413.324V212H412.352V206.334H411.203V205.895L412.352 205.543V205.186C412.352 203.607 413.041 202.818 414.42 202.818C414.76 202.818 415.158 202.887 415.615 203.023L415.363 203.803C414.988 203.682 414.668 203.621 414.402 203.621C414.035 203.621 413.764 203.744 413.588 203.99C413.412 204.232 413.324 204.623 413.324 205.162V205.578H414.959V206.334ZM421.674 208.783C421.674 209.83 421.41 210.648 420.883 211.238C420.355 211.824 419.627 212.117 418.697 212.117C418.123 212.117 417.613 211.982 417.168 211.713C416.723 211.443 416.379 211.057 416.137 210.553C415.895 210.049 415.773 209.459 415.773 208.783C415.773 207.736 416.035 206.922 416.559 206.34C417.082 205.754 417.809 205.461 418.738 205.461C419.637 205.461 420.35 205.76 420.877 206.357C421.408 206.955 421.674 207.764 421.674 208.783ZM416.781 208.783C416.781 209.604 416.945 210.229 417.273 210.658C417.602 211.088 418.084 211.303 418.721 211.303C419.357 211.303 419.84 211.09 420.168 210.664C420.5 210.234 420.666 209.607 420.666 208.783C420.666 207.967 420.5 207.348 420.168 206.926C419.84 206.5 419.354 206.287 418.709 206.287C418.072 206.287 417.592 206.496 417.268 206.914C416.943 207.332 416.781 207.955 416.781 208.783ZM426.314 205.461C426.6 205.461 426.855 205.484 427.082 205.531L426.947 206.434C426.682 206.375 426.447 206.346 426.244 206.346C425.725 206.346 425.279 206.557 424.908 206.979C424.541 207.4 424.357 207.926 424.357 208.555V212H423.385V205.578H424.188L424.299 206.768H424.346C424.584 206.35 424.871 206.027 425.207 205.801C425.543 205.574 425.912 205.461 426.314 205.461ZM436.381 209.721C436.381 210.475 436.107 211.062 435.561 211.484C435.014 211.906 434.271 212.117 433.334 212.117C432.318 212.117 431.537 211.986 430.99 211.725V210.764C431.342 210.912 431.725 211.029 432.139 211.115C432.553 211.201 432.963 211.244 433.369 211.244C434.033 211.244 434.533 211.119 434.869 210.869C435.205 210.615 435.373 210.264 435.373 209.814C435.373 209.518 435.312 209.275 435.191 209.088C435.074 208.896 434.875 208.721 434.594 208.561C434.316 208.4 433.893 208.219 433.322 208.016C432.525 207.73 431.955 207.393 431.611 207.002C431.271 206.611 431.102 206.102 431.102 205.473C431.102 204.812 431.35 204.287 431.846 203.896C432.342 203.506 432.998 203.311 433.814 203.311C434.666 203.311 435.449 203.467 436.164 203.779L435.854 204.646C435.146 204.35 434.459 204.201 433.791 204.201C433.264 204.201 432.852 204.314 432.555 204.541C432.258 204.768 432.109 205.082 432.109 205.484C432.109 205.781 432.164 206.025 432.273 206.217C432.383 206.404 432.566 206.578 432.824 206.738C433.086 206.895 433.484 207.068 434.02 207.26C434.918 207.58 435.535 207.924 435.871 208.291C436.211 208.658 436.381 209.135 436.381 209.721ZM440.975 212.117C440.557 212.117 440.174 212.041 439.826 211.889C439.482 211.732 439.193 211.494 438.959 211.174H438.889C438.936 211.549 438.959 211.904 438.959 212.24V214.883H437.986V205.578H438.777L438.912 206.457H438.959C439.209 206.105 439.5 205.852 439.832 205.695C440.164 205.539 440.545 205.461 440.975 205.461C441.826 205.461 442.482 205.752 442.943 206.334C443.408 206.916 443.641 207.732 443.641 208.783C443.641 209.838 443.404 210.658 442.932 211.244C442.463 211.826 441.811 212.117 440.975 212.117ZM440.834 206.287C440.178 206.287 439.703 206.469 439.41 206.832C439.117 207.195 438.967 207.773 438.959 208.566V208.783C438.959 209.686 439.109 210.332 439.41 210.723C439.711 211.109 440.193 211.303 440.857 211.303C441.412 211.303 441.846 211.078 442.158 210.629C442.475 210.18 442.633 209.561 442.633 208.771C442.633 207.971 442.475 207.357 442.158 206.932C441.846 206.502 441.404 206.287 440.834 206.287ZM448.059 212.117C447.109 212.117 446.359 211.828 445.809 211.25C445.262 210.672 444.988 209.869 444.988 208.842C444.988 207.807 445.242 206.984 445.75 206.375C446.262 205.766 446.947 205.461 447.807 205.461C448.611 205.461 449.248 205.727 449.717 206.258C450.186 206.785 450.42 207.482 450.42 208.35V208.965H445.996C446.016 209.719 446.205 210.291 446.564 210.682C446.928 211.072 447.438 211.268 448.094 211.268C448.785 211.268 449.469 211.123 450.145 210.834V211.701C449.801 211.85 449.475 211.955 449.166 212.018C448.861 212.084 448.492 212.117 448.059 212.117ZM447.795 206.275C447.279 206.275 446.867 206.443 446.559 206.779C446.254 207.115 446.074 207.58 446.02 208.174H449.377C449.377 207.561 449.24 207.092 448.967 206.768C448.693 206.439 448.303 206.275 447.795 206.275ZM456.033 212L455.84 211.086H455.793C455.473 211.488 455.152 211.762 454.832 211.906C454.516 212.047 454.119 212.117 453.643 212.117C453.006 212.117 452.506 211.953 452.143 211.625C451.783 211.297 451.604 210.83 451.604 210.225C451.604 208.928 452.641 208.248 454.715 208.186L455.805 208.15V207.752C455.805 207.248 455.695 206.877 455.477 206.639C455.262 206.396 454.916 206.275 454.439 206.275C453.904 206.275 453.299 206.439 452.623 206.768L452.324 206.023C452.641 205.852 452.986 205.717 453.361 205.619C453.74 205.521 454.119 205.473 454.498 205.473C455.264 205.473 455.83 205.643 456.197 205.982C456.568 206.322 456.754 206.867 456.754 207.617V212H456.033ZM453.836 211.314C454.441 211.314 454.916 211.148 455.26 210.816C455.607 210.484 455.781 210.02 455.781 209.422V208.842L454.809 208.883C454.035 208.91 453.477 209.031 453.133 209.246C452.793 209.457 452.623 209.787 452.623 210.236C452.623 210.588 452.729 210.855 452.939 211.039C453.154 211.223 453.453 211.314 453.836 211.314ZM459.725 208.713C459.893 208.475 460.148 208.162 460.492 207.775L462.566 205.578H463.721L461.119 208.314L463.902 212H462.725L460.457 208.965L459.725 209.598V212H458.764V202.883H459.725V207.717C459.725 207.932 459.709 208.264 459.678 208.713H459.725ZM467.781 212.117C466.832 212.117 466.082 211.828 465.531 211.25C464.984 210.672 464.711 209.869 464.711 208.842C464.711 207.807 464.965 206.984 465.473 206.375C465.984 205.766 466.67 205.461 467.529 205.461C468.334 205.461 468.971 205.727 469.439 206.258C469.908 206.785 470.143 207.482 470.143 208.35V208.965H465.719C465.738 209.719 465.928 210.291 466.287 210.682C466.65 211.072 467.16 211.268 467.816 211.268C468.508 211.268 469.191 211.123 469.867 210.834V211.701C469.523 211.85 469.197 211.955 468.889 212.018C468.584 212.084 468.215 212.117 467.781 212.117ZM467.518 206.275C467.002 206.275 466.59 206.443 466.281 206.779C465.977 207.115 465.797 207.58 465.742 208.174H469.1C469.1 207.561 468.963 207.092 468.689 206.768C468.416 206.439 468.025 206.275 467.518 206.275ZM474.736 205.461C475.021 205.461 475.277 205.484 475.504 205.531L475.369 206.434C475.104 206.375 474.869 206.346 474.666 206.346C474.146 206.346 473.701 206.557 473.33 206.979C472.963 207.4 472.779 207.926 472.779 208.555V212H471.807V205.578H472.609L472.721 206.768H472.768C473.006 206.35 473.293 206.027 473.629 205.801C473.965 205.574 474.334 205.461 474.736 205.461ZM480.848 210.248C480.848 210.846 480.625 211.307 480.18 211.631C479.734 211.955 479.109 212.117 478.305 212.117C477.453 212.117 476.789 211.982 476.312 211.713V210.811C476.621 210.967 476.951 211.09 477.303 211.18C477.658 211.27 478 211.314 478.328 211.314C478.836 211.314 479.227 211.234 479.5 211.074C479.773 210.91 479.91 210.662 479.91 210.33C479.91 210.08 479.801 209.867 479.582 209.691C479.367 209.512 478.945 209.301 478.316 209.059C477.719 208.836 477.293 208.643 477.039 208.479C476.789 208.311 476.602 208.121 476.477 207.91C476.355 207.699 476.295 207.447 476.295 207.154C476.295 206.631 476.508 206.219 476.934 205.918C477.359 205.613 477.943 205.461 478.686 205.461C479.377 205.461 480.053 205.602 480.713 205.883L480.367 206.674C479.723 206.408 479.139 206.275 478.615 206.275C478.154 206.275 477.807 206.348 477.572 206.492C477.338 206.637 477.221 206.836 477.221 207.09C477.221 207.262 477.264 207.408 477.35 207.529C477.439 207.65 477.582 207.766 477.777 207.875C477.973 207.984 478.348 208.143 478.902 208.35C479.664 208.627 480.178 208.906 480.443 209.188C480.713 209.469 480.848 209.822 480.848 210.248Z" fill="#0A2535"/>
<path d="M406.908 231.721C406.908 232.475 406.635 233.062 406.088 233.484C405.541 233.906 404.799 234.117 403.861 234.117C402.846 234.117 402.064 233.986 401.518 233.725V232.764C401.869 232.912 402.252 233.029 402.666 233.115C403.08 233.201 403.49 233.244 403.896 233.244C404.561 233.244 405.061 233.119 405.396 232.869C405.732 232.615 405.9 232.264 405.9 231.814C405.9 231.518 405.84 231.275 405.719 231.088C405.602 230.896 405.402 230.721 405.121 230.561C404.844 230.4 404.42 230.219 403.85 230.016C403.053 229.73 402.482 229.393 402.139 229.002C401.799 228.611 401.629 228.102 401.629 227.473C401.629 226.812 401.877 226.287 402.373 225.896C402.869 225.506 403.525 225.311 404.342 225.311C405.193 225.311 405.977 225.467 406.691 225.779L406.381 226.646C405.674 226.35 404.986 226.201 404.318 226.201C403.791 226.201 403.379 226.314 403.082 226.541C402.785 226.768 402.637 227.082 402.637 227.484C402.637 227.781 402.691 228.025 402.801 228.217C402.91 228.404 403.094 228.578 403.352 228.738C403.613 228.895 404.012 229.068 404.547 229.26C405.445 229.58 406.062 229.924 406.398 230.291C406.738 230.658 406.908 231.135 406.908 231.721ZM409.428 227.578V231.744C409.428 232.268 409.547 232.658 409.785 232.916C410.023 233.174 410.396 233.303 410.904 233.303C411.576 233.303 412.066 233.119 412.375 232.752C412.688 232.385 412.844 231.785 412.844 230.953V227.578H413.816V234H413.014L412.873 233.139H412.82C412.621 233.455 412.344 233.697 411.988 233.865C411.637 234.033 411.234 234.117 410.781 234.117C410 234.117 409.414 233.932 409.023 233.561C408.637 233.189 408.443 232.596 408.443 231.779V227.578H409.428ZM421.141 227.578V228.193L419.951 228.334C420.061 228.471 420.158 228.65 420.244 228.873C420.33 229.092 420.373 229.34 420.373 229.617C420.373 230.246 420.158 230.748 419.729 231.123C419.299 231.498 418.709 231.686 417.959 231.686C417.768 231.686 417.588 231.67 417.42 231.639C417.006 231.857 416.799 232.133 416.799 232.465C416.799 232.641 416.871 232.771 417.016 232.857C417.16 232.939 417.408 232.98 417.76 232.98H418.896C419.592 232.98 420.125 233.127 420.496 233.42C420.871 233.713 421.059 234.139 421.059 234.697C421.059 235.408 420.773 235.949 420.203 236.32C419.633 236.695 418.801 236.883 417.707 236.883C416.867 236.883 416.219 236.727 415.762 236.414C415.309 236.102 415.082 235.66 415.082 235.09C415.082 234.699 415.207 234.361 415.457 234.076C415.707 233.791 416.059 233.598 416.512 233.496C416.348 233.422 416.209 233.307 416.096 233.15C415.986 232.994 415.932 232.812 415.932 232.605C415.932 232.371 415.994 232.166 416.119 231.99C416.244 231.814 416.441 231.645 416.711 231.48C416.379 231.344 416.107 231.111 415.896 230.783C415.689 230.455 415.586 230.08 415.586 229.658C415.586 228.955 415.797 228.414 416.219 228.035C416.641 227.652 417.238 227.461 418.012 227.461C418.348 227.461 418.65 227.5 418.92 227.578H421.141ZM416.02 235.078C416.02 235.426 416.166 235.689 416.459 235.869C416.752 236.049 417.172 236.139 417.719 236.139C418.535 236.139 419.139 236.016 419.529 235.77C419.924 235.527 420.121 235.197 420.121 234.779C420.121 234.432 420.014 234.189 419.799 234.053C419.584 233.92 419.18 233.854 418.586 233.854H417.42C416.979 233.854 416.635 233.959 416.389 234.17C416.143 234.381 416.02 234.684 416.02 235.078ZM416.547 229.635C416.547 230.084 416.674 230.424 416.928 230.654C417.182 230.885 417.535 231 417.988 231C418.938 231 419.412 230.539 419.412 229.617C419.412 228.652 418.932 228.17 417.971 228.17C417.514 228.17 417.162 228.293 416.916 228.539C416.67 228.785 416.547 229.15 416.547 229.635ZM427.715 227.578V228.193L426.525 228.334C426.635 228.471 426.732 228.65 426.818 228.873C426.904 229.092 426.947 229.34 426.947 229.617C426.947 230.246 426.732 230.748 426.303 231.123C425.873 231.498 425.283 231.686 424.533 231.686C424.342 231.686 424.162 231.67 423.994 231.639C423.58 231.857 423.373 232.133 423.373 232.465C423.373 232.641 423.445 232.771 423.59 232.857C423.734 232.939 423.982 232.98 424.334 232.98H425.471C426.166 232.98 426.699 233.127 427.07 233.42C427.445 233.713 427.633 234.139 427.633 234.697C427.633 235.408 427.348 235.949 426.777 236.32C426.207 236.695 425.375 236.883 424.281 236.883C423.441 236.883 422.793 236.727 422.336 236.414C421.883 236.102 421.656 235.66 421.656 235.09C421.656 234.699 421.781 234.361 422.031 234.076C422.281 233.791 422.633 233.598 423.086 233.496C422.922 233.422 422.783 233.307 422.67 233.15C422.561 232.994 422.506 232.812 422.506 232.605C422.506 232.371 422.568 232.166 422.693 231.99C422.818 231.814 423.016 231.645 423.285 231.48C422.953 231.344 422.682 231.111 422.471 230.783C422.264 230.455 422.16 230.08 422.16 229.658C422.16 228.955 422.371 228.414 422.793 228.035C423.215 227.652 423.812 227.461 424.586 227.461C424.922 227.461 425.225 227.5 425.494 227.578H427.715ZM422.594 235.078C422.594 235.426 422.74 235.689 423.033 235.869C423.326 236.049 423.746 236.139 424.293 236.139C425.109 236.139 425.713 236.016 426.104 235.77C426.498 235.527 426.695 235.197 426.695 234.779C426.695 234.432 426.588 234.189 426.373 234.053C426.158 233.92 425.754 233.854 425.16 233.854H423.994C423.553 233.854 423.209 233.959 422.963 234.17C422.717 234.381 422.594 234.684 422.594 235.078ZM423.121 229.635C423.121 230.084 423.248 230.424 423.502 230.654C423.756 230.885 424.109 231 424.562 231C425.512 231 425.986 230.539 425.986 229.617C425.986 228.652 425.506 228.17 424.545 228.17C424.088 228.17 423.736 228.293 423.49 228.539C423.244 228.785 423.121 229.15 423.121 229.635ZM431.746 234.117C430.797 234.117 430.047 233.828 429.496 233.25C428.949 232.672 428.676 231.869 428.676 230.842C428.676 229.807 428.93 228.984 429.438 228.375C429.949 227.766 430.635 227.461 431.494 227.461C432.299 227.461 432.936 227.727 433.404 228.258C433.873 228.785 434.107 229.482 434.107 230.35V230.965H429.684C429.703 231.719 429.893 232.291 430.252 232.682C430.615 233.072 431.125 233.268 431.781 233.268C432.473 233.268 433.156 233.123 433.832 232.834V233.701C433.488 233.85 433.162 233.955 432.854 234.018C432.549 234.084 432.18 234.117 431.746 234.117ZM431.482 228.275C430.967 228.275 430.555 228.443 430.246 228.779C429.941 229.115 429.762 229.58 429.707 230.174H433.064C433.064 229.561 432.928 229.092 432.654 228.768C432.381 228.439 431.99 228.275 431.482 228.275ZM439.914 232.248C439.914 232.846 439.691 233.307 439.246 233.631C438.801 233.955 438.176 234.117 437.371 234.117C436.52 234.117 435.855 233.982 435.379 233.713V232.811C435.688 232.967 436.018 233.09 436.369 233.18C436.725 233.27 437.066 233.314 437.395 233.314C437.902 233.314 438.293 233.234 438.566 233.074C438.84 232.91 438.977 232.662 438.977 232.33C438.977 232.08 438.867 231.867 438.648 231.691C438.434 231.512 438.012 231.301 437.383 231.059C436.785 230.836 436.359 230.643 436.105 230.479C435.855 230.311 435.668 230.121 435.543 229.91C435.422 229.699 435.361 229.447 435.361 229.154C435.361 228.631 435.574 228.219 436 227.918C436.426 227.613 437.01 227.461 437.752 227.461C438.443 227.461 439.119 227.602 439.779 227.883L439.434 228.674C438.789 228.408 438.205 228.275 437.682 228.275C437.221 228.275 436.873 228.348 436.639 228.492C436.404 228.637 436.287 228.836 436.287 229.09C436.287 229.262 436.33 229.408 436.416 229.529C436.506 229.65 436.648 229.766 436.844 229.875C437.039 229.984 437.414 230.143 437.969 230.35C438.73 230.627 439.244 230.906 439.51 231.188C439.779 231.469 439.914 231.822 439.914 232.248ZM443.576 233.314C443.748 233.314 443.914 233.303 444.074 233.279C444.234 233.252 444.361 233.225 444.455 233.197V233.941C444.35 233.992 444.193 234.033 443.986 234.064C443.783 234.1 443.6 234.117 443.436 234.117C442.193 234.117 441.572 233.463 441.572 232.154V228.334H440.652V227.865L441.572 227.461L441.982 226.09H442.545V227.578H444.408V228.334H442.545V232.113C442.545 232.5 442.637 232.797 442.82 233.004C443.004 233.211 443.256 233.314 443.576 233.314ZM446.717 234H445.744V227.578H446.717V234ZM445.662 225.838C445.662 225.615 445.717 225.453 445.826 225.352C445.936 225.246 446.072 225.193 446.236 225.193C446.393 225.193 446.527 225.246 446.641 225.352C446.754 225.457 446.811 225.619 446.811 225.838C446.811 226.057 446.754 226.221 446.641 226.33C446.527 226.436 446.393 226.488 446.236 226.488C446.072 226.488 445.936 226.436 445.826 226.33C445.717 226.221 445.662 226.057 445.662 225.838ZM454.322 230.783C454.322 231.83 454.059 232.648 453.531 233.238C453.004 233.824 452.275 234.117 451.346 234.117C450.771 234.117 450.262 233.982 449.816 233.713C449.371 233.443 449.027 233.057 448.785 232.553C448.543 232.049 448.422 231.459 448.422 230.783C448.422 229.736 448.684 228.922 449.207 228.34C449.73 227.754 450.457 227.461 451.387 227.461C452.285 227.461 452.998 227.76 453.525 228.357C454.057 228.955 454.322 229.764 454.322 230.783ZM449.43 230.783C449.43 231.604 449.594 232.229 449.922 232.658C450.25 233.088 450.732 233.303 451.369 233.303C452.006 233.303 452.488 233.09 452.816 232.664C453.148 232.234 453.314 231.607 453.314 230.783C453.314 229.967 453.148 229.348 452.816 228.926C452.488 228.5 452.002 228.287 451.357 228.287C450.721 228.287 450.24 228.496 449.916 228.914C449.592 229.332 449.43 229.955 449.43 230.783ZM460.428 234V229.846C460.428 229.322 460.309 228.932 460.07 228.674C459.832 228.416 459.459 228.287 458.951 228.287C458.279 228.287 457.787 228.469 457.475 228.832C457.162 229.195 457.006 229.795 457.006 230.631V234H456.033V227.578H456.824L456.982 228.457H457.029C457.229 228.141 457.508 227.896 457.867 227.725C458.227 227.549 458.627 227.461 459.068 227.461C459.842 227.461 460.424 227.648 460.814 228.023C461.205 228.395 461.4 228.99 461.4 229.811V234H460.428ZM467.547 232.248C467.547 232.846 467.324 233.307 466.879 233.631C466.434 233.955 465.809 234.117 465.004 234.117C464.152 234.117 463.488 233.982 463.012 233.713V232.811C463.32 232.967 463.65 233.09 464.002 233.18C464.357 233.27 464.699 233.314 465.027 233.314C465.535 233.314 465.926 233.234 466.199 233.074C466.473 232.91 466.609 232.662 466.609 232.33C466.609 232.08 466.5 231.867 466.281 231.691C466.066 231.512 465.645 231.301 465.016 231.059C464.418 230.836 463.992 230.643 463.738 230.479C463.488 230.311 463.301 230.121 463.176 229.91C463.055 229.699 462.994 229.447 462.994 229.154C462.994 228.631 463.207 228.219 463.633 227.918C464.059 227.613 464.643 227.461 465.385 227.461C466.076 227.461 466.752 227.602 467.412 227.883L467.066 228.674C466.422 228.408 465.838 228.275 465.314 228.275C464.854 228.275 464.506 228.348 464.271 228.492C464.037 228.637 463.92 228.836 463.92 229.09C463.92 229.262 463.963 229.408 464.049 229.529C464.139 229.65 464.281 229.766 464.477 229.875C464.672 229.984 465.047 230.143 465.602 230.35C466.363 230.627 466.877 230.906 467.143 231.188C467.412 231.469 467.547 231.822 467.547 232.248Z" fill="#0A2535"/>
</svg>
