<?xml version="1.0" encoding="utf-8"?>
<!-- Generator: Adobe Illustrator 23.0.6, SVG Export Plug-In . SVG Version: 6.00 Build 0)  -->
<svg version="1.1" id="Layer_1" xmlns="http://www.w3.org/2000/svg" xmlns:xlink="http://www.w3.org/1999/xlink" x="0px" y="0px"
	 viewBox="0 0 416 342.1" style="enable-background:new 0 0 416 342.1;" xml:space="preserve">
<style type="text/css">
	.st0{fill:#A0E475;}
	.st1{fill:#9DE46D;}
	.st2{fill:#EFFDDB;stroke:#EFFDDB;stroke-miterlimit:10;}
	.st3{fill:#B9F492;stroke:#B9F492;stroke-miterlimit:10;}
	.st4{fill:#83C15A;stroke:#83C15A;stroke-miterlimit:10;}
	.st5{fill:#B7F38F;stroke:#B9F492;stroke-miterlimit:10;}
	.st6{fill:#EEFCD9;stroke:#EFFDDB;stroke-miterlimit:10;}
	.st7{fill:#B9EB99;}
	.st8{fill:#EDFCD8;}
	.st9{fill:#E1F6D3;}
	.st10{fill:#CCF6AE;}
	.st11{fill:#EFFDDB;}
	.st12{fill:#B8F28D;}
	.st13{fill:#D4F9B0;stroke:#D4F9B0;stroke-miterlimit:10;}
	.st14{fill:#DBFEB8;stroke:#DBFEB8;stroke-miterlimit:10;}
	.st15{fill:#E3FECA;stroke:#DBFEB8;stroke-miterlimit:10;}
	.shake {
		animation: shake 3s infinite;
		transform-origin: center center;
	}
	@keyframes shake {
		0% { transform: rotate(0deg); }
		2% { transform: rotate(2deg); }
		4% { transform: rotate(-2deg);}
		6% { transform: rotate(2deg); }
		8% { transform: rotate(-2deg);}
		10% { transform: rotate(0deg);}
		100% { transform: rotate(0deg); }
	}
</style>
<title>spot-illo-coffee</title>
<g class="shake">
	<path class="st0" d="M207.2,95l-0.8-13c23.4-0.3,46.8-0.9,70.2-1c12.3-0.1,24.5,0.8,36.8,0.9c5.6,0.1,11.2-0.8,16.8-0.8
		c5.3,0,10.5,0.6,15.8,1c-0.9,11.2-1.9,22.3-2.8,33.5c-0.4,4.9-0.8,9.8-1,14.8c-0.4,7.9-0.7,15.8-1.1,23.7l-1.2,4.6
		c-2.3,2.9-4,5.1-6.2,8c-0.2-1.7-0.4-3.4-0.8-5c-0.4-2.2-2.4-3.7-4.6-3.7c-5-0.2-5-0.4-5-5.6c0-1.2,0-2.3,0-3.5
		c0-6.5-2.1-7.6-7.9-4.3c-0.6,0.3-1.1,0.7-1.9,1.2c-5.1-4.8-10.6-7.8-16.4-1.5c-3.9-2.2-10.3-3.3-14.3-2.2c-3.8,0.9-7,3.6-8.3,7.2
		c-2.4,6.9,0.1,10.7,7.4,12.9c0.4,0.1,0.8,0.6,1.6,1.1c-0.7,1.4-1.3,2.9-1.8,4.4c-1.5,5.4-3.2,10.7-4.1,16.2
		c-0.6,3.3,1.9,5.9,4.9,7.3c2.8,1.4,4.6-0.8,6.5-2.4c3.2-2.6,4.7-6.1,5.6-10.1c0.8-3.4,1.6-7.2,5.6-8.7c1.9-0.7,4-1.1,6.2-1.8
		c-1.1,6.3-2,12.3-3.4,18.2c-0.6,2.6,0,4.1,2.2,5.4c2.2,1.3,4.2,1.3,6.3-0.6c3.2-2.8,4.7-6.3,5.8-10.2c0.8-2.6,1.4-5.5,5-6.8
		c0,2.8-0.1,5.2,0,7.7c0.4,7.5,5.7,11.4,12.9,9.7c1.4-0.3,2.9-0.5,4.4-0.7c-0.1,3-0.2,6.1-0.4,9.1l-0.8,2.1
		c-0.4,11.4-0.7,22.8-1.2,34.2c-0.5,11.9-1.3,23.8-2,35.6c-0.3,5.1-0.6,10.2-0.9,15.3c-0.4,6.1-0.8,12.1-1.2,18.2
		c-9.3,2.2-18.5,1.7-27.8,1.6c-1.5-1.3-2.9-1.6-4.1,0.4l-6.9,0.3c-1.7-0.3-3.5-0.6-5.2-0.7c-22.2-0.1-44.4-0.1-66.7,0
		c0-1.3,0-2.6-0.1-3.9c-0.3-5.3-0.7-10.5-1-15.8c-0.4-5.8-0.7-11.5-1-17.3c-0.7-10.7-1.3-21.4-2-32.1c-0.1-1,0-2,0-3
		c-1-11.8-2-23.6-2.9-35.4c-0.4-5.1-0.6-10.2-1.1-15.3c-0.3-3.1-1.2-6.1-1.9-9.1c-0.7-12-1.3-24.1-2-36.2c-0.3-6.3-0.6-12.5-1-18.8
		c-0.3-4.4-0.8-8.9-1.2-13.3c-0.2-2.6-0.5-5.2-0.7-7.8C208.7,97.6,208.7,96.3,207.2,95z"/>
	<path class="st1" d="M175.3,302.1l-10-0.1c-0.8-0.6-1.6-1.7-2.4-1.7c-2.6-0.2-5.2,0-7.7,0.1l-40.9-0.4l-5-1c0.3-3.8,0.7-7.6,1-11.4
		c0.1-1.8-0.2-3.7,0.2-5.5c2-9.2,2.9-18.6,2.9-28.1c0.6-0.3,1.6-0.6,1.6-0.9c-0.1-2.7-0.3-5.4-0.5-8.1c0.2-1.3,0.5-2.7,0.8-4
		c1.9-2.9,1.5-6,0.2-9c0-1.6,0-3.3,0.1-4.9c2.7-0.9,2.2-2.4,0.8-4.1c0.3-4.4,0.6-8.9,1.1-13.3c1.3-11.7,2.5-23.5,4.1-35.2
		c0.6-4.6,2-9.2,3-13.8c9.8,1.8,19.7,3.5,29.5,5.3c12.4,2.2,24.9,4.4,37.4,6.5c6.3,1.1,12.7,1.9,19.1,2.8c0.4,2.4,0.7,4.9,0.9,7.3
		c0.1,6.8,0,13.5,0,20.2c0,25.3,0,50.7,0.1,76c-4.2,0.1-8.3,0.5-10.7,3.1c-3.7-1.9-6.8-4-10.3-5.2c-4.6-1.5-8.2,1.4-8,6.3
		c0.1,2.5,0.9,5,1.6,8.2c-1.9,0.2-3.9,0.6-6,0.7c-2.1,0.1-4.2,0-7.5,0c1.2,2.9,2,4.7,2.8,6.5C173.8,299.7,174.6,300.9,175.3,302.1z"
		/>
	<path class="st2" d="M339.5,190.9c-1.5,0.2-3,0.4-4.4,0.7c-7.2,1.7-12.4-2.2-12.9-9.7c-0.1-2.4,0-4.9,0-7.7c-3.6,1.4-4.2,4.2-5,6.8
		c-1.1,3.9-2.7,7.4-5.8,10.2c-2.1,1.9-4,1.9-6.3,0.6c-2.3-1.3-2.8-2.8-2.2-5.4c1.3-5.9,2.2-11.9,3.4-18.2c-2.2,0.6-4.3,1.1-6.2,1.8
		c-4,1.4-4.9,5.3-5.6,8.7c-0.9,4.1-2.4,7.5-5.6,10.1c-1.9,1.6-3.7,3.8-6.5,2.4c-3-1.4-5.4-4-4.9-7.3c0.9-5.5,2.6-10.8,4.1-16.2
		c0.5-1.5,1.1-3,1.8-4.4c-0.8-0.6-1.1-1-1.6-1.1c-7.3-2.3-9.7-6-7.4-12.9c1.4-3.7,4.5-6.4,8.3-7.2c4-1,10.4,0.1,14.3,2.2
		c5.9-6.3,11.3-3.3,16.4,1.5c0.8-0.5,1.3-0.9,1.9-1.2c5.8-3.3,7.8-2.2,7.9,4.3c0,1.2,0,2.3,0,3.5c0,5.2,0,5.3,5,5.6
		c2.2-0.1,4.2,1.5,4.6,3.7c0.4,1.6,0.6,3.3,0.8,5c2.2-2.9,4-5.1,6.2-8l1.2-4.6c0.4,2.6,1.1,5.2,0.9,7.8c-0.1,2.3-1.1,4.6-1.8,6.9
		c-1.2,1-2.2,2.1-3.2,3.3c-1.2,1.9-2.2,4-3.3,6c-3.5-2.3-3.5-2.3-3.6-4.6c-0.1-1.5,0-3,0-4.5c-0.1-5.2-2.9-7.4-8-6.4
		c-1.1,0.2-2.2,0.3-3.9,0.5V150c-1.7,0.7-2.8,1.1-3.8,1.5c-2.1,1-3.9,0.8-5.3-1.1c-1.9-2.5-4.1-2.7-6.5-1.2
		c-4.1,2.5-8.2,2.1-12.4,0.8c-1.1-0.4-2.2-0.7-3.4-0.7c-2.6,0.1-3.6,1.7-3.7,4.3c0,3,2.5,3.3,4.3,4.1c4.5,2.1,4.7,2.4,2.2,6.8
		c-1,1.7-2.2,3.3-3,5.1c-2.1,4.8-4.5,9.6-3,15.1c2.3,1,3.5,0,4.8-1.6c3.6-4.7,4.5-10.3,5.8-15.7c0.3-1.8,1.6-3.3,3.4-3.8
		c4.1-1.3,8.3-2.5,13-3.8c0.2,0.8,0.9,2.1,0.7,3.3c-0.9,5.5-1.8,11-3.1,16.5c-0.6,2.3-1.1,4.3-0.2,6.6c3.5-1,3.2-1.2,4.8-4.3
		c1.9-3.8,4.2-7.4,6.6-10.9c0.8-0.9,2.1-1.4,3.4-1.2c1.1,0.6,2.6,2.2,2.5,3.3c-0.4,4.2,1.9,7.6,3,11.3c0.7,2.3,2.3,3.7,4.1,3.6
		c1.9-0.3,3.6-1.2,4.9-2.7c1.5-1.7,2.2-4,3.2-6c0.3,0.4,0.9,0.8,0.8,1.1C340.7,183.7,340.1,187.3,339.5,190.9z"/>
	<path class="st3" d="M340.3,179c-1,2-1.8,4.4-3.2,6c-1.2,1.5-3,2.4-4.9,2.7c-1.9,0.1-3.5-1.3-4.1-3.6c-1.1-3.8-3.4-7.1-3-11.3
		c0.1-1.1-1.4-2.7-2.5-3.3c-1.2-0.2-2.5,0.2-3.4,1.2c-2.5,3.5-4.7,7.1-6.6,10.9c-1.6,3.2-1.3,3.3-4.8,4.3c-0.9-2.2-0.4-4.2,0.2-6.6
		c1.4-5.4,2.2-10.9,3.1-16.5c0.2-1.1-0.5-2.4-0.7-3.3c-4.6,1.4-8.8,2.6-13,3.8c-1.8,0.5-3.1,2-3.4,3.8c-1.3,5.4-2.2,11.1-5.8,15.7
		c-1.3,1.7-2.5,2.6-4.8,1.6c-1.4-5.5,0.9-10.3,3-15.1c0.8-1.8,2-3.4,3-5.1c2.5-4.4,2.3-4.7-2.2-6.8c-1.8-0.8-4.3-1.1-4.3-4.1
		c0-2.6,1.1-4.2,3.7-4.3c1.2,0,2.3,0.3,3.4,0.7c4.2,1.4,8.4,1.7,12.4-0.8c2.4-1.5,4.7-1.3,6.5,1.2c1.4,1.9,3.2,2.1,5.3,1.1
		c1-0.5,2.1-0.8,3.8-1.5v13.1c1.7-0.2,2.8-0.2,3.9-0.5c5.1-1,8,1.2,8,6.4c0,1.5-0.1,3,0,4.5c0.1,2.3,0.2,2.3,3.6,4.6
		c1.1-2,2-4.1,3.3-6c0.9-1.2,2-2.3,3.2-3.3C340.3,172.2,340.3,175.6,340.3,179z"/>
	<path class="st4" d="M211.3,278.8c0-25.3,0-50.7-0.1-76c0-6.8,0.1-13.5,0-20.2c-0.2-2.5-0.5-4.9-0.9-7.3l2-0.1c0.6,3,1.5,6,1.9,9.1
		c0.6,5.1,0.7,10.2,1.1,15.3c0.9,11.8,2,23.6,2.9,35.4c0.1,1,0,2,0,3c0.7,10.7,1.3,21.4,2,32.1c0.4,5.8,0.7,11.5,1,17.3
		c0.3,5.3,0.7,10.5,1,15.8l-10.9-1c-2.1-2,0.1-3.1,0.9-4.5c2.5,0.9,3.6-0.6,4.5-2.5c2.4-5.2,0.4-12.4-4.5-15.9L211.3,278.8z"/>
	<path class="st5" d="M203.2,303l-14-0.9c-1.1-0.8-2.3-1.5-3.6-2.1c-2.3-1-4.7-1.9-7-2.8c0.1-0.4,0.2-0.8,0.3-1.2h12.8
		c1.5-3.4-1.1-4.6-2.3-6.5c-1.1-1.9-3.2-4.1-1.3-6.7c1.2-1.6,5.8-1.2,7.8,0.6c0.9,0.7,1.3,1.9,2.1,2.7c0.9,0.8,2,1.5,3,2.2
		c5-7,5-7,11.3-5.2c1.1,3.7,3.8,7.4,0,11c-0.8,0.2-1.6,0.4-2.4,0.6c-2.2,0.6-5.1,0.5-6.2,1.9S203.3,300.8,203.2,303z"/>
	<path class="st6" d="M212.3,283.1c-6.3-1.8-6.3-1.8-11.3,5.2c-1-0.7-2.1-1.4-3-2.2c-0.8-0.8-1.3-2-2.1-2.7
		c-2.1-1.8-6.7-2.1-7.8-0.6c-1.9,2.6,0.2,4.7,1.4,6.7s3.7,3,2.3,6.5h-12.7c-0.1,0.4-0.2,0.8-0.3,1.2c2.3,0.9,4.7,1.8,7,2.8
		c1.2,0.6,2.4,1.3,3.6,2.1c-4.5,1.5-9.4,1.5-13.9,0c-0.7-1.2-1.5-2.4-2.1-3.6c-0.8-1.8-1.6-3.6-2.8-6.5c3.3,0,5.4,0.1,7.5,0
		c2.1-0.1,4.1-0.5,6-0.7c-0.6-3.2-1.4-5.6-1.6-8.2c-0.2-4.9,3.4-7.8,8-6.3c3.5,1.2,6.6,3.3,10.3,5.2c2.4-2.6,6.5-3,10.7-3.1l0.9,0.4
		C212.2,280.5,212.3,281.8,212.3,283.1z"/>
	<path class="st7" d="M222.3,307c22.2,0,44.4,0,66.6,0c1.8,0.1,3.5,0.4,5.2,0.7c-1.7,0.5-3.4,0.8-5.1,1c-17.5,0.1-34.9,0-52.4,0.1
		c-3.5,0-7,0.2-10.5,0.2C224.6,309.1,222.9,309.1,222.3,307z"/>
	<path class="st8" d="M203.2,303c0.1-2.2-0.7-5,0.4-6.4s4.1-1.4,6.2-1.9c0.8-0.2,1.6-0.4,2.4-0.6l-0.1,3.5c-0.8,1.4-2.9,2.5-0.9,4.5
		c-0.2,2.3-1.8,1.9-3.3,1.7S204.8,303.3,203.2,303z"/>
	<path class="st9" d="M155.2,300.4c2.6-0.1,5.2-0.3,7.7-0.1c0.8,0,1.6,1.1,2.4,1.7c-2.5,0-5,0.1-7.4-0.1
		C156.9,301.8,156.1,300.9,155.2,300.4z"/>
	<path class="st9" d="M109.3,301c0-0.7,0-1.4,0-2l5,1L109.3,301z"/>
	<path class="st10" d="M207.2,95c1.5,1.3,1.4,2.6,0.2,4C205.9,97.7,205.9,96.4,207.2,95z"/>
	<path class="st7" d="M301.2,307.4c1.2-2,2.6-1.7,4.1-0.4L301.2,307.4z"/>
	<path class="st11" d="M338.4,202.1l0.8-2.1C341.1,201.5,339.7,201.8,338.4,202.1z"/>
	<path class="st12" d="M115.2,241c-1.3-3-1.6-6,0.2-9C116.7,235.1,117,238.1,115.2,241z"/>
	<path class="st12" d="M113.3,254c0.4-3,0.7-6,1.1-9c0.2,2.7,0.4,5.4,0.5,8.1C114.9,253.5,113.9,253.8,113.3,254z"/>
	<path class="st12" d="M115.4,227.1c0.3-1.4,0.5-2.7,0.8-4.1C117.7,224.7,118.1,226.2,115.4,227.1z"/>
	<path class="st13" d="M212.2,297.7l0.1-3.5c3.8-3.7,1.1-7.4,0-11c0-1.3-0.1-2.6-0.1-3.9c4.9,3.5,6.9,10.7,4.5,15.9
		C215.8,297,214.7,298.6,212.2,297.7z"/>
	<path class="st14" d="M115.2,241c-0.2,1.3-0.5,2.7-0.8,4c-0.4,3-0.7,6-1.1,9c0.1,9.4-0.9,18.9-2.9,28.1c-0.4,1.8,0,3.7-0.2,5.5
		c-0.3,3.8-0.6,7.6-1,11.4c0,0.7,0,1.4,0,2c-0.4,5.6-1.4,6.6-6.5,4.9c-7.7-2.5-15.2-5.6-22.7-8.6c-4.6-1.8-9.2-3.9-13.7-5.8
		c-4-1.7-4.4-2.4-3.9-6.6c0.3-2.9,0.6-5.9,1-8.9c0.9-7.7,1.9-15.4,2.8-23.1c0.5-4.6,0.8-9.2,1.2-13.8c0.9-10.9,1.9-21.7,2.9-32.6
		c0.7-7.2,1.2-14.5,2.1-21.7c0.8-6.4,2.4-12.7,2.7-19.1c0.2-4.8,3.5-5.8,6.7-6.6c12.6-3.1,25.4-5.9,38-8.9c3.1-0.7,4.3,0.2,4.5,3.4
		c0.1,2.3,0.1,4.7,0.2,7c-1,4.6-2.4,9.2-3,13.8c-1.5,11.7-2.8,23.5-4.1,35.2c-0.5,4.4-0.7,8.9-1.1,13.3c-0.3,1.4-0.5,2.7-0.8,4.1
		c0,1.6,0,3.3-0.1,4.9C113.5,235,113.9,238,115.2,241z"/>
	<path class="st15" d="M346.1,82.1c-5.3-0.3-10.5-1-15.8-1c-5.6,0-11.2,0.9-16.8,0.8C301.2,81.8,289,81,276.7,81
		c-23.4,0.1-46.8,0.6-70.2,1c-7.3-0.1-8.6-1.8-6.9-9.1c0.6-2.9,1.4-5.8,2.2-8.6c2.7-8.9,5.6-17.6,8.1-26.5c0.9-3,2.4-4,5.3-3.8
		c3.5,0.2,7,0.1,10.5,0c27-0.3,53.9-0.8,80.8-0.9c10.9,0,21.9,0.7,33.4,1.1c6.7,14.9,9.2,31.2,13.9,47.8L346.1,82.1z"/>
</g>
</svg>
