<svg width="870" height="568" viewBox="0 0 870 568" fill="none" xmlns="http://www.w3.org/2000/svg">
<rect width="870" height="568" fill="white"/>
<line x1="512.5" y1="203" x2="512.5" y2="168" stroke="#0A2535"/>
<line x1="202.5" y1="202" x2="202.5" y2="168" stroke="#0A2535"/>
<line x1="356.5" y1="202" x2="356.5" y2="168" stroke="#0A2535"/>
<line x1="667.5" y1="202" x2="667.5" y2="168" stroke="#0A2535"/>
<rect x="128" y="203" width="148" height="86" fill="white" stroke="#68C6A4" stroke-width="2"/>
<path d="M189.375 230H187.344L185.406 223.188C185.323 222.891 185.219 222.464 185.094 221.906C184.969 221.344 184.893 220.953 184.867 220.734C184.815 221.068 184.729 221.5 184.609 222.031C184.495 222.562 184.398 222.958 184.32 223.219L182.43 230H180.398L178.922 224.281L177.422 218.578H179.328L180.961 225.234C181.216 226.302 181.398 227.245 181.508 228.062C181.565 227.62 181.651 227.125 181.766 226.578C181.88 226.031 181.984 225.589 182.078 225.25L183.938 218.578H185.789L187.695 225.281C187.878 225.901 188.07 226.828 188.273 228.062C188.352 227.318 188.539 226.37 188.836 225.219L190.461 218.578H192.352L189.375 230ZM199.188 230L198.82 228.797H198.758C198.341 229.323 197.922 229.682 197.5 229.875C197.078 230.062 196.536 230.156 195.875 230.156C195.026 230.156 194.362 229.927 193.883 229.469C193.409 229.01 193.172 228.362 193.172 227.523C193.172 226.633 193.503 225.961 194.164 225.508C194.826 225.055 195.833 224.807 197.188 224.766L198.68 224.719V224.258C198.68 223.706 198.549 223.294 198.289 223.023C198.034 222.747 197.635 222.609 197.094 222.609C196.651 222.609 196.227 222.674 195.82 222.805C195.414 222.935 195.023 223.089 194.648 223.266L194.055 221.953C194.523 221.708 195.036 221.523 195.594 221.398C196.151 221.268 196.677 221.203 197.172 221.203C198.271 221.203 199.099 221.443 199.656 221.922C200.219 222.401 200.5 223.154 200.5 224.18V230H199.188ZM196.453 228.75C197.12 228.75 197.654 228.565 198.055 228.195C198.461 227.82 198.664 227.297 198.664 226.625V225.875L197.555 225.922C196.69 225.953 196.06 226.099 195.664 226.359C195.273 226.615 195.078 227.008 195.078 227.539C195.078 227.924 195.193 228.224 195.422 228.438C195.651 228.646 195.995 228.75 196.453 228.75ZM210.359 221.359V222.367L208.883 222.641C209.018 222.823 209.13 223.047 209.219 223.312C209.307 223.578 209.352 223.859 209.352 224.156C209.352 225.047 209.044 225.747 208.43 226.258C207.815 226.768 206.969 227.023 205.891 227.023C205.615 227.023 205.365 227.003 205.141 226.961C204.745 227.206 204.547 227.492 204.547 227.82C204.547 228.018 204.638 228.167 204.82 228.266C205.008 228.365 205.349 228.414 205.844 228.414H207.352C208.305 228.414 209.029 228.617 209.523 229.023C210.018 229.43 210.266 230.016 210.266 230.781C210.266 231.76 209.862 232.516 209.055 233.047C208.247 233.578 207.081 233.844 205.555 233.844C204.378 233.844 203.479 233.635 202.859 233.219C202.24 232.802 201.93 232.208 201.93 231.438C201.93 230.906 202.096 230.458 202.43 230.094C202.768 229.734 203.24 229.484 203.844 229.344C203.599 229.24 203.396 229.073 203.234 228.844C203.078 228.609 203 228.365 203 228.109C203 227.786 203.091 227.513 203.273 227.289C203.456 227.065 203.727 226.844 204.086 226.625C203.638 226.432 203.273 226.12 202.992 225.688C202.716 225.25 202.578 224.74 202.578 224.156C202.578 223.219 202.872 222.492 203.461 221.977C204.055 221.461 204.898 221.203 205.992 221.203C206.237 221.203 206.492 221.221 206.758 221.258C207.029 221.289 207.232 221.323 207.367 221.359H210.359ZM203.57 231.344C203.57 231.74 203.747 232.044 204.102 232.258C204.461 232.471 204.964 232.578 205.609 232.578C206.609 232.578 207.354 232.435 207.844 232.148C208.333 231.862 208.578 231.482 208.578 231.008C208.578 230.633 208.443 230.365 208.172 230.203C207.906 230.047 207.409 229.969 206.68 229.969H205.289C204.763 229.969 204.344 230.091 204.031 230.336C203.724 230.586 203.57 230.922 203.57 231.344ZM204.359 224.156C204.359 224.698 204.497 225.115 204.773 225.406C205.055 225.698 205.456 225.844 205.977 225.844C207.039 225.844 207.57 225.276 207.57 224.141C207.57 223.578 207.438 223.146 207.172 222.844C206.911 222.536 206.513 222.383 205.977 222.383C205.445 222.383 205.042 222.534 204.766 222.836C204.495 223.138 204.359 223.578 204.359 224.156ZM215.742 230.156C214.398 230.156 213.346 229.766 212.586 228.984C211.831 228.198 211.453 227.117 211.453 225.742C211.453 224.331 211.805 223.221 212.508 222.414C213.211 221.607 214.177 221.203 215.406 221.203C216.547 221.203 217.448 221.549 218.109 222.242C218.771 222.935 219.102 223.888 219.102 225.102V226.094H213.344C213.37 226.932 213.596 227.578 214.023 228.031C214.451 228.479 215.052 228.703 215.828 228.703C216.339 228.703 216.812 228.656 217.25 228.562C217.693 228.464 218.167 228.302 218.672 228.078V229.57C218.224 229.784 217.771 229.935 217.312 230.023C216.854 230.112 216.331 230.156 215.742 230.156ZM215.406 222.594C214.823 222.594 214.354 222.779 214 223.148C213.651 223.518 213.443 224.057 213.375 224.766H217.297C217.286 224.052 217.115 223.513 216.781 223.148C216.448 222.779 215.99 222.594 215.406 222.594ZM226.992 227.539C226.992 228.383 226.685 229.031 226.07 229.484C225.456 229.932 224.576 230.156 223.43 230.156C222.279 230.156 221.354 229.982 220.656 229.633V228.047C221.672 228.516 222.617 228.75 223.492 228.75C224.622 228.75 225.188 228.409 225.188 227.727C225.188 227.508 225.125 227.326 225 227.18C224.875 227.034 224.669 226.883 224.383 226.727C224.096 226.57 223.698 226.393 223.188 226.195C222.193 225.81 221.518 225.424 221.164 225.039C220.815 224.654 220.641 224.154 220.641 223.539C220.641 222.799 220.938 222.227 221.531 221.82C222.13 221.409 222.943 221.203 223.969 221.203C224.984 221.203 225.945 221.409 226.852 221.82L226.258 223.203C225.326 222.818 224.542 222.625 223.906 222.625C222.938 222.625 222.453 222.901 222.453 223.453C222.453 223.724 222.578 223.953 222.828 224.141C223.083 224.328 223.635 224.586 224.484 224.914C225.198 225.19 225.716 225.443 226.039 225.672C226.362 225.901 226.602 226.167 226.758 226.469C226.914 226.766 226.992 227.122 226.992 227.539Z" fill="#0A2535"/>
<rect x="283" y="203" width="148" height="86" fill="white" stroke="#68C6A4" stroke-width="2"/>
<path d="M329.742 230H327.875V220.18H324.516V218.578H333.102V220.18H329.742V230ZM336.5 230H334.664V221.359H336.5V230ZM334.555 219.07C334.555 218.742 334.643 218.49 334.82 218.312C335.003 218.135 335.26 218.047 335.594 218.047C335.917 218.047 336.167 218.135 336.344 218.312C336.526 218.49 336.617 218.742 336.617 219.07C336.617 219.383 336.526 219.63 336.344 219.812C336.167 219.99 335.917 220.078 335.594 220.078C335.26 220.078 335.003 219.99 334.82 219.812C334.643 219.63 334.555 219.383 334.555 219.07ZM346.414 230H344.57V224.672C344.57 224.01 344.445 223.518 344.195 223.195C343.945 222.867 343.555 222.703 343.023 222.703C342.315 222.703 341.794 222.935 341.461 223.398C341.133 223.857 340.969 224.622 340.969 225.695V230H339.133V221.359H340.57L340.828 222.492H340.922C341.161 222.081 341.508 221.763 341.961 221.539C342.419 221.315 342.922 221.203 343.469 221.203C344.797 221.203 345.677 221.656 346.109 222.562H346.234C346.49 222.135 346.849 221.802 347.312 221.562C347.776 221.323 348.307 221.203 348.906 221.203C349.938 221.203 350.688 221.464 351.156 221.984C351.63 222.505 351.867 223.299 351.867 224.367V230H350.031V224.672C350.031 224.01 349.904 223.518 349.648 223.195C349.398 222.867 349.008 222.703 348.477 222.703C347.763 222.703 347.24 222.927 346.906 223.375C346.578 223.818 346.414 224.5 346.414 225.422V230ZM358.203 230.156C356.859 230.156 355.807 229.766 355.047 228.984C354.292 228.198 353.914 227.117 353.914 225.742C353.914 224.331 354.266 223.221 354.969 222.414C355.672 221.607 356.638 221.203 357.867 221.203C359.008 221.203 359.909 221.549 360.57 222.242C361.232 222.935 361.562 223.888 361.562 225.102V226.094H355.805C355.831 226.932 356.057 227.578 356.484 228.031C356.911 228.479 357.513 228.703 358.289 228.703C358.799 228.703 359.273 228.656 359.711 228.562C360.154 228.464 360.628 228.302 361.133 228.078V229.57C360.685 229.784 360.232 229.935 359.773 230.023C359.315 230.112 358.792 230.156 358.203 230.156ZM357.867 222.594C357.284 222.594 356.815 222.779 356.461 223.148C356.112 223.518 355.904 224.057 355.836 224.766H359.758C359.747 224.052 359.576 223.513 359.242 223.148C358.909 222.779 358.451 222.594 357.867 222.594ZM378.141 224.273C378.141 226.133 377.674 227.578 376.742 228.609C375.815 229.641 374.5 230.156 372.797 230.156C371.073 230.156 369.747 229.646 368.82 228.625C367.898 227.599 367.438 226.143 367.438 224.258C367.438 222.372 367.901 220.924 368.828 219.914C369.76 218.904 371.089 218.398 372.812 218.398C374.51 218.398 375.823 218.911 376.75 219.938C377.677 220.964 378.141 222.409 378.141 224.273ZM369.422 224.273C369.422 225.68 369.706 226.747 370.273 227.477C370.841 228.201 371.682 228.562 372.797 228.562C373.906 228.562 374.742 228.203 375.305 227.484C375.872 226.766 376.156 225.695 376.156 224.273C376.156 222.872 375.875 221.81 375.312 221.086C374.755 220.362 373.922 220 372.812 220C371.693 220 370.846 220.362 370.273 221.086C369.706 221.81 369.422 222.872 369.422 224.273ZM384.734 222.75H382.625V230H380.781V222.75H379.359V221.891L380.781 221.328V220.766C380.781 219.745 381.021 218.99 381.5 218.5C381.979 218.005 382.711 217.758 383.695 217.758C384.341 217.758 384.977 217.865 385.602 218.078L385.117 219.469C384.664 219.323 384.232 219.25 383.82 219.25C383.404 219.25 383.099 219.38 382.906 219.641C382.719 219.896 382.625 220.281 382.625 220.797V221.359H384.734V222.75ZM390.539 222.75H388.43V230H386.586V222.75H385.164V221.891L386.586 221.328V220.766C386.586 219.745 386.826 218.99 387.305 218.5C387.784 218.005 388.516 217.758 389.5 217.758C390.146 217.758 390.781 217.865 391.406 218.078L390.922 219.469C390.469 219.323 390.036 219.25 389.625 219.25C389.208 219.25 388.904 219.38 388.711 219.641C388.523 219.896 388.43 220.281 388.43 220.797V221.359H390.539V222.75Z" fill="#0A2535"/>
<rect x="438" y="203" width="148" height="86" fill="white" stroke="#68C6A4" stroke-width="2"/>
<path d="M501.805 230H499.938V220.18H496.578V218.578H505.164V220.18H501.805V230ZM508.562 230H506.727V221.359H508.562V230ZM506.617 219.07C506.617 218.742 506.706 218.49 506.883 218.312C507.065 218.135 507.323 218.047 507.656 218.047C507.979 218.047 508.229 218.135 508.406 218.312C508.589 218.49 508.68 218.742 508.68 219.07C508.68 219.383 508.589 219.63 508.406 219.812C508.229 219.99 507.979 220.078 507.656 220.078C507.323 220.078 507.065 219.99 506.883 219.812C506.706 219.63 506.617 219.383 506.617 219.07ZM515.578 230.156C514.484 230.156 513.635 229.763 513.031 228.977H512.922C512.995 229.706 513.031 230.148 513.031 230.305V233.844H511.195V221.359H512.68C512.721 221.521 512.807 221.906 512.938 222.516H513.031C513.604 221.641 514.464 221.203 515.609 221.203C516.688 221.203 517.526 221.594 518.125 222.375C518.729 223.156 519.031 224.253 519.031 225.664C519.031 227.076 518.724 228.177 518.109 228.969C517.5 229.76 516.656 230.156 515.578 230.156ZM515.133 222.703C514.404 222.703 513.87 222.917 513.531 223.344C513.198 223.771 513.031 224.453 513.031 225.391V225.664C513.031 226.716 513.198 227.479 513.531 227.953C513.865 228.422 514.409 228.656 515.164 228.656C515.799 228.656 516.289 228.396 516.633 227.875C516.977 227.354 517.148 226.612 517.148 225.648C517.148 224.68 516.977 223.948 516.633 223.453C516.294 222.953 515.794 222.703 515.133 222.703ZM526.969 227.539C526.969 228.383 526.661 229.031 526.047 229.484C525.432 229.932 524.552 230.156 523.406 230.156C522.255 230.156 521.331 229.982 520.633 229.633V228.047C521.648 228.516 522.594 228.75 523.469 228.75C524.599 228.75 525.164 228.409 525.164 227.727C525.164 227.508 525.102 227.326 524.977 227.18C524.852 227.034 524.646 226.883 524.359 226.727C524.073 226.57 523.674 226.393 523.164 226.195C522.169 225.81 521.495 225.424 521.141 225.039C520.792 224.654 520.617 224.154 520.617 223.539C520.617 222.799 520.914 222.227 521.508 221.82C522.107 221.409 522.919 221.203 523.945 221.203C524.961 221.203 525.922 221.409 526.828 221.82L526.234 223.203C525.302 222.818 524.518 222.625 523.883 222.625C522.914 222.625 522.43 222.901 522.43 223.453C522.43 223.724 522.555 223.953 522.805 224.141C523.06 224.328 523.612 224.586 524.461 224.914C525.174 225.19 525.693 225.443 526.016 225.672C526.339 225.901 526.578 226.167 526.734 226.469C526.891 226.766 526.969 227.122 526.969 227.539Z" fill="#0A2535"/>
<rect x="593" y="203" width="148" height="86" fill="white" stroke="#68C6A4" stroke-width="2"/>
<path d="M635.875 230L634.734 226.828H630.367L629.25 230H627.281L631.555 218.531H633.586L637.859 230H635.875ZM634.242 225.219L633.172 222.109C633.094 221.901 632.984 221.573 632.844 221.125C632.708 220.677 632.615 220.349 632.562 220.141C632.422 220.781 632.216 221.482 631.945 222.242L630.914 225.219H634.242ZM642.086 230.156C641.008 230.156 640.167 229.766 639.562 228.984C638.958 228.203 638.656 227.107 638.656 225.695C638.656 224.279 638.961 223.177 639.57 222.391C640.185 221.599 641.034 221.203 642.117 221.203C643.253 221.203 644.117 221.622 644.711 222.461H644.805C644.716 221.841 644.672 221.352 644.672 220.992V217.844H646.516V230H645.078L644.758 228.867H644.672C644.083 229.727 643.221 230.156 642.086 230.156ZM642.578 228.672C643.333 228.672 643.883 228.461 644.227 228.039C644.57 227.612 644.747 226.922 644.758 225.969V225.711C644.758 224.622 644.581 223.849 644.227 223.391C643.872 222.932 643.318 222.703 642.562 222.703C641.917 222.703 641.419 222.966 641.07 223.492C640.721 224.013 640.547 224.758 640.547 225.727C640.547 226.685 640.716 227.417 641.055 227.922C641.393 228.422 641.901 228.672 642.578 228.672ZM652.055 230.156C650.977 230.156 650.135 229.766 649.531 228.984C648.927 228.203 648.625 227.107 648.625 225.695C648.625 224.279 648.93 223.177 649.539 222.391C650.154 221.599 651.003 221.203 652.086 221.203C653.221 221.203 654.086 221.622 654.68 222.461H654.773C654.685 221.841 654.641 221.352 654.641 220.992V217.844H656.484V230H655.047L654.727 228.867H654.641C654.052 229.727 653.19 230.156 652.055 230.156ZM652.547 228.672C653.302 228.672 653.852 228.461 654.195 228.039C654.539 227.612 654.716 226.922 654.727 225.969V225.711C654.727 224.622 654.549 223.849 654.195 223.391C653.841 222.932 653.286 222.703 652.531 222.703C651.885 222.703 651.388 222.966 651.039 223.492C650.69 224.013 650.516 224.758 650.516 225.727C650.516 226.685 650.685 227.417 651.023 227.922C651.362 228.422 651.87 228.672 652.547 228.672ZM660.945 230H659.109V221.359H660.945V230ZM659 219.07C659 218.742 659.089 218.49 659.266 218.312C659.448 218.135 659.706 218.047 660.039 218.047C660.362 218.047 660.612 218.135 660.789 218.312C660.971 218.49 661.062 218.742 661.062 219.07C661.062 219.383 660.971 219.63 660.789 219.812C660.612 219.99 660.362 220.078 660.039 220.078C659.706 220.078 659.448 219.99 659.266 219.812C659.089 219.63 659 219.383 659 219.07ZM666.797 228.672C667.245 228.672 667.693 228.602 668.141 228.461V229.844C667.938 229.932 667.674 230.005 667.352 230.062C667.034 230.125 666.703 230.156 666.359 230.156C664.62 230.156 663.75 229.24 663.75 227.406V222.75H662.57V221.938L663.836 221.266L664.461 219.438H665.594V221.359H668.055V222.75H665.594V227.375C665.594 227.818 665.703 228.146 665.922 228.359C666.146 228.568 666.438 228.672 666.797 228.672ZM671.711 230H669.875V221.359H671.711V230ZM669.766 219.07C669.766 218.742 669.854 218.49 670.031 218.312C670.214 218.135 670.471 218.047 670.805 218.047C671.128 218.047 671.378 218.135 671.555 218.312C671.737 218.49 671.828 218.742 671.828 219.07C671.828 219.383 671.737 219.63 671.555 219.812C671.378 219.99 671.128 220.078 670.805 220.078C670.471 220.078 670.214 219.99 670.031 219.812C669.854 219.63 669.766 219.383 669.766 219.07ZM682.008 225.664C682.008 227.076 681.646 228.177 680.922 228.969C680.198 229.76 679.19 230.156 677.898 230.156C677.091 230.156 676.378 229.974 675.758 229.609C675.138 229.245 674.661 228.721 674.328 228.039C673.995 227.357 673.828 226.565 673.828 225.664C673.828 224.263 674.188 223.169 674.906 222.383C675.625 221.596 676.638 221.203 677.945 221.203C679.195 221.203 680.185 221.607 680.914 222.414C681.643 223.216 682.008 224.299 682.008 225.664ZM675.719 225.664C675.719 227.659 676.456 228.656 677.93 228.656C679.388 228.656 680.117 227.659 680.117 225.664C680.117 223.69 679.383 222.703 677.914 222.703C677.143 222.703 676.583 222.958 676.234 223.469C675.891 223.979 675.719 224.711 675.719 225.664ZM691.727 230H689.883V224.688C689.883 224.021 689.747 223.523 689.477 223.195C689.211 222.867 688.786 222.703 688.203 222.703C687.427 222.703 686.859 222.932 686.5 223.391C686.141 223.849 685.961 224.617 685.961 225.695V230H684.125V221.359H685.562L685.82 222.492H685.914C686.174 222.081 686.544 221.763 687.023 221.539C687.503 221.315 688.034 221.203 688.617 221.203C690.69 221.203 691.727 222.258 691.727 224.367V230ZM699.688 230L699.32 228.797H699.258C698.841 229.323 698.422 229.682 698 229.875C697.578 230.062 697.036 230.156 696.375 230.156C695.526 230.156 694.862 229.927 694.383 229.469C693.909 229.01 693.672 228.362 693.672 227.523C693.672 226.633 694.003 225.961 694.664 225.508C695.326 225.055 696.333 224.807 697.688 224.766L699.18 224.719V224.258C699.18 223.706 699.049 223.294 698.789 223.023C698.534 222.747 698.135 222.609 697.594 222.609C697.151 222.609 696.727 222.674 696.32 222.805C695.914 222.935 695.523 223.089 695.148 223.266L694.555 221.953C695.023 221.708 695.536 221.523 696.094 221.398C696.651 221.268 697.177 221.203 697.672 221.203C698.771 221.203 699.599 221.443 700.156 221.922C700.719 222.401 701 223.154 701 224.18V230H699.688ZM696.953 228.75C697.62 228.75 698.154 228.565 698.555 228.195C698.961 227.82 699.164 227.297 699.164 226.625V225.875L698.055 225.922C697.19 225.953 696.56 226.099 696.164 226.359C695.773 226.615 695.578 227.008 695.578 227.539C695.578 227.924 695.693 228.224 695.922 228.438C696.151 228.646 696.495 228.75 696.953 228.75ZM705.398 230H703.562V217.844H705.398V230Z" fill="#0A2535"/>
<line x1="202" y1="167.5" x2="668" y2="167.5" stroke="#0A2535"/>
<line x1="512.5" y1="288" x2="512.5" y2="323" stroke="#0A2535"/>
<line x1="667.5" y1="289" x2="667.5" y2="323" stroke="#0A2535"/>
<line x1="356.5" y1="289" x2="356.5" y2="323" stroke="#0A2535"/>
<line x1="202.5" y1="289" x2="202.5" y2="323" stroke="#0A2535"/>
<line x1="668" y1="323.5" x2="202" y2="323.5" stroke="#0A2535"/>
<path d="M170.707 252H169.723L167.994 246.264C167.912 246.01 167.82 245.689 167.719 245.303C167.617 244.916 167.564 244.684 167.561 244.605C167.475 245.121 167.338 245.686 167.15 246.299L165.475 252H164.49L162.211 243.434H163.266L164.619 248.725C164.807 249.467 164.943 250.139 165.029 250.74C165.135 250.025 165.291 249.326 165.498 248.643L167.033 243.434H168.088L169.699 248.689C169.887 249.295 170.045 249.979 170.174 250.74C170.248 250.186 170.389 249.51 170.596 248.713L171.943 243.434H172.998L170.707 252ZM179.736 248.783C179.736 249.83 179.473 250.648 178.945 251.238C178.418 251.824 177.689 252.117 176.76 252.117C176.186 252.117 175.676 251.982 175.23 251.713C174.785 251.443 174.441 251.057 174.199 250.553C173.957 250.049 173.836 249.459 173.836 248.783C173.836 247.736 174.098 246.922 174.621 246.34C175.145 245.754 175.871 245.461 176.801 245.461C177.699 245.461 178.412 245.76 178.939 246.357C179.471 246.955 179.736 247.764 179.736 248.783ZM174.844 248.783C174.844 249.604 175.008 250.229 175.336 250.658C175.664 251.088 176.146 251.303 176.783 251.303C177.42 251.303 177.902 251.09 178.23 250.664C178.562 250.234 178.729 249.607 178.729 248.783C178.729 247.967 178.562 247.348 178.23 246.926C177.902 246.5 177.416 246.287 176.771 246.287C176.135 246.287 175.654 246.496 175.33 246.914C175.006 247.332 174.844 247.955 174.844 248.783ZM184.377 245.461C184.662 245.461 184.918 245.484 185.145 245.531L185.01 246.434C184.744 246.375 184.51 246.346 184.307 246.346C183.787 246.346 183.342 246.557 182.971 246.979C182.604 247.4 182.42 247.926 182.42 248.555V252H181.447V245.578H182.25L182.361 246.768H182.408C182.646 246.35 182.934 246.027 183.27 245.801C183.605 245.574 183.975 245.461 184.377 245.461ZM187.307 248.713C187.475 248.475 187.73 248.162 188.074 247.775L190.148 245.578H191.303L188.701 248.314L191.484 252H190.307L188.039 248.965L187.307 249.598V252H186.346V242.883H187.307V247.717C187.307 247.932 187.291 248.264 187.26 248.713H187.307ZM195.363 252.117C194.414 252.117 193.664 251.828 193.113 251.25C192.566 250.672 192.293 249.869 192.293 248.842C192.293 247.807 192.547 246.984 193.055 246.375C193.566 245.766 194.252 245.461 195.111 245.461C195.916 245.461 196.553 245.727 197.021 246.258C197.49 246.785 197.725 247.482 197.725 248.35V248.965H193.301C193.32 249.719 193.51 250.291 193.869 250.682C194.232 251.072 194.742 251.268 195.398 251.268C196.09 251.268 196.773 251.123 197.449 250.834V251.701C197.105 251.85 196.779 251.955 196.471 252.018C196.166 252.084 195.797 252.117 195.363 252.117ZM195.1 246.275C194.584 246.275 194.172 246.443 193.863 246.779C193.559 247.115 193.379 247.58 193.324 248.174H196.682C196.682 247.561 196.545 247.092 196.271 246.768C195.998 246.439 195.607 246.275 195.1 246.275ZM203.76 251.139H203.707C203.258 251.791 202.586 252.117 201.691 252.117C200.852 252.117 200.197 251.83 199.729 251.256C199.264 250.682 199.031 249.865 199.031 248.807C199.031 247.748 199.266 246.926 199.734 246.34C200.203 245.754 200.855 245.461 201.691 245.461C202.562 245.461 203.23 245.777 203.695 246.41H203.771L203.73 245.947L203.707 245.496V242.883H204.68V252H203.889L203.76 251.139ZM201.814 251.303C202.479 251.303 202.959 251.123 203.256 250.764C203.557 250.4 203.707 249.816 203.707 249.012V248.807C203.707 247.896 203.555 247.248 203.25 246.861C202.949 246.471 202.467 246.275 201.803 246.275C201.232 246.275 200.795 246.498 200.49 246.943C200.189 247.385 200.039 248.01 200.039 248.818C200.039 249.639 200.189 250.258 200.49 250.676C200.791 251.094 201.232 251.303 201.814 251.303ZM216.516 252H215.52V247.969H211.008V252H210.012V243.434H211.008V247.078H215.52V243.434H216.516V252ZM224.268 248.783C224.268 249.83 224.004 250.648 223.477 251.238C222.949 251.824 222.221 252.117 221.291 252.117C220.717 252.117 220.207 251.982 219.762 251.713C219.316 251.443 218.973 251.057 218.73 250.553C218.488 250.049 218.367 249.459 218.367 248.783C218.367 247.736 218.629 246.922 219.152 246.34C219.676 245.754 220.402 245.461 221.332 245.461C222.23 245.461 222.943 245.76 223.471 246.357C224.002 246.955 224.268 247.764 224.268 248.783ZM219.375 248.783C219.375 249.604 219.539 250.229 219.867 250.658C220.195 251.088 220.678 251.303 221.314 251.303C221.951 251.303 222.434 251.09 222.762 250.664C223.094 250.234 223.26 249.607 223.26 248.783C223.26 247.967 223.094 247.348 222.762 246.926C222.434 246.5 221.947 246.287 221.303 246.287C220.666 246.287 220.186 246.496 219.861 246.914C219.537 247.332 219.375 247.955 219.375 248.783ZM226.893 245.578V249.744C226.893 250.268 227.012 250.658 227.25 250.916C227.488 251.174 227.861 251.303 228.369 251.303C229.041 251.303 229.531 251.119 229.84 250.752C230.152 250.385 230.309 249.785 230.309 248.953V245.578H231.281V252H230.479L230.338 251.139H230.285C230.086 251.455 229.809 251.697 229.453 251.865C229.102 252.033 228.699 252.117 228.246 252.117C227.465 252.117 226.879 251.932 226.488 251.561C226.102 251.189 225.908 250.596 225.908 249.779V245.578H226.893ZM236.279 245.461C236.564 245.461 236.82 245.484 237.047 245.531L236.912 246.434C236.646 246.375 236.412 246.346 236.209 246.346C235.689 246.346 235.244 246.557 234.873 246.979C234.506 247.4 234.322 247.926 234.322 248.555V252H233.35V245.578H234.152L234.264 246.768H234.311C234.549 246.35 234.836 246.027 235.172 245.801C235.508 245.574 235.877 245.461 236.279 245.461ZM242.391 250.248C242.391 250.846 242.168 251.307 241.723 251.631C241.277 251.955 240.652 252.117 239.848 252.117C238.996 252.117 238.332 251.982 237.855 251.713V250.811C238.164 250.967 238.494 251.09 238.846 251.18C239.201 251.27 239.543 251.314 239.871 251.314C240.379 251.314 240.77 251.234 241.043 251.074C241.316 250.91 241.453 250.662 241.453 250.33C241.453 250.08 241.344 249.867 241.125 249.691C240.91 249.512 240.488 249.301 239.859 249.059C239.262 248.836 238.836 248.643 238.582 248.479C238.332 248.311 238.145 248.121 238.02 247.91C237.898 247.699 237.838 247.447 237.838 247.154C237.838 246.631 238.051 246.219 238.477 245.918C238.902 245.613 239.486 245.461 240.229 245.461C240.92 245.461 241.596 245.602 242.256 245.883L241.91 246.674C241.266 246.408 240.682 246.275 240.158 246.275C239.697 246.275 239.35 246.348 239.115 246.492C238.881 246.637 238.764 246.836 238.764 247.09C238.764 247.262 238.807 247.408 238.893 247.529C238.982 247.65 239.125 247.766 239.32 247.875C239.516 247.984 239.891 248.143 240.445 248.35C241.207 248.627 241.721 248.906 241.986 249.188C242.256 249.469 242.391 249.822 242.391 250.248Z" fill="#0A2535"/>
<path d="M169.182 266.201C168.24 266.201 167.496 266.516 166.949 267.145C166.406 267.77 166.135 268.627 166.135 269.717C166.135 270.838 166.396 271.705 166.92 272.318C167.447 272.928 168.197 273.232 169.17 273.232C169.768 273.232 170.449 273.125 171.215 272.91V273.783C170.621 274.006 169.889 274.117 169.018 274.117C167.756 274.117 166.781 273.734 166.094 272.969C165.41 272.203 165.068 271.115 165.068 269.705C165.068 268.822 165.232 268.049 165.561 267.385C165.893 266.721 166.369 266.209 166.99 265.85C167.615 265.49 168.35 265.311 169.193 265.311C170.092 265.311 170.877 265.475 171.549 265.803L171.127 266.658C170.479 266.354 169.83 266.201 169.182 266.201ZM173.91 274H172.938V264.883H173.91V274ZM181.516 270.783C181.516 271.83 181.252 272.648 180.725 273.238C180.197 273.824 179.469 274.117 178.539 274.117C177.965 274.117 177.455 273.982 177.01 273.713C176.564 273.443 176.221 273.057 175.979 272.553C175.736 272.049 175.615 271.459 175.615 270.783C175.615 269.736 175.877 268.922 176.4 268.34C176.924 267.754 177.65 267.461 178.58 267.461C179.479 267.461 180.191 267.76 180.719 268.357C181.25 268.955 181.516 269.764 181.516 270.783ZM176.623 270.783C176.623 271.604 176.787 272.229 177.115 272.658C177.443 273.088 177.926 273.303 178.562 273.303C179.199 273.303 179.682 273.09 180.01 272.664C180.342 272.234 180.508 271.607 180.508 270.783C180.508 269.967 180.342 269.348 180.01 268.926C179.682 268.5 179.195 268.287 178.551 268.287C177.914 268.287 177.434 268.496 177.109 268.914C176.785 269.332 176.623 269.955 176.623 270.783ZM185.793 274.117C184.863 274.117 184.143 273.832 183.631 273.262C183.123 272.688 182.869 271.877 182.869 270.83C182.869 269.756 183.127 268.926 183.643 268.34C184.162 267.754 184.9 267.461 185.857 267.461C186.166 267.461 186.475 267.494 186.783 267.561C187.092 267.627 187.334 267.705 187.51 267.795L187.211 268.621C186.996 268.535 186.762 268.465 186.508 268.41C186.254 268.352 186.029 268.322 185.834 268.322C184.529 268.322 183.877 269.154 183.877 270.818C183.877 271.607 184.035 272.213 184.352 272.635C184.672 273.057 185.145 273.268 185.77 273.268C186.305 273.268 186.854 273.152 187.416 272.922V273.783C186.986 274.006 186.445 274.117 185.793 274.117ZM189.906 270.713C190.074 270.475 190.33 270.162 190.674 269.775L192.748 267.578H193.902L191.301 270.314L194.084 274H192.906L190.639 270.965L189.906 271.598V274H188.945V264.883H189.906V269.717C189.906 269.932 189.891 270.264 189.859 270.713H189.906ZM198.514 274V265.434H199.51V274H198.514ZM206.113 274V269.846C206.113 269.322 205.994 268.932 205.756 268.674C205.518 268.416 205.145 268.287 204.637 268.287C203.965 268.287 203.473 268.469 203.16 268.832C202.848 269.195 202.691 269.795 202.691 270.631V274H201.719V267.578H202.51L202.668 268.457H202.715C202.914 268.141 203.193 267.896 203.553 267.725C203.912 267.549 204.312 267.461 204.754 267.461C205.527 267.461 206.109 267.648 206.5 268.023C206.891 268.395 207.086 268.99 207.086 269.811V274H206.113ZM215.459 265.434L212.266 274H211.293L214.486 265.434H215.459ZM227.312 269.705C227.312 271.076 226.965 272.154 226.27 272.939C225.578 273.725 224.615 274.117 223.381 274.117C222.119 274.117 221.145 273.732 220.457 272.963C219.773 272.189 219.432 271.1 219.432 269.693C219.432 268.299 219.775 267.219 220.463 266.453C221.15 265.684 222.127 265.299 223.393 265.299C224.623 265.299 225.584 265.689 226.275 266.471C226.967 267.252 227.312 268.33 227.312 269.705ZM220.486 269.705C220.486 270.865 220.732 271.746 221.225 272.348C221.721 272.945 222.439 273.244 223.381 273.244C224.33 273.244 225.047 272.945 225.531 272.348C226.016 271.75 226.258 270.869 226.258 269.705C226.258 268.553 226.016 267.68 225.531 267.086C225.051 266.488 224.338 266.189 223.393 266.189C222.443 266.189 221.721 266.49 221.225 267.092C220.732 267.689 220.486 268.561 220.486 269.705ZM229.996 267.578V271.744C229.996 272.268 230.115 272.658 230.354 272.916C230.592 273.174 230.965 273.303 231.473 273.303C232.145 273.303 232.635 273.119 232.943 272.752C233.256 272.385 233.412 271.785 233.412 270.953V267.578H234.385V274H233.582L233.441 273.139H233.389C233.189 273.455 232.912 273.697 232.557 273.865C232.205 274.033 231.803 274.117 231.35 274.117C230.568 274.117 229.982 273.932 229.592 273.561C229.205 273.189 229.012 272.596 229.012 271.779V267.578H229.996ZM238.527 273.314C238.699 273.314 238.865 273.303 239.025 273.279C239.186 273.252 239.312 273.225 239.406 273.197V273.941C239.301 273.992 239.145 274.033 238.938 274.064C238.734 274.1 238.551 274.117 238.387 274.117C237.145 274.117 236.523 273.463 236.523 272.154V268.334H235.604V267.865L236.523 267.461L236.934 266.09H237.496V267.578H239.359V268.334H237.496V272.113C237.496 272.5 237.588 272.797 237.771 273.004C237.955 273.211 238.207 273.314 238.527 273.314Z" fill="#0A2535"/>
<path d="M339.506 243.434H340.578L337.49 252H336.506L333.436 243.434H334.49L336.459 248.977C336.686 249.613 336.865 250.232 336.998 250.834C337.139 250.201 337.322 249.57 337.549 248.941L339.506 243.434ZM345.564 252L345.371 251.086H345.324C345.004 251.488 344.684 251.762 344.363 251.906C344.047 252.047 343.65 252.117 343.174 252.117C342.537 252.117 342.037 251.953 341.674 251.625C341.314 251.297 341.135 250.83 341.135 250.225C341.135 248.928 342.172 248.248 344.246 248.186L345.336 248.15V247.752C345.336 247.248 345.227 246.877 345.008 246.639C344.793 246.396 344.447 246.275 343.971 246.275C343.436 246.275 342.83 246.439 342.154 246.768L341.855 246.023C342.172 245.852 342.518 245.717 342.893 245.619C343.271 245.521 343.65 245.473 344.029 245.473C344.795 245.473 345.361 245.643 345.729 245.982C346.1 246.322 346.285 246.867 346.285 247.617V252H345.564ZM343.367 251.314C343.973 251.314 344.447 251.148 344.791 250.816C345.139 250.484 345.312 250.02 345.312 249.422V248.842L344.34 248.883C343.566 248.91 343.008 249.031 342.664 249.246C342.324 249.457 342.154 249.787 342.154 250.236C342.154 250.588 342.26 250.855 342.471 251.039C342.686 251.223 342.984 251.314 343.367 251.314ZM350.861 252.117C349.932 252.117 349.211 251.832 348.699 251.262C348.191 250.688 347.938 249.877 347.938 248.83C347.938 247.756 348.195 246.926 348.711 246.34C349.23 245.754 349.969 245.461 350.926 245.461C351.234 245.461 351.543 245.494 351.852 245.561C352.16 245.627 352.402 245.705 352.578 245.795L352.279 246.621C352.064 246.535 351.83 246.465 351.576 246.41C351.322 246.352 351.098 246.322 350.902 246.322C349.598 246.322 348.945 247.154 348.945 248.818C348.945 249.607 349.104 250.213 349.42 250.635C349.74 251.057 350.213 251.268 350.838 251.268C351.373 251.268 351.922 251.152 352.484 250.922V251.783C352.055 252.006 351.514 252.117 350.861 252.117ZM357.963 252L357.77 251.086H357.723C357.402 251.488 357.082 251.762 356.762 251.906C356.445 252.047 356.049 252.117 355.572 252.117C354.936 252.117 354.436 251.953 354.072 251.625C353.713 251.297 353.533 250.83 353.533 250.225C353.533 248.928 354.57 248.248 356.645 248.186L357.734 248.15V247.752C357.734 247.248 357.625 246.877 357.406 246.639C357.191 246.396 356.846 246.275 356.369 246.275C355.834 246.275 355.229 246.439 354.553 246.768L354.254 246.023C354.57 245.852 354.916 245.717 355.291 245.619C355.67 245.521 356.049 245.473 356.428 245.473C357.193 245.473 357.76 245.643 358.127 245.982C358.498 246.322 358.684 246.867 358.684 247.617V252H357.963ZM355.766 251.314C356.371 251.314 356.846 251.148 357.189 250.816C357.537 250.484 357.711 250.02 357.711 249.422V248.842L356.738 248.883C355.965 248.91 355.406 249.031 355.062 249.246C354.723 249.457 354.553 249.787 354.553 250.236C354.553 250.588 354.658 250.855 354.869 251.039C355.084 251.223 355.383 251.314 355.766 251.314ZM362.768 251.314C362.939 251.314 363.105 251.303 363.266 251.279C363.426 251.252 363.553 251.225 363.646 251.197V251.941C363.541 251.992 363.385 252.033 363.178 252.064C362.975 252.1 362.791 252.117 362.627 252.117C361.385 252.117 360.764 251.463 360.764 250.154V246.334H359.844V245.865L360.764 245.461L361.174 244.09H361.736V245.578H363.6V246.334H361.736V250.113C361.736 250.5 361.828 250.797 362.012 251.004C362.195 251.211 362.447 251.314 362.768 251.314ZM365.908 252H364.936V245.578H365.908V252ZM364.854 243.838C364.854 243.615 364.908 243.453 365.018 243.352C365.127 243.246 365.264 243.193 365.428 243.193C365.584 243.193 365.719 243.246 365.832 243.352C365.945 243.457 366.002 243.619 366.002 243.838C366.002 244.057 365.945 244.221 365.832 244.33C365.719 244.436 365.584 244.488 365.428 244.488C365.264 244.488 365.127 244.436 365.018 244.33C364.908 244.221 364.854 244.057 364.854 243.838ZM373.514 248.783C373.514 249.83 373.25 250.648 372.723 251.238C372.195 251.824 371.467 252.117 370.537 252.117C369.963 252.117 369.453 251.982 369.008 251.713C368.562 251.443 368.219 251.057 367.977 250.553C367.734 250.049 367.613 249.459 367.613 248.783C367.613 247.736 367.875 246.922 368.398 246.34C368.922 245.754 369.648 245.461 370.578 245.461C371.477 245.461 372.189 245.76 372.717 246.357C373.248 246.955 373.514 247.764 373.514 248.783ZM368.621 248.783C368.621 249.604 368.785 250.229 369.113 250.658C369.441 251.088 369.924 251.303 370.561 251.303C371.197 251.303 371.68 251.09 372.008 250.664C372.34 250.234 372.506 249.607 372.506 248.783C372.506 247.967 372.34 247.348 372.008 246.926C371.68 246.5 371.193 246.287 370.549 246.287C369.912 246.287 369.432 246.496 369.107 246.914C368.783 247.332 368.621 247.955 368.621 248.783ZM379.619 252V247.846C379.619 247.322 379.5 246.932 379.262 246.674C379.023 246.416 378.65 246.287 378.143 246.287C377.471 246.287 376.979 246.469 376.666 246.832C376.354 247.195 376.197 247.795 376.197 248.631V252H375.225V245.578H376.016L376.174 246.457H376.221C376.42 246.141 376.699 245.896 377.059 245.725C377.418 245.549 377.818 245.461 378.26 245.461C379.033 245.461 379.615 245.648 380.006 246.023C380.396 246.395 380.592 246.99 380.592 247.811V252H379.619Z" fill="#0A2535"/>
<path d="M352.189 271.721C352.189 272.475 351.916 273.062 351.369 273.484C350.822 273.906 350.08 274.117 349.143 274.117C348.127 274.117 347.346 273.986 346.799 273.725V272.764C347.15 272.912 347.533 273.029 347.947 273.115C348.361 273.201 348.771 273.244 349.178 273.244C349.842 273.244 350.342 273.119 350.678 272.869C351.014 272.615 351.182 272.264 351.182 271.814C351.182 271.518 351.121 271.275 351 271.088C350.883 270.896 350.684 270.721 350.402 270.561C350.125 270.4 349.701 270.219 349.131 270.016C348.334 269.73 347.764 269.393 347.42 269.002C347.08 268.611 346.91 268.102 346.91 267.473C346.91 266.812 347.158 266.287 347.654 265.896C348.15 265.506 348.807 265.311 349.623 265.311C350.475 265.311 351.258 265.467 351.973 265.779L351.662 266.646C350.955 266.35 350.268 266.201 349.6 266.201C349.072 266.201 348.66 266.314 348.363 266.541C348.066 266.768 347.918 267.082 347.918 267.484C347.918 267.781 347.973 268.025 348.082 268.217C348.191 268.404 348.375 268.578 348.633 268.738C348.895 268.895 349.293 269.068 349.828 269.26C350.727 269.58 351.344 269.924 351.68 270.291C352.02 270.658 352.189 271.135 352.189 271.721ZM354.768 274H353.795V267.578H354.768V274ZM353.713 265.838C353.713 265.615 353.768 265.453 353.877 265.352C353.986 265.246 354.123 265.193 354.287 265.193C354.443 265.193 354.578 265.246 354.691 265.352C354.805 265.457 354.861 265.619 354.861 265.838C354.861 266.057 354.805 266.221 354.691 266.33C354.578 266.436 354.443 266.488 354.287 266.488C354.123 266.488 353.986 266.436 353.877 266.33C353.768 266.221 353.713 266.057 353.713 265.838ZM359.396 274.117C358.467 274.117 357.746 273.832 357.234 273.262C356.727 272.688 356.473 271.877 356.473 270.83C356.473 269.756 356.73 268.926 357.246 268.34C357.766 267.754 358.504 267.461 359.461 267.461C359.77 267.461 360.078 267.494 360.387 267.561C360.695 267.627 360.938 267.705 361.113 267.795L360.814 268.621C360.6 268.535 360.365 268.465 360.111 268.41C359.857 268.352 359.633 268.322 359.438 268.322C358.133 268.322 357.48 269.154 357.48 270.818C357.48 271.607 357.639 272.213 357.955 272.635C358.275 273.057 358.748 273.268 359.373 273.268C359.908 273.268 360.457 273.152 361.02 272.922V273.783C360.59 274.006 360.049 274.117 359.396 274.117ZM363.51 270.713C363.678 270.475 363.934 270.162 364.277 269.775L366.352 267.578H367.506L364.904 270.314L367.688 274H366.51L364.242 270.965L363.51 271.598V274H362.549V264.883H363.51V269.717C363.51 269.932 363.494 270.264 363.463 270.713H363.51Z" fill="#0A2535"/>
<path d="M485.111 244.201C484.17 244.201 483.426 244.516 482.879 245.145C482.336 245.77 482.064 246.627 482.064 247.717C482.064 248.838 482.326 249.705 482.85 250.318C483.377 250.928 484.127 251.232 485.1 251.232C485.697 251.232 486.379 251.125 487.145 250.91V251.783C486.551 252.006 485.818 252.117 484.947 252.117C483.686 252.117 482.711 251.734 482.023 250.969C481.34 250.203 480.998 249.115 480.998 247.705C480.998 246.822 481.162 246.049 481.49 245.385C481.822 244.721 482.299 244.209 482.92 243.85C483.545 243.49 484.279 243.311 485.123 243.311C486.021 243.311 486.807 243.475 487.479 243.803L487.057 244.658C486.408 244.354 485.76 244.201 485.111 244.201ZM491.797 245.461C492.082 245.461 492.338 245.484 492.564 245.531L492.43 246.434C492.164 246.375 491.93 246.346 491.727 246.346C491.207 246.346 490.762 246.557 490.391 246.979C490.023 247.4 489.84 247.926 489.84 248.555V252H488.867V245.578H489.67L489.781 246.768H489.828C490.066 246.35 490.354 246.027 490.689 245.801C491.025 245.574 491.395 245.461 491.797 245.461ZM496.479 252.117C495.529 252.117 494.779 251.828 494.229 251.25C493.682 250.672 493.408 249.869 493.408 248.842C493.408 247.807 493.662 246.984 494.17 246.375C494.682 245.766 495.367 245.461 496.227 245.461C497.031 245.461 497.668 245.727 498.137 246.258C498.605 246.785 498.84 247.482 498.84 248.35V248.965H494.416C494.436 249.719 494.625 250.291 494.984 250.682C495.348 251.072 495.857 251.268 496.514 251.268C497.205 251.268 497.889 251.123 498.564 250.834V251.701C498.221 251.85 497.895 251.955 497.586 252.018C497.281 252.084 496.912 252.117 496.479 252.117ZM496.215 246.275C495.699 246.275 495.287 246.443 494.979 246.779C494.674 247.115 494.494 247.58 494.439 248.174H497.797C497.797 247.561 497.66 247.092 497.387 246.768C497.113 246.439 496.723 246.275 496.215 246.275ZM504.875 251.139H504.822C504.373 251.791 503.701 252.117 502.807 252.117C501.967 252.117 501.312 251.83 500.844 251.256C500.379 250.682 500.146 249.865 500.146 248.807C500.146 247.748 500.381 246.926 500.85 246.34C501.318 245.754 501.971 245.461 502.807 245.461C503.678 245.461 504.346 245.777 504.811 246.41H504.887L504.846 245.947L504.822 245.496V242.883H505.795V252H505.004L504.875 251.139ZM502.93 251.303C503.594 251.303 504.074 251.123 504.371 250.764C504.672 250.4 504.822 249.816 504.822 249.012V248.807C504.822 247.896 504.67 247.248 504.365 246.861C504.064 246.471 503.582 246.275 502.918 246.275C502.348 246.275 501.91 246.498 501.605 246.943C501.305 247.385 501.154 248.01 501.154 248.818C501.154 249.639 501.305 250.258 501.605 250.676C501.906 251.094 502.348 251.303 502.93 251.303ZM508.836 252H507.863V245.578H508.836V252ZM507.781 243.838C507.781 243.615 507.836 243.453 507.945 243.352C508.055 243.246 508.191 243.193 508.355 243.193C508.512 243.193 508.646 243.246 508.76 243.352C508.873 243.457 508.93 243.619 508.93 243.838C508.93 244.057 508.873 244.221 508.76 244.33C508.646 244.436 508.512 244.488 508.355 244.488C508.191 244.488 508.055 244.436 507.945 244.33C507.836 244.221 507.781 244.057 507.781 243.838ZM512.973 251.314C513.145 251.314 513.311 251.303 513.471 251.279C513.631 251.252 513.758 251.225 513.852 251.197V251.941C513.746 251.992 513.59 252.033 513.383 252.064C513.18 252.1 512.996 252.117 512.832 252.117C511.59 252.117 510.969 251.463 510.969 250.154V246.334H510.049V245.865L510.969 245.461L511.379 244.09H511.941V245.578H513.805V246.334H511.941V250.113C511.941 250.5 512.033 250.797 512.217 251.004C512.4 251.211 512.652 251.314 512.973 251.314ZM522.072 244.201C521.131 244.201 520.387 244.516 519.84 245.145C519.297 245.77 519.025 246.627 519.025 247.717C519.025 248.838 519.287 249.705 519.811 250.318C520.338 250.928 521.088 251.232 522.061 251.232C522.658 251.232 523.34 251.125 524.105 250.91V251.783C523.512 252.006 522.779 252.117 521.908 252.117C520.646 252.117 519.672 251.734 518.984 250.969C518.301 250.203 517.959 249.115 517.959 247.705C517.959 246.822 518.123 246.049 518.451 245.385C518.783 244.721 519.26 244.209 519.881 243.85C520.506 243.49 521.24 243.311 522.084 243.311C522.982 243.311 523.768 243.475 524.439 243.803L524.018 244.658C523.369 244.354 522.721 244.201 522.072 244.201ZM529.777 252L529.584 251.086H529.537C529.217 251.488 528.896 251.762 528.576 251.906C528.26 252.047 527.863 252.117 527.387 252.117C526.75 252.117 526.25 251.953 525.887 251.625C525.527 251.297 525.348 250.83 525.348 250.225C525.348 248.928 526.385 248.248 528.459 248.186L529.549 248.15V247.752C529.549 247.248 529.439 246.877 529.221 246.639C529.006 246.396 528.66 246.275 528.184 246.275C527.648 246.275 527.043 246.439 526.367 246.768L526.068 246.023C526.385 245.852 526.73 245.717 527.105 245.619C527.484 245.521 527.863 245.473 528.242 245.473C529.008 245.473 529.574 245.643 529.941 245.982C530.312 246.322 530.498 246.867 530.498 247.617V252H529.777ZM527.58 251.314C528.186 251.314 528.66 251.148 529.004 250.816C529.352 250.484 529.525 250.02 529.525 249.422V248.842L528.553 248.883C527.779 248.91 527.221 249.031 526.877 249.246C526.537 249.457 526.367 249.787 526.367 250.236C526.367 250.588 526.473 250.855 526.684 251.039C526.898 251.223 527.197 251.314 527.58 251.314ZM535.438 245.461C535.723 245.461 535.979 245.484 536.205 245.531L536.07 246.434C535.805 246.375 535.57 246.346 535.367 246.346C534.848 246.346 534.402 246.557 534.031 246.979C533.664 247.4 533.48 247.926 533.48 248.555V252H532.508V245.578H533.311L533.422 246.768H533.469C533.707 246.35 533.994 246.027 534.33 245.801C534.666 245.574 535.035 245.461 535.438 245.461ZM541.777 251.139H541.725C541.275 251.791 540.604 252.117 539.709 252.117C538.869 252.117 538.215 251.83 537.746 251.256C537.281 250.682 537.049 249.865 537.049 248.807C537.049 247.748 537.283 246.926 537.752 246.34C538.221 245.754 538.873 245.461 539.709 245.461C540.58 245.461 541.248 245.777 541.713 246.41H541.789L541.748 245.947L541.725 245.496V242.883H542.697V252H541.906L541.777 251.139ZM539.832 251.303C540.496 251.303 540.977 251.123 541.273 250.764C541.574 250.4 541.725 249.816 541.725 249.012V248.807C541.725 247.896 541.572 247.248 541.268 246.861C540.967 246.471 540.484 246.275 539.82 246.275C539.25 246.275 538.812 246.498 538.508 246.943C538.207 247.385 538.057 248.01 538.057 248.818C538.057 249.639 538.207 250.258 538.508 250.676C538.809 251.094 539.25 251.303 539.832 251.303Z" fill="#0A2535"/>
<path d="M503.17 266.201C502.229 266.201 501.484 266.516 500.938 267.145C500.395 267.77 500.123 268.627 500.123 269.717C500.123 270.838 500.385 271.705 500.908 272.318C501.436 272.928 502.186 273.232 503.158 273.232C503.756 273.232 504.438 273.125 505.203 272.91V273.783C504.609 274.006 503.877 274.117 503.006 274.117C501.744 274.117 500.77 273.734 500.082 272.969C499.398 272.203 499.057 271.115 499.057 269.705C499.057 268.822 499.221 268.049 499.549 267.385C499.881 266.721 500.357 266.209 500.979 265.85C501.604 265.49 502.338 265.311 503.182 265.311C504.08 265.311 504.865 265.475 505.537 265.803L505.115 266.658C504.467 266.354 503.818 266.201 503.17 266.201ZM510.875 274L510.682 273.086H510.635C510.314 273.488 509.994 273.762 509.674 273.906C509.357 274.047 508.961 274.117 508.484 274.117C507.848 274.117 507.348 273.953 506.984 273.625C506.625 273.297 506.445 272.83 506.445 272.225C506.445 270.928 507.482 270.248 509.557 270.186L510.646 270.15V269.752C510.646 269.248 510.537 268.877 510.318 268.639C510.104 268.396 509.758 268.275 509.281 268.275C508.746 268.275 508.141 268.439 507.465 268.768L507.166 268.023C507.482 267.852 507.828 267.717 508.203 267.619C508.582 267.521 508.961 267.473 509.34 267.473C510.105 267.473 510.672 267.643 511.039 267.982C511.41 268.322 511.596 268.867 511.596 269.617V274H510.875ZM508.678 273.314C509.283 273.314 509.758 273.148 510.102 272.816C510.449 272.484 510.623 272.02 510.623 271.422V270.842L509.65 270.883C508.877 270.91 508.318 271.031 507.975 271.246C507.635 271.457 507.465 271.787 507.465 272.236C507.465 272.588 507.57 272.855 507.781 273.039C507.996 273.223 508.295 273.314 508.678 273.314ZM517.748 272.248C517.748 272.846 517.525 273.307 517.08 273.631C516.635 273.955 516.01 274.117 515.205 274.117C514.354 274.117 513.689 273.982 513.213 273.713V272.811C513.521 272.967 513.852 273.09 514.203 273.18C514.559 273.27 514.9 273.314 515.229 273.314C515.736 273.314 516.127 273.234 516.4 273.074C516.674 272.91 516.811 272.662 516.811 272.33C516.811 272.08 516.701 271.867 516.482 271.691C516.268 271.512 515.846 271.301 515.217 271.059C514.619 270.836 514.193 270.643 513.939 270.479C513.689 270.311 513.502 270.121 513.377 269.91C513.256 269.699 513.195 269.447 513.195 269.154C513.195 268.631 513.408 268.219 513.834 267.918C514.26 267.613 514.844 267.461 515.586 267.461C516.277 267.461 516.953 267.602 517.613 267.883L517.268 268.674C516.623 268.408 516.039 268.275 515.516 268.275C515.055 268.275 514.707 268.348 514.473 268.492C514.238 268.637 514.121 268.836 514.121 269.09C514.121 269.262 514.164 269.408 514.25 269.529C514.34 269.65 514.482 269.766 514.678 269.875C514.873 269.984 515.248 270.143 515.803 270.35C516.564 270.627 517.078 270.906 517.344 271.188C517.613 271.469 517.748 271.822 517.748 272.248ZM523.73 274V269.846C523.73 269.322 523.611 268.932 523.373 268.674C523.135 268.416 522.762 268.287 522.254 268.287C521.578 268.287 521.084 268.471 520.771 268.838C520.463 269.205 520.309 269.807 520.309 270.643V274H519.336V264.883H520.309V267.643C520.309 267.975 520.293 268.25 520.262 268.469H520.32C520.512 268.16 520.783 267.918 521.135 267.742C521.49 267.562 521.895 267.473 522.348 267.473C523.133 267.473 523.721 267.66 524.111 268.035C524.506 268.406 524.703 268.998 524.703 269.811V274H523.73Z" fill="#0A2535"/>
<path d="M644.189 243.434H646.609C647.746 243.434 648.568 243.604 649.076 243.943C649.584 244.283 649.838 244.82 649.838 245.555C649.838 246.062 649.695 246.482 649.41 246.814C649.129 247.143 648.717 247.355 648.174 247.453V247.512C649.475 247.734 650.125 248.418 650.125 249.562C650.125 250.328 649.865 250.926 649.346 251.355C648.83 251.785 648.107 252 647.178 252H644.189V243.434ZM645.186 247.102H646.826C647.529 247.102 648.035 246.992 648.344 246.773C648.652 246.551 648.807 246.178 648.807 245.654C648.807 245.174 648.635 244.828 648.291 244.617C647.947 244.402 647.4 244.295 646.65 244.295H645.186V247.102ZM645.186 247.945V251.15H646.973C647.664 251.15 648.184 251.018 648.531 250.752C648.883 250.482 649.059 250.062 649.059 249.492C649.059 248.961 648.879 248.57 648.52 248.32C648.164 248.07 647.621 247.945 646.891 247.945H645.186ZM657.367 248.783C657.367 249.83 657.104 250.648 656.576 251.238C656.049 251.824 655.32 252.117 654.391 252.117C653.816 252.117 653.307 251.982 652.861 251.713C652.416 251.443 652.072 251.057 651.83 250.553C651.588 250.049 651.467 249.459 651.467 248.783C651.467 247.736 651.729 246.922 652.252 246.34C652.775 245.754 653.502 245.461 654.432 245.461C655.33 245.461 656.043 245.76 656.57 246.357C657.102 246.955 657.367 247.764 657.367 248.783ZM652.475 248.783C652.475 249.604 652.639 250.229 652.967 250.658C653.295 251.088 653.777 251.303 654.414 251.303C655.051 251.303 655.533 251.09 655.861 250.664C656.193 250.234 656.359 249.607 656.359 248.783C656.359 247.967 656.193 247.348 655.861 246.926C655.533 246.5 655.047 246.287 654.402 246.287C653.766 246.287 653.285 246.496 652.961 246.914C652.637 247.332 652.475 247.955 652.475 248.783ZM663.473 252V247.846C663.473 247.322 663.354 246.932 663.115 246.674C662.877 246.416 662.504 246.287 661.996 246.287C661.324 246.287 660.832 246.469 660.52 246.832C660.207 247.195 660.051 247.795 660.051 248.631V252H659.078V245.578H659.869L660.027 246.457H660.074C660.273 246.141 660.553 245.896 660.912 245.725C661.271 245.549 661.672 245.461 662.113 245.461C662.887 245.461 663.469 245.648 663.859 246.023C664.25 246.395 664.445 246.99 664.445 247.811V252H663.473ZM667.363 245.578V249.744C667.363 250.268 667.482 250.658 667.721 250.916C667.959 251.174 668.332 251.303 668.84 251.303C669.512 251.303 670.002 251.119 670.311 250.752C670.623 250.385 670.779 249.785 670.779 248.953V245.578H671.752V252H670.949L670.809 251.139H670.756C670.557 251.455 670.279 251.697 669.924 251.865C669.572 252.033 669.17 252.117 668.717 252.117C667.936 252.117 667.35 251.932 666.959 251.561C666.572 251.189 666.379 250.596 666.379 249.779V245.578H667.363ZM677.963 250.248C677.963 250.846 677.74 251.307 677.295 251.631C676.85 251.955 676.225 252.117 675.42 252.117C674.568 252.117 673.904 251.982 673.428 251.713V250.811C673.736 250.967 674.066 251.09 674.418 251.18C674.773 251.27 675.115 251.314 675.443 251.314C675.951 251.314 676.342 251.234 676.615 251.074C676.889 250.91 677.025 250.662 677.025 250.33C677.025 250.08 676.916 249.867 676.697 249.691C676.482 249.512 676.061 249.301 675.432 249.059C674.834 248.836 674.408 248.643 674.154 248.479C673.904 248.311 673.717 248.121 673.592 247.91C673.471 247.699 673.41 247.447 673.41 247.154C673.41 246.631 673.623 246.219 674.049 245.918C674.475 245.613 675.059 245.461 675.801 245.461C676.492 245.461 677.168 245.602 677.828 245.883L677.482 246.674C676.838 246.408 676.254 246.275 675.73 246.275C675.27 246.275 674.922 246.348 674.688 246.492C674.453 246.637 674.336 246.836 674.336 247.09C674.336 247.262 674.379 247.408 674.465 247.529C674.555 247.65 674.697 247.766 674.893 247.875C675.088 247.984 675.463 248.143 676.018 248.35C676.779 248.627 677.293 248.906 677.559 249.188C677.828 249.469 677.963 249.822 677.963 250.248ZM682.264 252.117C681.314 252.117 680.564 251.828 680.014 251.25C679.467 250.672 679.193 249.869 679.193 248.842C679.193 247.807 679.447 246.984 679.955 246.375C680.467 245.766 681.152 245.461 682.012 245.461C682.816 245.461 683.453 245.727 683.922 246.258C684.391 246.785 684.625 247.482 684.625 248.35V248.965H680.201C680.221 249.719 680.41 250.291 680.77 250.682C681.133 251.072 681.643 251.268 682.299 251.268C682.99 251.268 683.674 251.123 684.35 250.834V251.701C684.006 251.85 683.68 251.955 683.371 252.018C683.066 252.084 682.697 252.117 682.264 252.117ZM682 246.275C681.484 246.275 681.072 246.443 680.764 246.779C680.459 247.115 680.279 247.58 680.225 248.174H683.582C683.582 247.561 683.445 247.092 683.172 246.768C682.898 246.439 682.508 246.275 682 246.275ZM690.432 250.248C690.432 250.846 690.209 251.307 689.764 251.631C689.318 251.955 688.693 252.117 687.889 252.117C687.037 252.117 686.373 251.982 685.896 251.713V250.811C686.205 250.967 686.535 251.09 686.887 251.18C687.242 251.27 687.584 251.314 687.912 251.314C688.42 251.314 688.811 251.234 689.084 251.074C689.357 250.91 689.494 250.662 689.494 250.33C689.494 250.08 689.385 249.867 689.166 249.691C688.951 249.512 688.529 249.301 687.9 249.059C687.303 248.836 686.877 248.643 686.623 248.479C686.373 248.311 686.186 248.121 686.061 247.91C685.939 247.699 685.879 247.447 685.879 247.154C685.879 246.631 686.092 246.219 686.518 245.918C686.943 245.613 687.527 245.461 688.27 245.461C688.961 245.461 689.637 245.602 690.297 245.883L689.951 246.674C689.307 246.408 688.723 246.275 688.199 246.275C687.738 246.275 687.391 246.348 687.156 246.492C686.922 246.637 686.805 246.836 686.805 247.09C686.805 247.262 686.848 247.408 686.934 247.529C687.023 247.65 687.166 247.766 687.361 247.875C687.557 247.984 687.932 248.143 688.486 248.35C689.248 248.627 689.762 248.906 690.027 249.188C690.297 249.469 690.432 249.822 690.432 250.248Z" fill="#0A2535"/>
<path d="M634.322 266.201C633.381 266.201 632.637 266.516 632.09 267.145C631.547 267.77 631.275 268.627 631.275 269.717C631.275 270.838 631.537 271.705 632.061 272.318C632.588 272.928 633.338 273.232 634.311 273.232C634.908 273.232 635.59 273.125 636.355 272.91V273.783C635.762 274.006 635.029 274.117 634.158 274.117C632.896 274.117 631.922 273.734 631.234 272.969C630.551 272.203 630.209 271.115 630.209 269.705C630.209 268.822 630.373 268.049 630.701 267.385C631.033 266.721 631.51 266.209 632.131 265.85C632.756 265.49 633.49 265.311 634.334 265.311C635.232 265.311 636.018 265.475 636.689 265.803L636.268 266.658C635.619 266.354 634.971 266.201 634.322 266.201ZM643.621 270.783C643.621 271.83 643.357 272.648 642.83 273.238C642.303 273.824 641.574 274.117 640.645 274.117C640.07 274.117 639.561 273.982 639.115 273.713C638.67 273.443 638.326 273.057 638.084 272.553C637.842 272.049 637.721 271.459 637.721 270.783C637.721 269.736 637.982 268.922 638.506 268.34C639.029 267.754 639.756 267.461 640.686 267.461C641.584 267.461 642.297 267.76 642.824 268.357C643.355 268.955 643.621 269.764 643.621 270.783ZM638.729 270.783C638.729 271.604 638.893 272.229 639.221 272.658C639.549 273.088 640.031 273.303 640.668 273.303C641.305 273.303 641.787 273.09 642.115 272.664C642.447 272.234 642.613 271.607 642.613 270.783C642.613 269.967 642.447 269.348 642.115 268.926C641.787 268.5 641.301 268.287 640.656 268.287C640.02 268.287 639.539 268.496 639.215 268.914C638.891 269.332 638.729 269.955 638.729 270.783ZM653.518 274V269.822C653.518 269.311 653.408 268.928 653.189 268.674C652.971 268.416 652.631 268.287 652.17 268.287C651.564 268.287 651.117 268.461 650.828 268.809C650.539 269.156 650.395 269.691 650.395 270.414V274H649.422V269.822C649.422 269.311 649.312 268.928 649.094 268.674C648.875 268.416 648.533 268.287 648.068 268.287C647.459 268.287 647.012 268.471 646.727 268.838C646.445 269.201 646.305 269.799 646.305 270.631V274H645.332V267.578H646.123L646.281 268.457H646.328C646.512 268.145 646.77 267.9 647.102 267.725C647.438 267.549 647.812 267.461 648.227 267.461C649.23 267.461 649.887 267.824 650.195 268.551H650.242C650.434 268.215 650.711 267.949 651.074 267.754C651.438 267.559 651.852 267.461 652.316 267.461C653.043 267.461 653.586 267.648 653.945 268.023C654.309 268.395 654.49 268.99 654.49 269.811V274H653.518ZM664.686 274V269.822C664.686 269.311 664.576 268.928 664.357 268.674C664.139 268.416 663.799 268.287 663.338 268.287C662.732 268.287 662.285 268.461 661.996 268.809C661.707 269.156 661.562 269.691 661.562 270.414V274H660.59V269.822C660.59 269.311 660.48 268.928 660.262 268.674C660.043 268.416 659.701 268.287 659.236 268.287C658.627 268.287 658.18 268.471 657.895 268.838C657.613 269.201 657.473 269.799 657.473 270.631V274H656.5V267.578H657.291L657.449 268.457H657.496C657.68 268.145 657.938 267.9 658.27 267.725C658.605 267.549 658.98 267.461 659.395 267.461C660.398 267.461 661.055 267.824 661.363 268.551H661.41C661.602 268.215 661.879 267.949 662.242 267.754C662.605 267.559 663.02 267.461 663.484 267.461C664.211 267.461 664.754 267.648 665.113 268.023C665.477 268.395 665.658 268.99 665.658 269.811V274H664.686ZM668.641 274H667.668V267.578H668.641V274ZM667.586 265.838C667.586 265.615 667.641 265.453 667.75 265.352C667.859 265.246 667.996 265.193 668.16 265.193C668.316 265.193 668.451 265.246 668.564 265.352C668.678 265.457 668.734 265.619 668.734 265.838C668.734 266.057 668.678 266.221 668.564 266.33C668.451 266.436 668.316 266.488 668.16 266.488C667.996 266.488 667.859 266.436 667.75 266.33C667.641 266.221 667.586 266.057 667.586 265.838ZM674.846 272.248C674.846 272.846 674.623 273.307 674.178 273.631C673.732 273.955 673.107 274.117 672.303 274.117C671.451 274.117 670.787 273.982 670.311 273.713V272.811C670.619 272.967 670.949 273.09 671.301 273.18C671.656 273.27 671.998 273.314 672.326 273.314C672.834 273.314 673.225 273.234 673.498 273.074C673.771 272.91 673.908 272.662 673.908 272.33C673.908 272.08 673.799 271.867 673.58 271.691C673.365 271.512 672.943 271.301 672.314 271.059C671.717 270.836 671.291 270.643 671.037 270.479C670.787 270.311 670.6 270.121 670.475 269.91C670.354 269.699 670.293 269.447 670.293 269.154C670.293 268.631 670.506 268.219 670.932 267.918C671.357 267.613 671.941 267.461 672.684 267.461C673.375 267.461 674.051 267.602 674.711 267.883L674.365 268.674C673.721 268.408 673.137 268.275 672.613 268.275C672.152 268.275 671.805 268.348 671.57 268.492C671.336 268.637 671.219 268.836 671.219 269.09C671.219 269.262 671.262 269.408 671.348 269.529C671.438 269.65 671.58 269.766 671.775 269.875C671.971 269.984 672.346 270.143 672.9 270.35C673.662 270.627 674.176 270.906 674.441 271.188C674.711 271.469 674.846 271.822 674.846 272.248ZM680.576 272.248C680.576 272.846 680.354 273.307 679.908 273.631C679.463 273.955 678.838 274.117 678.033 274.117C677.182 274.117 676.518 273.982 676.041 273.713V272.811C676.35 272.967 676.68 273.09 677.031 273.18C677.387 273.27 677.729 273.314 678.057 273.314C678.564 273.314 678.955 273.234 679.229 273.074C679.502 272.91 679.639 272.662 679.639 272.33C679.639 272.08 679.529 271.867 679.311 271.691C679.096 271.512 678.674 271.301 678.045 271.059C677.447 270.836 677.021 270.643 676.768 270.479C676.518 270.311 676.33 270.121 676.205 269.91C676.084 269.699 676.023 269.447 676.023 269.154C676.023 268.631 676.236 268.219 676.662 267.918C677.088 267.613 677.672 267.461 678.414 267.461C679.105 267.461 679.781 267.602 680.441 267.883L680.096 268.674C679.451 268.408 678.867 268.275 678.344 268.275C677.883 268.275 677.535 268.348 677.301 268.492C677.066 268.637 676.949 268.836 676.949 269.09C676.949 269.262 676.992 269.408 677.078 269.529C677.168 269.65 677.311 269.766 677.506 269.875C677.701 269.984 678.076 270.143 678.631 270.35C679.393 270.627 679.906 270.906 680.172 271.188C680.441 271.469 680.576 271.822 680.576 272.248ZM683.137 274H682.164V267.578H683.137V274ZM682.082 265.838C682.082 265.615 682.137 265.453 682.246 265.352C682.355 265.246 682.492 265.193 682.656 265.193C682.812 265.193 682.947 265.246 683.061 265.352C683.174 265.457 683.23 265.619 683.23 265.838C683.23 266.057 683.174 266.221 683.061 266.33C682.947 266.436 682.812 266.488 682.656 266.488C682.492 266.488 682.355 266.436 682.246 266.33C682.137 266.221 682.082 266.057 682.082 265.838ZM690.742 270.783C690.742 271.83 690.479 272.648 689.951 273.238C689.424 273.824 688.695 274.117 687.766 274.117C687.191 274.117 686.682 273.982 686.236 273.713C685.791 273.443 685.447 273.057 685.205 272.553C684.963 272.049 684.842 271.459 684.842 270.783C684.842 269.736 685.104 268.922 685.627 268.34C686.15 267.754 686.877 267.461 687.807 267.461C688.705 267.461 689.418 267.76 689.945 268.357C690.477 268.955 690.742 269.764 690.742 270.783ZM685.85 270.783C685.85 271.604 686.014 272.229 686.342 272.658C686.67 273.088 687.152 273.303 687.789 273.303C688.426 273.303 688.908 273.09 689.236 272.664C689.568 272.234 689.734 271.607 689.734 270.783C689.734 269.967 689.568 269.348 689.236 268.926C688.908 268.5 688.422 268.287 687.777 268.287C687.141 268.287 686.66 268.496 686.336 268.914C686.012 269.332 685.85 269.955 685.85 270.783ZM696.848 274V269.846C696.848 269.322 696.729 268.932 696.49 268.674C696.252 268.416 695.879 268.287 695.371 268.287C694.699 268.287 694.207 268.469 693.895 268.832C693.582 269.195 693.426 269.795 693.426 270.631V274H692.453V267.578H693.244L693.402 268.457H693.449C693.648 268.141 693.928 267.896 694.287 267.725C694.646 267.549 695.047 267.461 695.488 267.461C696.262 267.461 696.844 267.648 697.234 268.023C697.625 268.395 697.82 268.99 697.82 269.811V274H696.848ZM703.967 272.248C703.967 272.846 703.744 273.307 703.299 273.631C702.854 273.955 702.229 274.117 701.424 274.117C700.572 274.117 699.908 273.982 699.432 273.713V272.811C699.74 272.967 700.07 273.09 700.422 273.18C700.777 273.27 701.119 273.314 701.447 273.314C701.955 273.314 702.346 273.234 702.619 273.074C702.893 272.91 703.029 272.662 703.029 272.33C703.029 272.08 702.92 271.867 702.701 271.691C702.486 271.512 702.064 271.301 701.436 271.059C700.838 270.836 700.412 270.643 700.158 270.479C699.908 270.311 699.721 270.121 699.596 269.91C699.475 269.699 699.414 269.447 699.414 269.154C699.414 268.631 699.627 268.219 700.053 267.918C700.479 267.613 701.062 267.461 701.805 267.461C702.496 267.461 703.172 267.602 703.832 267.883L703.486 268.674C702.842 268.408 702.258 268.275 701.734 268.275C701.273 268.275 700.926 268.348 700.691 268.492C700.457 268.637 700.34 268.836 700.34 269.09C700.34 269.262 700.383 269.408 700.469 269.529C700.559 269.65 700.701 269.766 700.896 269.875C701.092 269.984 701.467 270.143 702.021 270.35C702.783 270.627 703.297 270.906 703.562 271.188C703.832 271.469 703.967 271.822 703.967 272.248Z" fill="#0A2535"/>
<rect x="353" y="356" width="163" height="42" fill="white" stroke="#68C6A4" stroke-width="2"/>
<path d="M417.867 383H416V373.18H412.641V371.578H421.227V373.18H417.867V383ZM428.195 383L427.828 381.797H427.766C427.349 382.323 426.93 382.682 426.508 382.875C426.086 383.062 425.544 383.156 424.883 383.156C424.034 383.156 423.37 382.927 422.891 382.469C422.417 382.01 422.18 381.362 422.18 380.523C422.18 379.633 422.51 378.961 423.172 378.508C423.833 378.055 424.841 377.807 426.195 377.766L427.688 377.719V377.258C427.688 376.706 427.557 376.294 427.297 376.023C427.042 375.747 426.643 375.609 426.102 375.609C425.659 375.609 425.234 375.674 424.828 375.805C424.422 375.935 424.031 376.089 423.656 376.266L423.062 374.953C423.531 374.708 424.044 374.523 424.602 374.398C425.159 374.268 425.685 374.203 426.18 374.203C427.279 374.203 428.107 374.443 428.664 374.922C429.227 375.401 429.508 376.154 429.508 377.18V383H428.195ZM425.461 381.75C426.128 381.75 426.661 381.565 427.062 381.195C427.469 380.82 427.672 380.297 427.672 379.625V378.875L426.562 378.922C425.698 378.953 425.068 379.099 424.672 379.359C424.281 379.615 424.086 380.008 424.086 380.539C424.086 380.924 424.201 381.224 424.43 381.438C424.659 381.646 425.003 381.75 425.461 381.75ZM433.992 378.586L431.094 374.359H433.188L435.156 377.383L437.141 374.359H439.219L436.312 378.586L439.367 383H437.289L435.156 379.766L433.031 383H430.953L433.992 378.586ZM444.656 383.156C443.312 383.156 442.26 382.766 441.5 381.984C440.745 381.198 440.367 380.117 440.367 378.742C440.367 377.331 440.719 376.221 441.422 375.414C442.125 374.607 443.091 374.203 444.32 374.203C445.461 374.203 446.362 374.549 447.023 375.242C447.685 375.935 448.016 376.888 448.016 378.102V379.094H442.258C442.284 379.932 442.51 380.578 442.938 381.031C443.365 381.479 443.966 381.703 444.742 381.703C445.253 381.703 445.727 381.656 446.164 381.562C446.607 381.464 447.081 381.302 447.586 381.078V382.57C447.138 382.784 446.685 382.935 446.227 383.023C445.768 383.112 445.245 383.156 444.656 383.156ZM444.32 375.594C443.737 375.594 443.268 375.779 442.914 376.148C442.565 376.518 442.357 377.057 442.289 377.766H446.211C446.201 377.052 446.029 376.513 445.695 376.148C445.362 375.779 444.904 375.594 444.32 375.594ZM455.906 380.539C455.906 381.383 455.599 382.031 454.984 382.484C454.37 382.932 453.49 383.156 452.344 383.156C451.193 383.156 450.268 382.982 449.57 382.633V381.047C450.586 381.516 451.531 381.75 452.406 381.75C453.536 381.75 454.102 381.409 454.102 380.727C454.102 380.508 454.039 380.326 453.914 380.18C453.789 380.034 453.583 379.883 453.297 379.727C453.01 379.57 452.612 379.393 452.102 379.195C451.107 378.81 450.432 378.424 450.078 378.039C449.729 377.654 449.555 377.154 449.555 376.539C449.555 375.799 449.852 375.227 450.445 374.82C451.044 374.409 451.857 374.203 452.883 374.203C453.898 374.203 454.859 374.409 455.766 374.82L455.172 376.203C454.24 375.818 453.456 375.625 452.82 375.625C451.852 375.625 451.367 375.901 451.367 376.453C451.367 376.724 451.492 376.953 451.742 377.141C451.997 377.328 452.549 377.586 453.398 377.914C454.112 378.19 454.63 378.443 454.953 378.672C455.276 378.901 455.516 379.167 455.672 379.469C455.828 379.766 455.906 380.122 455.906 380.539Z" fill="#0A2535"/>
<rect x="353" y="434" width="163" height="42" fill="white" stroke="#68C6A4" stroke-width="2"/>
<path d="M416.07 461H413.781L408.164 451.898H408.102L408.141 452.406C408.214 453.375 408.25 454.26 408.25 455.062V461H406.555V449.578H408.82L414.422 458.633H414.469C414.458 458.513 414.438 458.078 414.406 457.328C414.375 456.573 414.359 455.984 414.359 455.562V449.578H416.07V461ZM422.664 461.156C421.32 461.156 420.268 460.766 419.508 459.984C418.753 459.198 418.375 458.117 418.375 456.742C418.375 455.331 418.727 454.221 419.43 453.414C420.133 452.607 421.099 452.203 422.328 452.203C423.469 452.203 424.37 452.549 425.031 453.242C425.693 453.935 426.023 454.888 426.023 456.102V457.094H420.266C420.292 457.932 420.518 458.578 420.945 459.031C421.372 459.479 421.974 459.703 422.75 459.703C423.26 459.703 423.734 459.656 424.172 459.562C424.615 459.464 425.089 459.302 425.594 459.078V460.57C425.146 460.784 424.693 460.935 424.234 461.023C423.776 461.112 423.253 461.156 422.664 461.156ZM422.328 453.594C421.745 453.594 421.276 453.779 420.922 454.148C420.573 454.518 420.365 455.057 420.297 455.766H424.219C424.208 455.052 424.036 454.513 423.703 454.148C423.37 453.779 422.911 453.594 422.328 453.594ZM431.328 459.672C431.776 459.672 432.224 459.602 432.672 459.461V460.844C432.469 460.932 432.206 461.005 431.883 461.062C431.565 461.125 431.234 461.156 430.891 461.156C429.151 461.156 428.281 460.24 428.281 458.406V453.75H427.102V452.938L428.367 452.266L428.992 450.438H430.125V452.359H432.586V453.75H430.125V458.375C430.125 458.818 430.234 459.146 430.453 459.359C430.677 459.568 430.969 459.672 431.328 459.672ZM446.32 453.031C446.32 454.224 445.93 455.138 445.148 455.773C444.367 456.409 443.255 456.727 441.812 456.727H440.625V461H438.758V449.578H442.047C443.474 449.578 444.542 449.87 445.25 450.453C445.964 451.036 446.32 451.896 446.32 453.031ZM440.625 455.156H441.617C442.576 455.156 443.279 454.99 443.727 454.656C444.174 454.323 444.398 453.802 444.398 453.094C444.398 452.438 444.198 451.948 443.797 451.625C443.396 451.302 442.771 451.141 441.922 451.141H440.625V455.156ZM453.812 461L453.445 459.797H453.383C452.966 460.323 452.547 460.682 452.125 460.875C451.703 461.062 451.161 461.156 450.5 461.156C449.651 461.156 448.987 460.927 448.508 460.469C448.034 460.01 447.797 459.362 447.797 458.523C447.797 457.633 448.128 456.961 448.789 456.508C449.451 456.055 450.458 455.807 451.812 455.766L453.305 455.719V455.258C453.305 454.706 453.174 454.294 452.914 454.023C452.659 453.747 452.26 453.609 451.719 453.609C451.276 453.609 450.852 453.674 450.445 453.805C450.039 453.935 449.648 454.089 449.273 454.266L448.68 452.953C449.148 452.708 449.661 452.523 450.219 452.398C450.776 452.268 451.302 452.203 451.797 452.203C452.896 452.203 453.724 452.443 454.281 452.922C454.844 453.401 455.125 454.154 455.125 455.18V461H453.812ZM451.078 459.75C451.745 459.75 452.279 459.565 452.68 459.195C453.086 458.82 453.289 458.297 453.289 457.625V456.875L452.18 456.922C451.315 456.953 450.685 457.099 450.289 457.359C449.898 457.615 449.703 458.008 449.703 458.539C449.703 458.924 449.818 459.224 450.047 459.438C450.276 459.646 450.62 459.75 451.078 459.75ZM456.375 452.359H458.375L460.133 457.258C460.398 457.956 460.576 458.612 460.664 459.227H460.727C460.773 458.94 460.859 458.594 460.984 458.188C461.109 457.776 461.771 455.833 462.969 452.359H464.953L461.258 462.148C460.586 463.945 459.466 464.844 457.898 464.844C457.492 464.844 457.096 464.799 456.711 464.711V463.258C456.987 463.32 457.302 463.352 457.656 463.352C458.542 463.352 459.164 462.839 459.523 461.812L459.844 461L456.375 452.359Z" fill="#0A2535"/>
<line x1="434.5" y1="168" x2="434.5" y2="134" stroke="#0A2535"/>
<line x1="434.5" y1="323" x2="434.5" y2="357" stroke="#0A2535"/>
<line x1="434.5" y1="399" x2="434.5" y2="433" stroke="#0A2535"/>
<rect x="353" y="92" width="163" height="42" fill="white" stroke="#68C6A4" stroke-width="2"/>
<path d="M408.375 115.898C408.375 116.914 408.008 117.711 407.273 118.289C406.539 118.867 405.526 119.156 404.234 119.156C402.943 119.156 401.885 118.956 401.062 118.555V116.789C401.583 117.034 402.135 117.227 402.719 117.367C403.307 117.508 403.854 117.578 404.359 117.578C405.099 117.578 405.643 117.438 405.992 117.156C406.346 116.875 406.523 116.497 406.523 116.023C406.523 115.596 406.362 115.234 406.039 114.938C405.716 114.641 405.049 114.289 404.039 113.883C402.997 113.461 402.263 112.979 401.836 112.438C401.409 111.896 401.195 111.245 401.195 110.484C401.195 109.531 401.534 108.781 402.211 108.234C402.888 107.688 403.797 107.414 404.938 107.414C406.031 107.414 407.12 107.654 408.203 108.133L407.609 109.656C406.594 109.229 405.688 109.016 404.891 109.016C404.286 109.016 403.828 109.148 403.516 109.414C403.203 109.674 403.047 110.021 403.047 110.453C403.047 110.75 403.109 111.005 403.234 111.219C403.359 111.427 403.565 111.625 403.852 111.812C404.138 112 404.654 112.247 405.398 112.555C406.237 112.904 406.852 113.229 407.242 113.531C407.633 113.833 407.919 114.174 408.102 114.555C408.284 114.935 408.375 115.383 408.375 115.898ZM413.609 117.672C414.057 117.672 414.505 117.602 414.953 117.461V118.844C414.75 118.932 414.487 119.005 414.164 119.062C413.846 119.125 413.516 119.156 413.172 119.156C411.432 119.156 410.562 118.24 410.562 116.406V111.75H409.383V110.938L410.648 110.266L411.273 108.438H412.406V110.359H414.867V111.75H412.406V116.375C412.406 116.818 412.516 117.146 412.734 117.359C412.958 117.568 413.25 117.672 413.609 117.672ZM422.094 119L421.727 117.797H421.664C421.247 118.323 420.828 118.682 420.406 118.875C419.984 119.062 419.443 119.156 418.781 119.156C417.932 119.156 417.268 118.927 416.789 118.469C416.315 118.01 416.078 117.362 416.078 116.523C416.078 115.633 416.409 114.961 417.07 114.508C417.732 114.055 418.74 113.807 420.094 113.766L421.586 113.719V113.258C421.586 112.706 421.456 112.294 421.195 112.023C420.94 111.747 420.542 111.609 420 111.609C419.557 111.609 419.133 111.674 418.727 111.805C418.32 111.935 417.93 112.089 417.555 112.266L416.961 110.953C417.43 110.708 417.943 110.523 418.5 110.398C419.057 110.268 419.583 110.203 420.078 110.203C421.177 110.203 422.005 110.443 422.562 110.922C423.125 111.401 423.406 112.154 423.406 113.18V119H422.094ZM419.359 117.75C420.026 117.75 420.56 117.565 420.961 117.195C421.367 116.82 421.57 116.297 421.57 115.625V114.875L420.461 114.922C419.596 114.953 418.966 115.099 418.57 115.359C418.18 115.615 417.984 116.008 417.984 116.539C417.984 116.924 418.099 117.224 418.328 117.438C418.557 117.646 418.901 117.75 419.359 117.75ZM430.352 110.203C430.721 110.203 431.026 110.229 431.266 110.281L431.086 111.992C430.826 111.93 430.555 111.898 430.273 111.898C429.539 111.898 428.943 112.138 428.484 112.617C428.031 113.096 427.805 113.719 427.805 114.484V119H425.969V110.359H427.406L427.648 111.883H427.742C428.029 111.367 428.401 110.958 428.859 110.656C429.323 110.354 429.82 110.203 430.352 110.203ZM436.094 117.672C436.542 117.672 436.99 117.602 437.438 117.461V118.844C437.234 118.932 436.971 119.005 436.648 119.062C436.331 119.125 436 119.156 435.656 119.156C433.917 119.156 433.047 118.24 433.047 116.406V111.75H431.867V110.938L433.133 110.266L433.758 108.438H434.891V110.359H437.352V111.75H434.891V116.375C434.891 116.818 435 117.146 435.219 117.359C435.443 117.568 435.734 117.672 436.094 117.672ZM451.086 111.031C451.086 112.224 450.695 113.138 449.914 113.773C449.133 114.409 448.021 114.727 446.578 114.727H445.391V119H443.523V107.578H446.812C448.24 107.578 449.307 107.87 450.016 108.453C450.729 109.036 451.086 109.896 451.086 111.031ZM445.391 113.156H446.383C447.341 113.156 448.044 112.99 448.492 112.656C448.94 112.323 449.164 111.802 449.164 111.094C449.164 110.438 448.964 109.948 448.562 109.625C448.161 109.302 447.536 109.141 446.688 109.141H445.391V113.156ZM458.578 119L458.211 117.797H458.148C457.732 118.323 457.312 118.682 456.891 118.875C456.469 119.062 455.927 119.156 455.266 119.156C454.417 119.156 453.753 118.927 453.273 118.469C452.799 118.01 452.562 117.362 452.562 116.523C452.562 115.633 452.893 114.961 453.555 114.508C454.216 114.055 455.224 113.807 456.578 113.766L458.07 113.719V113.258C458.07 112.706 457.94 112.294 457.68 112.023C457.424 111.747 457.026 111.609 456.484 111.609C456.042 111.609 455.617 111.674 455.211 111.805C454.805 111.935 454.414 112.089 454.039 112.266L453.445 110.953C453.914 110.708 454.427 110.523 454.984 110.398C455.542 110.268 456.068 110.203 456.562 110.203C457.661 110.203 458.49 110.443 459.047 110.922C459.609 111.401 459.891 112.154 459.891 113.18V119H458.578ZM455.844 117.75C456.51 117.75 457.044 117.565 457.445 117.195C457.852 116.82 458.055 116.297 458.055 115.625V114.875L456.945 114.922C456.081 114.953 455.451 115.099 455.055 115.359C454.664 115.615 454.469 116.008 454.469 116.539C454.469 116.924 454.583 117.224 454.812 117.438C455.042 117.646 455.385 117.75 455.844 117.75ZM461.141 110.359H463.141L464.898 115.258C465.164 115.956 465.341 116.612 465.43 117.227H465.492C465.539 116.94 465.625 116.594 465.75 116.188C465.875 115.776 466.536 113.833 467.734 110.359H469.719L466.023 120.148C465.352 121.945 464.232 122.844 462.664 122.844C462.258 122.844 461.862 122.799 461.477 122.711V121.258C461.753 121.32 462.068 121.352 462.422 121.352C463.307 121.352 463.93 120.839 464.289 119.812L464.609 119L461.141 110.359Z" fill="#0A2535"/>
</svg>
