<svg width="870" height="568" viewBox="0 0 870 568" fill="none" xmlns="http://www.w3.org/2000/svg">
<rect width="870" height="568" fill="white"/>
<rect x="152" y="215" width="205" height="138" fill="white" stroke="#68C6A4" stroke-width="2"/>
<rect x="151" y="214" width="207" height="12" fill="#68C6A4"/>
<circle cx="159" cy="220" r="2" fill="white"/>
<circle cx="167" cy="220" r="2" fill="white"/>
<circle cx="175" cy="220" r="2" fill="white"/>
<rect x="512" y="215" width="205" height="138" fill="white" stroke="#68C6A4" stroke-width="2"/>
<rect x="570" y="273" width="26" height="11" fill="white" stroke="#0A2535" stroke-width="2"/>
<rect x="570" y="291" width="26" height="11" fill="white" stroke="#0A2535" stroke-width="2"/>
<rect x="570" y="309" width="26" height="11" fill="white" stroke="#0A2535" stroke-width="2"/>
<rect x="570" y="327" width="26" height="11" fill="white" stroke="#0A2535" stroke-width="2"/>
<rect x="602" y="273" width="26" height="11" fill="white" stroke="#0A2535" stroke-width="2"/>
<rect x="602" y="291" width="26" height="11" fill="white" stroke="#0A2535" stroke-width="2"/>
<rect x="602" y="309" width="26" height="11" fill="white" stroke="#0A2535" stroke-width="2"/>
<rect x="602" y="327" width="26" height="11" fill="white" stroke="#0A2535" stroke-width="2"/>
<rect x="634" y="273" width="26" height="11" fill="white" stroke="#0A2535" stroke-width="2"/>
<rect x="634" y="291" width="26" height="11" fill="white" stroke="#0A2535" stroke-width="2"/>
<rect x="634" y="309" width="26" height="11" fill="white" stroke="#0A2535" stroke-width="2"/>
<rect x="634" y="327" width="26" height="11" fill="white" stroke="#0A2535" stroke-width="2"/>
<rect x="666" y="273" width="26" height="11" fill="white" stroke="#0A2535" stroke-width="2"/>
<rect x="666" y="291" width="26" height="11" fill="white" stroke="#0A2535" stroke-width="2"/>
<rect x="666" y="309" width="26" height="11" fill="white" stroke="#0A2535" stroke-width="2"/>
<rect x="666" y="327" width="26" height="11" fill="white" stroke="#0A2535" stroke-width="2"/>
<rect x="511" y="214" width="207" height="12" fill="#68C6A4"/>
<circle cx="519" cy="220" r="2" fill="white"/>
<circle cx="527" cy="220" r="2" fill="white"/>
<circle cx="535" cy="220" r="2" fill="white"/>
<rect x="536" y="277" width="25" height="3" fill="#68C6A4"/>
<rect x="569" y="242" width="124" height="3" fill="#68C6A4"/>
<rect x="536" y="313" width="25" height="3" fill="#68C6A4"/>
<rect x="536" y="331" width="25" height="3" fill="#68C6A4"/>
<rect x="317" y="245" width="26" height="11" fill="white" stroke="#0A2535" stroke-width="2"/>
<rect x="206" y="247" width="102" height="3" fill="#68C6A4"/>
<rect x="206" y="253" width="102" height="3" fill="#68C6A4"/>
<rect x="206" y="264" width="102" height="3" fill="#68C6A4"/>
<rect x="206" y="270" width="102" height="3" fill="#68C6A4"/>
<rect x="206" y="282" width="102" height="3" fill="#68C6A4"/>
<rect x="206" y="288" width="102" height="3" fill="#68C6A4"/>
<rect x="206" y="300" width="102" height="3" fill="#68C6A4"/>
<rect x="206" y="306" width="102" height="3" fill="#68C6A4"/>
<rect x="206" y="318" width="102" height="3" fill="#68C6A4"/>
<rect x="206" y="324" width="102" height="3" fill="#68C6A4"/>
<rect x="317" y="263" width="26" height="11" fill="white" stroke="#0A2535" stroke-width="2"/>
<rect x="317" y="281" width="26" height="11" fill="white" stroke="#0A2535" stroke-width="2"/>
<rect x="317" y="299" width="26" height="11" fill="white" stroke="#0A2535" stroke-width="2"/>
<rect x="317" y="317" width="26" height="11" fill="white" stroke="#0A2535" stroke-width="2"/>
<rect x="536" y="295" width="25" height="3" fill="#68C6A4"/>
<rect x="569" y="254" width="28" height="13" fill="#0A2535"/>
<rect x="601" y="254" width="28" height="13" fill="#0A2535"/>
<rect x="633" y="254" width="28" height="13" fill="#0A2535"/>
<rect x="665" y="254" width="28" height="13" fill="#0A2535"/>
<rect x="512" y="59" width="205" height="138" fill="white" stroke="#68C6A4" stroke-width="2"/>
<rect x="511" y="58" width="207" height="12" fill="#68C6A4"/>
<circle cx="519" cy="64" r="2" fill="white"/>
<circle cx="527" cy="64" r="2" fill="white"/>
<circle cx="535" cy="64" r="2" fill="white"/>
<rect x="512" y="371" width="205" height="138" fill="white" stroke="#68C6A4" stroke-width="2"/>
<rect x="511" y="370" width="207" height="12" fill="#68C6A4"/>
<circle cx="519" cy="376" r="2" fill="white"/>
<circle cx="527" cy="376" r="2" fill="white"/>
<circle cx="535" cy="376" r="2" fill="white"/>
<rect x="525" y="89" width="25" height="3" fill="#68C6A4"/>
<rect x="525" y="95" width="25" height="3" fill="#68C6A4"/>
<rect x="525" y="101" width="25" height="3" fill="#68C6A4"/>
<rect x="525" y="107" width="25" height="3" fill="#68C6A4"/>
<rect x="525" y="113" width="25" height="3" fill="#68C6A4"/>
<rect x="525" y="119" width="25" height="3" fill="#68C6A4"/>
<rect x="525" y="125" width="25" height="3" fill="#68C6A4"/>
<rect x="165" y="245" width="25" height="3" fill="#68C6A4"/>
<rect x="165" y="251" width="25" height="3" fill="#68C6A4"/>
<rect x="165" y="257" width="25" height="3" fill="#68C6A4"/>
<rect x="165" y="263" width="25" height="3" fill="#68C6A4"/>
<rect x="165" y="269" width="25" height="3" fill="#68C6A4"/>
<rect x="165" y="275" width="25" height="3" fill="#68C6A4"/>
<rect x="165" y="281" width="25" height="3" fill="#68C6A4"/>
<line x1="614.5" y1="214" x2="614.5" y2="198" stroke="#0A2535"/>
<line x1="614.5" y1="370" x2="614.5" y2="354" stroke="#0A2535"/>
<line x1="358" y1="283.5" x2="511" y2="283.5" stroke="#0A2535"/>
<rect x="677" y="89" width="28" height="3" fill="#68C6A4"/>
<rect x="677" y="95" width="28" height="3" fill="#68C6A4"/>
<rect x="566" y="149" width="99" height="3" fill="#68C6A4"/>
<rect x="566" y="155" width="99" height="3" fill="#68C6A4"/>
<rect x="566" y="161" width="99" height="3" fill="#68C6A4"/>
<rect x="545" y="403" width="62" height="3" fill="#68C6A4"/>
<rect x="545" y="409" width="62" height="3" fill="#68C6A4"/>
<rect x="545" y="415" width="62" height="3" fill="#68C6A4"/>
<rect x="545" y="426" width="62" height="3" fill="#68C6A4"/>
<rect x="545" y="432" width="62" height="3" fill="#68C6A4"/>
<rect x="545" y="438" width="62" height="3" fill="#68C6A4"/>
<rect x="545" y="449" width="62" height="3" fill="#68C6A4"/>
<rect x="545" y="455" width="62" height="3" fill="#68C6A4"/>
<rect x="545" y="461" width="62" height="3" fill="#68C6A4"/>
<rect x="545" y="472" width="62" height="3" fill="#68C6A4"/>
<rect x="545" y="478" width="62" height="3" fill="#68C6A4"/>
<rect x="545" y="484" width="62" height="3" fill="#68C6A4"/>
<rect x="623" y="403" width="62" height="3" fill="#68C6A4"/>
<rect x="623" y="409" width="62" height="3" fill="#68C6A4"/>
<rect x="623" y="415" width="62" height="3" fill="#68C6A4"/>
<rect x="623" y="426" width="62" height="3" fill="#68C6A4"/>
<rect x="623" y="432" width="62" height="3" fill="#68C6A4"/>
<rect x="623" y="438" width="62" height="3" fill="#68C6A4"/>
<rect x="623" y="449" width="62" height="3" fill="#68C6A4"/>
<rect x="623" y="455" width="62" height="3" fill="#68C6A4"/>
<rect x="623" y="461" width="62" height="3" fill="#68C6A4"/>
<rect x="623" y="472" width="62" height="3" fill="#68C6A4"/>
<rect x="623" y="478" width="62" height="3" fill="#68C6A4"/>
<rect x="623" y="484" width="62" height="3" fill="#68C6A4"/>
<rect x="566" y="89" width="99" height="53" fill="#68C6A4"/>
</svg>
