<svg width="870" height="568" viewBox="0 0 870 568" fill="none" xmlns="http://www.w3.org/2000/svg">
<rect width="870" height="568" fill="white"/>
<line x1="606.5" y1="203" x2="606.5" y2="168" stroke="#0A2535"/>
<line x1="296.5" y1="202" x2="296.5" y2="168" stroke="#0A2535"/>
<line x1="450.5" y1="202" x2="450.5" y2="168" stroke="#0A2535"/>
<line x1="761.5" y1="202" x2="761.5" y2="168" stroke="#0A2535"/>
<rect x="222" y="203" width="148" height="86" fill="white" stroke="#68C6A4" stroke-width="2"/>
<path d="M283.375 230H281.344L279.406 223.188C279.323 222.891 279.219 222.464 279.094 221.906C278.969 221.344 278.893 220.953 278.867 220.734C278.815 221.068 278.729 221.5 278.609 222.031C278.495 222.562 278.398 222.958 278.32 223.219L276.43 230H274.398L272.922 224.281L271.422 218.578H273.328L274.961 225.234C275.216 226.302 275.398 227.245 275.508 228.062C275.565 227.62 275.651 227.125 275.766 226.578C275.88 226.031 275.984 225.589 276.078 225.25L277.938 218.578H279.789L281.695 225.281C281.878 225.901 282.07 226.828 282.273 228.062C282.352 227.318 282.539 226.37 282.836 225.219L284.461 218.578H286.352L283.375 230ZM293.188 230L292.82 228.797H292.758C292.341 229.323 291.922 229.682 291.5 229.875C291.078 230.062 290.536 230.156 289.875 230.156C289.026 230.156 288.362 229.927 287.883 229.469C287.409 229.01 287.172 228.362 287.172 227.523C287.172 226.633 287.503 225.961 288.164 225.508C288.826 225.055 289.833 224.807 291.188 224.766L292.68 224.719V224.258C292.68 223.706 292.549 223.294 292.289 223.023C292.034 222.747 291.635 222.609 291.094 222.609C290.651 222.609 290.227 222.674 289.82 222.805C289.414 222.935 289.023 223.089 288.648 223.266L288.055 221.953C288.523 221.708 289.036 221.523 289.594 221.398C290.151 221.268 290.677 221.203 291.172 221.203C292.271 221.203 293.099 221.443 293.656 221.922C294.219 222.401 294.5 223.154 294.5 224.18V230H293.188ZM290.453 228.75C291.12 228.75 291.654 228.565 292.055 228.195C292.461 227.82 292.664 227.297 292.664 226.625V225.875L291.555 225.922C290.69 225.953 290.06 226.099 289.664 226.359C289.273 226.615 289.078 227.008 289.078 227.539C289.078 227.924 289.193 228.224 289.422 228.438C289.651 228.646 289.995 228.75 290.453 228.75ZM304.359 221.359V222.367L302.883 222.641C303.018 222.823 303.13 223.047 303.219 223.312C303.307 223.578 303.352 223.859 303.352 224.156C303.352 225.047 303.044 225.747 302.43 226.258C301.815 226.768 300.969 227.023 299.891 227.023C299.615 227.023 299.365 227.003 299.141 226.961C298.745 227.206 298.547 227.492 298.547 227.82C298.547 228.018 298.638 228.167 298.82 228.266C299.008 228.365 299.349 228.414 299.844 228.414H301.352C302.305 228.414 303.029 228.617 303.523 229.023C304.018 229.43 304.266 230.016 304.266 230.781C304.266 231.76 303.862 232.516 303.055 233.047C302.247 233.578 301.081 233.844 299.555 233.844C298.378 233.844 297.479 233.635 296.859 233.219C296.24 232.802 295.93 232.208 295.93 231.438C295.93 230.906 296.096 230.458 296.43 230.094C296.768 229.734 297.24 229.484 297.844 229.344C297.599 229.24 297.396 229.073 297.234 228.844C297.078 228.609 297 228.365 297 228.109C297 227.786 297.091 227.513 297.273 227.289C297.456 227.065 297.727 226.844 298.086 226.625C297.638 226.432 297.273 226.12 296.992 225.688C296.716 225.25 296.578 224.74 296.578 224.156C296.578 223.219 296.872 222.492 297.461 221.977C298.055 221.461 298.898 221.203 299.992 221.203C300.237 221.203 300.492 221.221 300.758 221.258C301.029 221.289 301.232 221.323 301.367 221.359H304.359ZM297.57 231.344C297.57 231.74 297.747 232.044 298.102 232.258C298.461 232.471 298.964 232.578 299.609 232.578C300.609 232.578 301.354 232.435 301.844 232.148C302.333 231.862 302.578 231.482 302.578 231.008C302.578 230.633 302.443 230.365 302.172 230.203C301.906 230.047 301.409 229.969 300.68 229.969H299.289C298.763 229.969 298.344 230.091 298.031 230.336C297.724 230.586 297.57 230.922 297.57 231.344ZM298.359 224.156C298.359 224.698 298.497 225.115 298.773 225.406C299.055 225.698 299.456 225.844 299.977 225.844C301.039 225.844 301.57 225.276 301.57 224.141C301.57 223.578 301.438 223.146 301.172 222.844C300.911 222.536 300.513 222.383 299.977 222.383C299.445 222.383 299.042 222.534 298.766 222.836C298.495 223.138 298.359 223.578 298.359 224.156ZM309.742 230.156C308.398 230.156 307.346 229.766 306.586 228.984C305.831 228.198 305.453 227.117 305.453 225.742C305.453 224.331 305.805 223.221 306.508 222.414C307.211 221.607 308.177 221.203 309.406 221.203C310.547 221.203 311.448 221.549 312.109 222.242C312.771 222.935 313.102 223.888 313.102 225.102V226.094H307.344C307.37 226.932 307.596 227.578 308.023 228.031C308.451 228.479 309.052 228.703 309.828 228.703C310.339 228.703 310.812 228.656 311.25 228.562C311.693 228.464 312.167 228.302 312.672 228.078V229.57C312.224 229.784 311.771 229.935 311.312 230.023C310.854 230.112 310.331 230.156 309.742 230.156ZM309.406 222.594C308.823 222.594 308.354 222.779 308 223.148C307.651 223.518 307.443 224.057 307.375 224.766H311.297C311.286 224.052 311.115 223.513 310.781 223.148C310.448 222.779 309.99 222.594 309.406 222.594ZM320.992 227.539C320.992 228.383 320.685 229.031 320.07 229.484C319.456 229.932 318.576 230.156 317.43 230.156C316.279 230.156 315.354 229.982 314.656 229.633V228.047C315.672 228.516 316.617 228.75 317.492 228.75C318.622 228.75 319.188 228.409 319.188 227.727C319.188 227.508 319.125 227.326 319 227.18C318.875 227.034 318.669 226.883 318.383 226.727C318.096 226.57 317.698 226.393 317.188 226.195C316.193 225.81 315.518 225.424 315.164 225.039C314.815 224.654 314.641 224.154 314.641 223.539C314.641 222.799 314.938 222.227 315.531 221.82C316.13 221.409 316.943 221.203 317.969 221.203C318.984 221.203 319.945 221.409 320.852 221.82L320.258 223.203C319.326 222.818 318.542 222.625 317.906 222.625C316.938 222.625 316.453 222.901 316.453 223.453C316.453 223.724 316.578 223.953 316.828 224.141C317.083 224.328 317.635 224.586 318.484 224.914C319.198 225.19 319.716 225.443 320.039 225.672C320.362 225.901 320.602 226.167 320.758 226.469C320.914 226.766 320.992 227.122 320.992 227.539Z" fill="#0A2535"/>
<rect x="377" y="203" width="148" height="86" fill="white" stroke="#68C6A4" stroke-width="2"/>
<path d="M423.742 230H421.875V220.18H418.516V218.578H427.102V220.18H423.742V230ZM430.5 230H428.664V221.359H430.5V230ZM428.555 219.07C428.555 218.742 428.643 218.49 428.82 218.312C429.003 218.135 429.26 218.047 429.594 218.047C429.917 218.047 430.167 218.135 430.344 218.312C430.526 218.49 430.617 218.742 430.617 219.07C430.617 219.383 430.526 219.63 430.344 219.812C430.167 219.99 429.917 220.078 429.594 220.078C429.26 220.078 429.003 219.99 428.82 219.812C428.643 219.63 428.555 219.383 428.555 219.07ZM440.414 230H438.57V224.672C438.57 224.01 438.445 223.518 438.195 223.195C437.945 222.867 437.555 222.703 437.023 222.703C436.315 222.703 435.794 222.935 435.461 223.398C435.133 223.857 434.969 224.622 434.969 225.695V230H433.133V221.359H434.57L434.828 222.492H434.922C435.161 222.081 435.508 221.763 435.961 221.539C436.419 221.315 436.922 221.203 437.469 221.203C438.797 221.203 439.677 221.656 440.109 222.562H440.234C440.49 222.135 440.849 221.802 441.312 221.562C441.776 221.323 442.307 221.203 442.906 221.203C443.938 221.203 444.688 221.464 445.156 221.984C445.63 222.505 445.867 223.299 445.867 224.367V230H444.031V224.672C444.031 224.01 443.904 223.518 443.648 223.195C443.398 222.867 443.008 222.703 442.477 222.703C441.763 222.703 441.24 222.927 440.906 223.375C440.578 223.818 440.414 224.5 440.414 225.422V230ZM452.203 230.156C450.859 230.156 449.807 229.766 449.047 228.984C448.292 228.198 447.914 227.117 447.914 225.742C447.914 224.331 448.266 223.221 448.969 222.414C449.672 221.607 450.638 221.203 451.867 221.203C453.008 221.203 453.909 221.549 454.57 222.242C455.232 222.935 455.562 223.888 455.562 225.102V226.094H449.805C449.831 226.932 450.057 227.578 450.484 228.031C450.911 228.479 451.513 228.703 452.289 228.703C452.799 228.703 453.273 228.656 453.711 228.562C454.154 228.464 454.628 228.302 455.133 228.078V229.57C454.685 229.784 454.232 229.935 453.773 230.023C453.315 230.112 452.792 230.156 452.203 230.156ZM451.867 222.594C451.284 222.594 450.815 222.779 450.461 223.148C450.112 223.518 449.904 224.057 449.836 224.766H453.758C453.747 224.052 453.576 223.513 453.242 223.148C452.909 222.779 452.451 222.594 451.867 222.594ZM472.141 224.273C472.141 226.133 471.674 227.578 470.742 228.609C469.815 229.641 468.5 230.156 466.797 230.156C465.073 230.156 463.747 229.646 462.82 228.625C461.898 227.599 461.438 226.143 461.438 224.258C461.438 222.372 461.901 220.924 462.828 219.914C463.76 218.904 465.089 218.398 466.812 218.398C468.51 218.398 469.823 218.911 470.75 219.938C471.677 220.964 472.141 222.409 472.141 224.273ZM463.422 224.273C463.422 225.68 463.706 226.747 464.273 227.477C464.841 228.201 465.682 228.562 466.797 228.562C467.906 228.562 468.742 228.203 469.305 227.484C469.872 226.766 470.156 225.695 470.156 224.273C470.156 222.872 469.875 221.81 469.312 221.086C468.755 220.362 467.922 220 466.812 220C465.693 220 464.846 220.362 464.273 221.086C463.706 221.81 463.422 222.872 463.422 224.273ZM478.734 222.75H476.625V230H474.781V222.75H473.359V221.891L474.781 221.328V220.766C474.781 219.745 475.021 218.99 475.5 218.5C475.979 218.005 476.711 217.758 477.695 217.758C478.341 217.758 478.977 217.865 479.602 218.078L479.117 219.469C478.664 219.323 478.232 219.25 477.82 219.25C477.404 219.25 477.099 219.38 476.906 219.641C476.719 219.896 476.625 220.281 476.625 220.797V221.359H478.734V222.75ZM484.539 222.75H482.43V230H480.586V222.75H479.164V221.891L480.586 221.328V220.766C480.586 219.745 480.826 218.99 481.305 218.5C481.784 218.005 482.516 217.758 483.5 217.758C484.146 217.758 484.781 217.865 485.406 218.078L484.922 219.469C484.469 219.323 484.036 219.25 483.625 219.25C483.208 219.25 482.904 219.38 482.711 219.641C482.523 219.896 482.43 220.281 482.43 220.797V221.359H484.539V222.75Z" fill="#0A2535"/>
<rect x="532" y="203" width="148" height="86" fill="white" stroke="#68C6A4" stroke-width="2"/>
<path d="M595.805 230H593.938V220.18H590.578V218.578H599.164V220.18H595.805V230ZM602.562 230H600.727V221.359H602.562V230ZM600.617 219.07C600.617 218.742 600.706 218.49 600.883 218.312C601.065 218.135 601.323 218.047 601.656 218.047C601.979 218.047 602.229 218.135 602.406 218.312C602.589 218.49 602.68 218.742 602.68 219.07C602.68 219.383 602.589 219.63 602.406 219.812C602.229 219.99 601.979 220.078 601.656 220.078C601.323 220.078 601.065 219.99 600.883 219.812C600.706 219.63 600.617 219.383 600.617 219.07ZM609.578 230.156C608.484 230.156 607.635 229.763 607.031 228.977H606.922C606.995 229.706 607.031 230.148 607.031 230.305V233.844H605.195V221.359H606.68C606.721 221.521 606.807 221.906 606.938 222.516H607.031C607.604 221.641 608.464 221.203 609.609 221.203C610.688 221.203 611.526 221.594 612.125 222.375C612.729 223.156 613.031 224.253 613.031 225.664C613.031 227.076 612.724 228.177 612.109 228.969C611.5 229.76 610.656 230.156 609.578 230.156ZM609.133 222.703C608.404 222.703 607.87 222.917 607.531 223.344C607.198 223.771 607.031 224.453 607.031 225.391V225.664C607.031 226.716 607.198 227.479 607.531 227.953C607.865 228.422 608.409 228.656 609.164 228.656C609.799 228.656 610.289 228.396 610.633 227.875C610.977 227.354 611.148 226.612 611.148 225.648C611.148 224.68 610.977 223.948 610.633 223.453C610.294 222.953 609.794 222.703 609.133 222.703ZM620.969 227.539C620.969 228.383 620.661 229.031 620.047 229.484C619.432 229.932 618.552 230.156 617.406 230.156C616.255 230.156 615.331 229.982 614.633 229.633V228.047C615.648 228.516 616.594 228.75 617.469 228.75C618.599 228.75 619.164 228.409 619.164 227.727C619.164 227.508 619.102 227.326 618.977 227.18C618.852 227.034 618.646 226.883 618.359 226.727C618.073 226.57 617.674 226.393 617.164 226.195C616.169 225.81 615.495 225.424 615.141 225.039C614.792 224.654 614.617 224.154 614.617 223.539C614.617 222.799 614.914 222.227 615.508 221.82C616.107 221.409 616.919 221.203 617.945 221.203C618.961 221.203 619.922 221.409 620.828 221.82L620.234 223.203C619.302 222.818 618.518 222.625 617.883 222.625C616.914 222.625 616.43 222.901 616.43 223.453C616.43 223.724 616.555 223.953 616.805 224.141C617.06 224.328 617.612 224.586 618.461 224.914C619.174 225.19 619.693 225.443 620.016 225.672C620.339 225.901 620.578 226.167 620.734 226.469C620.891 226.766 620.969 227.122 620.969 227.539Z" fill="#0A2535"/>
<rect x="687" y="203" width="148" height="86" fill="white" stroke="#68C6A4" stroke-width="2"/>
<path d="M729.875 230L728.734 226.828H724.367L723.25 230H721.281L725.555 218.531H727.586L731.859 230H729.875ZM728.242 225.219L727.172 222.109C727.094 221.901 726.984 221.573 726.844 221.125C726.708 220.677 726.615 220.349 726.562 220.141C726.422 220.781 726.216 221.482 725.945 222.242L724.914 225.219H728.242ZM736.086 230.156C735.008 230.156 734.167 229.766 733.562 228.984C732.958 228.203 732.656 227.107 732.656 225.695C732.656 224.279 732.961 223.177 733.57 222.391C734.185 221.599 735.034 221.203 736.117 221.203C737.253 221.203 738.117 221.622 738.711 222.461H738.805C738.716 221.841 738.672 221.352 738.672 220.992V217.844H740.516V230H739.078L738.758 228.867H738.672C738.083 229.727 737.221 230.156 736.086 230.156ZM736.578 228.672C737.333 228.672 737.883 228.461 738.227 228.039C738.57 227.612 738.747 226.922 738.758 225.969V225.711C738.758 224.622 738.581 223.849 738.227 223.391C737.872 222.932 737.318 222.703 736.562 222.703C735.917 222.703 735.419 222.966 735.07 223.492C734.721 224.013 734.547 224.758 734.547 225.727C734.547 226.685 734.716 227.417 735.055 227.922C735.393 228.422 735.901 228.672 736.578 228.672ZM746.055 230.156C744.977 230.156 744.135 229.766 743.531 228.984C742.927 228.203 742.625 227.107 742.625 225.695C742.625 224.279 742.93 223.177 743.539 222.391C744.154 221.599 745.003 221.203 746.086 221.203C747.221 221.203 748.086 221.622 748.68 222.461H748.773C748.685 221.841 748.641 221.352 748.641 220.992V217.844H750.484V230H749.047L748.727 228.867H748.641C748.052 229.727 747.19 230.156 746.055 230.156ZM746.547 228.672C747.302 228.672 747.852 228.461 748.195 228.039C748.539 227.612 748.716 226.922 748.727 225.969V225.711C748.727 224.622 748.549 223.849 748.195 223.391C747.841 222.932 747.286 222.703 746.531 222.703C745.885 222.703 745.388 222.966 745.039 223.492C744.69 224.013 744.516 224.758 744.516 225.727C744.516 226.685 744.685 227.417 745.023 227.922C745.362 228.422 745.87 228.672 746.547 228.672ZM754.945 230H753.109V221.359H754.945V230ZM753 219.07C753 218.742 753.089 218.49 753.266 218.312C753.448 218.135 753.706 218.047 754.039 218.047C754.362 218.047 754.612 218.135 754.789 218.312C754.971 218.49 755.062 218.742 755.062 219.07C755.062 219.383 754.971 219.63 754.789 219.812C754.612 219.99 754.362 220.078 754.039 220.078C753.706 220.078 753.448 219.99 753.266 219.812C753.089 219.63 753 219.383 753 219.07ZM760.797 228.672C761.245 228.672 761.693 228.602 762.141 228.461V229.844C761.938 229.932 761.674 230.005 761.352 230.062C761.034 230.125 760.703 230.156 760.359 230.156C758.62 230.156 757.75 229.24 757.75 227.406V222.75H756.57V221.938L757.836 221.266L758.461 219.438H759.594V221.359H762.055V222.75H759.594V227.375C759.594 227.818 759.703 228.146 759.922 228.359C760.146 228.568 760.438 228.672 760.797 228.672ZM765.711 230H763.875V221.359H765.711V230ZM763.766 219.07C763.766 218.742 763.854 218.49 764.031 218.312C764.214 218.135 764.471 218.047 764.805 218.047C765.128 218.047 765.378 218.135 765.555 218.312C765.737 218.49 765.828 218.742 765.828 219.07C765.828 219.383 765.737 219.63 765.555 219.812C765.378 219.99 765.128 220.078 764.805 220.078C764.471 220.078 764.214 219.99 764.031 219.812C763.854 219.63 763.766 219.383 763.766 219.07ZM776.008 225.664C776.008 227.076 775.646 228.177 774.922 228.969C774.198 229.76 773.19 230.156 771.898 230.156C771.091 230.156 770.378 229.974 769.758 229.609C769.138 229.245 768.661 228.721 768.328 228.039C767.995 227.357 767.828 226.565 767.828 225.664C767.828 224.263 768.188 223.169 768.906 222.383C769.625 221.596 770.638 221.203 771.945 221.203C773.195 221.203 774.185 221.607 774.914 222.414C775.643 223.216 776.008 224.299 776.008 225.664ZM769.719 225.664C769.719 227.659 770.456 228.656 771.93 228.656C773.388 228.656 774.117 227.659 774.117 225.664C774.117 223.69 773.383 222.703 771.914 222.703C771.143 222.703 770.583 222.958 770.234 223.469C769.891 223.979 769.719 224.711 769.719 225.664ZM785.727 230H783.883V224.688C783.883 224.021 783.747 223.523 783.477 223.195C783.211 222.867 782.786 222.703 782.203 222.703C781.427 222.703 780.859 222.932 780.5 223.391C780.141 223.849 779.961 224.617 779.961 225.695V230H778.125V221.359H779.562L779.82 222.492H779.914C780.174 222.081 780.544 221.763 781.023 221.539C781.503 221.315 782.034 221.203 782.617 221.203C784.69 221.203 785.727 222.258 785.727 224.367V230ZM793.688 230L793.32 228.797H793.258C792.841 229.323 792.422 229.682 792 229.875C791.578 230.062 791.036 230.156 790.375 230.156C789.526 230.156 788.862 229.927 788.383 229.469C787.909 229.01 787.672 228.362 787.672 227.523C787.672 226.633 788.003 225.961 788.664 225.508C789.326 225.055 790.333 224.807 791.688 224.766L793.18 224.719V224.258C793.18 223.706 793.049 223.294 792.789 223.023C792.534 222.747 792.135 222.609 791.594 222.609C791.151 222.609 790.727 222.674 790.32 222.805C789.914 222.935 789.523 223.089 789.148 223.266L788.555 221.953C789.023 221.708 789.536 221.523 790.094 221.398C790.651 221.268 791.177 221.203 791.672 221.203C792.771 221.203 793.599 221.443 794.156 221.922C794.719 222.401 795 223.154 795 224.18V230H793.688ZM790.953 228.75C791.62 228.75 792.154 228.565 792.555 228.195C792.961 227.82 793.164 227.297 793.164 226.625V225.875L792.055 225.922C791.19 225.953 790.56 226.099 790.164 226.359C789.773 226.615 789.578 227.008 789.578 227.539C789.578 227.924 789.693 228.224 789.922 228.438C790.151 228.646 790.495 228.75 790.953 228.75ZM799.398 230H797.562V217.844H799.398V230Z" fill="#0A2535"/>
<line x1="296" y1="167.5" x2="762" y2="167.5" stroke="#0A2535"/>
<line x1="181" y1="246.5" x2="221" y2="246.5" stroke="#0A2535"/>
<line x1="606.5" y1="288" x2="606.5" y2="323" stroke="#0A2535"/>
<line x1="761.5" y1="289" x2="761.5" y2="323" stroke="#0A2535"/>
<line x1="450.5" y1="289" x2="450.5" y2="323" stroke="#0A2535"/>
<line x1="296.5" y1="289" x2="296.5" y2="323" stroke="#0A2535"/>
<line x1="762" y1="323.5" x2="296" y2="323.5" stroke="#0A2535"/>
<path d="M264.707 252H263.723L261.994 246.264C261.912 246.01 261.82 245.689 261.719 245.303C261.617 244.916 261.564 244.684 261.561 244.605C261.475 245.121 261.338 245.686 261.15 246.299L259.475 252H258.49L256.211 243.434H257.266L258.619 248.725C258.807 249.467 258.943 250.139 259.029 250.74C259.135 250.025 259.291 249.326 259.498 248.643L261.033 243.434H262.088L263.699 248.689C263.887 249.295 264.045 249.979 264.174 250.74C264.248 250.186 264.389 249.51 264.596 248.713L265.943 243.434H266.998L264.707 252ZM273.736 248.783C273.736 249.83 273.473 250.648 272.945 251.238C272.418 251.824 271.689 252.117 270.76 252.117C270.186 252.117 269.676 251.982 269.23 251.713C268.785 251.443 268.441 251.057 268.199 250.553C267.957 250.049 267.836 249.459 267.836 248.783C267.836 247.736 268.098 246.922 268.621 246.34C269.145 245.754 269.871 245.461 270.801 245.461C271.699 245.461 272.412 245.76 272.939 246.357C273.471 246.955 273.736 247.764 273.736 248.783ZM268.844 248.783C268.844 249.604 269.008 250.229 269.336 250.658C269.664 251.088 270.146 251.303 270.783 251.303C271.42 251.303 271.902 251.09 272.23 250.664C272.562 250.234 272.729 249.607 272.729 248.783C272.729 247.967 272.562 247.348 272.23 246.926C271.902 246.5 271.416 246.287 270.771 246.287C270.135 246.287 269.654 246.496 269.33 246.914C269.006 247.332 268.844 247.955 268.844 248.783ZM278.377 245.461C278.662 245.461 278.918 245.484 279.145 245.531L279.01 246.434C278.744 246.375 278.51 246.346 278.307 246.346C277.787 246.346 277.342 246.557 276.971 246.979C276.604 247.4 276.42 247.926 276.42 248.555V252H275.447V245.578H276.25L276.361 246.768H276.408C276.646 246.35 276.934 246.027 277.27 245.801C277.605 245.574 277.975 245.461 278.377 245.461ZM281.307 248.713C281.475 248.475 281.73 248.162 282.074 247.775L284.148 245.578H285.303L282.701 248.314L285.484 252H284.307L282.039 248.965L281.307 249.598V252H280.346V242.883H281.307V247.717C281.307 247.932 281.291 248.264 281.26 248.713H281.307ZM289.363 252.117C288.414 252.117 287.664 251.828 287.113 251.25C286.566 250.672 286.293 249.869 286.293 248.842C286.293 247.807 286.547 246.984 287.055 246.375C287.566 245.766 288.252 245.461 289.111 245.461C289.916 245.461 290.553 245.727 291.021 246.258C291.49 246.785 291.725 247.482 291.725 248.35V248.965H287.301C287.32 249.719 287.51 250.291 287.869 250.682C288.232 251.072 288.742 251.268 289.398 251.268C290.09 251.268 290.773 251.123 291.449 250.834V251.701C291.105 251.85 290.779 251.955 290.471 252.018C290.166 252.084 289.797 252.117 289.363 252.117ZM289.1 246.275C288.584 246.275 288.172 246.443 287.863 246.779C287.559 247.115 287.379 247.58 287.324 248.174H290.682C290.682 247.561 290.545 247.092 290.271 246.768C289.998 246.439 289.607 246.275 289.1 246.275ZM297.76 251.139H297.707C297.258 251.791 296.586 252.117 295.691 252.117C294.852 252.117 294.197 251.83 293.729 251.256C293.264 250.682 293.031 249.865 293.031 248.807C293.031 247.748 293.266 246.926 293.734 246.34C294.203 245.754 294.855 245.461 295.691 245.461C296.562 245.461 297.23 245.777 297.695 246.41H297.771L297.73 245.947L297.707 245.496V242.883H298.68V252H297.889L297.76 251.139ZM295.814 251.303C296.479 251.303 296.959 251.123 297.256 250.764C297.557 250.4 297.707 249.816 297.707 249.012V248.807C297.707 247.896 297.555 247.248 297.25 246.861C296.949 246.471 296.467 246.275 295.803 246.275C295.232 246.275 294.795 246.498 294.49 246.943C294.189 247.385 294.039 248.01 294.039 248.818C294.039 249.639 294.189 250.258 294.49 250.676C294.791 251.094 295.232 251.303 295.814 251.303ZM310.516 252H309.52V247.969H305.008V252H304.012V243.434H305.008V247.078H309.52V243.434H310.516V252ZM318.268 248.783C318.268 249.83 318.004 250.648 317.477 251.238C316.949 251.824 316.221 252.117 315.291 252.117C314.717 252.117 314.207 251.982 313.762 251.713C313.316 251.443 312.973 251.057 312.73 250.553C312.488 250.049 312.367 249.459 312.367 248.783C312.367 247.736 312.629 246.922 313.152 246.34C313.676 245.754 314.402 245.461 315.332 245.461C316.23 245.461 316.943 245.76 317.471 246.357C318.002 246.955 318.268 247.764 318.268 248.783ZM313.375 248.783C313.375 249.604 313.539 250.229 313.867 250.658C314.195 251.088 314.678 251.303 315.314 251.303C315.951 251.303 316.434 251.09 316.762 250.664C317.094 250.234 317.26 249.607 317.26 248.783C317.26 247.967 317.094 247.348 316.762 246.926C316.434 246.5 315.947 246.287 315.303 246.287C314.666 246.287 314.186 246.496 313.861 246.914C313.537 247.332 313.375 247.955 313.375 248.783ZM320.893 245.578V249.744C320.893 250.268 321.012 250.658 321.25 250.916C321.488 251.174 321.861 251.303 322.369 251.303C323.041 251.303 323.531 251.119 323.84 250.752C324.152 250.385 324.309 249.785 324.309 248.953V245.578H325.281V252H324.479L324.338 251.139H324.285C324.086 251.455 323.809 251.697 323.453 251.865C323.102 252.033 322.699 252.117 322.246 252.117C321.465 252.117 320.879 251.932 320.488 251.561C320.102 251.189 319.908 250.596 319.908 249.779V245.578H320.893ZM330.279 245.461C330.564 245.461 330.82 245.484 331.047 245.531L330.912 246.434C330.646 246.375 330.412 246.346 330.209 246.346C329.689 246.346 329.244 246.557 328.873 246.979C328.506 247.4 328.322 247.926 328.322 248.555V252H327.35V245.578H328.152L328.264 246.768H328.311C328.549 246.35 328.836 246.027 329.172 245.801C329.508 245.574 329.877 245.461 330.279 245.461ZM336.391 250.248C336.391 250.846 336.168 251.307 335.723 251.631C335.277 251.955 334.652 252.117 333.848 252.117C332.996 252.117 332.332 251.982 331.855 251.713V250.811C332.164 250.967 332.494 251.09 332.846 251.18C333.201 251.27 333.543 251.314 333.871 251.314C334.379 251.314 334.77 251.234 335.043 251.074C335.316 250.91 335.453 250.662 335.453 250.33C335.453 250.08 335.344 249.867 335.125 249.691C334.91 249.512 334.488 249.301 333.859 249.059C333.262 248.836 332.836 248.643 332.582 248.479C332.332 248.311 332.145 248.121 332.02 247.91C331.898 247.699 331.838 247.447 331.838 247.154C331.838 246.631 332.051 246.219 332.477 245.918C332.902 245.613 333.486 245.461 334.229 245.461C334.92 245.461 335.596 245.602 336.256 245.883L335.91 246.674C335.266 246.408 334.682 246.275 334.158 246.275C333.697 246.275 333.35 246.348 333.115 246.492C332.881 246.637 332.764 246.836 332.764 247.09C332.764 247.262 332.807 247.408 332.893 247.529C332.982 247.65 333.125 247.766 333.32 247.875C333.516 247.984 333.891 248.143 334.445 248.35C335.207 248.627 335.721 248.906 335.986 249.188C336.256 249.469 336.391 249.822 336.391 250.248Z" fill="#0A2535"/>
<path d="M433.506 243.434H434.578L431.49 252H430.506L427.436 243.434H428.49L430.459 248.977C430.686 249.613 430.865 250.232 430.998 250.834C431.139 250.201 431.322 249.57 431.549 248.941L433.506 243.434ZM439.564 252L439.371 251.086H439.324C439.004 251.488 438.684 251.762 438.363 251.906C438.047 252.047 437.65 252.117 437.174 252.117C436.537 252.117 436.037 251.953 435.674 251.625C435.314 251.297 435.135 250.83 435.135 250.225C435.135 248.928 436.172 248.248 438.246 248.186L439.336 248.15V247.752C439.336 247.248 439.227 246.877 439.008 246.639C438.793 246.396 438.447 246.275 437.971 246.275C437.436 246.275 436.83 246.439 436.154 246.768L435.855 246.023C436.172 245.852 436.518 245.717 436.893 245.619C437.271 245.521 437.65 245.473 438.029 245.473C438.795 245.473 439.361 245.643 439.729 245.982C440.1 246.322 440.285 246.867 440.285 247.617V252H439.564ZM437.367 251.314C437.973 251.314 438.447 251.148 438.791 250.816C439.139 250.484 439.312 250.02 439.312 249.422V248.842L438.34 248.883C437.566 248.91 437.008 249.031 436.664 249.246C436.324 249.457 436.154 249.787 436.154 250.236C436.154 250.588 436.26 250.855 436.471 251.039C436.686 251.223 436.984 251.314 437.367 251.314ZM444.861 252.117C443.932 252.117 443.211 251.832 442.699 251.262C442.191 250.688 441.938 249.877 441.938 248.83C441.938 247.756 442.195 246.926 442.711 246.34C443.23 245.754 443.969 245.461 444.926 245.461C445.234 245.461 445.543 245.494 445.852 245.561C446.16 245.627 446.402 245.705 446.578 245.795L446.279 246.621C446.064 246.535 445.83 246.465 445.576 246.41C445.322 246.352 445.098 246.322 444.902 246.322C443.598 246.322 442.945 247.154 442.945 248.818C442.945 249.607 443.104 250.213 443.42 250.635C443.74 251.057 444.213 251.268 444.838 251.268C445.373 251.268 445.922 251.152 446.484 250.922V251.783C446.055 252.006 445.514 252.117 444.861 252.117ZM451.963 252L451.77 251.086H451.723C451.402 251.488 451.082 251.762 450.762 251.906C450.445 252.047 450.049 252.117 449.572 252.117C448.936 252.117 448.436 251.953 448.072 251.625C447.713 251.297 447.533 250.83 447.533 250.225C447.533 248.928 448.57 248.248 450.645 248.186L451.734 248.15V247.752C451.734 247.248 451.625 246.877 451.406 246.639C451.191 246.396 450.846 246.275 450.369 246.275C449.834 246.275 449.229 246.439 448.553 246.768L448.254 246.023C448.57 245.852 448.916 245.717 449.291 245.619C449.67 245.521 450.049 245.473 450.428 245.473C451.193 245.473 451.76 245.643 452.127 245.982C452.498 246.322 452.684 246.867 452.684 247.617V252H451.963ZM449.766 251.314C450.371 251.314 450.846 251.148 451.189 250.816C451.537 250.484 451.711 250.02 451.711 249.422V248.842L450.738 248.883C449.965 248.91 449.406 249.031 449.062 249.246C448.723 249.457 448.553 249.787 448.553 250.236C448.553 250.588 448.658 250.855 448.869 251.039C449.084 251.223 449.383 251.314 449.766 251.314ZM456.768 251.314C456.939 251.314 457.105 251.303 457.266 251.279C457.426 251.252 457.553 251.225 457.646 251.197V251.941C457.541 251.992 457.385 252.033 457.178 252.064C456.975 252.1 456.791 252.117 456.627 252.117C455.385 252.117 454.764 251.463 454.764 250.154V246.334H453.844V245.865L454.764 245.461L455.174 244.09H455.736V245.578H457.6V246.334H455.736V250.113C455.736 250.5 455.828 250.797 456.012 251.004C456.195 251.211 456.447 251.314 456.768 251.314ZM459.908 252H458.936V245.578H459.908V252ZM458.854 243.838C458.854 243.615 458.908 243.453 459.018 243.352C459.127 243.246 459.264 243.193 459.428 243.193C459.584 243.193 459.719 243.246 459.832 243.352C459.945 243.457 460.002 243.619 460.002 243.838C460.002 244.057 459.945 244.221 459.832 244.33C459.719 244.436 459.584 244.488 459.428 244.488C459.264 244.488 459.127 244.436 459.018 244.33C458.908 244.221 458.854 244.057 458.854 243.838ZM467.514 248.783C467.514 249.83 467.25 250.648 466.723 251.238C466.195 251.824 465.467 252.117 464.537 252.117C463.963 252.117 463.453 251.982 463.008 251.713C462.562 251.443 462.219 251.057 461.977 250.553C461.734 250.049 461.613 249.459 461.613 248.783C461.613 247.736 461.875 246.922 462.398 246.34C462.922 245.754 463.648 245.461 464.578 245.461C465.477 245.461 466.189 245.76 466.717 246.357C467.248 246.955 467.514 247.764 467.514 248.783ZM462.621 248.783C462.621 249.604 462.785 250.229 463.113 250.658C463.441 251.088 463.924 251.303 464.561 251.303C465.197 251.303 465.68 251.09 466.008 250.664C466.34 250.234 466.506 249.607 466.506 248.783C466.506 247.967 466.34 247.348 466.008 246.926C465.68 246.5 465.193 246.287 464.549 246.287C463.912 246.287 463.432 246.496 463.107 246.914C462.783 247.332 462.621 247.955 462.621 248.783ZM473.619 252V247.846C473.619 247.322 473.5 246.932 473.262 246.674C473.023 246.416 472.65 246.287 472.143 246.287C471.471 246.287 470.979 246.469 470.666 246.832C470.354 247.195 470.197 247.795 470.197 248.631V252H469.225V245.578H470.016L470.174 246.457H470.221C470.42 246.141 470.699 245.896 471.059 245.725C471.418 245.549 471.818 245.461 472.26 245.461C473.033 245.461 473.615 245.648 474.006 246.023C474.396 246.395 474.592 246.99 474.592 247.811V252H473.619Z" fill="#0A2535"/>
<path d="M446.189 271.721C446.189 272.475 445.916 273.062 445.369 273.484C444.822 273.906 444.08 274.117 443.143 274.117C442.127 274.117 441.346 273.986 440.799 273.725V272.764C441.15 272.912 441.533 273.029 441.947 273.115C442.361 273.201 442.771 273.244 443.178 273.244C443.842 273.244 444.342 273.119 444.678 272.869C445.014 272.615 445.182 272.264 445.182 271.814C445.182 271.518 445.121 271.275 445 271.088C444.883 270.896 444.684 270.721 444.402 270.561C444.125 270.4 443.701 270.219 443.131 270.016C442.334 269.73 441.764 269.393 441.42 269.002C441.08 268.611 440.91 268.102 440.91 267.473C440.91 266.812 441.158 266.287 441.654 265.896C442.15 265.506 442.807 265.311 443.623 265.311C444.475 265.311 445.258 265.467 445.973 265.779L445.662 266.646C444.955 266.35 444.268 266.201 443.6 266.201C443.072 266.201 442.66 266.314 442.363 266.541C442.066 266.768 441.918 267.082 441.918 267.484C441.918 267.781 441.973 268.025 442.082 268.217C442.191 268.404 442.375 268.578 442.633 268.738C442.895 268.895 443.293 269.068 443.828 269.26C444.727 269.58 445.344 269.924 445.68 270.291C446.02 270.658 446.189 271.135 446.189 271.721ZM448.768 274H447.795V267.578H448.768V274ZM447.713 265.838C447.713 265.615 447.768 265.453 447.877 265.352C447.986 265.246 448.123 265.193 448.287 265.193C448.443 265.193 448.578 265.246 448.691 265.352C448.805 265.457 448.861 265.619 448.861 265.838C448.861 266.057 448.805 266.221 448.691 266.33C448.578 266.436 448.443 266.488 448.287 266.488C448.123 266.488 447.986 266.436 447.877 266.33C447.768 266.221 447.713 266.057 447.713 265.838ZM453.396 274.117C452.467 274.117 451.746 273.832 451.234 273.262C450.727 272.688 450.473 271.877 450.473 270.83C450.473 269.756 450.73 268.926 451.246 268.34C451.766 267.754 452.504 267.461 453.461 267.461C453.77 267.461 454.078 267.494 454.387 267.561C454.695 267.627 454.938 267.705 455.113 267.795L454.814 268.621C454.6 268.535 454.365 268.465 454.111 268.41C453.857 268.352 453.633 268.322 453.438 268.322C452.133 268.322 451.48 269.154 451.48 270.818C451.48 271.607 451.639 272.213 451.955 272.635C452.275 273.057 452.748 273.268 453.373 273.268C453.908 273.268 454.457 273.152 455.02 272.922V273.783C454.59 274.006 454.049 274.117 453.396 274.117ZM457.51 270.713C457.678 270.475 457.934 270.162 458.277 269.775L460.352 267.578H461.506L458.904 270.314L461.688 274H460.51L458.242 270.965L457.51 271.598V274H456.549V264.883H457.51V269.717C457.51 269.932 457.494 270.264 457.463 270.713H457.51Z" fill="#0A2535"/>
<path d="M579.111 244.201C578.17 244.201 577.426 244.516 576.879 245.145C576.336 245.77 576.064 246.627 576.064 247.717C576.064 248.838 576.326 249.705 576.85 250.318C577.377 250.928 578.127 251.232 579.1 251.232C579.697 251.232 580.379 251.125 581.145 250.91V251.783C580.551 252.006 579.818 252.117 578.947 252.117C577.686 252.117 576.711 251.734 576.023 250.969C575.34 250.203 574.998 249.115 574.998 247.705C574.998 246.822 575.162 246.049 575.49 245.385C575.822 244.721 576.299 244.209 576.92 243.85C577.545 243.49 578.279 243.311 579.123 243.311C580.021 243.311 580.807 243.475 581.479 243.803L581.057 244.658C580.408 244.354 579.76 244.201 579.111 244.201ZM585.797 245.461C586.082 245.461 586.338 245.484 586.564 245.531L586.43 246.434C586.164 246.375 585.93 246.346 585.727 246.346C585.207 246.346 584.762 246.557 584.391 246.979C584.023 247.4 583.84 247.926 583.84 248.555V252H582.867V245.578H583.67L583.781 246.768H583.828C584.066 246.35 584.354 246.027 584.689 245.801C585.025 245.574 585.395 245.461 585.797 245.461ZM590.479 252.117C589.529 252.117 588.779 251.828 588.229 251.25C587.682 250.672 587.408 249.869 587.408 248.842C587.408 247.807 587.662 246.984 588.17 246.375C588.682 245.766 589.367 245.461 590.227 245.461C591.031 245.461 591.668 245.727 592.137 246.258C592.605 246.785 592.84 247.482 592.84 248.35V248.965H588.416C588.436 249.719 588.625 250.291 588.984 250.682C589.348 251.072 589.857 251.268 590.514 251.268C591.205 251.268 591.889 251.123 592.564 250.834V251.701C592.221 251.85 591.895 251.955 591.586 252.018C591.281 252.084 590.912 252.117 590.479 252.117ZM590.215 246.275C589.699 246.275 589.287 246.443 588.979 246.779C588.674 247.115 588.494 247.58 588.439 248.174H591.797C591.797 247.561 591.66 247.092 591.387 246.768C591.113 246.439 590.723 246.275 590.215 246.275ZM598.875 251.139H598.822C598.373 251.791 597.701 252.117 596.807 252.117C595.967 252.117 595.312 251.83 594.844 251.256C594.379 250.682 594.146 249.865 594.146 248.807C594.146 247.748 594.381 246.926 594.85 246.34C595.318 245.754 595.971 245.461 596.807 245.461C597.678 245.461 598.346 245.777 598.811 246.41H598.887L598.846 245.947L598.822 245.496V242.883H599.795V252H599.004L598.875 251.139ZM596.93 251.303C597.594 251.303 598.074 251.123 598.371 250.764C598.672 250.4 598.822 249.816 598.822 249.012V248.807C598.822 247.896 598.67 247.248 598.365 246.861C598.064 246.471 597.582 246.275 596.918 246.275C596.348 246.275 595.91 246.498 595.605 246.943C595.305 247.385 595.154 248.01 595.154 248.818C595.154 249.639 595.305 250.258 595.605 250.676C595.906 251.094 596.348 251.303 596.93 251.303ZM602.836 252H601.863V245.578H602.836V252ZM601.781 243.838C601.781 243.615 601.836 243.453 601.945 243.352C602.055 243.246 602.191 243.193 602.355 243.193C602.512 243.193 602.646 243.246 602.76 243.352C602.873 243.457 602.93 243.619 602.93 243.838C602.93 244.057 602.873 244.221 602.76 244.33C602.646 244.436 602.512 244.488 602.355 244.488C602.191 244.488 602.055 244.436 601.945 244.33C601.836 244.221 601.781 244.057 601.781 243.838ZM606.973 251.314C607.145 251.314 607.311 251.303 607.471 251.279C607.631 251.252 607.758 251.225 607.852 251.197V251.941C607.746 251.992 607.59 252.033 607.383 252.064C607.18 252.1 606.996 252.117 606.832 252.117C605.59 252.117 604.969 251.463 604.969 250.154V246.334H604.049V245.865L604.969 245.461L605.379 244.09H605.941V245.578H607.805V246.334H605.941V250.113C605.941 250.5 606.033 250.797 606.217 251.004C606.4 251.211 606.652 251.314 606.973 251.314ZM616.072 244.201C615.131 244.201 614.387 244.516 613.84 245.145C613.297 245.77 613.025 246.627 613.025 247.717C613.025 248.838 613.287 249.705 613.811 250.318C614.338 250.928 615.088 251.232 616.061 251.232C616.658 251.232 617.34 251.125 618.105 250.91V251.783C617.512 252.006 616.779 252.117 615.908 252.117C614.646 252.117 613.672 251.734 612.984 250.969C612.301 250.203 611.959 249.115 611.959 247.705C611.959 246.822 612.123 246.049 612.451 245.385C612.783 244.721 613.26 244.209 613.881 243.85C614.506 243.49 615.24 243.311 616.084 243.311C616.982 243.311 617.768 243.475 618.439 243.803L618.018 244.658C617.369 244.354 616.721 244.201 616.072 244.201ZM623.777 252L623.584 251.086H623.537C623.217 251.488 622.896 251.762 622.576 251.906C622.26 252.047 621.863 252.117 621.387 252.117C620.75 252.117 620.25 251.953 619.887 251.625C619.527 251.297 619.348 250.83 619.348 250.225C619.348 248.928 620.385 248.248 622.459 248.186L623.549 248.15V247.752C623.549 247.248 623.439 246.877 623.221 246.639C623.006 246.396 622.66 246.275 622.184 246.275C621.648 246.275 621.043 246.439 620.367 246.768L620.068 246.023C620.385 245.852 620.73 245.717 621.105 245.619C621.484 245.521 621.863 245.473 622.242 245.473C623.008 245.473 623.574 245.643 623.941 245.982C624.312 246.322 624.498 246.867 624.498 247.617V252H623.777ZM621.58 251.314C622.186 251.314 622.66 251.148 623.004 250.816C623.352 250.484 623.525 250.02 623.525 249.422V248.842L622.553 248.883C621.779 248.91 621.221 249.031 620.877 249.246C620.537 249.457 620.367 249.787 620.367 250.236C620.367 250.588 620.473 250.855 620.684 251.039C620.898 251.223 621.197 251.314 621.58 251.314ZM629.438 245.461C629.723 245.461 629.979 245.484 630.205 245.531L630.07 246.434C629.805 246.375 629.57 246.346 629.367 246.346C628.848 246.346 628.402 246.557 628.031 246.979C627.664 247.4 627.48 247.926 627.48 248.555V252H626.508V245.578H627.311L627.422 246.768H627.469C627.707 246.35 627.994 246.027 628.33 245.801C628.666 245.574 629.035 245.461 629.438 245.461ZM635.777 251.139H635.725C635.275 251.791 634.604 252.117 633.709 252.117C632.869 252.117 632.215 251.83 631.746 251.256C631.281 250.682 631.049 249.865 631.049 248.807C631.049 247.748 631.283 246.926 631.752 246.34C632.221 245.754 632.873 245.461 633.709 245.461C634.58 245.461 635.248 245.777 635.713 246.41H635.789L635.748 245.947L635.725 245.496V242.883H636.697V252H635.906L635.777 251.139ZM633.832 251.303C634.496 251.303 634.977 251.123 635.273 250.764C635.574 250.4 635.725 249.816 635.725 249.012V248.807C635.725 247.896 635.572 247.248 635.268 246.861C634.967 246.471 634.484 246.275 633.82 246.275C633.25 246.275 632.812 246.498 632.508 246.943C632.207 247.385 632.057 248.01 632.057 248.818C632.057 249.639 632.207 250.258 632.508 250.676C632.809 251.094 633.25 251.303 633.832 251.303Z" fill="#0A2535"/>
<path d="M597.17 266.201C596.229 266.201 595.484 266.516 594.938 267.145C594.395 267.77 594.123 268.627 594.123 269.717C594.123 270.838 594.385 271.705 594.908 272.318C595.436 272.928 596.186 273.232 597.158 273.232C597.756 273.232 598.438 273.125 599.203 272.91V273.783C598.609 274.006 597.877 274.117 597.006 274.117C595.744 274.117 594.77 273.734 594.082 272.969C593.398 272.203 593.057 271.115 593.057 269.705C593.057 268.822 593.221 268.049 593.549 267.385C593.881 266.721 594.357 266.209 594.979 265.85C595.604 265.49 596.338 265.311 597.182 265.311C598.08 265.311 598.865 265.475 599.537 265.803L599.115 266.658C598.467 266.354 597.818 266.201 597.17 266.201ZM604.875 274L604.682 273.086H604.635C604.314 273.488 603.994 273.762 603.674 273.906C603.357 274.047 602.961 274.117 602.484 274.117C601.848 274.117 601.348 273.953 600.984 273.625C600.625 273.297 600.445 272.83 600.445 272.225C600.445 270.928 601.482 270.248 603.557 270.186L604.646 270.15V269.752C604.646 269.248 604.537 268.877 604.318 268.639C604.104 268.396 603.758 268.275 603.281 268.275C602.746 268.275 602.141 268.439 601.465 268.768L601.166 268.023C601.482 267.852 601.828 267.717 602.203 267.619C602.582 267.521 602.961 267.473 603.34 267.473C604.105 267.473 604.672 267.643 605.039 267.982C605.41 268.322 605.596 268.867 605.596 269.617V274H604.875ZM602.678 273.314C603.283 273.314 603.758 273.148 604.102 272.816C604.449 272.484 604.623 272.02 604.623 271.422V270.842L603.65 270.883C602.877 270.91 602.318 271.031 601.975 271.246C601.635 271.457 601.465 271.787 601.465 272.236C601.465 272.588 601.57 272.855 601.781 273.039C601.996 273.223 602.295 273.314 602.678 273.314ZM611.748 272.248C611.748 272.846 611.525 273.307 611.08 273.631C610.635 273.955 610.01 274.117 609.205 274.117C608.354 274.117 607.689 273.982 607.213 273.713V272.811C607.521 272.967 607.852 273.09 608.203 273.18C608.559 273.27 608.9 273.314 609.229 273.314C609.736 273.314 610.127 273.234 610.4 273.074C610.674 272.91 610.811 272.662 610.811 272.33C610.811 272.08 610.701 271.867 610.482 271.691C610.268 271.512 609.846 271.301 609.217 271.059C608.619 270.836 608.193 270.643 607.939 270.479C607.689 270.311 607.502 270.121 607.377 269.91C607.256 269.699 607.195 269.447 607.195 269.154C607.195 268.631 607.408 268.219 607.834 267.918C608.26 267.613 608.844 267.461 609.586 267.461C610.277 267.461 610.953 267.602 611.613 267.883L611.268 268.674C610.623 268.408 610.039 268.275 609.516 268.275C609.055 268.275 608.707 268.348 608.473 268.492C608.238 268.637 608.121 268.836 608.121 269.09C608.121 269.262 608.164 269.408 608.25 269.529C608.34 269.65 608.482 269.766 608.678 269.875C608.873 269.984 609.248 270.143 609.803 270.35C610.564 270.627 611.078 270.906 611.344 271.188C611.613 271.469 611.748 271.822 611.748 272.248ZM617.73 274V269.846C617.73 269.322 617.611 268.932 617.373 268.674C617.135 268.416 616.762 268.287 616.254 268.287C615.578 268.287 615.084 268.471 614.771 268.838C614.463 269.205 614.309 269.807 614.309 270.643V274H613.336V264.883H614.309V267.643C614.309 267.975 614.293 268.25 614.262 268.469H614.32C614.512 268.16 614.783 267.918 615.135 267.742C615.49 267.562 615.895 267.473 616.348 267.473C617.133 267.473 617.721 267.66 618.111 268.035C618.506 268.406 618.703 268.998 618.703 269.811V274H617.73Z" fill="#0A2535"/>
<path d="M738.189 243.434H740.609C741.746 243.434 742.568 243.604 743.076 243.943C743.584 244.283 743.838 244.82 743.838 245.555C743.838 246.062 743.695 246.482 743.41 246.814C743.129 247.143 742.717 247.355 742.174 247.453V247.512C743.475 247.734 744.125 248.418 744.125 249.562C744.125 250.328 743.865 250.926 743.346 251.355C742.83 251.785 742.107 252 741.178 252H738.189V243.434ZM739.186 247.102H740.826C741.529 247.102 742.035 246.992 742.344 246.773C742.652 246.551 742.807 246.178 742.807 245.654C742.807 245.174 742.635 244.828 742.291 244.617C741.947 244.402 741.4 244.295 740.65 244.295H739.186V247.102ZM739.186 247.945V251.15H740.973C741.664 251.15 742.184 251.018 742.531 250.752C742.883 250.482 743.059 250.062 743.059 249.492C743.059 248.961 742.879 248.57 742.52 248.32C742.164 248.07 741.621 247.945 740.891 247.945H739.186ZM751.367 248.783C751.367 249.83 751.104 250.648 750.576 251.238C750.049 251.824 749.32 252.117 748.391 252.117C747.816 252.117 747.307 251.982 746.861 251.713C746.416 251.443 746.072 251.057 745.83 250.553C745.588 250.049 745.467 249.459 745.467 248.783C745.467 247.736 745.729 246.922 746.252 246.34C746.775 245.754 747.502 245.461 748.432 245.461C749.33 245.461 750.043 245.76 750.57 246.357C751.102 246.955 751.367 247.764 751.367 248.783ZM746.475 248.783C746.475 249.604 746.639 250.229 746.967 250.658C747.295 251.088 747.777 251.303 748.414 251.303C749.051 251.303 749.533 251.09 749.861 250.664C750.193 250.234 750.359 249.607 750.359 248.783C750.359 247.967 750.193 247.348 749.861 246.926C749.533 246.5 749.047 246.287 748.402 246.287C747.766 246.287 747.285 246.496 746.961 246.914C746.637 247.332 746.475 247.955 746.475 248.783ZM757.473 252V247.846C757.473 247.322 757.354 246.932 757.115 246.674C756.877 246.416 756.504 246.287 755.996 246.287C755.324 246.287 754.832 246.469 754.52 246.832C754.207 247.195 754.051 247.795 754.051 248.631V252H753.078V245.578H753.869L754.027 246.457H754.074C754.273 246.141 754.553 245.896 754.912 245.725C755.271 245.549 755.672 245.461 756.113 245.461C756.887 245.461 757.469 245.648 757.859 246.023C758.25 246.395 758.445 246.99 758.445 247.811V252H757.473ZM761.363 245.578V249.744C761.363 250.268 761.482 250.658 761.721 250.916C761.959 251.174 762.332 251.303 762.84 251.303C763.512 251.303 764.002 251.119 764.311 250.752C764.623 250.385 764.779 249.785 764.779 248.953V245.578H765.752V252H764.949L764.809 251.139H764.756C764.557 251.455 764.279 251.697 763.924 251.865C763.572 252.033 763.17 252.117 762.717 252.117C761.936 252.117 761.35 251.932 760.959 251.561C760.572 251.189 760.379 250.596 760.379 249.779V245.578H761.363ZM771.963 250.248C771.963 250.846 771.74 251.307 771.295 251.631C770.85 251.955 770.225 252.117 769.42 252.117C768.568 252.117 767.904 251.982 767.428 251.713V250.811C767.736 250.967 768.066 251.09 768.418 251.18C768.773 251.27 769.115 251.314 769.443 251.314C769.951 251.314 770.342 251.234 770.615 251.074C770.889 250.91 771.025 250.662 771.025 250.33C771.025 250.08 770.916 249.867 770.697 249.691C770.482 249.512 770.061 249.301 769.432 249.059C768.834 248.836 768.408 248.643 768.154 248.479C767.904 248.311 767.717 248.121 767.592 247.91C767.471 247.699 767.41 247.447 767.41 247.154C767.41 246.631 767.623 246.219 768.049 245.918C768.475 245.613 769.059 245.461 769.801 245.461C770.492 245.461 771.168 245.602 771.828 245.883L771.482 246.674C770.838 246.408 770.254 246.275 769.73 246.275C769.27 246.275 768.922 246.348 768.688 246.492C768.453 246.637 768.336 246.836 768.336 247.09C768.336 247.262 768.379 247.408 768.465 247.529C768.555 247.65 768.697 247.766 768.893 247.875C769.088 247.984 769.463 248.143 770.018 248.35C770.779 248.627 771.293 248.906 771.559 249.188C771.828 249.469 771.963 249.822 771.963 250.248ZM776.264 252.117C775.314 252.117 774.564 251.828 774.014 251.25C773.467 250.672 773.193 249.869 773.193 248.842C773.193 247.807 773.447 246.984 773.955 246.375C774.467 245.766 775.152 245.461 776.012 245.461C776.816 245.461 777.453 245.727 777.922 246.258C778.391 246.785 778.625 247.482 778.625 248.35V248.965H774.201C774.221 249.719 774.41 250.291 774.77 250.682C775.133 251.072 775.643 251.268 776.299 251.268C776.99 251.268 777.674 251.123 778.35 250.834V251.701C778.006 251.85 777.68 251.955 777.371 252.018C777.066 252.084 776.697 252.117 776.264 252.117ZM776 246.275C775.484 246.275 775.072 246.443 774.764 246.779C774.459 247.115 774.279 247.58 774.225 248.174H777.582C777.582 247.561 777.445 247.092 777.172 246.768C776.898 246.439 776.508 246.275 776 246.275ZM784.432 250.248C784.432 250.846 784.209 251.307 783.764 251.631C783.318 251.955 782.693 252.117 781.889 252.117C781.037 252.117 780.373 251.982 779.896 251.713V250.811C780.205 250.967 780.535 251.09 780.887 251.18C781.242 251.27 781.584 251.314 781.912 251.314C782.42 251.314 782.811 251.234 783.084 251.074C783.357 250.91 783.494 250.662 783.494 250.33C783.494 250.08 783.385 249.867 783.166 249.691C782.951 249.512 782.529 249.301 781.9 249.059C781.303 248.836 780.877 248.643 780.623 248.479C780.373 248.311 780.186 248.121 780.061 247.91C779.939 247.699 779.879 247.447 779.879 247.154C779.879 246.631 780.092 246.219 780.518 245.918C780.943 245.613 781.527 245.461 782.27 245.461C782.961 245.461 783.637 245.602 784.297 245.883L783.951 246.674C783.307 246.408 782.723 246.275 782.199 246.275C781.738 246.275 781.391 246.348 781.156 246.492C780.922 246.637 780.805 246.836 780.805 247.09C780.805 247.262 780.848 247.408 780.934 247.529C781.023 247.65 781.166 247.766 781.361 247.875C781.557 247.984 781.932 248.143 782.486 248.35C783.248 248.627 783.762 248.906 784.027 249.188C784.297 249.469 784.432 249.822 784.432 250.248Z" fill="#0A2535"/>
<path d="M728.322 266.201C727.381 266.201 726.637 266.516 726.09 267.145C725.547 267.77 725.275 268.627 725.275 269.717C725.275 270.838 725.537 271.705 726.061 272.318C726.588 272.928 727.338 273.232 728.311 273.232C728.908 273.232 729.59 273.125 730.355 272.91V273.783C729.762 274.006 729.029 274.117 728.158 274.117C726.896 274.117 725.922 273.734 725.234 272.969C724.551 272.203 724.209 271.115 724.209 269.705C724.209 268.822 724.373 268.049 724.701 267.385C725.033 266.721 725.51 266.209 726.131 265.85C726.756 265.49 727.49 265.311 728.334 265.311C729.232 265.311 730.018 265.475 730.689 265.803L730.268 266.658C729.619 266.354 728.971 266.201 728.322 266.201ZM737.621 270.783C737.621 271.83 737.357 272.648 736.83 273.238C736.303 273.824 735.574 274.117 734.645 274.117C734.07 274.117 733.561 273.982 733.115 273.713C732.67 273.443 732.326 273.057 732.084 272.553C731.842 272.049 731.721 271.459 731.721 270.783C731.721 269.736 731.982 268.922 732.506 268.34C733.029 267.754 733.756 267.461 734.686 267.461C735.584 267.461 736.297 267.76 736.824 268.357C737.355 268.955 737.621 269.764 737.621 270.783ZM732.729 270.783C732.729 271.604 732.893 272.229 733.221 272.658C733.549 273.088 734.031 273.303 734.668 273.303C735.305 273.303 735.787 273.09 736.115 272.664C736.447 272.234 736.613 271.607 736.613 270.783C736.613 269.967 736.447 269.348 736.115 268.926C735.787 268.5 735.301 268.287 734.656 268.287C734.02 268.287 733.539 268.496 733.215 268.914C732.891 269.332 732.729 269.955 732.729 270.783ZM747.518 274V269.822C747.518 269.311 747.408 268.928 747.189 268.674C746.971 268.416 746.631 268.287 746.17 268.287C745.564 268.287 745.117 268.461 744.828 268.809C744.539 269.156 744.395 269.691 744.395 270.414V274H743.422V269.822C743.422 269.311 743.312 268.928 743.094 268.674C742.875 268.416 742.533 268.287 742.068 268.287C741.459 268.287 741.012 268.471 740.727 268.838C740.445 269.201 740.305 269.799 740.305 270.631V274H739.332V267.578H740.123L740.281 268.457H740.328C740.512 268.145 740.77 267.9 741.102 267.725C741.438 267.549 741.812 267.461 742.227 267.461C743.23 267.461 743.887 267.824 744.195 268.551H744.242C744.434 268.215 744.711 267.949 745.074 267.754C745.438 267.559 745.852 267.461 746.316 267.461C747.043 267.461 747.586 267.648 747.945 268.023C748.309 268.395 748.49 268.99 748.49 269.811V274H747.518ZM758.686 274V269.822C758.686 269.311 758.576 268.928 758.357 268.674C758.139 268.416 757.799 268.287 757.338 268.287C756.732 268.287 756.285 268.461 755.996 268.809C755.707 269.156 755.562 269.691 755.562 270.414V274H754.59V269.822C754.59 269.311 754.48 268.928 754.262 268.674C754.043 268.416 753.701 268.287 753.236 268.287C752.627 268.287 752.18 268.471 751.895 268.838C751.613 269.201 751.473 269.799 751.473 270.631V274H750.5V267.578H751.291L751.449 268.457H751.496C751.68 268.145 751.938 267.9 752.27 267.725C752.605 267.549 752.98 267.461 753.395 267.461C754.398 267.461 755.055 267.824 755.363 268.551H755.41C755.602 268.215 755.879 267.949 756.242 267.754C756.605 267.559 757.02 267.461 757.484 267.461C758.211 267.461 758.754 267.648 759.113 268.023C759.477 268.395 759.658 268.99 759.658 269.811V274H758.686ZM762.641 274H761.668V267.578H762.641V274ZM761.586 265.838C761.586 265.615 761.641 265.453 761.75 265.352C761.859 265.246 761.996 265.193 762.16 265.193C762.316 265.193 762.451 265.246 762.564 265.352C762.678 265.457 762.734 265.619 762.734 265.838C762.734 266.057 762.678 266.221 762.564 266.33C762.451 266.436 762.316 266.488 762.16 266.488C761.996 266.488 761.859 266.436 761.75 266.33C761.641 266.221 761.586 266.057 761.586 265.838ZM768.846 272.248C768.846 272.846 768.623 273.307 768.178 273.631C767.732 273.955 767.107 274.117 766.303 274.117C765.451 274.117 764.787 273.982 764.311 273.713V272.811C764.619 272.967 764.949 273.09 765.301 273.18C765.656 273.27 765.998 273.314 766.326 273.314C766.834 273.314 767.225 273.234 767.498 273.074C767.771 272.91 767.908 272.662 767.908 272.33C767.908 272.08 767.799 271.867 767.58 271.691C767.365 271.512 766.943 271.301 766.314 271.059C765.717 270.836 765.291 270.643 765.037 270.479C764.787 270.311 764.6 270.121 764.475 269.91C764.354 269.699 764.293 269.447 764.293 269.154C764.293 268.631 764.506 268.219 764.932 267.918C765.357 267.613 765.941 267.461 766.684 267.461C767.375 267.461 768.051 267.602 768.711 267.883L768.365 268.674C767.721 268.408 767.137 268.275 766.613 268.275C766.152 268.275 765.805 268.348 765.57 268.492C765.336 268.637 765.219 268.836 765.219 269.09C765.219 269.262 765.262 269.408 765.348 269.529C765.438 269.65 765.58 269.766 765.775 269.875C765.971 269.984 766.346 270.143 766.9 270.35C767.662 270.627 768.176 270.906 768.441 271.188C768.711 271.469 768.846 271.822 768.846 272.248ZM774.576 272.248C774.576 272.846 774.354 273.307 773.908 273.631C773.463 273.955 772.838 274.117 772.033 274.117C771.182 274.117 770.518 273.982 770.041 273.713V272.811C770.35 272.967 770.68 273.09 771.031 273.18C771.387 273.27 771.729 273.314 772.057 273.314C772.564 273.314 772.955 273.234 773.229 273.074C773.502 272.91 773.639 272.662 773.639 272.33C773.639 272.08 773.529 271.867 773.311 271.691C773.096 271.512 772.674 271.301 772.045 271.059C771.447 270.836 771.021 270.643 770.768 270.479C770.518 270.311 770.33 270.121 770.205 269.91C770.084 269.699 770.023 269.447 770.023 269.154C770.023 268.631 770.236 268.219 770.662 267.918C771.088 267.613 771.672 267.461 772.414 267.461C773.105 267.461 773.781 267.602 774.441 267.883L774.096 268.674C773.451 268.408 772.867 268.275 772.344 268.275C771.883 268.275 771.535 268.348 771.301 268.492C771.066 268.637 770.949 268.836 770.949 269.09C770.949 269.262 770.992 269.408 771.078 269.529C771.168 269.65 771.311 269.766 771.506 269.875C771.701 269.984 772.076 270.143 772.631 270.35C773.393 270.627 773.906 270.906 774.172 271.188C774.441 271.469 774.576 271.822 774.576 272.248ZM777.137 274H776.164V267.578H777.137V274ZM776.082 265.838C776.082 265.615 776.137 265.453 776.246 265.352C776.355 265.246 776.492 265.193 776.656 265.193C776.812 265.193 776.947 265.246 777.061 265.352C777.174 265.457 777.23 265.619 777.23 265.838C777.23 266.057 777.174 266.221 777.061 266.33C776.947 266.436 776.812 266.488 776.656 266.488C776.492 266.488 776.355 266.436 776.246 266.33C776.137 266.221 776.082 266.057 776.082 265.838ZM784.742 270.783C784.742 271.83 784.479 272.648 783.951 273.238C783.424 273.824 782.695 274.117 781.766 274.117C781.191 274.117 780.682 273.982 780.236 273.713C779.791 273.443 779.447 273.057 779.205 272.553C778.963 272.049 778.842 271.459 778.842 270.783C778.842 269.736 779.104 268.922 779.627 268.34C780.15 267.754 780.877 267.461 781.807 267.461C782.705 267.461 783.418 267.76 783.945 268.357C784.477 268.955 784.742 269.764 784.742 270.783ZM779.85 270.783C779.85 271.604 780.014 272.229 780.342 272.658C780.67 273.088 781.152 273.303 781.789 273.303C782.426 273.303 782.908 273.09 783.236 272.664C783.568 272.234 783.734 271.607 783.734 270.783C783.734 269.967 783.568 269.348 783.236 268.926C782.908 268.5 782.422 268.287 781.777 268.287C781.141 268.287 780.66 268.496 780.336 268.914C780.012 269.332 779.85 269.955 779.85 270.783ZM790.848 274V269.846C790.848 269.322 790.729 268.932 790.49 268.674C790.252 268.416 789.879 268.287 789.371 268.287C788.699 268.287 788.207 268.469 787.895 268.832C787.582 269.195 787.426 269.795 787.426 270.631V274H786.453V267.578H787.244L787.402 268.457H787.449C787.648 268.141 787.928 267.896 788.287 267.725C788.646 267.549 789.047 267.461 789.488 267.461C790.262 267.461 790.844 267.648 791.234 268.023C791.625 268.395 791.82 268.99 791.82 269.811V274H790.848ZM797.967 272.248C797.967 272.846 797.744 273.307 797.299 273.631C796.854 273.955 796.229 274.117 795.424 274.117C794.572 274.117 793.908 273.982 793.432 273.713V272.811C793.74 272.967 794.07 273.09 794.422 273.18C794.777 273.27 795.119 273.314 795.447 273.314C795.955 273.314 796.346 273.234 796.619 273.074C796.893 272.91 797.029 272.662 797.029 272.33C797.029 272.08 796.92 271.867 796.701 271.691C796.486 271.512 796.064 271.301 795.436 271.059C794.838 270.836 794.412 270.643 794.158 270.479C793.908 270.311 793.721 270.121 793.596 269.91C793.475 269.699 793.414 269.447 793.414 269.154C793.414 268.631 793.627 268.219 794.053 267.918C794.479 267.613 795.062 267.461 795.805 267.461C796.496 267.461 797.172 267.602 797.832 267.883L797.486 268.674C796.842 268.408 796.258 268.275 795.734 268.275C795.273 268.275 794.926 268.348 794.691 268.492C794.457 268.637 794.34 268.836 794.34 269.09C794.34 269.262 794.383 269.408 794.469 269.529C794.559 269.65 794.701 269.766 794.896 269.875C795.092 269.984 795.467 270.143 796.021 270.35C796.783 270.627 797.297 270.906 797.562 271.188C797.832 271.469 797.967 271.822 797.967 272.248Z" fill="#0A2535"/>
<rect x="447" y="356" width="163" height="42" fill="white" stroke="#68C6A4" stroke-width="2"/>
<path d="M511.867 383H510V373.18H506.641V371.578H515.227V373.18H511.867V383ZM522.195 383L521.828 381.797H521.766C521.349 382.323 520.93 382.682 520.508 382.875C520.086 383.062 519.544 383.156 518.883 383.156C518.034 383.156 517.37 382.927 516.891 382.469C516.417 382.01 516.18 381.362 516.18 380.523C516.18 379.633 516.51 378.961 517.172 378.508C517.833 378.055 518.841 377.807 520.195 377.766L521.688 377.719V377.258C521.688 376.706 521.557 376.294 521.297 376.023C521.042 375.747 520.643 375.609 520.102 375.609C519.659 375.609 519.234 375.674 518.828 375.805C518.422 375.935 518.031 376.089 517.656 376.266L517.062 374.953C517.531 374.708 518.044 374.523 518.602 374.398C519.159 374.268 519.685 374.203 520.18 374.203C521.279 374.203 522.107 374.443 522.664 374.922C523.227 375.401 523.508 376.154 523.508 377.18V383H522.195ZM519.461 381.75C520.128 381.75 520.661 381.565 521.062 381.195C521.469 380.82 521.672 380.297 521.672 379.625V378.875L520.562 378.922C519.698 378.953 519.068 379.099 518.672 379.359C518.281 379.615 518.086 380.008 518.086 380.539C518.086 380.924 518.201 381.224 518.43 381.438C518.659 381.646 519.003 381.75 519.461 381.75ZM527.992 378.586L525.094 374.359H527.188L529.156 377.383L531.141 374.359H533.219L530.312 378.586L533.367 383H531.289L529.156 379.766L527.031 383H524.953L527.992 378.586ZM538.656 383.156C537.312 383.156 536.26 382.766 535.5 381.984C534.745 381.198 534.367 380.117 534.367 378.742C534.367 377.331 534.719 376.221 535.422 375.414C536.125 374.607 537.091 374.203 538.32 374.203C539.461 374.203 540.362 374.549 541.023 375.242C541.685 375.935 542.016 376.888 542.016 378.102V379.094H536.258C536.284 379.932 536.51 380.578 536.938 381.031C537.365 381.479 537.966 381.703 538.742 381.703C539.253 381.703 539.727 381.656 540.164 381.562C540.607 381.464 541.081 381.302 541.586 381.078V382.57C541.138 382.784 540.685 382.935 540.227 383.023C539.768 383.112 539.245 383.156 538.656 383.156ZM538.32 375.594C537.737 375.594 537.268 375.779 536.914 376.148C536.565 376.518 536.357 377.057 536.289 377.766H540.211C540.201 377.052 540.029 376.513 539.695 376.148C539.362 375.779 538.904 375.594 538.32 375.594ZM549.906 380.539C549.906 381.383 549.599 382.031 548.984 382.484C548.37 382.932 547.49 383.156 546.344 383.156C545.193 383.156 544.268 382.982 543.57 382.633V381.047C544.586 381.516 545.531 381.75 546.406 381.75C547.536 381.75 548.102 381.409 548.102 380.727C548.102 380.508 548.039 380.326 547.914 380.18C547.789 380.034 547.583 379.883 547.297 379.727C547.01 379.57 546.612 379.393 546.102 379.195C545.107 378.81 544.432 378.424 544.078 378.039C543.729 377.654 543.555 377.154 543.555 376.539C543.555 375.799 543.852 375.227 544.445 374.82C545.044 374.409 545.857 374.203 546.883 374.203C547.898 374.203 548.859 374.409 549.766 374.82L549.172 376.203C548.24 375.818 547.456 375.625 546.82 375.625C545.852 375.625 545.367 375.901 545.367 376.453C545.367 376.724 545.492 376.953 545.742 377.141C545.997 377.328 546.549 377.586 547.398 377.914C548.112 378.19 548.63 378.443 548.953 378.672C549.276 378.901 549.516 379.167 549.672 379.469C549.828 379.766 549.906 380.122 549.906 380.539Z" fill="#0A2535"/>
<rect x="447" y="434" width="163" height="42" fill="white" stroke="#68C6A4" stroke-width="2"/>
<path d="M510.07 461H507.781L502.164 451.898H502.102L502.141 452.406C502.214 453.375 502.25 454.26 502.25 455.062V461H500.555V449.578H502.82L508.422 458.633H508.469C508.458 458.513 508.438 458.078 508.406 457.328C508.375 456.573 508.359 455.984 508.359 455.562V449.578H510.07V461ZM516.664 461.156C515.32 461.156 514.268 460.766 513.508 459.984C512.753 459.198 512.375 458.117 512.375 456.742C512.375 455.331 512.727 454.221 513.43 453.414C514.133 452.607 515.099 452.203 516.328 452.203C517.469 452.203 518.37 452.549 519.031 453.242C519.693 453.935 520.023 454.888 520.023 456.102V457.094H514.266C514.292 457.932 514.518 458.578 514.945 459.031C515.372 459.479 515.974 459.703 516.75 459.703C517.26 459.703 517.734 459.656 518.172 459.562C518.615 459.464 519.089 459.302 519.594 459.078V460.57C519.146 460.784 518.693 460.935 518.234 461.023C517.776 461.112 517.253 461.156 516.664 461.156ZM516.328 453.594C515.745 453.594 515.276 453.779 514.922 454.148C514.573 454.518 514.365 455.057 514.297 455.766H518.219C518.208 455.052 518.036 454.513 517.703 454.148C517.37 453.779 516.911 453.594 516.328 453.594ZM525.328 459.672C525.776 459.672 526.224 459.602 526.672 459.461V460.844C526.469 460.932 526.206 461.005 525.883 461.062C525.565 461.125 525.234 461.156 524.891 461.156C523.151 461.156 522.281 460.24 522.281 458.406V453.75H521.102V452.938L522.367 452.266L522.992 450.438H524.125V452.359H526.586V453.75H524.125V458.375C524.125 458.818 524.234 459.146 524.453 459.359C524.677 459.568 524.969 459.672 525.328 459.672ZM540.32 453.031C540.32 454.224 539.93 455.138 539.148 455.773C538.367 456.409 537.255 456.727 535.812 456.727H534.625V461H532.758V449.578H536.047C537.474 449.578 538.542 449.87 539.25 450.453C539.964 451.036 540.32 451.896 540.32 453.031ZM534.625 455.156H535.617C536.576 455.156 537.279 454.99 537.727 454.656C538.174 454.323 538.398 453.802 538.398 453.094C538.398 452.438 538.198 451.948 537.797 451.625C537.396 451.302 536.771 451.141 535.922 451.141H534.625V455.156ZM547.812 461L547.445 459.797H547.383C546.966 460.323 546.547 460.682 546.125 460.875C545.703 461.062 545.161 461.156 544.5 461.156C543.651 461.156 542.987 460.927 542.508 460.469C542.034 460.01 541.797 459.362 541.797 458.523C541.797 457.633 542.128 456.961 542.789 456.508C543.451 456.055 544.458 455.807 545.812 455.766L547.305 455.719V455.258C547.305 454.706 547.174 454.294 546.914 454.023C546.659 453.747 546.26 453.609 545.719 453.609C545.276 453.609 544.852 453.674 544.445 453.805C544.039 453.935 543.648 454.089 543.273 454.266L542.68 452.953C543.148 452.708 543.661 452.523 544.219 452.398C544.776 452.268 545.302 452.203 545.797 452.203C546.896 452.203 547.724 452.443 548.281 452.922C548.844 453.401 549.125 454.154 549.125 455.18V461H547.812ZM545.078 459.75C545.745 459.75 546.279 459.565 546.68 459.195C547.086 458.82 547.289 458.297 547.289 457.625V456.875L546.18 456.922C545.315 456.953 544.685 457.099 544.289 457.359C543.898 457.615 543.703 458.008 543.703 458.539C543.703 458.924 543.818 459.224 544.047 459.438C544.276 459.646 544.62 459.75 545.078 459.75ZM550.375 452.359H552.375L554.133 457.258C554.398 457.956 554.576 458.612 554.664 459.227H554.727C554.773 458.94 554.859 458.594 554.984 458.188C555.109 457.776 555.771 455.833 556.969 452.359H558.953L555.258 462.148C554.586 463.945 553.466 464.844 551.898 464.844C551.492 464.844 551.096 464.799 550.711 464.711V463.258C550.987 463.32 551.302 463.352 551.656 463.352C552.542 463.352 553.164 462.839 553.523 461.812L553.844 461L550.375 452.359Z" fill="#0A2535"/>
<line x1="528.5" y1="168" x2="528.5" y2="134" stroke="#0A2535"/>
<rect x="34" y="203" width="148" height="86" fill="white" stroke="#68C6A4" stroke-width="2"/>
<path d="M73.4922 230H71.625V220.18H68.2656V218.578H76.8516V220.18H73.4922V230ZM80.25 230H78.4141V221.359H80.25V230ZM78.3047 219.07C78.3047 218.742 78.3932 218.49 78.5703 218.312C78.7526 218.135 79.0104 218.047 79.3438 218.047C79.6667 218.047 79.9167 218.135 80.0938 218.312C80.276 218.49 80.3672 218.742 80.3672 219.07C80.3672 219.383 80.276 219.63 80.0938 219.812C79.9167 219.99 79.6667 220.078 79.3438 220.078C79.0104 220.078 78.7526 219.99 78.5703 219.812C78.3932 219.63 78.3047 219.383 78.3047 219.07ZM90.1641 230H88.3203V224.672C88.3203 224.01 88.1953 223.518 87.9453 223.195C87.6953 222.867 87.3047 222.703 86.7734 222.703C86.0651 222.703 85.5443 222.935 85.2109 223.398C84.8828 223.857 84.7188 224.622 84.7188 225.695V230H82.8828V221.359H84.3203L84.5781 222.492H84.6719C84.9115 222.081 85.2578 221.763 85.7109 221.539C86.1693 221.315 86.6719 221.203 87.2188 221.203C88.5469 221.203 89.4271 221.656 89.8594 222.562H89.9844C90.2396 222.135 90.599 221.802 91.0625 221.562C91.526 221.323 92.0573 221.203 92.6562 221.203C93.6875 221.203 94.4375 221.464 94.9062 221.984C95.3802 222.505 95.6172 223.299 95.6172 224.367V230H93.7812V224.672C93.7812 224.01 93.6536 223.518 93.3984 223.195C93.1484 222.867 92.7578 222.703 92.2266 222.703C91.513 222.703 90.9896 222.927 90.6562 223.375C90.3281 223.818 90.1641 224.5 90.1641 225.422V230ZM101.953 230.156C100.609 230.156 99.5573 229.766 98.7969 228.984C98.0417 228.198 97.6641 227.117 97.6641 225.742C97.6641 224.331 98.0156 223.221 98.7188 222.414C99.4219 221.607 100.388 221.203 101.617 221.203C102.758 221.203 103.659 221.549 104.32 222.242C104.982 222.935 105.312 223.888 105.312 225.102V226.094H99.5547C99.5807 226.932 99.8073 227.578 100.234 228.031C100.661 228.479 101.263 228.703 102.039 228.703C102.549 228.703 103.023 228.656 103.461 228.562C103.904 228.464 104.378 228.302 104.883 228.078V229.57C104.435 229.784 103.982 229.935 103.523 230.023C103.065 230.112 102.542 230.156 101.953 230.156ZM101.617 222.594C101.034 222.594 100.565 222.779 100.211 223.148C99.862 223.518 99.6536 224.057 99.5859 224.766H103.508C103.497 224.052 103.326 223.513 102.992 223.148C102.659 222.779 102.201 222.594 101.617 222.594ZM110.883 230.156C109.576 230.156 108.581 229.776 107.898 229.016C107.221 228.25 106.883 227.154 106.883 225.727C106.883 224.273 107.237 223.156 107.945 222.375C108.659 221.594 109.688 221.203 111.031 221.203C111.943 221.203 112.763 221.372 113.492 221.711L112.938 223.188C112.161 222.885 111.521 222.734 111.016 222.734C109.521 222.734 108.773 223.727 108.773 225.711C108.773 226.68 108.958 227.409 109.328 227.898C109.703 228.383 110.25 228.625 110.969 228.625C111.786 228.625 112.56 228.422 113.289 228.016V229.617C112.961 229.81 112.609 229.948 112.234 230.031C111.865 230.115 111.414 230.156 110.883 230.156ZM120.727 230L120.359 228.797H120.297C119.88 229.323 119.461 229.682 119.039 229.875C118.617 230.062 118.076 230.156 117.414 230.156C116.565 230.156 115.901 229.927 115.422 229.469C114.948 229.01 114.711 228.362 114.711 227.523C114.711 226.633 115.042 225.961 115.703 225.508C116.365 225.055 117.372 224.807 118.727 224.766L120.219 224.719V224.258C120.219 223.706 120.089 223.294 119.828 223.023C119.573 222.747 119.174 222.609 118.633 222.609C118.19 222.609 117.766 222.674 117.359 222.805C116.953 222.935 116.562 223.089 116.188 223.266L115.594 221.953C116.062 221.708 116.576 221.523 117.133 221.398C117.69 221.268 118.216 221.203 118.711 221.203C119.81 221.203 120.638 221.443 121.195 221.922C121.758 222.401 122.039 223.154 122.039 224.18V230H120.727ZM117.992 228.75C118.659 228.75 119.193 228.565 119.594 228.195C120 227.82 120.203 227.297 120.203 226.625V225.875L119.094 225.922C118.229 225.953 117.599 226.099 117.203 226.359C116.812 226.615 116.617 227.008 116.617 227.539C116.617 227.924 116.732 228.224 116.961 228.438C117.19 228.646 117.534 228.75 117.992 228.75ZM128.984 221.203C129.354 221.203 129.659 221.229 129.898 221.281L129.719 222.992C129.458 222.93 129.188 222.898 128.906 222.898C128.172 222.898 127.576 223.138 127.117 223.617C126.664 224.096 126.438 224.719 126.438 225.484V230H124.602V221.359H126.039L126.281 222.883H126.375C126.661 222.367 127.034 221.958 127.492 221.656C127.956 221.354 128.453 221.203 128.984 221.203ZM134.422 230.156C133.344 230.156 132.503 229.766 131.898 228.984C131.294 228.203 130.992 227.107 130.992 225.695C130.992 224.279 131.297 223.177 131.906 222.391C132.521 221.599 133.37 221.203 134.453 221.203C135.589 221.203 136.453 221.622 137.047 222.461H137.141C137.052 221.841 137.008 221.352 137.008 220.992V217.844H138.852V230H137.414L137.094 228.867H137.008C136.419 229.727 135.557 230.156 134.422 230.156ZM134.914 228.672C135.669 228.672 136.219 228.461 136.562 228.039C136.906 227.612 137.083 226.922 137.094 225.969V225.711C137.094 224.622 136.917 223.849 136.562 223.391C136.208 222.932 135.654 222.703 134.898 222.703C134.253 222.703 133.755 222.966 133.406 223.492C133.057 224.013 132.883 224.758 132.883 225.727C132.883 226.685 133.052 227.417 133.391 227.922C133.729 228.422 134.237 228.672 134.914 228.672ZM147.281 227.539C147.281 228.383 146.974 229.031 146.359 229.484C145.745 229.932 144.865 230.156 143.719 230.156C142.568 230.156 141.643 229.982 140.945 229.633V228.047C141.961 228.516 142.906 228.75 143.781 228.75C144.911 228.75 145.477 228.409 145.477 227.727C145.477 227.508 145.414 227.326 145.289 227.18C145.164 227.034 144.958 226.883 144.672 226.727C144.385 226.57 143.987 226.393 143.477 226.195C142.482 225.81 141.807 225.424 141.453 225.039C141.104 224.654 140.93 224.154 140.93 223.539C140.93 222.799 141.227 222.227 141.82 221.82C142.419 221.409 143.232 221.203 144.258 221.203C145.273 221.203 146.234 221.409 147.141 221.82L146.547 223.203C145.615 222.818 144.831 222.625 144.195 222.625C143.227 222.625 142.742 222.901 142.742 223.453C142.742 223.724 142.867 223.953 143.117 224.141C143.372 224.328 143.924 224.586 144.773 224.914C145.487 225.19 146.005 225.443 146.328 225.672C146.651 225.901 146.891 226.167 147.047 226.469C147.203 226.766 147.281 227.122 147.281 227.539Z" fill="#0A2535"/>
<line x1="528.5" y1="323" x2="528.5" y2="357" stroke="#0A2535"/>
<line x1="528.5" y1="399" x2="528.5" y2="433" stroke="#0A2535"/>
<path d="M75.1816 244.201C74.2402 244.201 73.4961 244.516 72.9492 245.145C72.4062 245.77 72.1348 246.627 72.1348 247.717C72.1348 248.838 72.3965 249.705 72.9199 250.318C73.4473 250.928 74.1973 251.232 75.1699 251.232C75.7676 251.232 76.4492 251.125 77.2148 250.91V251.783C76.6211 252.006 75.8887 252.117 75.0176 252.117C73.7559 252.117 72.7812 251.734 72.0938 250.969C71.4102 250.203 71.0684 249.115 71.0684 247.705C71.0684 246.822 71.2324 246.049 71.5605 245.385C71.8926 244.721 72.3691 244.209 72.9902 243.85C73.6152 243.49 74.3496 243.311 75.1934 243.311C76.0918 243.311 76.877 243.475 77.5488 243.803L77.127 244.658C76.4785 244.354 75.8301 244.201 75.1816 244.201ZM79.9102 252H78.9375V242.883H79.9102V252ZM87.5156 248.783C87.5156 249.83 87.252 250.648 86.7246 251.238C86.1973 251.824 85.4688 252.117 84.5391 252.117C83.9648 252.117 83.4551 251.982 83.0098 251.713C82.5645 251.443 82.2207 251.057 81.9785 250.553C81.7363 250.049 81.6152 249.459 81.6152 248.783C81.6152 247.736 81.877 246.922 82.4004 246.34C82.9238 245.754 83.6504 245.461 84.5801 245.461C85.4785 245.461 86.1914 245.76 86.7188 246.357C87.25 246.955 87.5156 247.764 87.5156 248.783ZM82.623 248.783C82.623 249.604 82.7871 250.229 83.1152 250.658C83.4434 251.088 83.9258 251.303 84.5625 251.303C85.1992 251.303 85.6816 251.09 86.0098 250.664C86.3418 250.234 86.5078 249.607 86.5078 248.783C86.5078 247.967 86.3418 247.348 86.0098 246.926C85.6816 246.5 85.1953 246.287 84.5508 246.287C83.9141 246.287 83.4336 246.496 83.1094 246.914C82.7852 247.332 82.623 247.955 82.623 248.783ZM91.793 252.117C90.8633 252.117 90.1426 251.832 89.6309 251.262C89.123 250.688 88.8691 249.877 88.8691 248.83C88.8691 247.756 89.127 246.926 89.6426 246.34C90.1621 245.754 90.9004 245.461 91.8574 245.461C92.166 245.461 92.4746 245.494 92.7832 245.561C93.0918 245.627 93.334 245.705 93.5098 245.795L93.2109 246.621C92.9961 246.535 92.7617 246.465 92.5078 246.41C92.2539 246.352 92.0293 246.322 91.834 246.322C90.5293 246.322 89.877 247.154 89.877 248.818C89.877 249.607 90.0352 250.213 90.3516 250.635C90.6719 251.057 91.1445 251.268 91.7695 251.268C92.3047 251.268 92.8535 251.152 93.416 250.922V251.783C92.9863 252.006 92.4453 252.117 91.793 252.117ZM95.9062 248.713C96.0742 248.475 96.3301 248.162 96.6738 247.775L98.748 245.578H99.9023L97.3008 248.314L100.084 252H98.9062L96.6387 248.965L95.9062 249.598V252H94.9453V242.883H95.9062V247.717C95.9062 247.932 95.8906 248.264 95.8594 248.713H95.9062ZM104.514 252V243.434H105.51V252H104.514ZM112.113 252V247.846C112.113 247.322 111.994 246.932 111.756 246.674C111.518 246.416 111.145 246.287 110.637 246.287C109.965 246.287 109.473 246.469 109.16 246.832C108.848 247.195 108.691 247.795 108.691 248.631V252H107.719V245.578H108.51L108.668 246.457H108.715C108.914 246.141 109.193 245.896 109.553 245.725C109.912 245.549 110.312 245.461 110.754 245.461C111.527 245.461 112.109 245.648 112.5 246.023C112.891 246.395 113.086 246.99 113.086 247.811V252H112.113ZM121.459 243.434L118.266 252H117.293L120.486 243.434H121.459ZM133.312 247.705C133.312 249.076 132.965 250.154 132.27 250.939C131.578 251.725 130.615 252.117 129.381 252.117C128.119 252.117 127.145 251.732 126.457 250.963C125.773 250.189 125.432 249.1 125.432 247.693C125.432 246.299 125.775 245.219 126.463 244.453C127.15 243.684 128.127 243.299 129.393 243.299C130.623 243.299 131.584 243.689 132.275 244.471C132.967 245.252 133.312 246.33 133.312 247.705ZM126.486 247.705C126.486 248.865 126.732 249.746 127.225 250.348C127.721 250.945 128.439 251.244 129.381 251.244C130.33 251.244 131.047 250.945 131.531 250.348C132.016 249.75 132.258 248.869 132.258 247.705C132.258 246.553 132.016 245.68 131.531 245.086C131.051 244.488 130.338 244.189 129.393 244.189C128.443 244.189 127.721 244.49 127.225 245.092C126.732 245.689 126.486 246.561 126.486 247.705ZM135.996 245.578V249.744C135.996 250.268 136.115 250.658 136.354 250.916C136.592 251.174 136.965 251.303 137.473 251.303C138.145 251.303 138.635 251.119 138.943 250.752C139.256 250.385 139.412 249.785 139.412 248.953V245.578H140.385V252H139.582L139.441 251.139H139.389C139.189 251.455 138.912 251.697 138.557 251.865C138.205 252.033 137.803 252.117 137.35 252.117C136.568 252.117 135.982 251.932 135.592 251.561C135.205 251.189 135.012 250.596 135.012 249.779V245.578H135.996ZM144.527 251.314C144.699 251.314 144.865 251.303 145.025 251.279C145.186 251.252 145.312 251.225 145.406 251.197V251.941C145.301 251.992 145.145 252.033 144.938 252.064C144.734 252.1 144.551 252.117 144.387 252.117C143.145 252.117 142.523 251.463 142.523 250.154V246.334H141.604V245.865L142.523 245.461L142.934 244.09H143.496V245.578H145.359V246.334H143.496V250.113C143.496 250.5 143.588 250.797 143.771 251.004C143.955 251.211 144.207 251.314 144.527 251.314Z" fill="#0A2535"/>
<path d="M76.2129 269.512H79.125V273.678C78.6719 273.822 78.2109 273.932 77.7422 274.006C77.2734 274.08 76.7305 274.117 76.1133 274.117C74.8164 274.117 73.8066 273.732 73.084 272.963C72.3613 272.189 72 271.107 72 269.717C72 268.826 72.1777 268.047 72.5332 267.379C72.8926 266.707 73.4082 266.195 74.0801 265.844C74.752 265.488 75.5391 265.311 76.4414 265.311C77.3555 265.311 78.207 265.479 78.9961 265.814L78.6094 266.693C77.8359 266.365 77.0918 266.201 76.377 266.201C75.334 266.201 74.5195 266.512 73.9336 267.133C73.3477 267.754 73.0547 268.615 73.0547 269.717C73.0547 270.873 73.3359 271.75 73.8984 272.348C74.4648 272.945 75.2949 273.244 76.3887 273.244C76.9824 273.244 77.5625 273.176 78.1289 273.039V270.402H76.2129V269.512ZM86.6191 267.93C86.6191 268.797 86.3223 269.465 85.7285 269.934C85.1387 270.398 84.293 270.631 83.1914 270.631H82.1836V274H81.1875V265.434H83.4082C85.5488 265.434 86.6191 266.266 86.6191 267.93ZM82.1836 269.775H83.0801C83.9629 269.775 84.6016 269.633 84.9961 269.348C85.3906 269.062 85.5879 268.605 85.5879 267.977C85.5879 267.41 85.4023 266.988 85.0312 266.711C84.6602 266.434 84.082 266.295 83.2969 266.295H82.1836V269.775ZM93.252 271.721C93.252 272.475 92.9785 273.062 92.4316 273.484C91.8848 273.906 91.1426 274.117 90.2051 274.117C89.1895 274.117 88.4082 273.986 87.8613 273.725V272.764C88.2129 272.912 88.5957 273.029 89.0098 273.115C89.4238 273.201 89.834 273.244 90.2402 273.244C90.9043 273.244 91.4043 273.119 91.7402 272.869C92.0762 272.615 92.2441 272.264 92.2441 271.814C92.2441 271.518 92.1836 271.275 92.0625 271.088C91.9453 270.896 91.7461 270.721 91.4648 270.561C91.1875 270.4 90.7637 270.219 90.1934 270.016C89.3965 269.73 88.8262 269.393 88.4824 269.002C88.1426 268.611 87.9727 268.102 87.9727 267.473C87.9727 266.812 88.2207 266.287 88.7168 265.896C89.2129 265.506 89.8691 265.311 90.6855 265.311C91.5371 265.311 92.3203 265.467 93.0352 265.779L92.7246 266.646C92.0176 266.35 91.3301 266.201 90.6621 266.201C90.1348 266.201 89.7227 266.314 89.4258 266.541C89.1289 266.768 88.9805 267.082 88.9805 267.484C88.9805 267.781 89.0352 268.025 89.1445 268.217C89.2539 268.404 89.4375 268.578 89.6953 268.738C89.957 268.895 90.3555 269.068 90.8906 269.26C91.7891 269.58 92.4062 269.924 92.7422 270.291C93.082 270.658 93.252 271.135 93.252 271.721ZM98.1211 274V265.434H99.1172V273.098H102.896V274H98.1211ZM109.752 270.783C109.752 271.83 109.488 272.648 108.961 273.238C108.434 273.824 107.705 274.117 106.775 274.117C106.201 274.117 105.691 273.982 105.246 273.713C104.801 273.443 104.457 273.057 104.215 272.553C103.973 272.049 103.852 271.459 103.852 270.783C103.852 269.736 104.113 268.922 104.637 268.34C105.16 267.754 105.887 267.461 106.816 267.461C107.715 267.461 108.428 267.76 108.955 268.357C109.486 268.955 109.752 269.764 109.752 270.783ZM104.859 270.783C104.859 271.604 105.023 272.229 105.352 272.658C105.68 273.088 106.162 273.303 106.799 273.303C107.436 273.303 107.918 273.09 108.246 272.664C108.578 272.234 108.744 271.607 108.744 270.783C108.744 269.967 108.578 269.348 108.246 268.926C107.918 268.5 107.432 268.287 106.787 268.287C106.15 268.287 105.67 268.496 105.346 268.914C105.021 269.332 104.859 269.955 104.859 270.783ZM114.029 274.117C113.1 274.117 112.379 273.832 111.867 273.262C111.359 272.688 111.105 271.877 111.105 270.83C111.105 269.756 111.363 268.926 111.879 268.34C112.398 267.754 113.137 267.461 114.094 267.461C114.402 267.461 114.711 267.494 115.02 267.561C115.328 267.627 115.57 267.705 115.746 267.795L115.447 268.621C115.232 268.535 114.998 268.465 114.744 268.41C114.49 268.352 114.266 268.322 114.07 268.322C112.766 268.322 112.113 269.154 112.113 270.818C112.113 271.607 112.271 272.213 112.588 272.635C112.908 273.057 113.381 273.268 114.006 273.268C114.541 273.268 115.09 273.152 115.652 272.922V273.783C115.223 274.006 114.682 274.117 114.029 274.117ZM121.131 274L120.938 273.086H120.891C120.57 273.488 120.25 273.762 119.93 273.906C119.613 274.047 119.217 274.117 118.74 274.117C118.104 274.117 117.604 273.953 117.24 273.625C116.881 273.297 116.701 272.83 116.701 272.225C116.701 270.928 117.738 270.248 119.812 270.186L120.902 270.15V269.752C120.902 269.248 120.793 268.877 120.574 268.639C120.359 268.396 120.014 268.275 119.537 268.275C119.002 268.275 118.396 268.439 117.721 268.768L117.422 268.023C117.738 267.852 118.084 267.717 118.459 267.619C118.838 267.521 119.217 267.473 119.596 267.473C120.361 267.473 120.928 267.643 121.295 267.982C121.666 268.322 121.852 268.867 121.852 269.617V274H121.131ZM118.934 273.314C119.539 273.314 120.014 273.148 120.357 272.816C120.705 272.484 120.879 272.02 120.879 271.422V270.842L119.906 270.883C119.133 270.91 118.574 271.031 118.23 271.246C117.891 271.457 117.721 271.787 117.721 272.236C117.721 272.588 117.826 272.855 118.037 273.039C118.252 273.223 118.551 273.314 118.934 273.314ZM125.936 273.314C126.107 273.314 126.273 273.303 126.434 273.279C126.594 273.252 126.721 273.225 126.814 273.197V273.941C126.709 273.992 126.553 274.033 126.346 274.064C126.143 274.1 125.959 274.117 125.795 274.117C124.553 274.117 123.932 273.463 123.932 272.154V268.334H123.012V267.865L123.932 267.461L124.342 266.09H124.904V267.578H126.768V268.334H124.904V272.113C124.904 272.5 124.996 272.797 125.18 273.004C125.363 273.211 125.615 273.314 125.936 273.314ZM129.076 274H128.104V267.578H129.076V274ZM128.021 265.838C128.021 265.615 128.076 265.453 128.186 265.352C128.295 265.246 128.432 265.193 128.596 265.193C128.752 265.193 128.887 265.246 129 265.352C129.113 265.457 129.17 265.619 129.17 265.838C129.17 266.057 129.113 266.221 129 266.33C128.887 266.436 128.752 266.488 128.596 266.488C128.432 266.488 128.295 266.436 128.186 266.33C128.076 266.221 128.021 266.057 128.021 265.838ZM136.682 270.783C136.682 271.83 136.418 272.648 135.891 273.238C135.363 273.824 134.635 274.117 133.705 274.117C133.131 274.117 132.621 273.982 132.176 273.713C131.73 273.443 131.387 273.057 131.145 272.553C130.902 272.049 130.781 271.459 130.781 270.783C130.781 269.736 131.043 268.922 131.566 268.34C132.09 267.754 132.816 267.461 133.746 267.461C134.645 267.461 135.357 267.76 135.885 268.357C136.416 268.955 136.682 269.764 136.682 270.783ZM131.789 270.783C131.789 271.604 131.953 272.229 132.281 272.658C132.609 273.088 133.092 273.303 133.729 273.303C134.365 273.303 134.848 273.09 135.176 272.664C135.508 272.234 135.674 271.607 135.674 270.783C135.674 269.967 135.508 269.348 135.176 268.926C134.848 268.5 134.361 268.287 133.717 268.287C133.08 268.287 132.6 268.496 132.275 268.914C131.951 269.332 131.789 269.955 131.789 270.783ZM142.787 274V269.846C142.787 269.322 142.668 268.932 142.43 268.674C142.191 268.416 141.818 268.287 141.311 268.287C140.639 268.287 140.146 268.469 139.834 268.832C139.521 269.195 139.365 269.795 139.365 270.631V274H138.393V267.578H139.184L139.342 268.457H139.389C139.588 268.141 139.867 267.896 140.227 267.725C140.586 267.549 140.986 267.461 141.428 267.461C142.201 267.461 142.783 267.648 143.174 268.023C143.564 268.395 143.76 268.99 143.76 269.811V274H142.787Z" fill="#0A2535"/>
<rect x="447" y="92" width="163" height="42" fill="white" stroke="#68C6A4" stroke-width="2"/>
<path d="M502.375 115.898C502.375 116.914 502.008 117.711 501.273 118.289C500.539 118.867 499.526 119.156 498.234 119.156C496.943 119.156 495.885 118.956 495.062 118.555V116.789C495.583 117.034 496.135 117.227 496.719 117.367C497.307 117.508 497.854 117.578 498.359 117.578C499.099 117.578 499.643 117.438 499.992 117.156C500.346 116.875 500.523 116.497 500.523 116.023C500.523 115.596 500.362 115.234 500.039 114.938C499.716 114.641 499.049 114.289 498.039 113.883C496.997 113.461 496.263 112.979 495.836 112.438C495.409 111.896 495.195 111.245 495.195 110.484C495.195 109.531 495.534 108.781 496.211 108.234C496.888 107.688 497.797 107.414 498.938 107.414C500.031 107.414 501.12 107.654 502.203 108.133L501.609 109.656C500.594 109.229 499.688 109.016 498.891 109.016C498.286 109.016 497.828 109.148 497.516 109.414C497.203 109.674 497.047 110.021 497.047 110.453C497.047 110.75 497.109 111.005 497.234 111.219C497.359 111.427 497.565 111.625 497.852 111.812C498.138 112 498.654 112.247 499.398 112.555C500.237 112.904 500.852 113.229 501.242 113.531C501.633 113.833 501.919 114.174 502.102 114.555C502.284 114.935 502.375 115.383 502.375 115.898ZM507.609 117.672C508.057 117.672 508.505 117.602 508.953 117.461V118.844C508.75 118.932 508.487 119.005 508.164 119.062C507.846 119.125 507.516 119.156 507.172 119.156C505.432 119.156 504.562 118.24 504.562 116.406V111.75H503.383V110.938L504.648 110.266L505.273 108.438H506.406V110.359H508.867V111.75H506.406V116.375C506.406 116.818 506.516 117.146 506.734 117.359C506.958 117.568 507.25 117.672 507.609 117.672ZM516.094 119L515.727 117.797H515.664C515.247 118.323 514.828 118.682 514.406 118.875C513.984 119.062 513.443 119.156 512.781 119.156C511.932 119.156 511.268 118.927 510.789 118.469C510.315 118.01 510.078 117.362 510.078 116.523C510.078 115.633 510.409 114.961 511.07 114.508C511.732 114.055 512.74 113.807 514.094 113.766L515.586 113.719V113.258C515.586 112.706 515.456 112.294 515.195 112.023C514.94 111.747 514.542 111.609 514 111.609C513.557 111.609 513.133 111.674 512.727 111.805C512.32 111.935 511.93 112.089 511.555 112.266L510.961 110.953C511.43 110.708 511.943 110.523 512.5 110.398C513.057 110.268 513.583 110.203 514.078 110.203C515.177 110.203 516.005 110.443 516.562 110.922C517.125 111.401 517.406 112.154 517.406 113.18V119H516.094ZM513.359 117.75C514.026 117.75 514.56 117.565 514.961 117.195C515.367 116.82 515.57 116.297 515.57 115.625V114.875L514.461 114.922C513.596 114.953 512.966 115.099 512.57 115.359C512.18 115.615 511.984 116.008 511.984 116.539C511.984 116.924 512.099 117.224 512.328 117.438C512.557 117.646 512.901 117.75 513.359 117.75ZM524.352 110.203C524.721 110.203 525.026 110.229 525.266 110.281L525.086 111.992C524.826 111.93 524.555 111.898 524.273 111.898C523.539 111.898 522.943 112.138 522.484 112.617C522.031 113.096 521.805 113.719 521.805 114.484V119H519.969V110.359H521.406L521.648 111.883H521.742C522.029 111.367 522.401 110.958 522.859 110.656C523.323 110.354 523.82 110.203 524.352 110.203ZM530.094 117.672C530.542 117.672 530.99 117.602 531.438 117.461V118.844C531.234 118.932 530.971 119.005 530.648 119.062C530.331 119.125 530 119.156 529.656 119.156C527.917 119.156 527.047 118.24 527.047 116.406V111.75H525.867V110.938L527.133 110.266L527.758 108.438H528.891V110.359H531.352V111.75H528.891V116.375C528.891 116.818 529 117.146 529.219 117.359C529.443 117.568 529.734 117.672 530.094 117.672ZM545.086 111.031C545.086 112.224 544.695 113.138 543.914 113.773C543.133 114.409 542.021 114.727 540.578 114.727H539.391V119H537.523V107.578H540.812C542.24 107.578 543.307 107.87 544.016 108.453C544.729 109.036 545.086 109.896 545.086 111.031ZM539.391 113.156H540.383C541.341 113.156 542.044 112.99 542.492 112.656C542.94 112.323 543.164 111.802 543.164 111.094C543.164 110.438 542.964 109.948 542.562 109.625C542.161 109.302 541.536 109.141 540.688 109.141H539.391V113.156ZM552.578 119L552.211 117.797H552.148C551.732 118.323 551.312 118.682 550.891 118.875C550.469 119.062 549.927 119.156 549.266 119.156C548.417 119.156 547.753 118.927 547.273 118.469C546.799 118.01 546.562 117.362 546.562 116.523C546.562 115.633 546.893 114.961 547.555 114.508C548.216 114.055 549.224 113.807 550.578 113.766L552.07 113.719V113.258C552.07 112.706 551.94 112.294 551.68 112.023C551.424 111.747 551.026 111.609 550.484 111.609C550.042 111.609 549.617 111.674 549.211 111.805C548.805 111.935 548.414 112.089 548.039 112.266L547.445 110.953C547.914 110.708 548.427 110.523 548.984 110.398C549.542 110.268 550.068 110.203 550.562 110.203C551.661 110.203 552.49 110.443 553.047 110.922C553.609 111.401 553.891 112.154 553.891 113.18V119H552.578ZM549.844 117.75C550.51 117.75 551.044 117.565 551.445 117.195C551.852 116.82 552.055 116.297 552.055 115.625V114.875L550.945 114.922C550.081 114.953 549.451 115.099 549.055 115.359C548.664 115.615 548.469 116.008 548.469 116.539C548.469 116.924 548.583 117.224 548.812 117.438C549.042 117.646 549.385 117.75 549.844 117.75ZM555.141 110.359H557.141L558.898 115.258C559.164 115.956 559.341 116.612 559.43 117.227H559.492C559.539 116.94 559.625 116.594 559.75 116.188C559.875 115.776 560.536 113.833 561.734 110.359H563.719L560.023 120.148C559.352 121.945 558.232 122.844 556.664 122.844C556.258 122.844 555.862 122.799 555.477 122.711V121.258C555.753 121.32 556.068 121.352 556.422 121.352C557.307 121.352 557.93 120.839 558.289 119.812L558.609 119L555.141 110.359Z" fill="#0A2535"/>
</svg>
