<svg width="870" height="568" viewBox="0 0 870 568" fill="none" xmlns="http://www.w3.org/2000/svg">
<rect width="870" height="568" fill="white"/>
<rect x="332" y="215" width="205" height="138" fill="white" stroke="#68C6A4" stroke-width="2"/>
<rect x="390" y="273" width="26" height="11" fill="white" stroke="#0A2535" stroke-width="2"/>
<rect x="390" y="291" width="26" height="11" fill="white" stroke="#0A2535" stroke-width="2"/>
<rect x="390" y="309" width="26" height="11" fill="white" stroke="#0A2535" stroke-width="2"/>
<rect x="390" y="327" width="26" height="11" fill="white" stroke="#0A2535" stroke-width="2"/>
<rect x="422" y="273" width="26" height="11" fill="white" stroke="#0A2535" stroke-width="2"/>
<rect x="422" y="291" width="26" height="11" fill="white" stroke="#0A2535" stroke-width="2"/>
<rect x="422" y="309" width="26" height="11" fill="white" stroke="#0A2535" stroke-width="2"/>
<rect x="422" y="327" width="26" height="11" fill="white" stroke="#0A2535" stroke-width="2"/>
<rect x="454" y="273" width="26" height="11" fill="white" stroke="#0A2535" stroke-width="2"/>
<rect x="454" y="291" width="26" height="11" fill="white" stroke="#0A2535" stroke-width="2"/>
<rect x="454" y="309" width="26" height="11" fill="white" stroke="#0A2535" stroke-width="2"/>
<rect x="454" y="327" width="26" height="11" fill="white" stroke="#0A2535" stroke-width="2"/>
<rect x="486" y="273" width="26" height="11" fill="white" stroke="#0A2535" stroke-width="2"/>
<rect x="486" y="291" width="26" height="11" fill="white" stroke="#0A2535" stroke-width="2"/>
<rect x="486" y="309" width="26" height="11" fill="white" stroke="#0A2535" stroke-width="2"/>
<rect x="486" y="327" width="26" height="11" fill="white" stroke="#0A2535" stroke-width="2"/>
<rect x="331" y="214" width="207" height="12" fill="#68C6A4"/>
<circle cx="339" cy="220" r="2" fill="white"/>
<circle cx="347" cy="220" r="2" fill="white"/>
<circle cx="355" cy="220" r="2" fill="white"/>
<rect x="356" y="277" width="25" height="3" fill="#68C6A4"/>
<rect x="389" y="242" width="124" height="3" fill="#68C6A4"/>
<rect x="356" y="313" width="25" height="3" fill="#68C6A4"/>
<rect x="356" y="331" width="25" height="3" fill="#68C6A4"/>
<rect x="356" y="295" width="25" height="3" fill="#68C6A4"/>
<rect x="389" y="254" width="28" height="13" fill="#0A2535"/>
<rect x="421" y="254" width="28" height="13" fill="#0A2535"/>
<rect x="453" y="254" width="28" height="13" fill="#0A2535"/>
<rect x="485" y="254" width="28" height="13" fill="#0A2535"/>
<rect x="332" y="59" width="205" height="138" fill="white" stroke="#68C6A4" stroke-width="2"/>
<rect x="331" y="58" width="207" height="12" fill="#68C6A4"/>
<circle cx="339" cy="64" r="2" fill="white"/>
<circle cx="347" cy="64" r="2" fill="white"/>
<circle cx="355" cy="64" r="2" fill="white"/>
<rect x="332" y="371" width="205" height="138" fill="white" stroke="#68C6A4" stroke-width="2"/>
<rect x="331" y="370" width="207" height="12" fill="#68C6A4"/>
<circle cx="339" cy="376" r="2" fill="white"/>
<circle cx="347" cy="376" r="2" fill="white"/>
<circle cx="355" cy="376" r="2" fill="white"/>
<rect x="345" y="89" width="25" height="3" fill="#68C6A4"/>
<rect x="345" y="95" width="25" height="3" fill="#68C6A4"/>
<rect x="345" y="101" width="25" height="3" fill="#68C6A4"/>
<rect x="345" y="107" width="25" height="3" fill="#68C6A4"/>
<rect x="345" y="113" width="25" height="3" fill="#68C6A4"/>
<rect x="345" y="119" width="25" height="3" fill="#68C6A4"/>
<rect x="345" y="125" width="25" height="3" fill="#68C6A4"/>
<line x1="434.5" y1="214" x2="434.5" y2="198" stroke="#0A2535"/>
<line x1="434.5" y1="370" x2="434.5" y2="354" stroke="#0A2535"/>
<rect x="497" y="89" width="28" height="3" fill="#68C6A4"/>
<rect x="497" y="95" width="28" height="3" fill="#68C6A4"/>
<rect x="386" y="149" width="99" height="3" fill="#68C6A4"/>
<rect x="386" y="155" width="99" height="3" fill="#68C6A4"/>
<rect x="386" y="161" width="99" height="3" fill="#68C6A4"/>
<rect x="365" y="403" width="62" height="3" fill="#68C6A4"/>
<rect x="365" y="409" width="62" height="3" fill="#68C6A4"/>
<rect x="365" y="415" width="62" height="3" fill="#68C6A4"/>
<rect x="365" y="426" width="62" height="3" fill="#68C6A4"/>
<rect x="365" y="432" width="62" height="3" fill="#68C6A4"/>
<rect x="365" y="438" width="62" height="3" fill="#68C6A4"/>
<rect x="365" y="449" width="62" height="3" fill="#68C6A4"/>
<rect x="365" y="455" width="62" height="3" fill="#68C6A4"/>
<rect x="365" y="461" width="62" height="3" fill="#68C6A4"/>
<rect x="365" y="472" width="62" height="3" fill="#68C6A4"/>
<rect x="365" y="478" width="62" height="3" fill="#68C6A4"/>
<rect x="365" y="484" width="62" height="3" fill="#68C6A4"/>
<rect x="443" y="403" width="62" height="3" fill="#68C6A4"/>
<rect x="443" y="409" width="62" height="3" fill="#68C6A4"/>
<rect x="443" y="415" width="62" height="3" fill="#68C6A4"/>
<rect x="443" y="426" width="62" height="3" fill="#68C6A4"/>
<rect x="443" y="432" width="62" height="3" fill="#68C6A4"/>
<rect x="443" y="438" width="62" height="3" fill="#68C6A4"/>
<rect x="443" y="449" width="62" height="3" fill="#68C6A4"/>
<rect x="443" y="455" width="62" height="3" fill="#68C6A4"/>
<rect x="443" y="461" width="62" height="3" fill="#68C6A4"/>
<rect x="443" y="472" width="62" height="3" fill="#68C6A4"/>
<rect x="443" y="478" width="62" height="3" fill="#68C6A4"/>
<rect x="443" y="484" width="62" height="3" fill="#68C6A4"/>
<rect x="386" y="89" width="99" height="53" fill="#68C6A4"/>
<rect x="331" y="214" width="207" height="140" fill="#0A2535" fill-opacity="0.44"/>
<rect x="449" y="215" width="88" height="138" fill="white" stroke="#68C6A4" stroke-width="2"/>
<rect x="497" y="245" width="26" height="11" fill="white" stroke="#0A2535" stroke-width="2"/>
<rect x="465" y="247" width="23" height="3" fill="#68C6A4"/>
<rect x="465" y="253" width="23" height="3" fill="#68C6A4"/>
<rect x="465" y="264" width="23" height="3" fill="#68C6A4"/>
<rect x="465" y="270" width="23" height="3" fill="#68C6A4"/>
<rect x="465" y="282" width="23" height="3" fill="#68C6A4"/>
<rect x="465" y="288" width="23" height="3" fill="#68C6A4"/>
<rect x="465" y="300" width="23" height="3" fill="#68C6A4"/>
<rect x="465" y="306" width="23" height="3" fill="#68C6A4"/>
<rect x="465" y="318" width="23" height="3" fill="#68C6A4"/>
<rect x="465" y="324" width="23" height="3" fill="#68C6A4"/>
<rect x="497" y="263" width="26" height="11" fill="white" stroke="#0A2535" stroke-width="2"/>
<rect x="497" y="281" width="26" height="11" fill="white" stroke="#0A2535" stroke-width="2"/>
<rect x="497" y="299" width="26" height="11" fill="white" stroke="#0A2535" stroke-width="2"/>
<rect x="497" y="317" width="26" height="11" fill="white" stroke="#0A2535" stroke-width="2"/>
</svg>
